<?xml version="1.0" encoding="utf-8"?>
<!-- Generator: Adobe Illustrator 18.1.0, SVG Export Plug-In . SVG Version: 6.00 Build 0)  -->
<!DOCTYPE svg PUBLIC "-//W3C//DTD SVG 1.1//EN" "http://www.w3.org/Graphics/SVG/1.1/DTD/svg11.dtd">
<svg version="1.1" id="Layer_1" xmlns="http://www.w3.org/2000/svg" xmlns:xlink="http://www.w3.org/1999/xlink" x="0px" y="0px"
	 width="242.3px" height="175px" viewBox="-223 309.6 242.3 175" enable-background="new -223 309.6 242.3 175"
	 xml:space="preserve">
<polygon fill="#ED8222" points="-123.6,388.3 -139.7,388.3 -139.7,372.3 -153.7,372.3 -153.7,388.3 -169.8,388.3 -169.8,402.4 
	-153.7,402.4 -153.7,418.4 -139.7,418.4 -139.7,402.4 -123.6,402.4 "/>
<path fill="#FFFFFF" stroke="#92BFD4" stroke-width="4" stroke-miterlimit="10" d="M-65.9,332.3l-30,30c-4.6-0.3-9.2,1.3-12.7,4.8
	l-25,25c-3.5,3.5-5.1,8.2-4.8,12.7l-30,30c-7.3,7.3-7.3,19,0,26.3l14.5,14.5c7.3,7.3,19,7.3,26.3,0l30-30c4.6,0.3,9.2-1.3,12.7-4.8
	l25-25c3.5-3.5,5.1-8.1,4.8-12.7l30-30c7.3-7.3,7.3-19,0-26.3l-14.5-14.5C-46.9,325.1-58.7,325.1-65.9,332.3z M-109.6,440.6
	L-135,466c-2.7,2.7-7.2,2.7-9.9,0l-13.6-13.6c-2.7-2.7-2.7-7.2,0-9.9l25.4-25.4L-109.6,440.6z M-73.8,400.8c1.7,1.7,1.7,4.5,0,6.3
	L-93.7,427c-1.7,1.7-4.5,1.7-6.3,0l-19.9-19.9c-1.7-1.7-1.7-4.5,0-6.3l19.9-19.9c1.7-1.7,4.5-1.7,6.3,0L-73.8,400.8z"/>
<circle fill="#013354" cx="-144.8" cy="443.6" r="4.4"/>
<circle fill="#013354" cx="-136.5" cy="451.9" r="4.4"/>
<circle fill="#013354" cx="-136.5" cy="435.2" r="4.4"/>
<path fill="#013354" d="M-124.9,440.4c1.7,1.7,1.7,4.5,0,6.3c-1.7,1.7-4.5,1.7-6.3,0c-1.7-1.7-1.7-4.5,0-6.3
	C-129.5,438.7-126.7,438.7-124.9,440.4z"/>
<path fill="none" stroke="#92BFD4" stroke-width="4" stroke-miterlimit="10" d="M-82.9,366.8l25.4-25.4c2.7-2.7,7.2-2.7,9.9,0
	l13.6,13.6c2.7,2.7,2.7,7.2,0,9.9l-25.4,25.4L-82.9,366.8z"/>
<circle fill="#013354" cx="-47.7" cy="363.9" r="4.4"/>
<circle fill="#013354" cx="-56.1" cy="355.5" r="4.4"/>
<circle fill="#013354" cx="-56.1" cy="372.3" r="4.4"/>
<path fill="#013354" d="M-67.6,367c-1.7-1.7-1.7-4.5,0-6.3c1.7-1.7,4.5-1.7,6.3,0c1.7,1.7,1.7,4.5,0,6.3
	C-63.1,368.8-65.9,368.8-67.6,367z"/>
<polygon fill="#ED8222" points="-109.7,346.1 -121.1,346.1 -121.1,334.7 -131,334.7 -131,346.1 -142.4,346.1 -142.4,356.1 
	-131,356.1 -131,367.4 -121.1,367.4 -121.1,356.1 -109.7,356.1 "/>
<polygon fill="#ED8222" points="-162.7,344.9 -170.5,344.9 -170.5,337.1 -177.3,337.1 -177.3,344.9 -185.1,344.9 -185.1,351.7 
	-177.3,351.7 -177.3,359.5 -170.5,359.5 -170.5,351.7 -162.7,351.7 "/>
<polygon fill="#ED8222" points="-140.4,318.5 -146.1,318.5 -146.1,312.8 -151.1,312.8 -151.1,318.5 -156.8,318.5 -156.8,323.5 
	-151.1,323.5 -151.1,329.2 -146.1,329.2 -146.1,323.5 -140.4,323.5 "/>
</svg>
