<?xml version="1.0" encoding="utf-8"?>
<!-- Generator: Adobe Illustrator 16.0.0, SVG Export Plug-In . SVG Version: 6.00 Build 0)  -->
<!DOCTYPE svg PUBLIC "-//W3C//DTD SVG 1.1//EN" "http://www.w3.org/Graphics/SVG/1.1/DTD/svg11.dtd">
<svg version="1.1" id="Layer_1" xmlns="http://www.w3.org/2000/svg" xmlns:xlink="http://www.w3.org/1999/xlink" x="0px" y="0px"
	 width="142.237px" height="142.235px" viewBox="0 0 142.237 142.235" enable-background="new 0 0 142.237 142.235"
	 xml:space="preserve">
<g>
	<path fill="none" stroke="#92BFD4" stroke-width="2" stroke-miterlimit="10" d="M99.22,5.95L71.931,33.237
		c-4.162-0.238-8.394,1.22-11.573,4.403L37.639,60.355c-3.18,3.182-4.641,7.416-4.399,11.575L5.95,99.219
		c-6.6,6.599-6.6,17.313,0,23.914l13.155,13.152c6.599,6.599,17.315,6.599,23.913,0L70.305,109c4.16,0.239,8.394-1.221,11.574-4.402
		l22.719-22.72c3.182-3.18,4.642-7.412,4.402-11.573l27.287-27.29c6.6-6.597,6.6-17.315,0-23.914L123.135,5.949
		C116.534-0.65,105.821-0.65,99.22,5.95z M60.358,104.597l-24.512,24.515c-2.633,2.631-6.938,2.631-9.568,0l-13.154-13.153
		c-2.627-2.63-2.629-6.934,0-9.565L37.637,81.88L60.358,104.597z M97.426,67.532c1.988,1.985,1.988,5.191,0,7.176L74.706,97.426
		c-1.984,1.987-5.189,1.987-7.174,0l-22.72-22.721c-1.984-1.985-1.984-5.188,0-7.176l22.72-22.718c1.984-1.987,5.189-1.987,7.174,0
		L97.426,67.532z M129.113,26.277c2.63,2.631,2.63,6.938,0,9.567l-24.515,24.511L81.881,37.64l24.512-24.515
		c2.63-2.631,6.936-2.631,9.566,0L129.113,26.277z"/>
	<circle fill="none" stroke="#92BFD4" stroke-width="2" stroke-miterlimit="10" cx="24.934" cy="107.738" r="5.075"/>
	<circle fill="none" stroke="#92BFD4" stroke-width="2" stroke-miterlimit="10" cx="34.5" cy="117.306" r="5.073"/>
	<circle fill="none" stroke="#92BFD4" stroke-width="2" stroke-miterlimit="10" cx="34.5" cy="98.172" r="5.072"/>
	<circle fill="none" stroke="#92BFD4" stroke-width="2" stroke-miterlimit="10" cx="44.067" cy="107.738" r="5.073"/>
	<circle fill="none" stroke="#92BFD4" stroke-width="2" stroke-miterlimit="10" cx="98.274" cy="34.398" r="5.076"/>
	<path fill="none" stroke="#92BFD4" stroke-width="2" stroke-miterlimit="10" d="M111.426,40.378c1.984,1.981,1.984,5.193,0,7.173
		c-1.98,1.98-5.193,1.983-7.172,0c-1.986-1.982-1.984-5.194,0-7.173C106.231,38.395,109.446,38.394,111.426,40.378z"/>
	<path fill="none" stroke="#92BFD4" stroke-width="2" stroke-miterlimit="10" d="M111.426,21.247c1.984,1.981,1.984,5.193,0,7.175
		c-1.98,1.979-5.193,1.981-7.172,0c-1.986-1.984-1.984-5.193,0-7.175C106.231,19.263,109.446,19.262,111.426,21.247z"/>
	<path fill="none" stroke="#92BFD4" stroke-width="2" stroke-miterlimit="10" d="M120.993,30.81c1.985,1.985,1.982,5.194,0,7.177
		c-1.979,1.981-5.194,1.982-7.174,0c-1.984-1.982-1.984-5.194,0-7.177C115.801,28.832,119.01,28.829,120.993,30.81z"/>
</g>
</svg>
