<?xml version="1.0" encoding="utf-8"?>
<!-- Generator: Adobe Illustrator 16.0.0, SVG Export Plug-In . SVG Version: 6.00 Build 0)  -->
<!DOCTYPE svg PUBLIC "-//W3C//DTD SVG 1.1//EN" "http://www.w3.org/Graphics/SVG/1.1/DTD/svg11.dtd">
<svg version="1.1" id="Layer_1" xmlns="http://www.w3.org/2000/svg" xmlns:xlink="http://www.w3.org/1999/xlink" x="0px" y="0px"
	 width="181.066px" height="141.882px" viewBox="0 0 181.066 141.882" enable-background="new 0 0 181.066 141.882"
	 xml:space="preserve">
<g>
	<path fill="none" stroke="#92BFD4" stroke-width="2" stroke-miterlimit="10" d="M70.897-140.179l-27.289,27.287
		c-4.162-0.238-8.394,1.22-11.573,4.403L9.316-85.774c-3.18,3.182-4.641,7.416-4.399,11.575l-27.29,27.289
		c-6.6,6.599-6.6,17.313,0,23.914L-9.218-9.843c6.599,6.599,17.315,6.599,23.913,0l27.287-27.286
		c4.16,0.239,8.394-1.221,11.574-4.402l22.719-22.72c3.182-3.18,4.642-7.412,4.402-11.573l27.287-27.29
		c6.6-6.597,6.6-17.315,0-23.914L94.812-140.18C88.211-146.779,77.498-146.779,70.897-140.179z M32.035-41.532L7.523-17.017
		c-2.633,2.631-6.938,2.631-9.568,0L-15.199-30.17c-2.627-2.63-2.629-6.934,0-9.565L9.314-64.249L32.035-41.532z M69.104-78.597
		c1.988,1.985,1.988,5.191,0,7.176L46.383-48.703c-1.984,1.987-5.189,1.987-7.174,0l-22.72-22.721c-1.984-1.985-1.984-5.188,0-7.176
		l22.72-22.718c1.984-1.987,5.189-1.987,7.174,0L69.104-78.597z M100.79-119.852c2.63,2.631,2.63,6.938,0,9.567L76.275-85.774
		l-22.717-22.715l24.512-24.515c2.63-2.631,6.936-2.631,9.566,0L100.79-119.852z"/>
	<circle fill="none" stroke="#92BFD4" stroke-width="2" stroke-miterlimit="10" cx="-3.389" cy="-38.391" r="5.075"/>
	<circle fill="none" stroke="#92BFD4" stroke-width="2" stroke-miterlimit="10" cx="6.178" cy="-28.823" r="5.073"/>
	<circle fill="none" stroke="#92BFD4" stroke-width="2" stroke-miterlimit="10" cx="6.178" cy="-47.957" r="5.072"/>
	<circle fill="none" stroke="#92BFD4" stroke-width="2" stroke-miterlimit="10" cx="15.744" cy="-38.391" r="5.073"/>
	<circle fill="none" stroke="#92BFD4" stroke-width="2" stroke-miterlimit="10" cx="69.951" cy="-111.73" r="5.076"/>
	<path fill="none" stroke="#92BFD4" stroke-width="2" stroke-miterlimit="10" d="M83.104-105.75c1.984,1.981,1.984,5.193,0,7.173
		c-1.98,1.98-5.193,1.983-7.172,0c-1.986-1.982-1.984-5.194,0-7.173C77.908-107.734,81.123-107.735,83.104-105.75z"/>
	<path fill="none" stroke="#92BFD4" stroke-width="2" stroke-miterlimit="10" d="M83.104-124.882c1.984,1.981,1.984,5.193,0,7.175
		c-1.98,1.979-5.193,1.981-7.172,0c-1.986-1.984-1.984-5.193,0-7.175C77.908-126.866,81.123-126.867,83.104-124.882z"/>
	<path fill="none" stroke="#92BFD4" stroke-width="2" stroke-miterlimit="10" d="M92.67-115.319c1.985,1.985,1.982,5.194,0,7.177
		c-1.979,1.981-5.194,1.982-7.174,0c-1.984-1.982-1.984-5.194,0-7.177C87.479-117.297,90.688-117.3,92.67-115.319z"/>
</g>
<g>
	<path fill="none" stroke="#92BFD4" stroke-width="2" stroke-miterlimit="10" d="M124.498,86.673
		c6.316-12.706,6.585-27.531,0.132-40.215c-5.192-10.165-13.479-17.686-23.871-21.41V1H1v139.882h99.758v-32.434
		c2.078-0.647,3.246-1.396,4.925-2.265c4.3-2.225,8.005-5.141,11.346-8.652l55.34,37.603l7.316-11.028L124.498,86.673z
		 M92.448,132.489H9.313V9.395h83.135v13.631c-1.24-0.227-2.686-0.475-4.159-0.646v-6.008H13.471v6.298h64.094
		c-2.633,0.384-5.228,1.033-7.729,2.1c-0.836,0.459-3.113,1.456-4.607,2.235c-1.264,0.656-2.479,1.21-3.646,1.962H13.471v6.297
		h41.188c-0.692,0.698-1.395,1.4-2.038,2.099c-1.101,1.399-2.095,2.797-3.045,4.197H13.471v6.298h32.567
		c-0.329,0.7-0.667,1.401-0.958,2.1c-0.831,2.099-1.523,2.099-2.073,4.197H13.471v6.299h28.348c-0.253,2.099-0.38,4.197-0.373,6.298
		H13.471v6.294h28.394c0.277,2.1,0.682,4.198,1.239,6.29H13.471v6.302h31.783h0.336c1.284,2.57,2.68,4.634,3.942,6.293H13.471v6.298
		h41.813c2.036,1.75,5.022,4.094,8.358,6.3H13.471v6.297h65.475c2.065,0.231,4.174,0.303,6.333,0.303
		c0.353,0,0.933-0.055,0.933-0.062c2.076-0.048,4.157-0.236,6.233-0.561v21.986H92.448z M92.448,96.963v-0.83H77.511
		c-4.281,0-8.242-2.103-11.632-6.297h26.569V79.334H88.29H57.06c-0.815-2.094-1.433-4.191-1.842-6.294
		c-0.131-0.699-0.208-1.399-0.296-2.098h37.526V58.35H55.678c0.122-0.655,0.252-1.326,0.403-1.79
		c0.244-0.764,0.47-1.574,0.828-2.407c0.296-0.73,0.616-1.459,0.957-2.098h34.583V39.459H71.347
		c1.627-0.87,5.681-3.587,13.973-3.656c2.422-0.02,5.049,0.213,7.128,0.757c2.079,0.65,6.233,1.682,8.312,3.051v54.264
		C100.758,94.029,96.602,95.958,92.448,96.963z M113.229,80.875V52.628C117.886,61.834,117.568,72.304,113.229,80.875z"/>
	
		<rect x="13.471" y="117.118" fill="none" stroke="#92BFD4" stroke-width="2" stroke-miterlimit="10" width="74.818" height="6.302"/>
</g>
</svg>
