<?xml version="1.0" encoding="utf-8"?>
<!-- Generator: Adobe Illustrator 18.1.0, SVG Export Plug-In . SVG Version: 6.00 Build 0)  -->
<!DOCTYPE svg PUBLIC "-//W3C//DTD SVG 1.1//EN" "http://www.w3.org/Graphics/SVG/1.1/DTD/svg11.dtd">
<svg version="1.1" id="Layer_1" xmlns="http://www.w3.org/2000/svg" xmlns:xlink="http://www.w3.org/1999/xlink" x="0px" y="0px"
	 width="181.1px" height="141.9px" viewBox="-58 80.1 181.1 141.9" enable-background="new -58 80.1 181.1 141.9"
	 xml:space="preserve">
<g>
	<path fill="none" stroke="#92BFD4" stroke-width="2" stroke-miterlimit="10" d="M66.5,166.8c6.3-12.7,6.6-27.5,0.1-40.2
		c-5.2-10.2-13.5-17.7-23.9-21.4v-24H-57V221h99.8v-32.4c2.1-0.6,3.2-1.4,4.9-2.3c4.3-2.2,8-5.1,11.3-8.7l55.3,37.6l7.3-11
		L66.5,166.8z M34.4,212.6h-83.1V89.5h83.1v13.6c-1.2-0.2-2.7-0.5-4.2-0.6v-6h-74.8v6.3h64.1c-2.6,0.4-5.2,1-7.7,2.1
		c-0.8,0.5-3.1,1.5-4.6,2.2c-1.3,0.7-2.5,1.2-3.6,2h-48.1v6.3h41.2c-0.7,0.7-1.4,1.4-2,2.1c-1.1,1.4-2.1,2.8-3,4.2h-36.1v6.3H-12
		c-0.3,0.7-0.7,1.4-1,2.1c-0.8,2.1-1.5,2.1-2.1,4.2h-29.5v6.3h28.3c-0.3,2.1-0.4,4.2-0.4,6.3h-28v6.3h28.4c0.3,2.1,0.7,4.2,1.2,6.3
		h-29.6v6.3h31.8h0.3c1.3,2.6,2.7,4.6,3.9,6.3h-36.1v6.3h41.8c2,1.8,5,4.1,8.4,6.3h-50.2v6.3h65.5c2.1,0.2,4.2,0.3,6.3,0.3
		c0.4,0,0.9-0.1,0.9-0.1c2.1,0,4.2-0.2,6.2-0.6L34.4,212.6L34.4,212.6L34.4,212.6z M34.4,177.1v-0.8H19.5c-4.3,0-8.2-2.1-11.6-6.3
		h26.6v-10.5h-4.2H-0.9c-0.8-2.1-1.4-4.2-1.8-6.3c-0.1-0.7-0.2-1.4-0.3-2.1h37.5v-12.6H-2.3c0.1-0.7,0.3-1.3,0.4-1.8
		c0.2-0.8,0.5-1.6,0.8-2.4c0.3-0.7,0.6-1.5,1-2.1h34.6v-12.6H13.3c1.6-0.9,5.7-3.6,14-3.7c2.4,0,5,0.2,7.1,0.8
		c2.1,0.7,6.2,1.7,8.3,3.1V174C42.8,174.1,38.6,176.1,34.4,177.1z M55.2,161v-28.2C59.9,142,59.6,152.4,55.2,161z"/>
	<rect x="-44.5" y="197.2" fill="none" stroke="#92BFD4" stroke-width="2" stroke-miterlimit="10" width="74.8" height="6.3"/>
</g>
</svg>
