<?xml version="1.0" encoding="utf-8"?>
<!-- Generator: Adobe Illustrator 18.1.0, SVG Export Plug-In . SVG Version: 6.00 Build 0)  -->
<!DOCTYPE svg PUBLIC "-//W3C//DTD SVG 1.1//EN" "http://www.w3.org/Graphics/SVG/1.1/DTD/svg11.dtd">
<svg version="1.1" id="Layer_1" xmlns="http://www.w3.org/2000/svg" xmlns:xlink="http://www.w3.org/1999/xlink" x="0px" y="0px"
	 width="253px" height="175px" viewBox="-113 313.8 253 175" enable-background="new -113 313.8 253 175" xml:space="preserve">
<g id="documents">
	<g>
		<g>
			<g>
				<rect x="-75.9" y="373.3" fill="#013354" width="78.6" height="4"/>
			</g>
			<g>
				<rect x="-75.9" y="391" fill="#013354" width="78.6" height="4"/>
			</g>
			<g>
				<rect x="-75.9" y="408.7" fill="#013354" width="78.6" height="4"/>
			</g>
			<g>
				<rect x="-75.9" y="426.7" fill="#013354" width="78.6" height="4"/>
			</g>
			<g>
				<rect x="-75.9" y="444.3" fill="#013354" width="78.6" height="4"/>
			</g>
		</g>
		<g>
			<path fill="#92BFD4" d="M-19.5,486h-87c-2.2,0-4-1.8-4-4V348.3c0-2.2,1.8-4,4-4h18.2v4h-18.2V482h87v-16.6h4V482
				C-15.5,484.2-17.3,486-19.5,486z"/>
		</g>
		<g>
			<path fill="none" stroke="#92BFD4" stroke-width="4" stroke-miterlimit="10" d="M12.6,322.5"/>
		</g>
		<g>
			<polygon fill="#92BFD4" points="14.2,350.2 -13,323.3 -10.1,320.5 17,347.3 			"/>
		</g>
		<g>
			<path fill="#92BFD4" d="M13,467.2h-98c-2.2,0-4-1.8-4-4V324.5c0-2.2,1.8-4,4-4h74.9v26.8l27.1,0v116
				C17,465.5,15.2,467.2,13,467.2z M-85,324.5v138.8h98v-112h-23.1c-2.2,0-4-1.8-4-4v-22.8H-85z"/>
		</g>
	</g>
</g>
<g id="search">
	<path fill="#FFFFFF" stroke="#013354" stroke-width="4" stroke-miterlimit="10" d="M80.1,422.9c0,0,44.8,52,54.3,42.5
		c9.6-9.6-48.8-49.8-48.8-49.8"/>
	<circle fill="#FFFFFF" stroke="#013354" stroke-width="4" stroke-miterlimit="10" cx="55.7" cy="398.4" r="34.6"/>
	<circle fill="#FFFFFF" stroke="#013354" stroke-width="3" stroke-miterlimit="10" cx="55.6" cy="398.2" r="28.6"/>
	<path id="money" fill="#ED8223" d="M64.2,393.8c-1.4,0.4-2.9-0.3-3.3-1.7c-0.4-1.3-2-2.8-5.1-2.8c-2.5,0-4,1.7-4.1,3.2
		c-0.2,2,1.6,3.6,4.6,4.3c7.1,1.5,9.2,6.3,8.8,9.9s-3.1,6.6-6.7,7.5v2.2c0,1.5-1.2,2.6-2.6,2.6c-1.4,0-2.6-1.2-2.6-2.6v-2.1
		c-4.2-0.8-6.7-3.7-7.5-6.2c-0.4-1.4,0.3-2.9,1.7-3.3c1.4-0.4,2.9,0.3,3.3,1.7c0.4,1.3,2,2.8,5.1,2.8c2.5,0,4-1.7,4.1-3.2
		c0.2-2-1.6-3.6-4.6-4.3c-7.1-1.5-9.2-6.3-8.8-9.9c0.4-3.7,3.1-6.6,6.7-7.6v-2.2c0-1.5,1.2-2.6,2.6-2.6c1.4,0,2.6,1.2,2.6,2.6v2.1
		c4.2,0.8,6.7,3.7,7.5,6.2C66.4,391.8,65.5,393.4,64.2,393.8z"/>
</g>
</svg>
