<svg xmlns="http://www.w3.org/2000/svg" width="195" height="194.4" viewBox="-51 53.6 195 194.4" enable-background="new -51 53.6 195 194.4"><path fill="none" stroke="#ED8223" stroke-width="2" stroke-miterlimit="10" d="M90.9 239.6v7.4H2.2v-7.4c0-4.1 3.3-7.4 7.4-7.4h14.9c.4-9.2 6.4-16.9 14.7-19.9v-86.7c-3.9-2.5-6.5-6.8-6.5-11.7h27.8c0 5-2.6 9.3-6.5 11.7v86.7c8.3 3 14.3 10.7 14.7 19.9h14.9c4 0 7.3 3.3 7.3 7.4z"/><g fill="none" stroke="#ED8223" stroke-width="2" stroke-miterlimit="10"><path d="M142.6 173.1c-5.4 15.3-19.9 26.3-37 26.3s-31.6-11-37-26.3h8.5l25-66.2c1.1-2.9 5.8-2.9 6.9 0l25 66.2h8.6zM126.2 173.1l-20.5-54.4-20.6 54.4z"/></g><path fill="none" stroke="#ED8223" stroke-width="2" stroke-miterlimit="10" d="M-12.6 99.2c3.4 0 6.1-2.2 7-5.3 2.4-.9 5-2.2 7.5-3.5 5.7-2.9 12.1-6.1 18.7-6.1 6.4 0 10.4 2.9 12.7 5.5-.1.6-.2 1.3-.2 1.9 0 7.4 6 13.4 13.4 13.4s13.4-6 13.4-13.4c0-.7-.1-1.3-.2-1.9 2.3-2.5 6.3-5.5 12.7-5.5 6.7 0 13.1 3.2 18.7 6.1 2.6 1.3 5.1 2.6 7.5 3.5.9 3 3.7 5.3 7 5.3 4.1 0 7.5-3.3 7.5-7.5s-3.3-7.5-7.5-7.5c-2.1 0-4 .9-5.4 2.4-1.8-.8-3.8-1.8-5.8-2.8-6.4-3.2-13.6-6.9-22-6.9-7.4 0-12.5 2.8-16 5.8-1.6-1.7-3.6-3-5.8-3.7 2.8-1.5 4.7-4.3 4.7-7.6 0-4.8-8.8-16.2-8.8-16.2s-8.8 11.3-8.8 16.2c0 3.3 1.9 6.1 4.7 7.6-2.3.7-4.3 2-5.8 3.7-3.5-3-8.6-5.8-16-5.8-8.4.1-15.6 3.7-22 6.9-2 1-4 2-5.8 2.8-1.4-1.4-3.3-2.3-5.4-2.3-4.1 0-7.5 3.3-7.5 7.5s3.3 7.4 7.5 7.4z"/><g fill="none" stroke="#ED8223" stroke-width="2" stroke-miterlimit="10"><path d="M-12.6 199.3c-17.1 0-31.5-11-37-26.3h8.5l25-66.2c1.1-2.9 5.8-2.9 6.9 0l25 66.2h8.5c-5.4 15.3-19.8 26.3-36.9 26.3zM7.9 173.1l-20.5-54.4-20.6 54.4z"/></g></svg>