<?xml version="1.0" encoding="utf-8"?>
<!-- Generator: Adobe Illustrator 16.0.0, SVG Export Plug-In . SVG Version: 6.00 Build 0)  -->
<!DOCTYPE svg PUBLIC "-//W3C//DTD SVG 1.1//EN" "http://www.w3.org/Graphics/SVG/1.1/DTD/svg11.dtd">
<svg version="1.1" id="Layer_1" xmlns="http://www.w3.org/2000/svg" xmlns:xlink="http://www.w3.org/1999/xlink" x="0px" y="0px"
	 width="195.049px" height="194.371px" viewBox="0 0 195.049 194.371" enable-background="new 0 0 195.049 194.371"
	 xml:space="preserve">
<path fill="none" stroke="#ED8223" stroke-width="2" stroke-miterlimit="10" d="M141.883,185.978v7.394H53.167v-7.394
	c0-4.069,3.319-7.393,7.394-7.393h14.887c0.389-9.225,6.373-16.93,14.686-19.882V72.032c-3.9-2.463-6.508-6.779-6.508-11.731h6.508
	h14.783h6.506c0,4.952-2.604,9.269-6.506,11.731v86.671c8.312,2.952,14.296,10.657,14.686,19.882h14.885
	C138.561,178.585,141.883,181.908,141.883,185.978z M193.633,119.442c-5.412,15.264-19.855,26.266-36.965,26.266
	c-17.112,0-31.551-11.018-36.963-26.266h8.531l24.975-66.19c1.074-2.879,5.824-2.879,6.916,0l24.973,66.19H193.633z
	 M177.199,119.442l-20.531-54.409l-20.533,54.409H177.199z M38.379,45.587c3.354,0,6.081-2.238,7.027-5.278
	c2.447-0.934,4.953-2.188,7.521-3.489c5.652-2.858,12.064-6.093,18.723-6.093c6.382,0,10.379,2.944,12.662,5.466
	c-0.084,0.636-0.188,1.271-0.188,1.928c0,7.398,5.998,13.4,13.399,13.4c7.399,0,13.399-6.002,13.399-13.4
	c0-0.656-0.101-1.284-0.188-1.918c2.281-2.514,6.268-5.476,12.664-5.476c6.654,0,13.066,3.234,18.711,6.093
	c2.581,1.301,5.084,2.556,7.533,3.489c0.945,3.04,3.673,5.278,7.023,5.278c4.129,0,7.465-3.337,7.465-7.467
	s-3.336-7.466-7.465-7.466c-2.131,0-4.029,0.917-5.385,2.354c-1.834-0.772-3.805-1.762-5.836-2.788
	c-6.387-3.227-13.629-6.886-22.047-6.886c-7.363,0-12.492,2.802-15.977,5.818c-1.562-1.719-3.559-3.01-5.828-3.741
	c2.758-1.48,4.693-4.297,4.693-7.629c0-4.846-8.765-16.151-8.765-16.151s-8.767,11.306-8.767,16.151c0,3.34,1.938,6.148,4.693,7.629
	c-2.268,0.725-4.266,2.022-5.825,3.741c-3.487-3.017-8.614-5.818-15.976-5.818c-8.422,0-15.668,3.659-22.051,6.886
	c-2.035,1.026-4,2.016-5.834,2.773c-1.355-1.423-3.254-2.34-5.387-2.34c-4.131,0-7.461,3.336-7.461,7.466
	S34.248,45.587,38.379,45.587z M38.379,145.708c-17.107,0-31.549-11.018-36.963-26.266h8.533l24.974-66.19
	c1.075-2.879,5.824-2.879,6.915,0l24.974,66.19h8.534C69.934,134.69,55.491,145.708,38.379,145.708z M58.912,119.442L38.379,65.033
	l-20.532,54.409H58.912z"/>
</svg>
