<?xml version="1.0" encoding="utf-8"?>
<!-- Generator: Adobe Illustrator 18.1.0, SVG Export Plug-In . SVG Version: 6.00 Build 0)  -->
<!DOCTYPE svg PUBLIC "-//W3C//DTD SVG 1.1//EN" "http://www.w3.org/Graphics/SVG/1.1/DTD/svg11.dtd">
<svg version="1.1" id="scale" xmlns="http://www.w3.org/2000/svg" xmlns:xlink="http://www.w3.org/1999/xlink" x="0px" y="0px"
	 width="195px" height="194.4px" viewBox="-51 53.6 195 194.4" enable-background="new -51 53.6 195 194.4" xml:space="preserve">
<path fill="none" stroke="#ED8223" stroke-width="2" stroke-miterlimit="10" d="M90.9,239.6v7.4H2.2v-7.4c0-4.1,3.3-7.4,7.4-7.4
	h14.9c0.4-9.2,6.4-16.9,14.7-19.9v-86.7c-3.9-2.5-6.5-6.8-6.5-11.7h6.5h14.8h6.5c0,5-2.6,9.3-6.5,11.7v86.7
	c8.3,3,14.3,10.7,14.7,19.9h14.9C87.6,232.2,90.9,235.5,90.9,239.6z"/>
<g id="right-scale">
	<path fill="none" stroke="#ED8223" stroke-width="2" stroke-miterlimit="10" d="M142.6,173.1c-5.4,15.3-19.9,26.3-37,26.3
		c-17.1,0-31.6-11-37-26.3h8.5l25-66.2c1.1-2.9,5.8-2.9,6.9,0l25,66.2C134.1,173.1,142.6,173.1,142.6,173.1z"/>
	<polygon fill="none" stroke="#ED8223" stroke-width="2" stroke-miterlimit="10" points="126.2,173.1 105.7,118.7 85.1,173.1 	"/>
</g>
<path id="scale-top" fill="none" stroke="#ED8223" stroke-width="2" stroke-miterlimit="10" d="M-12.6,99.2c3.4,0,6.1-2.2,7-5.3
	c2.4-0.9,5-2.2,7.5-3.5c5.7-2.9,12.1-6.1,18.7-6.1c6.4,0,10.4,2.9,12.7,5.5c-0.1,0.6-0.2,1.3-0.2,1.9c0,7.4,6,13.4,13.4,13.4
	c7.4,0,13.4-6,13.4-13.4c0-0.7-0.1-1.3-0.2-1.9c2.3-2.5,6.3-5.5,12.7-5.5c6.7,0,13.1,3.2,18.7,6.1c2.6,1.3,5.1,2.6,7.5,3.5
	c0.9,3,3.7,5.3,7,5.3c4.1,0,7.5-3.3,7.5-7.5s-3.3-7.5-7.5-7.5c-2.1,0-4,0.9-5.4,2.4c-1.8-0.8-3.8-1.8-5.8-2.8
	c-6.4-3.2-13.6-6.9-22-6.9c-7.4,0-12.5,2.8-16,5.8c-1.6-1.7-3.6-3-5.8-3.7c2.8-1.5,4.7-4.3,4.7-7.6c0-4.8-8.8-16.2-8.8-16.2
	s-8.8,11.3-8.8,16.2c0,3.3,1.9,6.1,4.7,7.6c-2.3,0.7-4.3,2-5.8,3.7c-3.5-3-8.6-5.8-16-5.8C12.2,77,5,80.6-1.4,83.8c-2,1-4,2-5.8,2.8
	c-1.4-1.4-3.3-2.3-5.4-2.3c-4.1,0-7.5,3.3-7.5,7.5S-16.8,99.2-12.6,99.2z"/>
<g id="left-scale">
	<path fill="none" stroke="#ED8223" stroke-width="2" stroke-miterlimit="10" d="M-12.6,199.3c-17.1,0-31.5-11-37-26.3h8.5l25-66.2
		c1.1-2.9,5.8-2.9,6.9,0l25,66.2h8.5C18.9,188.3,4.5,199.3-12.6,199.3z"/>
	<polygon fill="none" stroke="#ED8223" stroke-width="2" stroke-miterlimit="10" points="7.9,173.1 -12.6,118.7 -33.2,173.1 	"/>
</g>
</svg>
