<?xml version="1.0" encoding="utf-8"?>
<!-- Generator: Adobe Illustrator 16.0.0, SVG Export Plug-In . SVG Version: 6.00 Build 0)  -->
<!DOCTYPE svg PUBLIC "-//W3C//DTD SVG 1.1//EN" "http://www.w3.org/Graphics/SVG/1.1/DTD/svg11.dtd">
<svg version="1.1" id="Layer_1" xmlns="http://www.w3.org/2000/svg" xmlns:xlink="http://www.w3.org/1999/xlink" x="0px" y="0px"
	 width="161.256px" height="186.645px" viewBox="0 0 161.256 186.645" enable-background="new 0 0 161.256 186.645"
	 xml:space="preserve">
<g>
	<path fill="none" stroke="#92BFD4" stroke-width="2" stroke-miterlimit="10" d="M-156.655-35.31l-27.289,27.287
		c-4.162-0.238-8.394,1.22-11.573,4.403l-22.719,22.715c-3.18,3.182-4.641,7.416-4.399,11.575l-27.29,27.289
		c-6.6,6.599-6.6,17.313,0,23.914l13.155,13.152c6.599,6.599,17.315,6.599,23.913,0l27.287-27.286
		c4.16,0.239,8.394-1.221,11.574-4.402l22.719-22.72c3.182-3.18,4.642-7.412,4.402-11.573l27.287-27.29
		c6.6-6.597,6.6-17.315,0-23.914l-13.152-13.151C-139.341-41.909-150.054-41.909-156.655-35.31z M-195.517,63.338l-24.512,24.515
		c-2.633,2.631-6.938,2.631-9.568,0l-13.154-13.153c-2.627-2.63-2.629-6.934,0-9.565l24.514-24.513L-195.517,63.338z
		 M-158.449,26.272c1.988,1.985,1.988,5.191,0,7.176l-22.721,22.719c-1.984,1.987-5.189,1.987-7.174,0l-22.72-22.721
		c-1.984-1.985-1.984-5.188,0-7.176l22.72-22.718c1.984-1.987,5.189-1.987,7.174,0L-158.449,26.272z M-126.762-14.982
		c2.63,2.631,2.63,6.938,0,9.567l-24.515,24.511l-22.717-22.715l24.512-24.515c2.63-2.631,6.936-2.631,9.566,0L-126.762-14.982z"/>
	<circle fill="none" stroke="#92BFD4" stroke-width="2" stroke-miterlimit="10" cx="-230.941" cy="66.479" r="5.075"/>
	<circle fill="none" stroke="#92BFD4" stroke-width="2" stroke-miterlimit="10" cx="-221.375" cy="76.047" r="5.073"/>
	<circle fill="none" stroke="#92BFD4" stroke-width="2" stroke-miterlimit="10" cx="-221.375" cy="56.913" r="5.072"/>
	<circle fill="none" stroke="#92BFD4" stroke-width="2" stroke-miterlimit="10" cx="-211.808" cy="66.479" r="5.073"/>
	<circle fill="none" stroke="#92BFD4" stroke-width="2" stroke-miterlimit="10" cx="-157.601" cy="-6.861" r="5.076"/>
	<path fill="none" stroke="#92BFD4" stroke-width="2" stroke-miterlimit="10" d="M-144.449-0.881c1.984,1.981,1.984,5.193,0,7.173
		c-1.98,1.98-5.193,1.983-7.172,0c-1.986-1.982-1.984-5.194,0-7.173C-149.644-2.864-146.429-2.865-144.449-0.881z"/>
	<path fill="none" stroke="#92BFD4" stroke-width="2" stroke-miterlimit="10" d="M-144.449-20.013c1.984,1.981,1.984,5.193,0,7.175
		c-1.98,1.979-5.193,1.981-7.172,0c-1.986-1.984-1.984-5.193,0-7.175C-149.644-21.996-146.429-21.997-144.449-20.013z"/>
	<path fill="none" stroke="#92BFD4" stroke-width="2" stroke-miterlimit="10" d="M-134.882-10.449c1.985,1.985,1.982,5.194,0,7.177
		c-1.979,1.981-5.194,1.982-7.174,0c-1.984-1.982-1.984-5.194,0-7.177C-140.074-12.428-136.865-12.431-134.882-10.449z"/>
</g>
<g>
	<path fill="none" stroke="#92BFD4" stroke-width="2" stroke-miterlimit="10" d="M-103.055,191.542
		c6.316-12.706,6.585-27.531,0.132-40.215c-5.192-10.165-13.479-17.686-23.871-21.41V105.87h-99.758v139.882h99.758v-32.434
		c2.078-0.647,3.246-1.396,4.925-2.265c4.3-2.225,8.005-5.141,11.346-8.652l55.34,37.603l7.316-11.028L-103.055,191.542z
		 M-135.104,237.359h-83.135V114.264h83.135v13.631c-1.24-0.227-2.686-0.475-4.159-0.646v-6.008h-74.818v6.298h64.094
		c-2.633,0.384-5.228,1.033-7.729,2.1c-0.836,0.459-3.113,1.456-4.607,2.235c-1.264,0.656-2.479,1.21-3.646,1.962h-48.111v6.297
		h41.188c-0.692,0.698-1.395,1.4-2.038,2.099c-1.101,1.399-2.095,2.797-3.045,4.197h-36.104v6.298h32.567
		c-0.329,0.7-0.667,1.401-0.958,2.1c-0.831,2.099-1.523,2.099-2.073,4.197h-29.536v6.299h28.348
		c-0.253,2.099-0.38,4.197-0.373,6.298h-27.976v6.294h28.394c0.277,2.1,0.682,4.198,1.239,6.29h-29.633v6.302h31.783h0.336
		c1.284,2.57,2.68,4.634,3.942,6.293h-36.062v6.298h41.813c2.036,1.75,5.022,4.094,8.358,6.3h-50.171v6.297h65.475
		c2.065,0.231,4.174,0.303,6.333,0.303c0.353,0,0.933-0.055,0.933-0.062c2.076-0.048,4.157-0.236,6.233-0.561v21.986H-135.104z
		 M-135.104,201.833v-0.83h-14.937c-4.281,0-8.242-2.103-11.632-6.297h26.569v-10.502h-4.159h-31.23
		c-0.815-2.094-1.433-4.191-1.842-6.294c-0.131-0.699-0.208-1.399-0.296-2.098h37.526v-12.593h-36.771
		c0.122-0.655,0.252-1.326,0.403-1.79c0.244-0.764,0.47-1.574,0.828-2.407c0.296-0.73,0.616-1.459,0.957-2.098h34.583v-12.596
		h-21.101c1.627-0.87,5.681-3.587,13.973-3.656c2.422-0.02,5.049,0.213,7.128,0.757c2.079,0.65,6.233,1.682,8.312,3.051v54.264
		C-126.794,198.899-130.951,200.828-135.104,201.833z M-114.323,185.745v-28.247C-109.666,166.704-109.984,177.173-114.323,185.745z
		"/>
	
		<rect x="-214.081" y="221.988" fill="none" stroke="#92BFD4" stroke-width="2" stroke-miterlimit="10" width="74.818" height="6.302"/>
</g>
<path fill="none" stroke="#ED8223" stroke-width="2" stroke-miterlimit="10" d="M43.056,74.645
	c-2.841,0.706-5.724-1.076-6.442-3.977c-0.711-2.898,0.999-5.825,3.838-6.527c2.838-0.705,5.723,1.076,6.439,3.977
	C47.619,71.022,45.895,73.941,43.056,74.645z M89.379,41.454c-6.258,0-11.351,4.975-11.351,11.104
	c0,6.11,5.101,11.097,11.351,11.097c6.242,0,11.352-4.981,11.352-11.097C100.723,46.434,95.622,41.454,89.379,41.454z
	 M160.146,104.454l-1.101-3.75l-1.165-3.657l-1.398-3.409l-1.297-3.38l-1.308-3.305l-1.23-3.251l-0.992-3.39l-0.81-3.392
	l0.179-1.564l0.705-1.482l0.738-1.555l0.158-1.463l-0.611-2.965l-0.75-2.967l-0.777-3.017l-0.952-2.9l-0.978-2.954l-1.029-2.891
	l-1.113-2.959l-1.164-2.861l-1.273-2.704l-1.396-2.772l-1.338-2.727l4.183-2.579l-1.456-2.54l-1.663-2.367l-1.642-2.408
	l-1.661-2.286l-1.56-1.901l-1.646-1.834l-1.65-1.678l-1.709-1.635l-1.732-1.564l3.822-1.462l-1.982-1.335l-1.881-1.397l-2.021-1.196
	l-1.994-1.156l-2.117-1.123l-2.111-1.02l-2.184-0.991l-2.312-0.923l-2.268-0.904L113.37,6l-2.752-0.892l-2.719-0.71l-2.767-0.751
	l-2.718-0.632l-2.855-0.578l-2.818-0.451l-2.838-0.36l-2.86-0.265l-2.804-0.174l-2.861-0.093L82.551,1l-2.945,0.094l-2.851,0.093
	l-2.821,0.174l-2.852,0.265l-2.806,0.36l-2.938,0.451l-2.912,0.578l-2.938,0.552l-2.935,0.586l-2.919,0.856l-2.924,0.798
	l-2.947,0.938l-2.826,0.998L42.17,8.845l-2.717,1.312l-2.768,1.23l-2.634,1.385l-2.587,1.56l-2.459,1.562l-2.366,1.742l-2.321,1.844
	l-2.082,1.826l-2.006,1.918l-1.915,2.02l-1.841,2.083l-1.736,2.312l-1.749,2.186l-1.565,2.368l-1.48,2.448l-1.43,2.499L7.246,41.68
	l-1.112,2.58l-1.076,2.564l-0.926,2.66l-0.811,2.647l-0.678,2.759l-0.53,2.652l-0.806,5.646L1,68.756l0.133,5.57l0.539,5.492
	l0.893,5.511l1.461,5.386l1.848,5.234l13.756,22.334c23.354,24.022,22.348,48.066,22.348,48.066l0.062,4.713l0.187,14.582h79.534
	l0.361-1.51v-4.654l0.158-4.681l0.36-10.431l0.531-5.3l0.259-1.258l0.506-1.012l0.531-0.903l0.705-0.752l0.965-0.531l1.074-0.365
	l1.197-0.392l1.279-0.193l1.664-0.166l1.561-0.089h0.381l1.559,0.168l1.477,0.087l1.523,0.193l1.424,0.111l1.652,0.2l1.572,0.166
	l-3.916,0.086l1.729,0.193l1.748,0.087l1.908,0.093l1.116-0.093l1.149-0.28l1.193-0.452l1.129-0.56l1.076-0.704l0.932-0.851
	l0.776-0.908l0.68-0.953l0.446-2.007l-0.238-2.162l-0.428-2.161v-2.134l0.318-0.937l0.445-0.777l0.447-0.866l0.551-0.704l0.564-0.76
	l0.421-0.797l0.366-0.838l0.106-0.897l-0.106-1.019l-0.153-0.89l-0.279-0.958l-0.453-0.884l-0.658-0.844l-0.724-0.812l-0.846-0.61
	l-0.978-0.693l1.065-0.53l1.004-0.625l1.035-0.747l0.707-0.703l0.65-0.838l0.385-0.924l0.199-0.838l-0.199-0.897l-1.016-3.245
	l-0.633-2.925l-0.393-2.728v-2.688l1.556-0.616l1.392-0.632l1.209-0.68l0.999-0.711l0.761-0.798l0.429-0.842l0.267-0.886
	L160.146,104.454z M56.875,76.667l-1.883,3.166c-0.12,0.226-4.88-0.772-4.88-0.772l-1.756,1.323c0,0-0.644,4.946-0.852,4.994
	l-3.545,0.878c-0.237,0.039-2.951-4.074-2.951-4.074l-2.165-0.319c0,0-3.854,2.981-4.085,2.845l-3.117-1.931
	c-0.226-0.137,0.689-4.959,0.689-4.959L31.053,76c0,0-4.846-0.677-4.924-0.922l-0.887-3.598c-0.059-0.254,3.944-2.984,3.944-2.984
	l0.316-2.188c0,0-2.978-3.983-2.852-4.19l1.869-3.169c0.134-0.208,4.88,0.763,4.88,0.763l1.758-1.303c0,0,0.624-4.929,0.857-4.987
	l3.521-0.856c0.259-0.072,2.975,4.054,2.975,4.054l2.158,0.333c0,0,3.854-2.984,4.072-2.871l3.123,1.935
	c0.219,0.133-0.684,4.959-0.684,4.959l1.289,1.816c0,0,4.841,0.679,4.928,0.938l0.883,3.589c0.061,0.241-3.949,2.967-3.949,2.967
	L54.02,72.5C54.02,72.5,56.991,76.453,56.875,76.667z M124.78,56.506L124.78,56.506c-0.006,0.533-9.742,4.003-9.742,4.003
	l-1.802,4.229c0,0,4.163,9.376,3.82,9.747l-5.534,5.387c-0.365,0.357-9.754-3.923-9.754-3.923l-4.336,1.755
	c0,0-3.828,9.502-4.369,9.502h-7.766c-0.539,0-4.078-9.515-4.078-9.515l-4.36-1.763c0,0-9.535,4.063-9.927,3.706l-5.443-5.375
	c-0.375-0.378,4.002-9.561,4.002-9.561l-1.796-4.242c0,0-9.708-3.751-9.708-4.255v-7.613c0-0.525,9.735-3.996,9.735-3.996
	l1.782-4.229c0,0-4.156-9.39-3.789-9.747l5.497-5.374C67.619,24.872,77,29.145,77,29.145l4.327-1.747c0,0,3.824-9.509,4.344-9.509
	h7.801c0.525,0,4.08,9.535,4.08,9.535l4.314,1.743c0,0,9.583-4.07,9.948-3.69l5.524,5.371c0.379,0.38-3.992,9.561-3.992,9.561
	l1.766,4.236c0,0,9.707,3.743,9.707,4.247v7.614H124.78z"/>
</svg>
