<?xml version="1.0" encoding="utf-8"?>
<!-- Generator: Adobe Illustrator 18.1.0, SVG Export Plug-In . SVG Version: 6.00 Build 0)  -->
<!DOCTYPE svg PUBLIC "-//W3C//DTD SVG 1.1//EN" "http://www.w3.org/Graphics/SVG/1.1/DTD/svg11.dtd">
<svg version="1.1" id="knowledge" xmlns="http://www.w3.org/2000/svg" xmlns:xlink="http://www.w3.org/1999/xlink" x="0px" y="0px"
	 width="161.3px" height="186.6px" viewBox="-68 57.4 161.3 186.6" enable-background="new -68 57.4 161.3 186.6"
	 xml:space="preserve">
<path fill="none" stroke="#ED8223" stroke-width="2" stroke-miterlimit="10" d="M-25.2,131.9c-2.8,0.7-5.7-1.1-6.4-4
	c-0.7-2.9,1-5.8,3.8-6.5s5.7,1.1,6.4,4C-20.7,128.3-22.4,131.2-25.2,131.9z"/>
<path fill="none" stroke="#ED8223" stroke-width="2" stroke-miterlimit="10" d="M21.1,98.8c-6.3,0-11.4,5-11.4,11.1
	s5.1,11.1,11.4,11.1c6.2,0,11.4-5,11.4-11.1C32.4,103.8,27.3,98.8,21.1,98.8z"/>
<path fill="none" stroke="#ED8223" stroke-width="2" stroke-miterlimit="10" d="M91.8,161.8l-1.1-3.8l-1.2-3.7l-1.4-3.4l-1.3-3.4
	l-1.3-3.3l-1.2-3.3l-1-3.4l-0.8-3.4l0.2-1.6l0.7-1.5l0.7-1.6l0.2-1.5l-0.6-3l-0.8-3l-0.8-3l-1-2.9l-1-3l-1-2.9l-1.1-3l-1.2-2.9
	l-1.1-2.2l-1.4-2.8l-1.3-2.7l4.2-2.6l-1.5-2.5L74,88.9l-1.6-2.4l-1.7-2.3l-1.6-1.9l-1.6-1.8l-1.6-1.7l-1.7-1.6l-1.7-1.6l3.8-1.5
	l-2-1.3l-1.9-1.4l-2-1.2l-2-1.2l-2.2-1.1l-2.1-1l-2.2-1L49.6,65l-2.3-0.9L45,63.3l-2.8-0.9l-2.7-0.7l-2.7-0.8L34,60.3l-2.9-0.6
	l-2.8-0.5l-2.8-0.3l-2.9-0.3l-2.8-0.2L17,58.3l-2.8-0.1l-2.9,0.1l-2.9,0.1l-2.8,0.2l-2.8,0.3L0,59.3l-2.9,0.5l-2.9,0.6L-8.7,61
	l-2.9,0.6l-2.9,0.9l-2.9,0.8l-2.9,0.9l-2.8,1l-2.8,1.1l-2.7,1.3l-2.8,1.2l-2.6,1.4l-2.6,1.6l-2.5,1.6l-2.4,1.7l-2.3,1.8l-2.1,1.8
	l-2,1.9l-1.9,2l-1.8,2.1l-1.7,2.3l-1.7,2.2l-1.6,2.4l-1.5,2.4l-1.4,2.5l-1.3,2.5l-1.1,2.6l-1.1,2.6l-0.9,2.7l-0.8,2.6l-0.7,2.8
	l-0.5,2.7l-0.8,5.6l-0.3,5.6l0.1,5.6l0.5,5.5l0.9,5.5l1.5,5.4l1.8,5.2l13.8,22.3c23.4,24,22.3,48.1,22.3,48.1l0.1,4.7l0.2,14.6h79.5
	l0.4-1.5v-4.7l0.2-4.7l0.4-10.4l0.5-5.3l0.3-1.3l0.5-1l0.5-0.9l0.7-0.8l1-0.5l1.1-0.4l1.2-0.4l1.3-0.2l1.7-0.2l1.6-0.1h0.4l1.6,0.2
	l1.5,0.1l1.5,0.2l1.4,0.1l1.7,0.2l1.6,0.2l-3.9,0.1l1.7,0.2l1.7,0.1l1.9,0.1l1.1-0.1l1.1-0.3l1.2-0.5l1.1-0.6l1.1-0.7l0.9-0.9
	l0.8-0.9l0.7-1l0.4-2l-0.2-2.2l-0.4-2.2v-2.1l0.3-0.9l0.4-0.8l0.4-0.9l0.6-0.7l0.6-0.8l0.4-0.8l0.4-0.8l0.1-0.9l-0.1-1l-0.2-0.9
	l-0.3-1l-0.5-0.9l-0.7-0.8l-0.7-0.8l-0.8-0.6l-1-0.7l1.1-0.5l1-0.6l1-0.7l0.7-0.7l0.6-0.8l0.4-0.9l0.2-0.8l-0.2-0.9l-1-3.2l-0.6-2.9
	l-0.4-2.7v-2.7l1.6-0.6l1.4-0.6l1.2-0.7l1-0.7l0.8-0.8l0.4-0.8l0.3-0.9L91.8,161.8z"/>
<g id="gears">
	<path id="small-gear" fill="none" stroke="#ED8223" stroke-width="2" stroke-miterlimit="10" d="M-11.4,133.9l-1.9,3.2
		c-0.1,0.2-4.9-0.8-4.9-0.8l-1.8,1.3c0,0-0.6,4.9-0.9,5l-3.5,0.9c-0.2,0-3-4.1-3-4.1l-2.2-0.3c0,0-3.9,3-4.1,2.8l-3.1-1.9
		c-0.2-0.1,0.7-5,0.7-5l-1.3-1.8c0,0-4.8-0.7-4.9-0.9l-0.9-3.6c-0.1-0.3,3.9-3,3.9-3l0.3-2.2c0,0-3-4-2.9-4.2l1.9-3.2
		c0.1-0.2,4.9,0.8,4.9,0.8l1.8-1.3c0,0,0.6-4.9,0.9-5l3.5-0.9c0.3-0.1,3,4.1,3,4.1l2.2,0.3c0,0,3.9-3,4.1-2.9l3.1,1.9
		c0.2,0.1-0.7,5-0.7,5l1.3,1.8c0,0,4.8,0.7,4.9,0.9l0.9,3.6c0.1,0.2-3.9,3-3.9,3l-0.3,2.2C-14.3,129.8-11.3,133.8-11.4,133.9z"/>
	<path id="big-gear" fill="none" stroke="#ED8223" stroke-width="2" stroke-miterlimit="10" d="M56.5,113.8L56.5,113.8
		c0,0.5-9.7,4-9.7,4L45,122c0,0,4.2,9.4,3.8,9.7l-5.5,5.4c-0.4,0.4-9.8-3.9-9.8-3.9l-4.3,1.8c0,0-3.8,9.5-4.4,9.5H17
		c-0.5,0-4.1-9.5-4.1-9.5l-4.4-1.8c0,0-9.5,4.1-9.9,3.7l-5.4-5.4c-0.4-0.4,4-9.6,4-9.6l-1.8-4.2c0,0-9.7-3.8-9.7-4.3v-7.6
		c0-0.5,9.7-4,9.7-4l1.8-4.2c0,0-4.2-9.4-3.8-9.7l5.5-5.4c0.4-0.4,9.8,3.9,9.8,3.9l4.3-1.7c0,0,3.8-9.5,4.3-9.5h7.8
		c0.5,0,4.1,9.5,4.1,9.5l4.3,1.7c0,0,9.6-4.1,9.9-3.7l5.5,5.4c0.4,0.4-4,9.6-4,9.6l1.8,4.2c0,0,9.7,3.7,9.7,4.2L56.5,113.8
		L56.5,113.8z"/>
</g>
</svg>
