<?xml version="1.0" encoding="utf-8"?>
<!-- Generator: Adobe Illustrator 18.1.0, SVG Export Plug-In . SVG Version: 6.00 Build 0)  -->
<!DOCTYPE svg PUBLIC "-//W3C//DTD SVG 1.1//EN" "http://www.w3.org/Graphics/SVG/1.1/DTD/svg11.dtd">
<svg version="1.1" id="Layer_1" xmlns="http://www.w3.org/2000/svg" xmlns:xlink="http://www.w3.org/1999/xlink" x="0px" y="0px"
	 width="89.6px" height="89.6px" viewBox="-104 106.4 89.6 89.6" enable-background="new -104 106.4 89.6 89.6"
	 xml:space="preserve">
<path fill="none" stroke="#FFFFFF" stroke-width="2" stroke-miterlimit="10" d="M-21.2,125.1c3.6-4.8,5.7-9.8,5.8-13.4
	c0-1.2-0.2-2.1-0.7-2.7c0-0.1-0.2-0.3-0.4-0.5c-0.2-0.2-0.4-0.3-0.5-0.4c-0.7-0.5-1.6-0.7-2.8-0.7c-3.6,0-8.6,2.2-13.4,5.8
	c-3.9,2.9-7.8,7-13.2,12.7c-0.9,1-1.9,2-2.9,3l-10.4-3.1l0,0c0.4-0.4,0.7-1,0.7-1.6c0-0.6-0.2-1.2-0.7-1.7l-1.9-1.9
	c-0.4-0.4-1-0.7-1.7-0.7c-0.6,0-1.2,0.2-1.7,0.7l-2.8,2.8l-1.5-0.4c0.3-0.4,0.5-0.9,0.5-1.4c0-0.6-0.2-1.2-0.7-1.7l-1.9-1.9
	c-0.4-0.4-1-0.7-1.7-0.7c-0.6,0-1.2,0.2-1.6,0.7l-2.6,2.6l-10.6-3.2c-0.2-0.1-0.5-0.1-0.8-0.1c-0.8,0-1.5,0.3-2,0.8l-3.7,3.7
	c-0.4,0.4-0.7,1-0.7,1.5c0,0.8,0.4,1.5,1.1,1.9l22.3,12.5c0.1,0.1,0.4,0.3,0.5,0.4l6.4,6.4c-6,6.3-11.2,12.3-15.4,17.6
	c-0.4,0.5-0.8,1-1.1,1.4l-17.3-1.6c-0.1,0-0.2,0-0.3,0c-0.8,0-1.6,0.3-2.1,0.9l-1.7,1.7c-0.4,0.4-0.7,1-0.7,1.5c0,0.8,0.5,1.6,1.3,2
	l12.1,5.8c0.1,0.1,0.4,0.2,0.5,0.3l1,1c-0.3,0.9-0.5,1.7-0.5,2.3c0,0.9,0.3,1.7,0.8,2.2l0,0l0,0c0.6,0.6,1.3,0.8,2.2,0.8
	c0.7,0,1.4-0.2,2.3-0.5l1,1c0.1,0.1,0.3,0.4,0.3,0.5l5.8,12.1c0.4,0.8,1.1,1.3,1.9,1.3h0c0.6,0,1.1-0.2,1.5-0.6l1.8-1.8
	c0.5-0.6,0.8-1.3,0.9-2.1c0-0.1,0-0.2,0-0.2l-1.6-17.3c0.5-0.4,1-0.7,1.4-1.1c5.3-4.1,11.4-9.4,17.6-15.4l6.4,6.4
	c0.1,0.1,0.3,0.4,0.4,0.5l12.4,22.3c0.4,0.7,1.1,1.2,1.9,1.2c0.6,0,1.1-0.2,1.6-0.7l3.8-3.8c0.5-0.5,0.8-1.2,0.8-2
	c0-0.3,0-0.5-0.1-0.7l-3.2-10.6l2.6-2.6c0.4-0.4,0.7-1,0.7-1.7c0-0.6-0.2-1.2-0.7-1.6l-1.9-1.9c-0.4-0.4-1-0.7-1.7-0.7
	c-0.5,0-1,0.2-1.4,0.5l-0.4-1.5l2.8-2.8c0.4-0.4,0.7-1,0.7-1.7c0-0.6-0.2-1.2-0.7-1.6l-1.9-1.9c-0.4-0.4-1-0.7-1.7-0.7
	c-0.6,0-1.2,0.3-1.7,0.7l0,0l-3.1-10.4c1.1-1,2.1-2,3.1-2.9C-28.2,132.9-24.1,129-21.2,125.1z"/>
</svg>
