<?xml version="1.0" encoding="utf-8"?>
<!-- Generator: Adobe Illustrator 18.1.0, SVG Export Plug-In . SVG Version: 6.00 Build 0)  -->
<!DOCTYPE svg PUBLIC "-//W3C//DTD SVG 1.1//EN" "http://www.w3.org/Graphics/SVG/1.1/DTD/svg11.dtd">
<svg version="1.1" id="Layer_1" xmlns="http://www.w3.org/2000/svg" xmlns:xlink="http://www.w3.org/1999/xlink" x="0px" y="0px"
	 width="223.7px" height="175px" viewBox="-127 313.1 223.7 175" enable-background="new -127 313.1 223.7 175"
	 xml:space="preserve">
<polyline id="arrow_line" fill="none" stroke="#ED8222" stroke-width="4" stroke-miterlimit="10" points="-101.9,409 -59.5,429.7 
	-22.1,381.6 18.3,359.3 57.3,333.7 "/>
<polygon id="arrow" fill="#ED8222" points="46.2,328.7 57.3,343.4 70.7,323.4 "/>
<g id="bars">
	<path id="_x31_" fill="none" stroke="#92BFD4" stroke-width="4" stroke-miterlimit="10" d="M-83.9,477.9h-30.7v-45.4
		c0-1.6,1.3-2.8,2.8-2.8h25c1.6,0,2.8,1.3,2.8,2.8L-83.9,477.9L-83.9,477.9z"/>
	<path id="_x32_" fill="none" stroke="#92BFD4" stroke-width="4" stroke-miterlimit="10" d="M-44.1,477.9h-30.7v-33.3
		c0-1.6,1.3-2.8,2.8-2.8h25c1.6,0,2.8,1.3,2.8,2.8L-44.1,477.9L-44.1,477.9z"/>
	<path id="_x33_" fill="none" stroke="#92BFD4" stroke-width="4" stroke-miterlimit="10" d="M-5,477.9h-30.7V428
		c0-1.6,1.3-2.8,2.8-2.8h25c1.6,0,2.8,1.3,2.8,2.8L-5,477.9L-5,477.9z"/>
	<path id="_x34_" fill="none" stroke="#92BFD4" stroke-width="4" stroke-miterlimit="10" d="M33.7,477.9H3v-97.6
		c0-1.6,1.3-2.8,2.8-2.8h25c1.6,0,2.8,1.3,2.8,2.8v97.6H33.7z"/>
	<path id="_x35_" fill="none" stroke="#92BFD4" stroke-width="4" stroke-miterlimit="10" d="M72.7,477.9H42v-118
		c0-1.6,1.3-2.8,2.8-2.8h25c1.6,0,2.8,1.3,2.8,2.8L72.7,477.9L72.7,477.9z"/>
</g>
<g>
	<circle id="_x31__1_" fill="#013354" stroke="#FFFFFF" stroke-width="2" stroke-miterlimit="10" cx="-101.9" cy="409" r="6.7"/>
	<circle id="_x32__1_" fill="#013354" stroke="#FFFFFF" stroke-width="2" stroke-miterlimit="10" cx="-59.5" cy="427.7" r="6.7"/>
	<circle id="_x33__1_" fill="#013354" stroke="#FFFFFF" stroke-width="2" stroke-miterlimit="10" cx="-22.3" cy="381.7" r="6.7"/>
	<circle id="_x34__1_" fill="#013354" stroke="#FFFFFF" stroke-width="2" stroke-miterlimit="10" cx="18.3" cy="359.3" r="6.7"/>
</g>
</svg>
