<?xml version="1.0" encoding="utf-8"?>
<!-- Generator: Adobe Illustrator 18.1.0, SVG Export Plug-In . SVG Version: 6.00 Build 0)  -->
<!DOCTYPE svg PUBLIC "-//W3C//DTD SVG 1.1//EN" "http://www.w3.org/Graphics/SVG/1.1/DTD/svg11.dtd">
<svg version="1.1" id="Layer_1" xmlns="http://www.w3.org/2000/svg" xmlns:xlink="http://www.w3.org/1999/xlink" x="0px" y="0px"
	 width="223.7px" height="175px" viewBox="-127 313.1 223.7 175" enable-background="new -127 313.1 223.7 175"
	 xml:space="preserve">
<polyline id="arrow_line" fill="none" stroke="#ED8222" stroke-width="4" stroke-miterlimit="10" points="-101.9,409 -59.5,429.7 
	-22.1,381.6 18.3,359.3 57.3,333.7 "/>
<polygon id="arrow" fill="#ED8222" points="46.2,328.7 57.3,343.4 70.7,323.4 "/>
<g>
	<g id="bars">
		<g>
			<path fill="#92BFD4" d="M-81.5,479.9H-117v-47.4c0-2.2,1.8-4,4-4h27.4c2.2,0,4,1.8,4,4V479.9z M-113,475.9h27.4v-43.4l-27.4,0
				L-113,475.9z"/>
		</g>
	</g>
	<g id="bars_1_">
		<g>
			<path fill="#92BFD4" d="M-41.8,479.9h-35.4v-36.4c0-2.2,1.8-4,4-4h27.4c2.2,0,4,1.8,4,4V479.9z M-73.2,475.9h27.4v-32.4l-27.4,0
				L-73.2,475.9z"/>
		</g>
	</g>
	<g id="bars_2_">
		<g>
			<path fill="#92BFD4" d="M-2.6,479.9H-38v-66c0-2.2,1.8-4,4-4h27.4c2.2,0,4,1.8,4,4V479.9z M-34,475.9h27.4v-62l-27.4,0L-34,475.9
				z"/>
		</g>
	</g>
	<g id="bars_3_">
		<g>
			<path fill="#92BFD4" d="M37,479.9H1.6V377c0-2.2,1.8-4,4-4H33c2.2,0,4,1.8,4,4V479.9z M5.6,475.9H33V377l-27.4,0L5.6,475.9z"/>
		</g>
	</g>
	<g id="bars_4_">
		<g>
			<path fill="#92BFD4" d="M77,479.9H41.6V354.6c0-2.2,1.8-4,4-4H73c2.2,0,4,1.8,4,4V479.9z M45.6,475.9H73V354.6l-27.4,0
				L45.6,475.9z"/>
		</g>
	</g>
</g>
<g>
	<circle id="_x31__1_" fill="#013354" stroke="#FFFFFF" stroke-width="2" stroke-miterlimit="10" cx="-101.9" cy="409" r="6.7"/>
	<circle id="_x32__1_" fill="#013354" stroke="#FFFFFF" stroke-width="2" stroke-miterlimit="10" cx="-59.5" cy="427.7" r="6.7"/>
	<circle id="_x33__1_" fill="#013354" stroke="#FFFFFF" stroke-width="2" stroke-miterlimit="10" cx="-22.3" cy="381.7" r="6.7"/>
	<circle id="_x34__1_" fill="#013354" stroke="#FFFFFF" stroke-width="2" stroke-miterlimit="10" cx="18.3" cy="359.3" r="6.7"/>
</g>
</svg>
