<?xml version="1.0" encoding="utf-8"?>
<!-- Generator: Adobe Illustrator 16.0.0, SVG Export Plug-In . SVG Version: 6.00 Build 0)  -->
<!DOCTYPE svg PUBLIC "-//W3C//DTD SVG 1.1//EN" "http://www.w3.org/Graphics/SVG/1.1/DTD/svg11.dtd">
<svg version="1.1" id="Layer_1" xmlns="http://www.w3.org/2000/svg" xmlns:xlink="http://www.w3.org/1999/xlink" x="0px" y="0px"
	 width="157px" height="142.667px" viewBox="0 0 157 142.667" enable-background="new 0 0 157 142.667" xml:space="preserve">
<g id="Your_Icon">
	<path fill="none" stroke="#92BFD4" stroke-width="2" stroke-miterlimit="10" d="M105.809,140.168H50.42
		c-6.528,0-15.444-5.147-18.709-10.8L4.021,81.402c-3.267-5.652-3.267-15.952,0-21.603l27.693-47.97
		c3.265-5.65,12.181-10.8,18.708-10.8h55.387c6.527,0,15.444,5.147,18.709,10.8l27.698,47.97c3.263,5.65,3.263,15.95,0,21.603
		l-27.698,47.967C121.253,135.021,112.336,140.168,105.809,140.168L105.809,140.168z M111.41,95.656v-8.184v-1.562V70.844v-4.803
		V43.85c-0.004-3.254-2.641-5.888-5.895-5.895c-3.253,0.007-5.889,2.635-5.899,5.889l0.003,27.001c0,0.426-0.195,0.804-0.495,1.058
		c-0.241,0.205-0.553,0.335-0.898,0.335c-0.537,0-1.001-0.307-1.23-0.754c-0.099-0.191-0.161-0.407-0.161-0.639V43.85
		c0-0.006,0-0.016,0-0.021v-5.546c-0.007-3.257-2.64-5.891-5.896-5.896c-3.256,0.006-5.889,2.64-5.897,5.896v32.562h0.003
		c0,0.77-0.623,1.393-1.393,1.393s-1.393-0.623-1.393-1.393V56.279V27.143c-0.006-3.254-2.642-5.889-5.895-5.895
		c-3.258,0.006-5.893,2.641-5.897,5.895v11.13c0,0.003,0,0.007,0,0.01v32.564c0,0.001,0,0.001,0,0.001
		c0,0.333-0.121,0.635-0.316,0.872c-0.256,0.317-0.64,0.521-1.077,0.521c-0.499,0-0.932-0.267-1.18-0.661
		c-0.132-0.214-0.213-0.464-0.213-0.732v-0.002V38.283c-0.006-3.257-2.641-5.889-5.895-5.896c-3.256,0.008-5.889,2.64-5.898,5.896
		v27.762h0.003v4.803l0,0c0,0.001,0,0.003,0,0.003v15.061l0.017,7.805c0,0.621-0.414,1.174-1.012,1.343
		c-0.602,0.17-1.244-0.082-1.568-0.609L40.698,73.882c-1.117-1.812-3.047-2.806-5.029-2.809c-1.054,0-2.113,0.282-3.082,0.875
		c-1.814,1.113-2.807,3.044-2.81,5.028c0.002,1.053,0.28,2.113,0.876,3.082l11.905,19.359c0,0.001,0,0.001,0.003,0.005l4.283,6.965
		l0.746,1.216c3.63,5.898,9.805,9.26,16.24,9.547l17.025,0.016l10.465,0.001c5.55-0.001,10.562-2.247,14.2-5.883
		c3.637-3.639,5.883-8.652,5.883-14.203v-1.426H111.41z"/>
</g>
</svg>
