<?xml version="1.0" encoding="utf-8"?>
<!-- Generator: Adobe Illustrator 16.0.0, SVG Export Plug-In . SVG Version: 6.00 Build 0)  -->
<!DOCTYPE svg PUBLIC "-//W3C//DTD SVG 1.1//EN" "http://www.w3.org/Graphics/SVG/1.1/DTD/svg11.dtd">
<svg version="1.1" id="Layer_1" xmlns="http://www.w3.org/2000/svg" xmlns:xlink="http://www.w3.org/1999/xlink" x="0px" y="0px"
	 width="94.166px" height="72.873px" viewBox="0 0 94.166 72.873" enable-background="new 0 0 94.166 72.873" xml:space="preserve">
<path fill="none" stroke="#ED8223" stroke-width="2" stroke-miterlimit="10" d="M-158.483,474.345v7.394h-88.716v-7.394
	c0-4.069,3.319-7.393,7.394-7.393h14.887c0.389-9.225,6.373-16.93,14.686-19.882V360.4c-3.9-2.463-6.508-6.779-6.508-11.731h6.508
	h14.783h6.506c0,4.952-2.604,9.269-6.506,11.731v86.671c8.312,2.952,14.296,10.657,14.686,19.882h14.885
	C-161.806,466.953-158.483,470.276-158.483,474.345z M-106.733,407.81c-5.412,15.264-19.855,26.266-36.965,26.266
	c-17.112,0-31.551-11.018-36.963-26.266h8.531l24.975-66.19c1.074-2.879,5.824-2.879,6.916,0l24.973,66.19H-106.733z
	 M-123.167,407.81l-20.531-54.409l-20.533,54.409H-123.167z M-261.987,333.955c3.354,0,6.081-2.238,7.027-5.278
	c2.447-0.934,4.953-2.188,7.521-3.489c5.652-2.858,12.064-6.093,18.723-6.093c6.382,0,10.379,2.944,12.662,5.466
	c-0.084,0.636-0.188,1.271-0.188,1.928c0,7.398,5.998,13.4,13.399,13.4c7.399,0,13.399-6.002,13.399-13.4
	c0-0.656-0.101-1.284-0.188-1.918c2.281-2.514,6.268-5.476,12.664-5.476c6.654,0,13.066,3.234,18.711,6.093
	c2.581,1.301,5.084,2.556,7.533,3.489c0.945,3.04,3.673,5.278,7.023,5.278c4.129,0,7.465-3.337,7.465-7.467
	s-3.336-7.466-7.465-7.466c-2.131,0-4.029,0.917-5.385,2.354c-1.834-0.772-3.805-1.762-5.836-2.788
	c-6.387-3.227-13.629-6.886-22.047-6.886c-7.363,0-12.492,2.802-15.977,5.818c-1.562-1.719-3.559-3.01-5.828-3.741
	c2.758-1.48,4.693-4.297,4.693-7.629c0-4.846-8.765-16.151-8.765-16.151s-8.767,11.306-8.767,16.151c0,3.34,1.938,6.148,4.693,7.629
	c-2.268,0.725-4.266,2.022-5.825,3.741c-3.487-3.017-8.614-5.818-15.976-5.818c-8.422,0-15.668,3.659-22.051,6.886
	c-2.035,1.026-4,2.016-5.834,2.773c-1.355-1.423-3.254-2.34-5.387-2.34c-4.131,0-7.461,3.336-7.461,7.466
	S-266.118,333.955-261.987,333.955z M-261.987,434.076c-17.107,0-31.549-11.018-36.963-26.266h8.533l24.974-66.19
	c1.075-2.879,5.824-2.879,6.915,0l24.974,66.19h8.534C-230.433,423.058-244.875,434.076-261.987,434.076z M-241.454,407.81
	l-20.533-54.409l-20.532,54.409H-241.454z"/>
<path fill="none" stroke="#ED8223" stroke-width="2" stroke-miterlimit="10" d="M-227.265,100.493v62.599
	c0,0-12.914,2.634-15.57,2.982c-2.658,0.346-10.979,3.127-17.031-2.881c-9.309-9.267-42.412-43.407-42.412-43.407
	s-5.705-5.804-14.87-0.779c-8.372,4.585-20.792,11.294-26.036,13.942c-1.861,1.354-4.117,2.15-6.562,2.15
	c-6.327,0-11.458-5.324-11.458-11.893c0-5.147,3.158-9.521,7.57-11.176c11.938-7.49,36.809-21.976,47.191-27.695
	c6.338-3.49,10.903-3.787,19.599,3.795C-276.13,97.486-266.606,106-266.606,106s4.46,2.135,8.063,1.609
	C-251.005,106.498-227.265,100.493-227.265,100.493z M-358.976,206.558c1.602-4.269,1.066-9.055-2.006-12.324
	c-2.765-2.946-6.785-3.724-10.631-2.809c1.072-3.944,0.482-8.147-2.303-11.118c-2.771-2.941-6.779-3.712-10.627-2.798
	c1.062-3.945,0.474-8.148-2.299-11.121c-4.354-4.635-11.879-4.434-16.818,0.462c-4.918,4.897-8.072,13.755-3.678,18.956
	c4.388,5.194,9.41,2.04,13.255,1.128c-1.064,3.946-4.266,7.622-0.335,12.789c3.927,5.185,9.408,2.045,13.25,1.124
	c-1.068,3.943-4.135,7.986-0.334,12.791c3.82,4.799,10.08,2.242,14.203,0.913c-1.592,4.263-5.004,8.836-0.619,14.001
	c4.372,5.165,14.498,2.759,19.446-2.133c4.942-4.893,5.407-12.637,1.075-17.274C-350.386,205.96-354.854,205.22-358.976,206.558z
	 M-268.899,173.828c-35.553-36.879-18.807-19.518-38.008-39.468c0,0-5.791-5.979-13.404-2.511
	c-5.348,2.433-12.232,5.747-17.422,8.272c-5.708,3.09-10.682,4.034-11.719,4.034c-11.006,0-19.933-9.248-19.933-20.658
	c0-7.399,3.791-13.843,9.436-17.498c7.938-5.697,26.224-15.795,26.224-15.795s-5.562-7.324-17.771-7.324
	c-12.197,0-37.676,17.33-37.676,17.33s-7.232,4.81-17.535,0.484l-19.862-7.178v71.615c0,0,5.665,1.712,10.764,3.861
	c1.161-3.396,2.997-6.554,5.589-9.139c8.452-8.357,22.457-8.446,30.154-0.236c2.309,2.482,3.928,5.486,4.76,8.764
	c3.105,0.996,5.895,2.744,8.16,5.16c2.32,2.465,3.931,5.474,4.771,8.752c3.104,1.002,5.885,2.749,8.161,5.176
	c2.552,2.711,4.243,6.02,5.048,9.604c3.228,0.979,6.17,2.778,8.528,5.303c4.606,4.915,6.261,11.597,5.257,18.045v0.002l0,0
	c0,0.006,0,0.006,0,0.01c0.011,0.01,0.023,0.018,0.034,0.031c0.175,0.203,2.878,3.359,4.595,5.131c3.414,3.549,8.967,3.539,12.381,0
	c3.404-3.532,3.418-9.297,0-12.844c-0.108-0.113-0.244-0.195-0.357-0.306c0.002-0.024,0.019-0.052,0.021-0.075
	c-11.504-11.937-12.102-12.8-10.965-13.978c1.138-1.181,2.823,1.419,15.693,14.782c0.061,0.059,0.139,0.109,0.236,0.149
	c0.259,0.376,0.516,0.755,0.84,1.087c3.402,3.545,8.967,3.539,12.379,0c3.406-3.538,3.414-9.304,0-12.85
	c-0.18-0.188-0.385-0.327-0.576-0.498c-0.165-0.203-0.332-0.408-0.535-0.614c-11.744-12.174-13.081-14.491-12.184-15.421
	c1.023-1.062,6.49,5.166,18.178,17.281c0.023,0,0.049-0.006,0.078-0.006c3.423,3.234,8.744,3.156,12.055-0.276
	c3.188-3.308,3.357-8.546,0.572-12.114c-0.051-0.238-0.141-0.443-0.293-0.603c-14.789-15.354-14.157-15.584-13.258-16.514
	c0.895-0.929,0.959-0.993,15.354,13.937c0.053,0.062,0.09,0.134,0.15,0.197c3.405,3.545,8.97,3.536,12.383,0
	c3.402-3.538,3.413-9.306,0-12.851C-268.696,173.988-268.804,173.92-268.899,173.828z"/>
<path fill="none" stroke="#ED8223" stroke-width="2" stroke-miterlimit="10" d="M-237.532,577.485
	c-1.736-1.158-4.087-0.687-5.247,1.051c-1.977,2.966-4.696,4.249-7.03,4.771c-0.023-4.405-2.156-9.007-6.064-12.913
	c-3.73-3.732-9.148-4.48-12.884-1.793c-2.792,2.016-4.991,6.486-2.007,12.468c1.859,3.721,5.297,6.698,9.479,8.444
	c-0.791,0.559-1.707,1.101-2.738,1.615c-2.27,1.135-4.59,1.812-6.836,2.209c-5.447-11.129-15.289-20.643-27.934-27.361
	c-4.62,10.83-15.373,18.443-27.869,18.443c-16.047,0-29.181-12.559-30.177-28.361c-1.569,0.152-3.114,0.322-4.622,0.519
	c-9.482-6.138-27.066-13.694-44.668-12.521c0.814,7.315,5.303,16.713,11.086,23.493c-11.21,6.925-18.433,16.377-22.07,27.322
	c-4.268,1.872-8.873,3.06-14.022,3.407c-3.763,0.258-6.606,3.487-6.339,7.252c0.697,9.7,3.57,26.228,14.949,30.604
	c2.132,0.82,5.533,1.303,9.582,1.561c4.821,7.879,11.901,14.816,20.641,20.314c-1.463,7.305-3.272,14.68-5.5,22.125
	c-0.963,3.217,1.474,6.453,4.838,6.453h21.195c2.094,0,4.01-1.285,4.736-3.252c1.666-4.506,3.08-9.115,4.275-13.811
	c6.29,1.252,12.889,1.928,19.696,1.928c7.919,0,15.558-0.906,22.747-2.578c-0.936,3.736-1.938,7.486-3.066,11.258
	c-0.965,3.219,1.473,6.455,4.834,6.455h21.195c2.098,0,4.01-1.285,4.736-3.252c3.777-10.197,6.279-20.916,7.812-32.027
	c11.634-10.164,18.687-23.396,18.687-37.879c0-4.445-0.688-8.768-1.939-12.927c2.435-0.541,4.938-1.367,7.416-2.607
	c4.1-2.049,6.678-4.41,8.291-6.694c6.528-0.136,12.371-3.22,15.867-8.466C-235.32,580.994-235.792,578.646-237.532,577.485z
	 M-388.469,595.771c-3.485,0-6.308-2.824-6.308-6.309c0-3.482,2.822-6.306,6.308-6.306c3.482,0,6.306,2.823,6.306,6.306
	C-382.163,592.947-384.986,595.771-388.469,595.771z M-263.995,577.68c-0.77-1.537-0.754-2.641-0.34-2.942
	c0.164-0.118,0.413-0.188,0.719-0.188c0.635,0,1.516,0.315,2.388,1.192c2.295,2.297,3.657,4.873,3.831,7.149
	C-260.37,581.905-262.823,580.019-263.995,577.68z M-326.663,528.919c-13.934,0-25.229,11.294-25.229,25.227
	c0,13.934,11.295,25.228,25.229,25.228c13.932,0,25.226-11.294,25.226-25.228C-301.438,540.213-312.731,528.919-326.663,528.919z
	 M-318.575,548.998c-1.314,0.441-2.752-0.267-3.193-1.595c-0.418-1.244-1.948-2.695-4.895-2.695c-2.363,0-3.754,1.559-3.916,3.1
	c-0.197,1.918,1.459,3.434,4.434,4.059c6.791,1.422,8.777,6.013,8.414,9.513c-0.363,3.521-2.967,6.306-6.409,7.25v2.102
	c0,1.396-1.128,2.522-2.522,2.522s-2.523-1.126-2.523-2.522v-2.002c-4.033-0.816-6.365-3.497-7.157-5.867
	c-0.442-1.321,0.27-2.75,1.595-3.192c1.32-0.438,2.75,0.271,3.192,1.59c0.415,1.244,1.945,2.696,4.894,2.696
	c2.361,0,3.755-1.558,3.916-3.099c0.197-1.916-1.461-3.433-4.434-4.055c-6.791-1.423-8.776-6.019-8.416-9.517
	c0.361-3.521,2.969-6.308,6.41-7.252v-2.097c0-1.396,1.129-2.523,2.523-2.523s2.522,1.127,2.522,2.523v1.998
	c4.036,0.816,6.361,3.494,7.157,5.867C-316.54,547.123-317.257,548.551-318.575,548.998z"/>
<g>
	<path fill="none" stroke="#FFFFFF" stroke-width="2" stroke-miterlimit="10" d="M4.584,25.246h4.49v7.213
		c0,2.31,1.872,4.181,4.182,4.181c0.727,0,1.395-0.201,1.986-0.525v2.027c0,2.308,1.875,4.181,4.186,4.181
		c2.306,0,4.18-1.873,4.18-4.181V25.246h4.827l4.263-4.506v-2.661h-9.09V5.183c0-2.31-1.874-4.183-4.18-4.183
		c-2.311,0-4.186,1.874-4.186,4.183v2.025c-0.592-0.327-1.26-0.524-1.986-0.524c-2.31,0-4.182,1.872-4.182,4.18v7.215h-4.49
		C2.604,18.079,1,19.683,1,21.663C1,23.642,2.604,25.246,4.584,25.246z"/>
	<path fill="none" stroke="#FFFFFF" stroke-width="2" stroke-miterlimit="10" d="M89.582,18.079h-5.545v-7.215
		c0-2.308-1.872-4.18-4.182-4.18c-0.725,0-1.396,0.201-1.989,0.524V5.183c0-2.31-1.872-4.183-4.182-4.183s-4.181,1.874-4.181,4.183
		v12.896h-1.502v7.167h1.502v12.897c0,2.308,1.871,4.181,4.182,4.181c2.309,0,4.184-1.873,4.184-4.181v-2.028
		c0.594,0.325,1.266,0.526,1.988,0.526c2.308,0,4.182-1.872,4.182-4.181v-7.213h5.547c1.979,0,3.58-1.604,3.58-3.583
		C93.166,19.683,91.562,18.079,89.582,18.079z"/>
	<path fill="none" stroke="#FFFFFF" stroke-width="2" stroke-miterlimit="10" d="M39.121,4.344c-1.774,0-3.215,1.441-3.215,3.216
		v13.06l-5.156,5.452c-2.378,2.512-2.631,6.661-0.575,9.443l3.916,5.305c1.359,1.84,2.552,4.99,2.552,6.743
		c0,2.991,2.884,5.426,6.431,5.426h12.661c3.547,0,6.432-2.884,6.432-6.431V45.15c0-2.366,1.471-6.119,2.351-8.362
		c0.427-1.091,0.704-2.185,0.823-3.241c0.141-1.24-0.1-2.732-0.588-4.206c0.01-0.091,0.027-0.176,0.027-0.27V13.297
		c0-1.776-1.44-3.215-3.215-3.215c-1.773,0-3.216,1.439-3.216,3.215v8.859c-1.161-0.427-2.415-0.679-3.77-0.719
		c-2.643-0.076-5.267,0.518-7.741,1.781c-1.389,0.71-2.309,1.934-2.589,3.44c-0.329,1.794,0.286,3.771,1.647,5.286
		c0.202,0.224,0.403,0.456,0.598,0.686c-0.021-0.012-0.043-0.026-0.068-0.039c-2.104-1.275-4.607-3.203-6.02-5.708l4.166-5.382
		c0.544-0.702,1.704-1.272,2.592-1.272h7.366c1.774,0,3.216-1.439,3.216-3.215c0-1.073-0.531-2.018-1.34-2.602V9.578
		c0-1.775-1.439-3.215-3.215-3.215s-3.216,1.44-3.216,3.215v4.22H49.42v-4.22c0-1.775-1.439-3.215-3.216-3.215
		s-3.216,1.44-3.216,3.215v4.398c-0.225,0.072-0.436,0.168-0.641,0.288c-0.003,0.001-0.008,0.001-0.011,0.003V7.56
		C42.337,5.783,40.895,4.344,39.121,4.344z"/>
	<path fill="none" stroke="#FFFFFF" stroke-width="2" stroke-miterlimit="10" d="M62.969,67.049v-6.431
		c0-2.665-2.159-4.824-4.824-4.824H39.253c-2.665,0-4.823,2.159-4.823,4.824v6.431c0,2.663,2.158,4.823,4.823,4.823h18.892
		C60.81,71.873,62.969,69.712,62.969,67.049z"/>
</g>
</svg>
