<?xml version="1.0" encoding="utf-8"?>
<!-- Generator: Adobe Illustrator 18.1.0, SVG Export Plug-In . SVG Version: 6.00 Build 0)  -->
<!DOCTYPE svg PUBLIC "-//W3C//DTD SVG 1.1//EN" "http://www.w3.org/Graphics/SVG/1.1/DTD/svg11.dtd">
<svg version="1.1" id="Layer_1" xmlns="http://www.w3.org/2000/svg" xmlns:xlink="http://www.w3.org/1999/xlink" x="0px" y="0px"
	 width="106.2px" height="88.8px" viewBox="-209.8 354.8 106.2 88.8" enable-background="new -209.8 354.8 106.2 88.8"
	 xml:space="preserve">
<g>
	<path fill="none" d="M-137.8,369.6c0-1.6-1.2-2.8-2.8-2.8c-1.6,0-2.8,1.2-2.8,2.8v5.9h5.6V369.6z"/>
	<path fill="none" d="M-146.2,374.2c0-1.2-0.6-1.9-1.2-2.3l-0.4-0.3v-6.3c0-1.6-1.2-2.8-2.8-2.8c-1.6,0-2.8,1.2-2.8,2.8v6.1h-2.8
		v-6.1c0-1.6-1.2-2.8-2.8-2.8s-2.8,1.2-2.8,2.8v5.9l-2.8,1.4v-9.7c-0.1-1.7-1.3-2.9-2.9-2.9c-1.6,0-2.8,1.2-2.8,2.8v12.7h23.9
		C-146.3,375.1-146.2,374.7-146.2,374.2z"/>
	<path fill="none" d="M-159.5,384c-0.4,0.6-0.7,1.2-0.9,2c-0.3,1.8,0.3,3.9,1.7,5.5c0.1,0.1,0.2,0.3,0.4,0.5
		c0.1,0.1,0.2,0.2,0.3,0.3l1.8,1.8h-2.9l-0.2-0.2c-3.6-2.2-6.1-4.6-7.6-7.2l-0.3-0.6l1.6-2h-9.4l-1.8,1.9c-2.5,2.6-2.8,7.1-0.6,10
		l4.7,6.4c1.8,2.3,3.3,6.3,3.3,8.7c0,3,3,5.5,6.7,5.5h15.3c3.6,0,6.7-3.1,6.7-6.7V408c0-2.9,1.7-7.2,2.8-10.1l0.2-0.4
		c0.5-1.3,0.8-2.6,0.9-3.6c0.1-1.3-0.1-3-0.7-4.6l-0.1-0.2V384H-159.5z"/>
	<path fill="none" d="M-144.6,421.9h-22.7c-2.6,0-4.7,2.1-4.7,4.7v7.7c0,2.6,2.1,4.7,4.7,4.7h22.7c2.6,0,4.7-2.2,4.7-4.7v-7.7
		C-139.8,424-141.9,421.9-144.6,421.9z"/>
	<path fill="none" d="M-164.8,386.2c0.7,1,1.6,2.1,2.7,3.1c-0.3-1.2-0.4-2.5-0.2-3.7c0.1-0.6,0.3-1.1,0.5-1.6h-1.2L-164.8,386.2z"/>
	<path fill="#ED8222" d="M-107.8,372.7c-0.8,0-1.4,0.8-1.4,1.8V385c0,1,0.6,1.8,1.4,1.8c0.8,0,1.4-0.8,1.4-1.8v-10.5
		C-106.4,373.5-107,372.7-107.8,372.7z"/>
	<path fill="#ED8222" d="M-206.6,372.7c-0.8,0-1.4,0.8-1.4,1.8c0,2.7,0,7.8,0,10.5c0,1,0.6,1.7,1.4,1.8c0.8,0,1.4-0.8,1.4-1.8
		c0-2.7,0-7.8,0-10.5C-205.3,373.5-205.9,372.7-206.6,372.7z"/>
	<path fill="#ED8222" d="M-145.5,377.6c-0.4,0.4-0.9,0.8-1.4,1c0.5,0.1,1,0.2,1.4,0.3V377.6z"/>
	<path fill="#ED8222" d="M-154.6,379.1h-3.3c-0.7,0-1.9,0.6-2.3,1.1l-2.9,3.8h1.2c0.6-1.4,1.7-2.5,3.2-3.2
		C-157.4,380-156,379.5-154.6,379.1z"/>
	<path fill="#ED8222" d="M-125.7,356.9c-2.6,0-4.6,2.4-4.6,5.3v13.4h-5.4v8.5h5.4v13.4c0,2.9,2.1,5.3,4.6,5.3c2.6,0,4.7-2.4,4.7-5.3
		v-35.2C-121,359.2-123.1,356.9-125.7,356.9z"/>
	<path fill="#ED8222" d="M-172.4,375.5h-12.4v-13.4c0-2.9-2.1-5.3-4.6-5.3c-2.6,0-4.6,2.4-4.6,5.3c0,8.8,0,26.4,0,35.2
		c0,2.9,2.1,5.3,4.6,5.3c2.6,0,4.6-2.4,4.6-5.3V384h6.9l5.5-5.9V375.5z"/>
	<path fill="#ED8222" d="M-114.9,363.9h-0.5c-1.9,0-3.5,1.6-3.5,3.5v24.7c0,1.9,1.6,3.5,3.5,3.5h0.5c1.9,0,3.5-1.6,3.5-3.5
		c0-6.1,0-18.6,0-24.7C-111.4,365.5-112.9,363.9-114.9,363.9z"/>
	<path fill="#ED8222" d="M-199.6,363.9h-0.5c-1.9,0-3.5,1.6-3.5,3.5v24.7c0,1.9,1.6,3.5,3.5,3.5h0.5c1.9,0,3.5-1.6,3.5-3.5v-24.7
		C-196.1,365.5-197.7,363.9-199.6,363.9z"/>
	<path fill="#FFFFFF" d="M-135.7,369.6c0-2.7-2.1-4.9-4.9-4.9c-2.7,0-4.9,2.1-4.9,4.9v1.2c-0.1-0.1-0.1-0.1-0.2-0.2v-5.3
		c0-2.7-2.1-4.9-4.9-4.9c-1.8,0-3.4,0.9-4.2,2.4c-0.8-1.4-2.4-2.4-4.2-2.4c-1.5,0-2.8,0.6-3.6,1.6c-0.5-2.4-2.5-4.1-4.9-4.1
		c-2.7,0-4.9,2.1-4.9,4.9v12.7v2.6l-5.5,5.9l-0.4,0.5c-3.2,3.4-3.6,8.9-0.8,12.6l4.7,6.4c1.6,2.1,2.9,5.7,2.9,7.4
		c0,4.2,3.9,7.5,8.7,7.5h15.3c4.8,0,8.7-3.9,8.7-8.7V408c0-2.5,1.6-6.6,2.6-9.3l0.2-0.4c0.6-1.5,0.9-2.9,1-4.1
		c0.1-1.6-0.1-3.5-0.7-5.3V384v-8.5V369.6z M-137.7,389.3c0.5,1.6,0.8,3.3,0.7,4.6c-0.1,1-0.4,2.2-0.9,3.6l-0.2,0.4
		c-1.1,2.8-2.8,7.1-2.8,10.1v1.7c0,3.6-3.1,6.7-6.7,6.7h-15.3c-3.7,0-6.7-2.5-6.7-5.5c0-2.3-1.6-6.4-3.3-8.7l-4.7-6.4
		c-2.1-2.9-1.9-7.4,0.6-10l1.8-1.9l4.8-5v-3.5v-12.7c0-1.6,1.2-2.8,2.8-2.8c1.6,0,2.8,1.3,2.9,2.9v9.7l2.8-1.4v-5.9
		c0-1.6,1.2-2.8,2.8-2.8s2.8,1.2,2.8,2.8v6.1h2.8v-6.1c0-1.6,1.2-2.8,2.8-2.8c1.6,0,2.8,1.2,2.8,2.8v6.3l0.4,0.3
		c0.5,0.4,1.2,1.1,1.2,2.3c0,0.5-0.1,0.9-0.3,1.3c-0.5,0.9-1.4,1.5-2.5,1.5h-8.9c-1.4,0-3.2,0.9-3.9,2l-3.9,5l-1.6,2l0.3,0.6
		c1.4,2.6,4,5,7.6,7.2l0.2,0.2h2.9l-1.8-1.8c-0.1-0.1-0.2-0.2-0.3-0.3c-0.1-0.2-0.3-0.4-0.4-0.5c-1.3-1.6-2-3.7-1.7-5.5
		c0.2-0.8,0.4-1.4,0.9-2c0.4-0.6,1-1,1.7-1.4c2.5-1.3,5.3-2.1,8.1-2.1c0.2,0,0.4,0,0.7,0c1.7,0,3.1,0.4,4.2,0.8l1.4,0.5v-6.3v-5.9
		c0-1.6,1.2-2.8,2.8-2.8c1.6,0,2.8,1.2,2.8,2.8v5.9v8.5v5.2L-137.7,389.3z"/>
	<path fill="#FFFFFF" d="M-144.6,419.8h-22.7c-3.8,0-6.8,3.1-6.8,6.8v7.7c0,3.8,3.1,6.8,6.8,6.8h22.7c3.7,0,6.8-3.1,6.8-6.8v-7.7
		C-137.8,422.9-140.8,419.8-144.6,419.8z M-139.8,434.4c0,2.6-2.2,4.7-4.7,4.7h-22.7c-2.6,0-4.7-2.1-4.7-4.7v-7.7
		c0-2.6,2.1-4.7,4.7-4.7h22.7c2.6,0,4.7,2.1,4.7,4.7V434.4z"/>
</g>
</svg>
