<?xml version="1.0" encoding="utf-8"?>
<!-- Generator: Adobe Illustrator 18.1.0, SVG Export Plug-In . SVG Version: 6.00 Build 0)  -->
<!DOCTYPE svg PUBLIC "-//W3C//DTD SVG 1.1//EN" "http://www.w3.org/Graphics/SVG/1.1/DTD/svg11.dtd">
<svg version="1.1" id="Layer_1" xmlns="http://www.w3.org/2000/svg" xmlns:xlink="http://www.w3.org/1999/xlink" x="0px" y="0px"
	 width="94.2px" height="72.9px" viewBox="-102 114.1 94.2 72.9" enable-background="new -102 114.1 94.2 72.9"
	 xml:space="preserve">
<g>
	<path fill="none" stroke="#FFFFFF" stroke-width="2" stroke-miterlimit="10" d="M-97.4,139.4h4.5v7.2c0,2.3,1.9,4.2,4.2,4.2
		c0.7,0,1.4-0.2,2-0.5v2c0,2.3,1.9,4.2,4.2,4.2c2.3,0,4.2-1.9,4.2-4.2v-12.9h4.8l4.3-4.5v-2.7h-9.1v-12.9c0-2.3-1.9-4.2-4.2-4.2
		c-2.3,0-4.2,1.9-4.2,4.2v2c-0.6-0.3-1.3-0.5-2-0.5c-2.3,0-4.2,1.9-4.2,4.2v7.2h-4.5c-2,0-3.6,1.6-3.6,3.6
		C-101,137.8-99.4,139.4-97.4,139.4z"/>
	<path fill="none" stroke="#FFFFFF" stroke-width="2" stroke-miterlimit="10" d="M-12.4,132.2H-18V125c0-2.3-1.9-4.2-4.2-4.2
		c-0.7,0-1.4,0.2-2,0.5v-2c0-2.3-1.9-4.2-4.2-4.2s-4.2,1.9-4.2,4.2v12.9H-34v7.2h1.5v12.9c0,2.3,1.9,4.2,4.2,4.2
		c2.3,0,4.2-1.9,4.2-4.2v-2c0.6,0.3,1.3,0.5,2,0.5c2.3,0,4.2-1.9,4.2-4.2v-7.2h5.5c2,0,3.6-1.6,3.6-3.6
		C-8.8,133.8-10.4,132.2-12.4,132.2z"/>
	<path fill="none" stroke="#FFFFFF" stroke-width="2" stroke-miterlimit="10" d="M-62.9,118.5c-1.8,0-3.2,1.4-3.2,3.2v13.1l-5.2,5.5
		c-2.4,2.5-2.6,6.7-0.6,9.4l3.9,5.3c1.4,1.8,2.6,5,2.6,6.7c0,3,2.9,5.4,6.4,5.4h12.7c3.5,0,6.4-2.9,6.4-6.4v-1.4
		c0-2.4,1.5-6.1,2.4-8.4c0.4-1.1,0.7-2.2,0.8-3.2c0.1-1.2-0.1-2.7-0.6-4.2c0-0.1,0-0.2,0-0.3v-15.8c0-1.8-1.4-3.2-3.2-3.2
		c-1.8,0-3.2,1.4-3.2,3.2v8.9c-1.2-0.4-2.4-0.7-3.8-0.7c-2.6-0.1-5.3,0.5-7.7,1.8c-1.4,0.7-2.3,1.9-2.6,3.4
		c-0.3,1.8,0.3,3.8,1.6,5.3c0.2,0.2,0.4,0.5,0.6,0.7c0,0,0,0-0.1,0c-2.1-1.3-4.6-3.2-6-5.7l4.2-5.4c0.5-0.7,1.7-1.3,2.6-1.3h7.4
		c1.8,0,3.2-1.4,3.2-3.2c0-1.1-0.5-2-1.3-2.6v-4.8c0-1.8-1.4-3.2-3.2-3.2s-3.2,1.4-3.2,3.2v4.2h-0.6v-4.2c0-1.8-1.4-3.2-3.2-3.2
		s-3.2,1.4-3.2,3.2v4.4c-0.2,0.1-0.4,0.2-0.6,0.3c0,0,0,0,0,0v-6.7C-59.7,119.9-61.1,118.5-62.9,118.5z"/>
	<path fill="none" stroke="#FFFFFF" stroke-width="2" stroke-miterlimit="10" d="M-39,181.2v-6.4c0-2.7-2.2-4.8-4.8-4.8h-18.9
		c-2.7,0-4.8,2.2-4.8,4.8v6.4c0,2.7,2.2,4.8,4.8,4.8h18.9C-41.2,186-39,183.8-39,181.2z"/>
</g>
</svg>
