<?xml version="1.0" encoding="utf-8"?>
<!-- Generator: Adobe Illustrator 16.0.0, SVG Export Plug-In . SVG Version: 6.00 Build 0)  -->
<!DOCTYPE svg PUBLIC "-//W3C//DTD SVG 1.1//EN" "http://www.w3.org/Graphics/SVG/1.1/DTD/svg11.dtd">
<svg version="1.1" id="Layer_1" xmlns="http://www.w3.org/2000/svg" xmlns:xlink="http://www.w3.org/1999/xlink" x="0px" y="0px"
	 width="201.306px" height="151.468px" viewBox="0 0 201.306 151.468" enable-background="new 0 0 201.306 151.468"
	 xml:space="preserve">
<path fill="none" stroke="#ED8223" stroke-width="2" stroke-miterlimit="10" d="M269.087,393.371v7.394h-88.716v-7.394
	c0-4.069,3.319-7.393,7.394-7.393h14.887c0.389-9.225,6.373-16.93,14.686-19.882v-86.671c-3.9-2.463-6.508-6.779-6.508-11.731h6.508
	h14.783h6.506c0,4.952-2.604,9.269-6.506,11.731v86.671c8.312,2.952,14.296,10.657,14.686,19.882h14.885
	C265.765,385.978,269.087,389.301,269.087,393.371z M320.837,326.835c-5.412,15.264-19.855,26.266-36.965,26.266
	c-17.112,0-31.551-11.018-36.963-26.266h8.531l24.975-66.19c1.074-2.879,5.824-2.879,6.916,0l24.973,66.19H320.837z
	 M304.403,326.835l-20.531-54.409l-20.533,54.409H304.403z M165.583,252.98c3.354,0,6.081-2.238,7.027-5.278
	c2.447-0.934,4.953-2.188,7.521-3.489c5.652-2.858,12.064-6.093,18.723-6.093c6.382,0,10.379,2.944,12.662,5.466
	c-0.084,0.636-0.188,1.271-0.188,1.928c0,7.398,5.998,13.4,13.399,13.4c7.399,0,13.399-6.002,13.399-13.4
	c0-0.656-0.101-1.284-0.188-1.918c2.281-2.514,6.268-5.476,12.664-5.476c6.654,0,13.066,3.234,18.711,6.093
	c2.581,1.301,5.084,2.556,7.533,3.489c0.945,3.04,3.673,5.278,7.023,5.278c4.129,0,7.465-3.337,7.465-7.467
	s-3.336-7.466-7.465-7.466c-2.131,0-4.029,0.917-5.385,2.354c-1.834-0.772-3.805-1.762-5.836-2.788
	c-6.387-3.227-13.629-6.886-22.047-6.886c-7.363,0-12.492,2.802-15.977,5.818c-1.562-1.719-3.559-3.01-5.828-3.741
	c2.758-1.48,4.693-4.297,4.693-7.629c0-4.846-8.765-16.151-8.765-16.151s-8.767,11.306-8.767,16.151c0,3.34,1.938,6.148,4.693,7.629
	c-2.268,0.725-4.266,2.022-5.825,3.741c-3.487-3.017-8.614-5.818-15.976-5.818c-8.422,0-15.668,3.659-22.051,6.886
	c-2.035,1.026-4,2.016-5.834,2.773c-1.355-1.423-3.254-2.34-5.387-2.34c-4.131,0-7.461,3.336-7.461,7.466
	S161.452,252.98,165.583,252.98z M165.583,353.101c-17.107,0-31.549-11.018-36.963-26.266h8.533l24.974-66.19
	c1.075-2.879,5.824-2.879,6.915,0l24.974,66.19h8.534C197.138,342.083,182.695,353.101,165.583,353.101z M186.116,326.835
	l-20.533-54.409l-20.532,54.409H186.116z"/>
<path fill="none" stroke="#ED8223" stroke-width="2" stroke-miterlimit="10" d="M200.306,19.518v62.599
	c0,0-12.914,2.634-15.57,2.982c-2.658,0.346-10.979,3.127-17.031-2.881c-9.309-9.267-42.412-43.407-42.412-43.407
	s-5.705-5.804-14.87-0.779c-8.372,4.585-20.792,11.294-26.036,13.942c-1.861,1.354-4.117,2.15-6.562,2.15
	c-6.327,0-11.458-5.324-11.458-11.893c0-5.147,3.158-9.521,7.57-11.176c11.938-7.49,36.809-21.976,47.191-27.695
	c6.338-3.49,10.903-3.787,19.599,3.795c10.714,9.355,20.237,17.869,20.237,17.869s4.46,2.135,8.063,1.609
	C176.565,25.523,200.306,19.518,200.306,19.518z M68.595,125.583c1.602-4.269,1.066-9.055-2.006-12.324
	c-2.765-2.946-6.785-3.724-10.631-2.809c1.072-3.944,0.482-8.147-2.303-11.118c-2.771-2.941-6.779-3.712-10.627-2.798
	c1.062-3.945,0.474-8.148-2.299-11.121c-4.354-4.635-11.879-4.434-16.818,0.462c-4.918,4.897-8.072,13.755-3.678,18.956
	c4.388,5.194,9.41,2.04,13.255,1.128c-1.064,3.946-4.266,7.622-0.335,12.789c3.927,5.185,9.408,2.045,13.25,1.124
	c-1.068,3.943-4.135,7.986-0.334,12.791c3.82,4.799,10.08,2.242,14.203,0.913c-1.592,4.263-5.004,8.836-0.619,14.001
	c4.372,5.165,14.498,2.759,19.446-2.133c4.942-4.893,5.407-12.637,1.075-17.274C77.185,124.986,72.716,124.246,68.595,125.583z
	 M158.671,92.853c-35.553-36.879-18.807-19.518-38.008-39.468c0,0-5.791-5.979-13.404-2.511c-5.348,2.433-12.232,5.747-17.422,8.272
	c-5.708,3.09-10.682,4.034-11.719,4.034c-11.006,0-19.933-9.248-19.933-20.658c0-7.399,3.791-13.843,9.436-17.498
	C75.56,19.328,93.845,9.23,93.845,9.23s-5.562-7.324-17.771-7.324c-12.197,0-37.676,17.33-37.676,17.33s-7.232,4.81-17.535,0.484
	L1,12.542v71.615c0,0,5.665,1.712,10.764,3.861c1.161-3.396,2.997-6.554,5.589-9.139c8.452-8.357,22.457-8.446,30.154-0.236
	c2.309,2.482,3.928,5.486,4.76,8.764c3.105,0.996,5.895,2.744,8.16,5.16c2.32,2.465,3.931,5.474,4.771,8.752
	c3.104,1.002,5.885,2.749,8.161,5.176c2.552,2.711,4.243,6.02,5.048,9.604c3.228,0.979,6.17,2.778,8.528,5.303
	c4.606,4.915,6.261,11.597,5.257,18.045v0.002l0,0c0,0.006,0,0.006,0,0.01c0.011,0.01,0.023,0.018,0.034,0.031
	c0.175,0.203,2.878,3.359,4.595,5.131c3.414,3.549,8.967,3.539,12.381,0c3.404-3.532,3.418-9.297,0-12.844
	c-0.108-0.113-0.244-0.195-0.357-0.306c0.002-0.024,0.019-0.052,0.021-0.075c-11.504-11.937-12.102-12.8-10.965-13.978
	c1.138-1.181,2.823,1.419,15.693,14.782c0.061,0.059,0.139,0.109,0.236,0.149c0.259,0.376,0.516,0.755,0.84,1.087
	c3.402,3.545,8.967,3.539,12.379,0c3.406-3.538,3.414-9.304,0-12.85c-0.18-0.188-0.385-0.327-0.576-0.498
	c-0.165-0.203-0.332-0.408-0.535-0.614c-11.744-12.174-13.081-14.491-12.184-15.421c1.023-1.062,6.49,5.166,18.178,17.281
	c0.023,0,0.049-0.006,0.078-0.006c3.423,3.234,8.744,3.156,12.055-0.276c3.188-3.308,3.357-8.546,0.572-12.114
	c-0.051-0.238-0.141-0.443-0.293-0.603c-14.789-15.354-14.157-15.584-13.258-16.514c0.895-0.929,0.959-0.993,15.354,13.937
	c0.053,0.062,0.09,0.134,0.15,0.197c3.405,3.545,8.97,3.536,12.383,0c3.402-3.538,3.413-9.306,0-12.851
	C158.874,93.013,158.767,92.946,158.671,92.853z"/>
</svg>
