<?xml version="1.0" encoding="utf-8"?>
<!-- Generator: Adobe Illustrator 18.1.0, SVG Export Plug-In . SVG Version: 6.00 Build 0)  -->
<!DOCTYPE svg PUBLIC "-//W3C//DTD SVG 1.1//EN" "http://www.w3.org/Graphics/SVG/1.1/DTD/svg11.dtd">
<svg version="1.1" id="Layer_1" xmlns="http://www.w3.org/2000/svg" xmlns:xlink="http://www.w3.org/1999/xlink" x="0px" y="0px"
	 width="201.3px" height="151.5px" viewBox="-48 75.5 201.3 151.5" enable-background="new -48 75.5 201.3 151.5"
	 xml:space="preserve">
<path fill="none" stroke="#ED8223" stroke-width="2" stroke-miterlimit="10" d="M152.3,95v62.6c0,0-12.9,2.6-15.6,3
	c-2.7,0.3-11,3.1-17-2.9c-9.3-9.3-42.4-43.4-42.4-43.4s-5.7-5.8-14.9-0.8c-8.4,4.6-20.8,11.3-26,13.9c-1.9,1.4-4.1,2.2-6.6,2.2
	c-6.3,0-11.5-5.3-11.5-11.9c0-5.1,3.2-9.5,7.6-11.2c11.9-7.5,36.8-22,47.2-27.7c6.3-3.5,10.9-3.8,19.6,3.8
	c10.7,9.4,20.2,17.9,20.2,17.9s4.5,2.1,8.1,1.6C128.6,101.1,152.3,95,152.3,95z M20.6,201.1c1.6-4.3,1.1-9.1-2-12.3
	c-2.8-2.9-6.8-3.7-10.6-2.8c1.1-3.9,0.5-8.1-2.3-11.1c-2.8-2.9-6.8-3.7-10.6-2.8c1.1-3.9,0.5-8.1-2.3-11.1
	c-4.4-4.6-11.9-4.4-16.8,0.5c-4.9,4.9-8.1,13.8-3.7,19c4.4,5.2,9.4,2,13.3,1.1c-1.1,3.9-4.3,7.6-0.3,12.8c3.9,5.2,9.4,2,13.2,1.1
	c-1.1,3.9-4.1,8-0.3,12.8c3.8,4.8,10.1,2.2,14.2,0.9c-1.6,4.3-5,8.8-0.6,14c4.4,5.2,14.5,2.8,19.4-2.1c4.9-4.9,5.4-12.6,1.1-17.3
	C29.2,200.5,24.7,199.8,20.6,201.1z M110.7,168.4c-35.6-36.9-18.8-19.5-38-39.5c0,0-5.8-6-13.4-2.5c-5.3,2.4-12.2,5.7-17.4,8.3
	c-5.7,3.1-10.7,4-11.7,4c-11,0-19.9-9.2-19.9-20.7c0-7.4,3.8-13.8,9.4-17.5c7.9-5.7,26.2-15.8,26.2-15.8s-5.6-7.3-17.8-7.3
	c-12.2,0-37.7,17.3-37.7,17.3s-7.2,4.8-17.5,0.5L-47,88.1v71.6c0,0,5.7,1.7,10.8,3.9c1.2-3.4,3-6.6,5.6-9.1
	c8.5-8.4,22.5-8.4,30.2-0.2c2.3,2.5,3.9,5.5,4.8,8.8c3.1,1,5.9,2.7,8.2,5.2c2.3,2.5,3.9,5.5,4.8,8.8c3.1,1,5.9,2.7,8.2,5.2
	c2.6,2.7,4.2,6,5,9.6c3.2,1,6.2,2.8,8.5,5.3c4.6,4.9,6.3,11.6,5.3,18v0l0,0c0,0,0,0,0,0c0,0,0,0,0,0c0.2,0.2,2.9,3.4,4.6,5.1
	c3.4,3.5,9,3.5,12.4,0c3.4-3.5,3.4-9.3,0-12.8c-0.1-0.1-0.2-0.2-0.4-0.3c0,0,0-0.1,0-0.1c-11.5-11.9-12.1-12.8-11-14
	c1.1-1.2,2.8,1.4,15.7,14.8c0.1,0.1,0.1,0.1,0.2,0.1c0.3,0.4,0.5,0.8,0.8,1.1c3.4,3.5,9,3.5,12.4,0c3.4-3.5,3.4-9.3,0-12.9
	c-0.2-0.2-0.4-0.3-0.6-0.5c-0.2-0.2-0.3-0.4-0.5-0.6c-11.7-12.2-13.1-14.5-12.2-15.4c1-1.1,6.5,5.2,18.2,17.3c0,0,0,0,0.1,0
	c3.4,3.2,8.7,3.2,12.1-0.3c3.2-3.3,3.4-8.5,0.6-12.1c-0.1-0.2-0.1-0.4-0.3-0.6c-14.8-15.4-14.2-15.6-13.3-16.5
	c0.9-0.9,1-1,15.4,13.9c0.1,0.1,0.1,0.1,0.1,0.2c3.4,3.5,9,3.5,12.4,0c3.4-3.5,3.4-9.3,0-12.9C110.9,168.5,110.8,168.5,110.7,168.4z
	"/>
</svg>
