<svg xmlns="http://www.w3.org/2000/svg" width="203.6" height="189" viewBox="-47 42 203.6 189" enable-background="new -47 42 203.6 189"><path fill="none" stroke="#ED8223" stroke-width="2" stroke-miterlimit="10" d="M154 120.9c-1.7-1.2-4.1-.7-5.2 1.1-2 3-4.7 4.2-7 4.8 0-4.4-2.2-9-6.1-12.9-3.7-3.7-9.1-4.5-12.9-1.8-2.8 2-5 6.5-2 12.5 1.9 3.7 5.3 6.7 9.5 8.4-.8.6-1.7 1.1-2.7 1.6-2.3 1.1-4.6 1.8-6.8 2.2-5.4-11.1-15.3-20.6-27.9-27.4-4.6 10.8-15.4 18.4-27.9 18.4-16 0-29.2-12.6-30.2-28.4-1.6.2-3.1.3-4.6.5C20.5 93.8 3 86.3-14.6 87.5c.8 7.3 5.3 16.7 11.1 23.5-11.2 6.9-18.4 16.4-22.1 27.3-4.3 1.9-8.9 3.1-14 3.4-3.8.3-6.6 3.5-6.3 7.3.7 9.7 3.6 26.2 14.9 30.6 2.1.8 5.5 1.3 9.6 1.6 4.8 7.9 11.9 14.8 20.6 20.3-1.5 7.3-3.3 14.7-5.5 22.1-1 3.2 1.5 6.5 4.8 6.5h21.2c2.1 0 4-1.3 4.7-3.3 1.7-4.5 3.1-9.1 4.3-13.8 6.3 1.3 12.9 1.9 19.7 1.9 7.9 0 15.6-.9 22.7-2.6-.9 3.7-1.9 7.5-3.1 11.3-1 3.2 1.5 6.5 4.8 6.5H94c2.1 0 4-1.3 4.7-3.3 3.8-10.2 6.3-20.9 7.8-32 11.6-10.2 18.7-23.4 18.7-37.9 0-4.4-.7-8.8-1.9-12.9 2.4-.5 4.9-1.4 7.4-2.6 4.1-2 6.7-4.4 8.3-6.7 6.5-.1 12.4-3.2 15.9-8.5 1.3-1.8.8-4.1-.9-5.3z"/><circle fill="none" stroke="#ED8223" stroke-width="2" stroke-miterlimit="10" cx="3" cy="132.9" r="6.3"/><path fill="none" stroke="#ED8223" stroke-width="2" stroke-miterlimit="10" d="M127.5 121.1c-.8-1.5-.8-2.6-.3-2.9.2-.1.4-.2.7-.2.6 0 1.5.3 2.4 1.2 2.3 2.3 3.7 4.9 3.8 7.1-3-1-5.4-2.9-6.6-5.2z"/><g fill="none" stroke="#ED8223" stroke-width="2" stroke-miterlimit="10"><circle cx="64.8" cy="97.6" r="25.2"/><path d="M72.9 92.4c-1.3.4-2.8-.3-3.2-1.6-.4-1.2-1.9-2.7-4.9-2.7-2.4 0-3.8 1.6-3.9 3.1-.2 1.9 1.5 3.4 4.4 4.1 6.8 1.4 8.8 6 8.4 9.5-.4 3.5-3 6.3-6.4 7.2v2.1c0 1.4-1.1 2.5-2.5 2.5s-2.5-1.1-2.5-2.5v-2c-4-.8-6.4-3.5-7.2-5.9-.4-1.3.3-2.8 1.6-3.2 1.3-.4 2.8.3 3.2 1.6.4 1.2 1.9 2.7 4.9 2.7 2.4 0 3.8-1.6 3.9-3.1.2-1.9-1.5-3.4-4.4-4.1-6.8-1.4-8.8-6-8.4-9.5.4-3.5 3-6.3 6.4-7.3v-2.1c0-1.4 1.1-2.5 2.5-2.5s2.5 1.1 2.5 2.5v2c4 .8 6.4 3.5 7.2 5.9.5 1.4-.3 2.9-1.6 3.3z"/></g><g fill="none" stroke="#ED8223" stroke-width="2" stroke-miterlimit="10"><circle cx="106.8" cy="72.3" r="17.4"/><path d="M112.4 68.8c-.9.3-1.9-.2-2.2-1.1-.3-.9-1.3-1.9-3.4-1.9-1.6 0-2.6 1.1-2.7 2.1-.1 1.3 1 2.4 3.1 2.8 4.7 1 6 4.1 5.8 6.6-.3 2.4-2 4.3-4.4 5v1.4c0 1-.8 1.7-1.7 1.7-1 0-1.7-.8-1.7-1.7v-1.4c-2.8-.6-4.4-2.4-4.9-4-.3-.9.2-1.9 1.1-2.2.9-.3 1.9.2 2.2 1.1.3.9 1.3 1.9 3.4 1.9 1.6 0 2.6-1.1 2.7-2.1.1-1.3-1-2.4-3.1-2.8-4.7-1-6-4.1-5.8-6.6.2-2.4 2-4.3 4.4-5v-1.4c0-1 .8-1.7 1.7-1.7 1 0 1.7.8 1.7 1.7v1.4c2.8.6 4.4 2.4 4.9 4 .3.9-.2 1.9-1.1 2.2z"/></g><g fill="none" stroke="#ED8223" stroke-width="2" stroke-miterlimit="10"><circle cx="36.4" cy="59" r="13.9"/><path d="M40.8 56.2c-.7.2-1.5-.1-1.8-.9-.2-.7-1.1-1.5-2.7-1.5-1.3 0-2.1.9-2.2 1.7-.1 1.1.8 1.9 2.4 2.2 3.7.8 4.8 3.3 4.6 5.2-.2 1.9-1.6 3.5-3.5 4v1.2c0 .8-.6 1.4-1.4 1.4s-1.2-.6-1.2-1.3v-1.1c-2.2-.4-3.5-1.9-3.9-3.2-.2-.7.1-1.5.9-1.8.7-.2 1.5.1 1.8.9.2.7 1.1 1.5 2.7 1.5 1.3 0 2.1-.9 2.2-1.7.1-1.1-.8-1.9-2.4-2.2-3.7-.8-4.8-3.3-4.6-5.2.2-1.9 1.6-3.5 3.5-4v-1.2c0-.8.6-1.4 1.4-1.4s1.4.6 1.4 1.4v1.1c2.2.4 3.5 1.9 3.9 3.2.1.7-.3 1.4-1.1 1.7z"/></g></svg>