<?xml version="1.0" encoding="utf-8"?>
<!-- Generator: Adobe Illustrator 18.1.0, SVG Export Plug-In . SVG Version: 6.00 Build 0)  -->
<!DOCTYPE svg PUBLIC "-//W3C//DTD SVG 1.1//EN" "http://www.w3.org/Graphics/SVG/1.1/DTD/svg11.dtd">
<svg version="1.1" id="pig" xmlns="http://www.w3.org/2000/svg" xmlns:xlink="http://www.w3.org/1999/xlink" x="0px" y="0px"
	 width="203.6px" height="189px" viewBox="-47 42 203.6 189" enable-background="new -47 42 203.6 189" xml:space="preserve">
<path fill="none" stroke="#ED8223" stroke-width="2" stroke-miterlimit="10" d="M154,120.9c-1.7-1.2-4.1-0.7-5.2,1.1
	c-2,3-4.7,4.2-7,4.8c0-4.4-2.2-9-6.1-12.9c-3.7-3.7-9.1-4.5-12.9-1.8c-2.8,2-5,6.5-2,12.5c1.9,3.7,5.3,6.7,9.5,8.4
	c-0.8,0.6-1.7,1.1-2.7,1.6c-2.3,1.1-4.6,1.8-6.8,2.2c-5.4-11.1-15.3-20.6-27.9-27.4c-4.6,10.8-15.4,18.4-27.9,18.4
	c-16,0-29.2-12.6-30.2-28.4c-1.6,0.2-3.1,0.3-4.6,0.5C20.5,93.8,3,86.3-14.6,87.5c0.8,7.3,5.3,16.7,11.1,23.5
	c-11.2,6.9-18.4,16.4-22.1,27.3c-4.3,1.9-8.9,3.1-14,3.4c-3.8,0.3-6.6,3.5-6.3,7.3c0.7,9.7,3.6,26.2,14.9,30.6
	c2.1,0.8,5.5,1.3,9.6,1.6c4.8,7.9,11.9,14.8,20.6,20.3c-1.5,7.3-3.3,14.7-5.5,22.1c-1,3.2,1.5,6.5,4.8,6.5h21.2c2.1,0,4-1.3,4.7-3.3
	c1.7-4.5,3.1-9.1,4.3-13.8c6.3,1.3,12.9,1.9,19.7,1.9c7.9,0,15.6-0.9,22.7-2.6c-0.9,3.7-1.9,7.5-3.1,11.3c-1,3.2,1.5,6.5,4.8,6.5
	h21.2c2.1,0,4-1.3,4.7-3.3c3.8-10.2,6.3-20.9,7.8-32c11.6-10.2,18.7-23.4,18.7-37.9c0-4.4-0.7-8.8-1.9-12.9c2.4-0.5,4.9-1.4,7.4-2.6
	c4.1-2,6.7-4.4,8.3-6.7c6.5-0.1,12.4-3.2,15.9-8.5C156.2,124.4,155.7,122.1,154,120.9z"/>
<circle fill="none" stroke="#ED8223" stroke-width="2" stroke-miterlimit="10" cx="3" cy="132.9" r="6.3"/>
<path fill="none" stroke="#ED8223" stroke-width="2" stroke-miterlimit="10" d="M127.5,121.1c-0.8-1.5-0.8-2.6-0.3-2.9
	c0.2-0.1,0.4-0.2,0.7-0.2c0.6,0,1.5,0.3,2.4,1.2c2.3,2.3,3.7,4.9,3.8,7.1C131.1,125.3,128.7,123.4,127.5,121.1z"/>
<g id="coin-1">
	<circle fill="none" stroke="#ED8223" stroke-width="2" stroke-miterlimit="10" cx="64.8" cy="97.6" r="25.2"/>
	<path fill="none" stroke="#ED8223" stroke-width="2" stroke-miterlimit="10" d="M72.9,92.4c-1.3,0.4-2.8-0.3-3.2-1.6
		c-0.4-1.2-1.9-2.7-4.9-2.7c-2.4,0-3.8,1.6-3.9,3.1c-0.2,1.9,1.5,3.4,4.4,4.1c6.8,1.4,8.8,6,8.4,9.5c-0.4,3.5-3,6.3-6.4,7.2v2.1
		c0,1.4-1.1,2.5-2.5,2.5s-2.5-1.1-2.5-2.5v-2c-4-0.8-6.4-3.5-7.2-5.9c-0.4-1.3,0.3-2.8,1.6-3.2c1.3-0.4,2.8,0.3,3.2,1.6
		c0.4,1.2,1.9,2.7,4.9,2.7c2.4,0,3.8-1.6,3.9-3.1c0.2-1.9-1.5-3.4-4.4-4.1c-6.8-1.4-8.8-6-8.4-9.5c0.4-3.5,3-6.3,6.4-7.3v-2.1
		c0-1.4,1.1-2.5,2.5-2.5s2.5,1.1,2.5,2.5v2c4,0.8,6.4,3.5,7.2,5.9C75,90.5,74.2,92,72.9,92.4z"/>
</g>
<g id="coin-2">
	<circle fill="none" stroke="#ED8223" stroke-width="2" stroke-miterlimit="10" cx="106.8" cy="72.3" r="17.4"/>
	<path fill="none" stroke="#ED8223" stroke-width="2" stroke-miterlimit="10" d="M112.4,68.8c-0.9,0.3-1.9-0.2-2.2-1.1
		c-0.3-0.9-1.3-1.9-3.4-1.9c-1.6,0-2.6,1.1-2.7,2.1c-0.1,1.3,1,2.4,3.1,2.8c4.7,1,6,4.1,5.8,6.6c-0.3,2.4-2,4.3-4.4,5v1.4
		c0,1-0.8,1.7-1.7,1.7c-1,0-1.7-0.8-1.7-1.7v-1.4c-2.8-0.6-4.4-2.4-4.9-4c-0.3-0.9,0.2-1.9,1.1-2.2c0.9-0.3,1.9,0.2,2.2,1.1
		c0.3,0.9,1.3,1.9,3.4,1.9c1.6,0,2.6-1.1,2.7-2.1c0.1-1.3-1-2.4-3.1-2.8c-4.7-1-6-4.1-5.8-6.6c0.2-2.4,2-4.3,4.4-5v-1.4
		c0-1,0.8-1.7,1.7-1.7c1,0,1.7,0.8,1.7,1.7v1.4c2.8,0.6,4.4,2.4,4.9,4C113.8,67.5,113.3,68.5,112.4,68.8z"/>
</g>
<g id="coin-3">
	<circle fill="none" stroke="#ED8223" stroke-width="2" stroke-miterlimit="10" cx="36.4" cy="59" r="13.9"/>
	<path fill="none" stroke="#ED8223" stroke-width="2" stroke-miterlimit="10" d="M40.8,56.2c-0.7,0.2-1.5-0.1-1.8-0.9
		c-0.2-0.7-1.1-1.5-2.7-1.5c-1.3,0-2.1,0.9-2.2,1.7c-0.1,1.1,0.8,1.9,2.4,2.2c3.7,0.8,4.8,3.3,4.6,5.2c-0.2,1.9-1.6,3.5-3.5,4v1.2
		c0,0.8-0.6,1.4-1.4,1.4S35,68.9,35,68.2v-1.1c-2.2-0.4-3.5-1.9-3.9-3.2c-0.2-0.7,0.1-1.5,0.9-1.8c0.7-0.2,1.5,0.1,1.8,0.9
		c0.2,0.7,1.1,1.5,2.7,1.5c1.3,0,2.1-0.9,2.2-1.7c0.1-1.1-0.8-1.9-2.4-2.2c-3.7-0.8-4.8-3.3-4.6-5.2c0.2-1.9,1.6-3.5,3.5-4v-1.2
		c0-0.8,0.6-1.4,1.4-1.4s1.4,0.6,1.4,1.4v1.1c2.2,0.4,3.5,1.9,3.9,3.2C42,55.2,41.6,55.9,40.8,56.2z"/>
</g>
</svg>
