<?xml version="1.0" encoding="utf-8"?>
<!-- Generator: Adobe Illustrator 16.0.0, SVG Export Plug-In . SVG Version: 6.00 Build 0)  -->
<!DOCTYPE svg PUBLIC "-//W3C//DTD SVG 1.1//EN" "http://www.w3.org/Graphics/SVG/1.1/DTD/svg11.dtd">
<svg version="1.1" id="Layer_1" xmlns="http://www.w3.org/2000/svg" xmlns:xlink="http://www.w3.org/1999/xlink" x="0px" y="0px"
	 width="203.648px" height="159.669px" viewBox="0 0 203.648 159.669" enable-background="new 0 0 203.648 159.669"
	 xml:space="preserve">
<path fill="none" stroke="#ED8223" stroke-width="2" stroke-miterlimit="10" d="M280.01-53.574v7.394h-88.716v-7.394
	c0-4.069,3.319-7.393,7.394-7.393h14.887c0.389-9.225,6.373-16.93,14.686-19.882v-86.671c-3.9-2.463-6.508-6.779-6.508-11.731h6.508
	h14.783h6.506c0,4.952-2.604,9.269-6.506,11.731v86.671c8.312,2.952,14.296,10.657,14.686,19.882h14.885
	C276.688-60.967,280.01-57.644,280.01-53.574z M331.76-120.109c-5.412,15.264-19.855,26.266-36.965,26.266
	c-17.112,0-31.551-11.018-36.963-26.266h8.531l24.975-66.19c1.074-2.879,5.824-2.879,6.916,0l24.973,66.19H331.76z M315.326-120.109
	l-20.531-54.409l-20.533,54.409H315.326z M176.506-193.965c3.354,0,6.081-2.238,7.027-5.278c2.447-0.934,4.953-2.188,7.521-3.489
	c5.652-2.858,12.064-6.093,18.723-6.093c6.382,0,10.379,2.944,12.662,5.466c-0.084,0.636-0.188,1.271-0.188,1.928
	c0,7.398,5.998,13.4,13.399,13.4c7.399,0,13.399-6.002,13.399-13.4c0-0.656-0.101-1.284-0.188-1.918
	c2.281-2.514,6.268-5.476,12.664-5.476c6.654,0,13.066,3.234,18.711,6.093c2.581,1.301,5.084,2.556,7.533,3.489
	c0.945,3.04,3.673,5.278,7.023,5.278c4.129,0,7.465-3.337,7.465-7.467s-3.336-7.466-7.465-7.466c-2.131,0-4.029,0.917-5.385,2.354
	c-1.834-0.772-3.805-1.762-5.836-2.788c-6.387-3.227-13.629-6.886-22.047-6.886c-7.363,0-12.492,2.802-15.977,5.818
	c-1.562-1.719-3.559-3.01-5.828-3.741c2.758-1.48,4.693-4.297,4.693-7.629c0-4.846-8.765-16.151-8.765-16.151
	s-8.767,11.306-8.767,16.151c0,3.34,1.938,6.148,4.693,7.629c-2.268,0.725-4.266,2.022-5.825,3.741
	c-3.487-3.017-8.614-5.818-15.976-5.818c-8.422,0-15.668,3.659-22.051,6.886c-2.035,1.026-4,2.016-5.834,2.773
	c-1.355-1.423-3.254-2.34-5.387-2.34c-4.131,0-7.461,3.336-7.461,7.466S172.375-193.965,176.506-193.965z M176.506-93.844
	c-17.107,0-31.549-11.018-36.963-26.266h8.533l24.974-66.19c1.075-2.879,5.824-2.879,6.915,0l24.974,66.19h8.534
	C208.061-104.861,193.618-93.844,176.506-93.844z M197.039-120.109l-20.533-54.409l-20.532,54.409H197.039z"/>
<path fill="none" stroke="#ED8223" stroke-width="2" stroke-miterlimit="10" d="M211.229-427.427v62.599
	c0,0-12.914,2.634-15.57,2.982c-2.658,0.346-10.979,3.127-17.031-2.881c-9.309-9.267-42.412-43.407-42.412-43.407
	s-5.705-5.804-14.87-0.779c-8.372,4.585-20.792,11.294-26.036,13.942c-1.861,1.354-4.117,2.15-6.562,2.15
	c-6.327,0-11.458-5.324-11.458-11.893c0-5.147,3.158-9.521,7.57-11.176c11.938-7.49,36.809-21.976,47.191-27.695
	c6.338-3.49,10.903-3.787,19.599,3.795c10.714,9.355,20.237,17.869,20.237,17.869s4.46,2.135,8.063,1.609
	C187.488-421.422,211.229-427.427,211.229-427.427z M79.518-321.361c1.602-4.269,1.066-9.055-2.006-12.324
	c-2.765-2.946-6.785-3.724-10.631-2.809c1.072-3.944,0.482-8.147-2.303-11.118c-2.771-2.941-6.779-3.712-10.627-2.798
	c1.062-3.945,0.474-8.148-2.299-11.121c-4.354-4.635-11.879-4.434-16.818,0.462c-4.918,4.897-8.072,13.755-3.678,18.956
	c4.388,5.194,9.41,2.04,13.255,1.128c-1.064,3.946-4.266,7.622-0.335,12.789c3.927,5.185,9.408,2.045,13.25,1.124
	c-1.068,3.943-4.135,7.986-0.334,12.791c3.82,4.799,10.08,2.242,14.203,0.913c-1.592,4.263-5.004,8.836-0.619,14.001
	c4.372,5.165,14.498,2.759,19.446-2.133c4.942-4.893,5.407-12.637,1.075-17.274C88.107-321.959,83.639-322.699,79.518-321.361z
	 M169.594-354.092c-35.553-36.879-18.807-19.518-38.008-39.468c0,0-5.791-5.979-13.404-2.511
	c-5.348,2.433-12.232,5.747-17.422,8.272c-5.708,3.09-10.682,4.034-11.719,4.034c-11.006,0-19.933-9.248-19.933-20.658
	c0-7.399,3.791-13.843,9.436-17.498c7.938-5.697,26.224-15.795,26.224-15.795s-5.562-7.324-17.771-7.324
	c-12.197,0-37.676,17.33-37.676,17.33s-7.232,4.81-17.535,0.484l-19.862-7.178v71.615c0,0,5.665,1.712,10.764,3.861
	c1.161-3.396,2.997-6.554,5.589-9.139c8.452-8.357,22.457-8.446,30.154-0.236c2.309,2.482,3.928,5.486,4.76,8.764
	c3.105,0.996,5.895,2.744,8.16,5.16c2.32,2.465,3.931,5.474,4.771,8.752c3.104,1.002,5.885,2.749,8.161,5.176
	c2.552,2.711,4.243,6.02,5.048,9.604c3.228,0.979,6.17,2.778,8.528,5.303c4.606,4.915,6.261,11.597,5.257,18.045v0.002l0,0
	c0,0.006,0,0.006,0,0.01c0.011,0.01,0.023,0.018,0.034,0.031c0.175,0.203,2.878,3.359,4.595,5.131c3.414,3.549,8.967,3.539,12.381,0
	c3.404-3.532,3.418-9.297,0-12.844c-0.108-0.113-0.244-0.195-0.357-0.306c0.002-0.024,0.019-0.052,0.021-0.075
	c-11.504-11.937-12.102-12.8-10.965-13.978c1.138-1.181,2.823,1.419,15.693,14.782c0.061,0.059,0.139,0.109,0.236,0.149
	c0.259,0.376,0.516,0.755,0.84,1.087c3.402,3.545,8.967,3.539,12.379,0c3.406-3.538,3.414-9.304,0-12.85
	c-0.18-0.188-0.385-0.327-0.576-0.498c-0.165-0.203-0.332-0.408-0.535-0.614c-11.744-12.174-13.081-14.491-12.184-15.421
	c1.023-1.062,6.49,5.166,18.178,17.281c0.023,0,0.049-0.006,0.078-0.006c3.423,3.234,8.744,3.156,12.055-0.276
	c3.188-3.308,3.357-8.546,0.572-12.114c-0.051-0.238-0.141-0.443-0.293-0.603c-14.789-15.354-14.157-15.584-13.258-16.514
	c0.895-0.929,0.959-0.993,15.354,13.937c0.053,0.062,0.09,0.134,0.15,0.197c3.405,3.545,8.97,3.536,12.383,0
	c3.402-3.538,3.413-9.306,0-12.851C169.797-353.932,169.689-353.999,169.594-354.092z"/>
<path fill="none" stroke="#ED8223" stroke-width="2" stroke-miterlimit="10" d="M200.961,49.565
	c-1.736-1.158-4.087-0.687-5.247,1.051c-1.977,2.966-4.696,4.249-7.03,4.771c-0.023-4.405-2.156-9.007-6.064-12.913
	c-3.73-3.732-9.148-4.48-12.884-1.793c-2.792,2.016-4.991,6.486-2.007,12.468c1.859,3.721,5.297,6.698,9.479,8.444
	c-0.791,0.559-1.707,1.101-2.738,1.615c-2.27,1.135-4.59,1.812-6.836,2.209c-5.447-11.129-15.289-20.643-27.934-27.361
	c-4.62,10.83-15.373,18.443-27.869,18.443c-16.047,0-29.181-12.559-30.177-28.361c-1.569,0.152-3.114,0.322-4.622,0.519
	c-9.482-6.138-27.066-13.694-44.668-12.521c0.814,7.315,5.303,16.713,11.086,23.493c-11.21,6.925-18.433,16.377-22.07,27.322
	c-4.268,1.872-8.873,3.06-14.022,3.407c-3.763,0.258-6.606,3.487-6.339,7.252c0.697,9.7,3.57,26.228,14.949,30.604
	c2.132,0.82,5.533,1.303,9.582,1.561c4.821,7.879,11.901,14.816,20.641,20.314c-1.463,7.305-3.272,14.68-5.5,22.125
	c-0.963,3.217,1.474,6.453,4.838,6.453h21.195c2.094,0,4.01-1.285,4.736-3.252c1.666-4.506,3.08-9.115,4.275-13.811
	c6.29,1.252,12.889,1.928,19.696,1.928c7.919,0,15.558-0.906,22.747-2.578c-0.936,3.736-1.938,7.486-3.066,11.258
	c-0.965,3.219,1.473,6.455,4.834,6.455h21.195c2.098,0,4.01-1.285,4.736-3.252c3.777-10.197,6.279-20.916,7.812-32.027
	c11.634-10.164,18.687-23.396,18.687-37.879c0-4.445-0.688-8.768-1.939-12.927c2.435-0.541,4.938-1.367,7.416-2.607
	c4.1-2.049,6.678-4.41,8.291-6.694c6.528-0.136,12.371-3.22,15.867-8.466C203.173,53.074,202.701,50.727,200.961,49.565z
	 M50.024,67.852c-3.485,0-6.308-2.824-6.308-6.309c0-3.482,2.822-6.306,6.308-6.306c3.482,0,6.306,2.823,6.306,6.306
	C56.33,65.027,53.507,67.852,50.024,67.852z M174.498,49.761c-0.77-1.537-0.754-2.641-0.34-2.942
	c0.164-0.118,0.413-0.188,0.719-0.188c0.635,0,1.516,0.315,2.388,1.192c2.295,2.297,3.657,4.873,3.831,7.149
	C178.123,53.985,175.67,52.1,174.498,49.761z M111.83,1C97.896,1,86.602,12.294,86.602,26.227c0,13.934,11.295,25.228,25.229,25.228
	c13.932,0,25.226-11.294,25.226-25.228C137.056,12.294,125.762,1,111.83,1z M119.918,21.078c-1.314,0.441-2.752-0.267-3.193-1.595
	c-0.418-1.244-1.948-2.695-4.895-2.695c-2.363,0-3.754,1.559-3.916,3.1c-0.197,1.918,1.459,3.434,4.434,4.059
	c6.791,1.422,8.777,6.013,8.414,9.513c-0.363,3.521-2.967,6.306-6.409,7.25v2.102c0,1.396-1.128,2.522-2.522,2.522
	s-2.523-1.126-2.523-2.522v-2.002c-4.033-0.816-6.365-3.497-7.157-5.867c-0.442-1.321,0.27-2.75,1.595-3.192
	c1.32-0.438,2.75,0.271,3.192,1.59c0.415,1.244,1.945,2.696,4.894,2.696c2.361,0,3.755-1.558,3.916-3.099
	c0.197-1.916-1.461-3.433-4.434-4.055c-6.791-1.423-8.776-6.019-8.416-9.517c0.361-3.521,2.969-6.308,6.41-7.252v-2.097
	c0-1.396,1.129-2.523,2.523-2.523s2.522,1.127,2.522,2.523v1.998c4.036,0.816,6.361,3.494,7.157,5.867
	C121.953,19.203,121.236,20.632,119.918,21.078z"/>
</svg>
