<?xml version="1.0" encoding="utf-8"?>
<!-- Generator: Adobe Illustrator 16.0.0, SVG Export Plug-In . SVG Version: 6.00 Build 0)  -->
<!DOCTYPE svg PUBLIC "-//W3C//DTD SVG 1.1//EN" "http://www.w3.org/Graphics/SVG/1.1/DTD/svg11.dtd">
<svg version="1.1" xmlns="http://www.w3.org/2000/svg" xmlns:xlink="http://www.w3.org/1999/xlink" x="0px" y="0px" width="264.5px"
	 height="103.5px" viewBox="0 0 264.5 103.5" enable-background="new 0 0 264.5 103.5" xml:space="preserve">
<g id="Layer_7">
</g>
<g id="Layer_1_copy">
	<text transform="matrix(1 0 0 1 3.0176 92.374)"><tspan x="0" y="0" fill="#FFFFFF" font-family="'Helvetica-Bold'" font-size="14.0341" letter-spacing="3">H</tspan><tspan x="13.489" y="0" fill="#FFFFFF" font-family="'Helvetica-Bold'" font-size="14.0341" letter-spacing="3">E</tspan><tspan x="26.218" y="0" fill="#FFFFFF" font-family="'Helvetica-Bold'" font-size="14.0341" letter-spacing="3">A</tspan><tspan x="39.707" y="0" fill="#FFFFFF" font-family="'Helvetica-Bold'" font-size="14.0341" letter-spacing="2">L</tspan><tspan x="50.609" y="0" fill="#FFFFFF" font-family="'Helvetica-Bold'" font-size="14.0341" letter-spacing="3">T</tspan><tspan x="62.55" y="0" fill="#FFFFFF" font-family="'Helvetica-Bold'" font-size="14.0341" letter-spacing="3">HCAR</tspan><tspan x="116.507" y="0" fill="#FFFFFF" font-family="'Helvetica-Bold'" font-size="14.0341" letter-spacing="3">E </tspan><tspan x="136.502" y="0" fill="#FFFFFF" font-family="'Helvetica-Bold'" font-size="14.0341" letter-spacing="3">C</tspan><tspan x="149.992" y="0" fill="#FFFFFF" font-family="'Helvetica-Bold'" font-size="14.0341" letter-spacing="3">O</tspan><tspan x="164.275" y="0" fill="#FFFFFF" font-family="'Helvetica-Bold'" font-size="14.0341" letter-spacing="3">N</tspan><tspan x="177.766" y="0" fill="#FFFFFF" font-family="'Helvetica-Bold'" font-size="14.0341" letter-spacing="3">S</tspan><tspan x="190.494" y="0" fill="#FFFFFF" font-family="'Helvetica-Bold'" font-size="14.0341" letter-spacing="3">U</tspan><tspan x="203.982" y="0" fill="#FFFFFF" font-family="'Helvetica-Bold'" font-size="14.0341" letter-spacing="2">L</tspan><tspan x="214.885" y="0" fill="#FFFFFF" font-family="'Helvetica-Bold'" font-size="14.0341" letter-spacing="3">TI</tspan><tspan x="234.094" y="0" fill="#FFFFFF" font-family="'Helvetica-Bold'" font-size="14.0341" letter-spacing="3">N</tspan><tspan x="247.582" y="0" fill="#FFFFFF" font-family="'Helvetica-Bold'" font-size="14.0341">G</tspan></text>
	<g>
		<g>
			<g>
				<path fill="#FFFFFF" d="M30.32,46.46c-0.24-0.25-0.5-0.5-0.77-0.74c-2.07-1.81-5.23-2.87-9.48-3.19
					c3.53-0.51,6.18-1.5,7.94-2.98c1.76-1.47,2.64-3.42,2.64-5.85c0-5.89-5.12-8.83-15.38-8.83l-7.03,0.22l-6.17,0.16v1.28h0.72
					c1.91,0,3.14,0.16,3.71,0.49c0.56,0.34,0.93,0.94,1.11,1.83c0.17,0.88,0.26,2.85,0.26,5.89v18.25c0,3.13-0.08,5.13-0.25,5.979
					c-0.16,0.86-0.55,1.49-1.17,1.9c-0.62,0.399-1.73,0.6-3.33,0.6H1.68v1.28h14.71c3.67,0,6.59-0.271,8.78-0.79
					c2.18-0.53,3.97-1.65,5.37-3.351c1.4-1.71,2.11-3.739,2.11-6.109C32.65,50.15,31.87,48.13,30.32,46.46z M24.2,45.51
					c0.53,0.46,0.97,1,1.32,1.63c0.79,1.35,1.18,3.09,1.18,5.21c0,3.021-0.74,5.29-2.21,6.8c-1.48,1.511-3.69,2.271-6.64,2.271
					c-1.66,0-2.77-0.25-3.33-0.75c-0.56-0.49-0.91-1.22-1.04-2.18c-0.12-0.961-0.19-3.221-0.19-6.78v-8.35
					c0.74-0.03,1.44-0.05,2.1-0.05C19.6,43.31,22.53,44.04,24.2,45.51z M14.45,42.04c-0.31,0-0.7-0.01-1.16-0.03V26.28
					c0.76-0.06,1.49-0.09,2.21-0.09c2.77,0,4.72,0.29,5.86,0.88c1.15,0.58,2,1.4,2.58,2.47c0.57,1.07,0.85,2.58,0.85,4.53
					c0,2.81-0.73,4.83-2.18,6.09C21.15,41.41,18.43,42.04,14.45,42.04z"/>
				<path fill="#FFFFFF" d="M31.08,46.35c-0.33-0.39-0.69-0.77-1.1-1.12c-1.51-1.32-3.59-2.27-6.2-2.83
					c1.92-0.58,3.48-1.36,4.65-2.35c1.91-1.59,2.87-3.73,2.87-6.35c0-6.29-5.39-9.48-16.05-9.48l-13.83,0.4v2.56h1.37
					c2.33,0,3.12,0.25,3.38,0.4c0.4,0.24,0.66,0.69,0.8,1.39c0.17,0.84,0.25,2.78,0.25,5.77v18.25c0,3.069-0.08,5.05-0.24,5.859
					c-0.13,0.68-0.42,1.16-0.89,1.47c-0.35,0.23-1.15,0.5-2.97,0.5H1.03v2.58h15.36c3.7,0,6.71-0.27,8.93-0.81
					c2.31-0.561,4.24-1.76,5.73-3.57c1.49-1.819,2.25-4.01,2.25-6.52C33.3,50.14,32.55,48.08,31.08,46.35z M16.39,62.1H4.11
					c1.22-0.08,2.11-0.31,2.7-0.689c0.76-0.5,1.25-1.28,1.45-2.311c0.18-0.91,0.26-2.91,0.26-6.109V34.74
					c0-3.12-0.09-5.08-0.27-6.02c-0.22-1.07-0.69-1.83-1.42-2.26c-0.65-0.38-1.85-0.57-3.76-0.58l12.2-0.36
					c9.91,0,14.73,2.67,14.73,8.18c0,2.25-0.78,4-2.4,5.35c-1.43,1.2-3.52,2.07-6.23,2.6c0.65-0.27,1.21-0.61,1.66-1
					c1.6-1.38,2.41-3.59,2.41-6.58c0-2.05-0.31-3.68-0.93-4.84c-0.63-1.18-1.59-2.11-2.85-2.74c-1.25-0.64-3.26-0.95-6.16-0.95
					c-0.73,0-1.49,0.03-2.26,0.09l-0.6,0.04v16.96l0.63,0.03c0.28,0.01,0.53,0.02,0.76,0.02c-0.25,0.01-0.51,0.02-0.77,0.04
					l-0.62,0.03v8.96c0,3.63,0.07,5.87,0.2,6.87c0.15,1.109,0.57,1.979,1.25,2.58c0.69,0.609,1.92,0.909,3.76,0.909
					c3.12,0,5.51-0.829,7.1-2.46c1.59-1.63,2.4-4.069,2.4-7.26c0-2.11-0.38-3.88-1.13-5.3c-0.41-0.79-0.94-1.47-1.59-2.03
					c-0.87-0.77-2.02-1.34-3.47-1.73c3.52,0.39,6.2,1.37,7.96,2.92c0.14,0.12,0.27,0.24,0.39,0.36C31.19,48.19,32,50.14,32,52.5
					c0,2.2-0.66,4.109-1.96,5.7c-1.3,1.579-2.99,2.64-5.03,3.13C22.89,61.84,19.99,62.1,16.39,62.1z M14.45,41.39
					c-0.15,0-0.32,0-0.51-0.01V26.89c0.53-0.03,1.06-0.05,1.56-0.05c2.65,0,4.52,0.27,5.57,0.8c1.03,0.53,1.78,1.25,2.29,2.21
					c0.52,0.97,0.78,2.39,0.78,4.22c0,2.59-0.66,4.48-1.96,5.59C20.86,40.81,18.26,41.39,14.45,41.39z M13.94,43.99
					c4.84-0.18,8.11,0.5,9.83,2.01c0.4,0.35,0.76,0.77,1.05,1.24c0.82,1.28,1.23,2.99,1.23,5.11c0,2.83-0.68,4.97-2.03,6.351
					c-1.34,1.369-3.41,2.069-6.17,2.069c-1.95,0-2.65-0.37-2.9-0.58c-0.44-0.399-0.71-0.979-0.82-1.79
					c-0.13-0.92-0.19-3.17-0.19-6.689V43.99z"/>
			</g>
			<g>
				<path fill="#FFFFFF" d="M78.68,41.08c-0.53-4.66-2.44-8.42-5.7-11.32c-3.92-3.46-8.8-5.2-14.63-5.2
					c-5.79,0-10.61,1.75-14.48,5.26c-3.87,3.5-5.81,8.14-5.81,13.93c0,0.56,0.02,1.11,0.06,1.64c0.32,5.19,2.21,9.4,5.66,12.66
					c3.82,3.59,8.7,5.39,14.65,5.39c6.11,0,11.05-1.8,14.79-5.39c3.75-3.6,5.63-8.3,5.63-14.1C78.85,42.96,78.8,42,78.68,41.08z
					 M72.52,44c0,5.99-1.23,10.5-3.68,13.52c-2.45,3.021-5.79,4.53-10.01,4.53c-4.81,0-8.42-1.51-10.83-4.53
					c-2.32-2.92-3.52-7.24-3.59-12.96c-0.01-0.2-0.01-0.4-0.01-0.61c0-5.94,1.2-10.42,3.6-13.46c2.41-3.03,5.87-4.54,10.39-4.54
					c4.59,0,8.09,1.55,10.5,4.65c2.07,2.65,3.25,6.3,3.55,10.93C72.49,42.32,72.52,43.15,72.52,44z"/>
				<path fill="#FFFFFF" d="M73.09,41.48c-0.32-4.75-1.55-8.54-3.68-11.27c-2.54-3.26-6.24-4.91-11.02-4.91
					c-4.71,0-8.37,1.61-10.89,4.79c-2.49,3.14-3.75,7.8-3.75,13.86c0,0.23,0,0.46,0.01,0.69c0.09,5.81,1.34,10.28,3.74,13.29
					c2.52,3.17,6.33,4.78,11.33,4.78c4.41,0,7.94-1.61,10.51-4.78c2.54-3.13,3.83-7.81,3.83-13.93
					C73.17,43.13,73.14,42.29,73.09,41.48z M58.83,61.399c-4.58,0-8.05-1.439-10.32-4.279c-2.23-2.801-3.39-7.061-3.46-12.64v-0.53
					c0-5.76,1.16-10.15,3.46-13.05c2.3-2.9,5.53-4.3,9.88-4.3c4.42,0,7.68,1.44,9.99,4.4c1.97,2.54,3.12,6.1,3.41,10.59
					c0.05,0.77,0.08,1.58,0.08,2.41c0,5.81-1.19,10.22-3.54,13.109C65.99,60,62.88,61.399,58.83,61.399z M73.09,41.48
					c-0.32-4.75-1.55-8.54-3.68-11.27c-2.54-3.26-6.24-4.91-11.02-4.91c-4.71,0-8.37,1.61-10.89,4.79
					c-2.49,3.14-3.75,7.8-3.75,13.86c0,0.23,0,0.46,0.01,0.69c0.09,5.81,1.34,10.28,3.74,13.29c2.52,3.17,6.33,4.78,11.33,4.78
					c4.41,0,7.94-1.61,10.51-4.78c2.54-3.13,3.83-7.81,3.83-13.93C73.17,43.13,73.14,42.29,73.09,41.48z M58.83,61.399
					c-4.58,0-8.05-1.439-10.32-4.279c-2.23-2.801-3.39-7.061-3.46-12.64v-0.53c0-5.76,1.16-10.15,3.46-13.05
					c2.3-2.9,5.53-4.3,9.88-4.3c4.42,0,7.68,1.44,9.99,4.4c1.97,2.54,3.12,6.1,3.41,10.59c0.05,0.77,0.08,1.58,0.08,2.41
					c0,5.81-1.19,10.22-3.54,13.109C65.99,60,62.88,61.399,58.83,61.399z M79.33,41.04c-0.55-4.82-2.54-8.77-5.92-11.77
					c-4.02-3.55-9.09-5.36-15.06-5.36c-5.93,0-10.95,1.83-14.92,5.42c-3.99,3.62-6.01,8.47-6.01,14.42c0,0.58,0.02,1.16,0.06,1.72
					c0.34,5.31,2.31,9.7,5.86,13.05c3.92,3.69,9,5.57,15.09,5.57c6.26,0,11.39-1.88,15.24-5.58c3.87-3.7,5.83-8.6,5.83-14.56
					C79.5,42.95,79.45,41.98,79.33,41.04z M58.43,62.79c-5.75,0-10.53-1.761-14.2-5.221c-3.32-3.13-5.16-7.26-5.47-12.27
					c-0.03-0.51-0.05-1.02-0.05-1.55c0-5.57,1.89-10.09,5.59-13.45c3.73-3.38,8.45-5.09,14.05-5.09c5.64,0,10.42,1.7,14.19,5.04
					c3.12,2.76,4.96,6.4,5.49,10.87c0.11,0.91,0.17,1.85,0.17,2.83c0,5.59-1.83,10.18-5.43,13.63
					C69.17,61.029,64.34,62.79,58.43,62.79z M69.41,30.21c-2.54-3.26-6.24-4.91-11.02-4.91c-4.71,0-8.37,1.61-10.89,4.79
					c-2.49,3.14-3.75,7.8-3.75,13.86c0,0.23,0,0.46,0.01,0.69c0.09,5.81,1.34,10.28,3.74,13.29c2.52,3.17,6.33,4.78,11.33,4.78
					c4.41,0,7.94-1.61,10.51-4.78c2.54-3.13,3.83-7.81,3.83-13.93c0-0.87-0.03-1.71-0.08-2.52C72.77,36.73,71.54,32.94,69.41,30.21z
					 M58.83,61.399c-4.58,0-8.05-1.439-10.32-4.279c-2.23-2.801-3.39-7.061-3.46-12.64v-0.53c0-5.76,1.16-10.15,3.46-13.05
					c2.3-2.9,5.53-4.3,9.88-4.3c4.42,0,7.68,1.44,9.99,4.4c1.97,2.54,3.12,6.1,3.41,10.59c0.05,0.77,0.08,1.58,0.08,2.41
					c0,5.81-1.19,10.22-3.54,13.109C65.99,60,62.88,61.399,58.83,61.399z"/>
			</g>
			<g>
				<path fill="#FFFFFF" d="M125.34,41.65c-0.45-4.92-2.38-8.88-5.78-11.89c-3.91-3.46-8.79-5.2-14.63-5.2
					c-5.78,0-10.61,1.75-14.47,5.26c-3.19,2.88-5.07,6.54-5.62,10.97c-0.13,0.95-0.19,1.94-0.19,2.96c0,5.94,1.91,10.7,5.72,14.3
					c3.82,3.59,8.7,5.39,14.65,5.39c6.11,0,11.04-1.8,14.79-5.39c3.75-3.6,5.63-8.3,5.63-14.1
					C125.44,43.16,125.41,42.39,125.34,41.65z M119.1,44c0,5.99-1.22,10.5-3.67,13.52c-2.45,3.021-5.79,4.53-10.01,4.53
					c-4.81,0-8.42-1.51-10.83-4.53c-2.4-3.02-3.6-7.55-3.6-13.57c0-1.14,0.04-2.23,0.14-3.26c0.36-4.35,1.52-7.74,3.46-10.2
					c2.41-3.03,5.87-4.54,10.39-4.54c4.59,0,8.09,1.55,10.5,4.65c2.03,2.61,3.2,6.17,3.52,10.69C119.07,42.16,119.1,43.06,119.1,44z
					"/>
				<path fill="#FFFFFF" d="M119.66,41.32c-0.33-4.68-1.56-8.41-3.66-11.11c-2.54-3.26-6.25-4.91-11.02-4.91
					c-4.71,0-8.37,1.61-10.9,4.79c-2.02,2.55-3.22,6.11-3.61,10.6c-0.09,1.04-0.13,2.12-0.13,3.26c0,6.15,1.26,10.85,3.74,13.98
					c2.53,3.17,6.34,4.78,11.34,4.78c4.41,0,7.94-1.61,10.51-4.78c2.54-3.13,3.82-7.81,3.82-13.93
					C119.75,43.08,119.72,42.18,119.66,41.32z M105.42,61.399c-4.58,0-8.05-1.439-10.32-4.279c-2.3-2.891-3.46-7.331-3.46-13.17
					c0-1.14,0.05-2.23,0.14-3.26c0.36-4.18,1.48-7.46,3.32-9.79c2.3-2.9,5.53-4.3,9.88-4.3c4.41,0,7.68,1.44,9.99,4.4
					c1.92,2.48,3.05,5.92,3.38,10.26c0.07,0.88,0.1,1.79,0.1,2.74c0,5.81-1.18,10.22-3.53,13.109
					C112.58,60,109.47,61.399,105.42,61.399z M119.66,41.32c-0.33-4.68-1.56-8.41-3.66-11.11c-2.54-3.26-6.25-4.91-11.02-4.91
					c-4.71,0-8.37,1.61-10.9,4.79c-2.02,2.55-3.22,6.11-3.61,10.6c-0.09,1.04-0.13,2.12-0.13,3.26c0,6.15,1.26,10.85,3.74,13.98
					c2.53,3.17,6.34,4.78,11.34,4.78c4.41,0,7.94-1.61,10.51-4.78c2.54-3.13,3.82-7.81,3.82-13.93
					C119.75,43.08,119.72,42.18,119.66,41.32z M105.42,61.399c-4.58,0-8.05-1.439-10.32-4.279c-2.3-2.891-3.46-7.331-3.46-13.17
					c0-1.14,0.05-2.23,0.14-3.26c0.36-4.18,1.48-7.46,3.32-9.79c2.3-2.9,5.53-4.3,9.88-4.3c4.41,0,7.68,1.44,9.99,4.4
					c1.92,2.48,3.05,5.92,3.38,10.26c0.07,0.88,0.1,1.79,0.1,2.74c0,5.81-1.18,10.22-3.53,13.109
					C112.58,60,109.47,61.399,105.42,61.399z M125.99,41.69c-0.45-5.12-2.46-9.29-5.99-12.42c-4.02-3.55-9.09-5.36-15.07-5.36
					c-5.92,0-10.94,1.83-14.91,5.42c-3.31,3-5.27,6.86-5.84,11.48C84.06,41.76,84,42.74,84,43.75c0,6.09,2,11.06,5.93,14.77
					c3.92,3.69,8.99,5.57,15.09,5.57c6.26,0,11.39-1.88,15.24-5.58c3.87-3.7,5.83-8.6,5.83-14.56
					C126.09,43.18,126.06,42.42,125.99,41.69z M105.02,62.79c-5.75,0-10.53-1.761-14.2-5.221c-3.66-3.449-5.52-8.1-5.52-13.819
					c0-1.03,0.06-2.02,0.2-2.98c0.56-4.22,2.37-7.73,5.39-10.47c3.73-3.38,8.45-5.09,14.04-5.09c5.65,0,10.43,1.7,14.2,5.04
					c3.23,2.86,5.09,6.67,5.54,11.36c0.08,0.76,0.12,1.54,0.12,2.34c0,5.59-1.83,10.18-5.43,13.63
					C115.76,61.029,110.93,62.79,105.02,62.79z M116,30.21c-2.54-3.26-6.25-4.91-11.02-4.91c-4.71,0-8.37,1.61-10.9,4.79
					c-2.02,2.55-3.22,6.11-3.61,10.6c-0.09,1.04-0.13,2.12-0.13,3.26c0,6.15,1.26,10.85,3.74,13.98c2.53,3.17,6.34,4.78,11.34,4.78
					c4.41,0,7.94-1.61,10.51-4.78c2.54-3.13,3.82-7.81,3.82-13.93c0-0.92-0.03-1.82-0.09-2.68C119.33,36.64,118.1,32.91,116,30.21z
					 M105.42,61.399c-4.58,0-8.05-1.439-10.32-4.279c-2.3-2.891-3.46-7.331-3.46-13.17c0-1.14,0.05-2.23,0.14-3.26
					c0.36-4.18,1.48-7.46,3.32-9.79c2.3-2.9,5.53-4.3,9.88-4.3c4.41,0,7.68,1.44,9.99,4.4c1.92,2.48,3.05,5.92,3.38,10.26
					c0.07,0.88,0.1,1.79,0.1,2.74c0,5.81-1.18,10.22-3.53,13.109C112.58,60,109.47,61.399,105.42,61.399z"/>
			</g>
			<g>
				<path fill="#FFFFFF" d="M155.08,47.24c-0.811-1.42-1.859-2.56-3.16-3.41c-0.119-0.08-0.24-0.16-0.369-0.23
					c-1.461-0.88-3.811-2.03-7.041-3.47c-3.369-1.51-5.699-2.87-6.99-4.09c-1.31-1.19-1.959-2.66-1.959-4.38
					c0-1.44,0.52-2.76,1.559-3.96c1.041-1.21,2.682-1.81,4.91-1.81c2.34,0,4.4,0.82,6.18,2.45c1.771,1.64,3.012,3.88,3.711,6.73
					h1.221v-9.82h-1.221c-0.109,1.18-0.59,2.28-1.43,3.29c-1.48-1.62-2.92-2.69-4.32-3.2c-1.4-0.52-2.891-0.78-4.48-0.78
					c-2.83,0-5.18,0.89-7.03,2.67c-1.85,1.78-2.779,4.01-2.779,6.68c0,1.75,0.43,3.4,1.279,4.95c0.811,1.46,1.92,2.66,3.33,3.6
					c0.081,0.06,0.161,0.12,0.25,0.17c1.529,0.97,3.799,2.1,6.811,3.39c3.369,1.44,5.689,2.78,6.959,4.04
					c1.279,1.27,1.91,2.851,1.91,4.73c0,1.87-0.721,3.56-2.17,5.06c-1.449,1.51-3.49,2.26-6.119,2.26
					c-5.861,0-9.581-3.93-11.151-11.81h-1.38v12.06h1.38c0.3-1.569,0.75-2.779,1.36-3.649c2.75,3.149,6.169,4.729,10.279,4.729
					c3.58,0,6.441-1.01,8.58-3.02c2.131-2,3.201-4.61,3.201-7.82C156.4,50.57,155.959,48.78,155.08,47.24z"/>
				<path fill="#FFFFFF" d="M155.641,46.91c-0.67-1.17-1.5-2.16-2.49-2.97c-0.391-0.33-0.82-0.63-1.27-0.9
					c-1.48-0.88-3.871-2.06-7.102-3.5c-3.289-1.48-5.59-2.81-6.82-3.98c-1.18-1.07-1.75-2.35-1.75-3.9c0-1.29,0.46-2.45,1.4-3.54
					c0.91-1.05,2.391-1.58,4.42-1.58c2.191,0,4.07,0.75,5.74,2.28c1.67,1.54,2.861,3.7,3.52,6.4l0.121,0.5h2.379V24.6h-2.459
					l-0.051,0.59c-0.08,0.82-0.369,1.61-0.85,2.35c-1.359-1.38-2.709-2.33-4.029-2.81c-1.471-0.54-3.051-0.82-4.711-0.82
					c-3,0-5.509,0.96-7.48,2.85c-1.979,1.9-2.979,4.31-2.979,7.15c0,1.85,0.46,3.62,1.37,5.26c0.68,1.24,1.57,2.31,2.67,3.19
					c0.35,0.3,0.729,0.57,1.13,0.82c1.549,0.98,3.87,2.14,6.889,3.44c3.281,1.39,5.561,2.71,6.762,3.89
					c1.158,1.16,1.719,2.56,1.719,4.28c0,1.71-0.65,3.22-1.99,4.609c-1.309,1.37-3.209,2.061-5.648,2.061
					c-5.561,0-9-3.69-10.511-11.28l-0.1-0.53h-2.57v13.36h2.57l0.1-0.53c0.2-1.069,0.48-1.97,0.83-2.68
					c2.771,2.84,6.181,4.29,10.169,4.29c3.73,0,6.771-1.08,9.021-3.19c2.26-2.13,3.41-4.92,3.41-8.3
					C157.051,50.47,156.58,48.55,155.641,46.91z M144.619,62.79c-0.359,0-0.719-0.021-1.068-0.04c0.189,0.01,0.379,0.01,0.58,0.01
					c2.799,0,5.02-0.83,6.59-2.46c1.559-1.62,2.35-3.48,2.35-5.51c0-2.05-0.701-3.8-2.1-5.2c-1.34-1.32-3.691-2.69-7.17-4.17
					c-2.441-1.05-4.4-2-5.861-2.84c-0.309-0.16-0.59-0.33-0.85-0.5c-1.43-0.9-2.56-2.09-3.36-3.54c-0.8-1.44-1.2-3-1.2-4.63
					c0-2.51,0.84-4.54,2.58-6.21c1.74-1.67,3.89-2.49,6.58-2.49c1.5,0,2.941,0.25,4.26,0.74c1.291,0.47,2.66,1.5,4.061,3.03
					l0.5,0.55l0.471-0.57c0.789-0.94,1.299-1.97,1.51-3.06v8.52h-0.061c-0.75-2.73-2.02-4.94-3.779-6.56
					c-1.9-1.74-4.131-2.62-6.621-2.62c-2.42,0-4.24,0.68-5.398,2.03c-1.151,1.32-1.721,2.8-1.721,4.39c0,1.91,0.73,3.54,2.161,4.85
					c1.359,1.28,3.709,2.66,7.18,4.21c2.641,1.18,4.699,2.17,6.15,2.97c0.299,0.17,0.57,0.32,0.82,0.47
					c1.359,0.81,2.469,1.95,3.289,3.4c0.83,1.44,1.24,3.14,1.24,5.04c0,3.05-0.98,5.45-3,7.351
					C150.75,61.83,148.01,62.79,144.619,62.79z M133.81,58.34c-0.59,0.83-1.04,1.97-1.36,3.37h-0.2V50.95h0.21
					c1.11,5.16,3.19,8.65,6.22,10.43c-1.42-0.75-2.7-1.78-3.85-3.101l-0.55-0.619L133.81,58.34z"/>
			</g>
			<g>
				<path fill="#FFFFFF" d="M197.051,25.25h-36.42l-0.191,9.02h1.27c0.391-2.38,0.951-4.15,1.682-5.31
					c0.719-1.16,1.5-1.86,2.33-2.09s2.449-0.34,4.869-0.34h5.561v26.46c0,3.13-0.09,5.13-0.27,5.979
					c-0.172,0.86-0.57,1.49-1.191,1.9c-0.609,0.399-1.719,0.6-3.33,0.6h-1.93v1.28h18.721v-1.28h-1.83c-1.68,0-2.82-0.22-3.43-0.66
					c-0.611-0.439-0.98-1.12-1.121-2.05c-0.139-0.92-0.209-2.84-0.209-5.77V26.53h6.029c2.051,0,3.49,0.12,4.34,0.37
					s1.641,0.92,2.381,2.02c0.74,1.09,1.32,2.88,1.74,5.35h1.189L197.051,25.25z"/>
				<path fill="#FFFFFF" d="M197.68,24.6H160l-0.221,10.32h2.49l0.08-0.55c0.381-2.28,0.91-3.98,1.59-5.07
					c0.631-1.01,1.291-1.62,1.961-1.8c0.76-0.22,2.34-0.32,4.689-0.32h4.9V52.99c0,3.069-0.08,5.039-0.24,5.85
					c-0.15,0.689-0.439,1.17-0.91,1.479c-0.35,0.23-1.15,0.5-2.98,0.5h-2.58v2.58h20.021v-2.58h-2.48c-1.9,0-2.711-0.29-3.051-0.529
					c-0.459-0.34-0.74-0.87-0.859-1.62c-0.131-0.891-0.201-2.8-0.201-5.68V27.18h5.381c1.98,0,3.369,0.11,4.16,0.34
					c0.689,0.21,1.369,0.8,2.02,1.76c0.68,1.02,1.24,2.73,1.641,5.1l0.09,0.54h2.4L197.68,24.6z M180.91,52.99
					c0,2.989,0.07,4.909,0.221,5.869c0.158,1.101,0.629,1.931,1.379,2.48c0.59,0.42,1.52,0.68,2.82,0.76h-12.98
					c1.23-0.08,2.109-0.31,2.701-0.689c0.76-0.5,1.26-1.28,1.469-2.311c0.18-0.91,0.281-2.91,0.281-6.109V25.9h4.109V52.99z
					 M161.1,33.62l0.17-7.72h7.43c-1.469,0.05-2.51,0.17-3.148,0.35c-0.99,0.27-1.9,1.07-2.721,2.36c-0.721,1.16-1.27,2.8-1.67,5.01
					H161.1z M196.41,25.9l0.16,7.6c-0.43-2.24-0.99-3.86-1.721-4.95c-0.82-1.22-1.74-1.98-2.74-2.27
					c-0.67-0.2-1.639-0.32-2.949-0.38H196.41z"/>
			</g>
		</g>
	</g>
	<g display="none">
		<path display="inline" fill="none" stroke="#0F5688" stroke-width="1.269" d="M21.953,43.298c4.203,0,7.138,0.733,8.806,2.199
			c1.669,1.465,2.503,3.746,2.503,6.843c0,3.022-0.738,5.29-2.212,6.801c-1.475,1.512-3.687,2.268-6.636,2.268
			c-1.659,0-2.77-0.249-3.332-0.746c-0.562-0.498-0.908-1.227-1.037-2.185c-0.129-0.958-0.193-3.217-0.193-6.774v-8.35
			C20.589,43.317,21.289,43.298,21.953,43.298z M19.852,26.268c0.755-0.056,1.493-0.083,2.212-0.083c2.764,0,4.718,0.29,5.861,0.871
			c1.143,0.58,2,1.405,2.571,2.474c0.572,1.07,0.858,2.581,0.858,4.535c0,2.802-0.729,4.829-2.185,6.083
			c-1.456,1.253-4.175,1.88-8.156,1.88c-0.313,0-0.701-0.009-1.161-0.028V26.268z M34.575,39.543c1.76-1.472,2.64-3.423,2.64-5.853
			c0-5.889-5.129-8.834-15.387-8.834l-7.03,0.222l-6.172,0.166v1.272h0.722c1.908,0,3.144,0.165,3.709,0.497s0.935,0.94,1.112,1.825
			c0.176,0.885,0.263,2.848,0.263,5.889v18.249c0,3.134-0.083,5.129-0.249,5.985c-0.165,0.857-0.557,1.489-1.174,1.895
			c-0.618,0.405-1.728,0.608-3.332,0.608H8.239v1.271h14.71c3.667,0,6.594-0.263,8.778-0.789s3.977-1.643,5.378-3.35
			c1.4-1.708,2.101-3.742,2.101-6.105c0-2.713-1.032-4.974-3.097-6.783c-2.064-1.81-5.225-2.871-9.483-3.185
			C30.165,42.009,32.813,41.016,34.575,39.543z"/>
		<path display="inline" fill="none" stroke="#0F5688" stroke-width="1.269" d="M54.564,30.483
			c2.406-3.031,5.866-4.548,10.383-4.548c4.589,0,8.091,1.553,10.506,4.659s3.622,7.571,3.622,13.396
			c0,5.991-1.226,10.498-3.677,13.521c-2.451,3.023-5.788,4.534-10.009,4.534c-4.811,0-8.419-1.511-10.825-4.534
			c-2.405-3.022-3.608-7.549-3.608-13.576C50.956,38,52.159,33.516,54.564,30.483z M50.344,58.036
			c3.813,3.594,8.694,5.392,14.644,5.392c6.116,0,11.048-1.798,14.796-5.392c3.748-3.595,5.623-8.295,5.623-14.101
			c0-5.991-1.958-10.718-5.872-14.184c-3.914-3.465-8.791-5.198-14.63-5.198c-5.784,0-10.61,1.751-14.478,5.253
			s-5.802,8.147-5.802,13.935C44.625,49.677,46.531,54.441,50.344,58.036z"/>
		<path display="inline" fill="none" stroke="#0F5688" stroke-width="1.269" d="M101.153,30.483
			c2.406-3.031,5.866-4.548,10.383-4.548c4.589,0,8.091,1.553,10.506,4.659s3.622,7.571,3.622,13.396
			c0,5.991-1.226,10.498-3.677,13.521c-2.451,3.023-5.788,4.534-10.009,4.534c-4.811,0-8.419-1.511-10.825-4.534
			c-2.405-3.022-3.608-7.549-3.608-13.576C97.545,38,98.748,33.516,101.153,30.483z M96.933,58.036
			c3.813,3.594,8.694,5.392,14.644,5.392c6.116,0,11.048-1.798,14.796-5.392c3.748-3.595,5.623-8.295,5.623-14.101
			c0-5.991-1.958-10.718-5.872-14.184c-3.914-3.465-8.791-5.198-14.63-5.198c-5.784,0-10.61,1.751-14.478,5.253
			s-5.802,8.147-5.802,13.935C91.214,49.677,93.12,54.441,96.933,58.036z"/>
		<path display="inline" fill="none" stroke="#0F5688" stroke-width="1.269" d="M139.544,62.35c0.295-1.566,0.747-2.783,1.355-3.65
			c2.746,3.152,6.175,4.729,10.285,4.729c3.576,0,6.433-1.005,8.571-3.014c2.138-2.009,3.207-4.617,3.207-7.825
			c0-2.027-0.442-3.815-1.327-5.364c-0.885-1.548-2.06-2.76-3.524-3.635c-1.466-0.876-3.813-2.029-7.042-3.46
			c-3.377-1.504-5.709-2.864-6.995-4.08c-1.306-1.198-1.959-2.662-1.959-4.394c0-1.437,0.521-2.759,1.562-3.965
			c1.041-1.207,2.678-1.811,4.908-1.811c2.341,0,4.4,0.818,6.18,2.454c1.778,1.636,3.018,3.878,3.719,6.726h1.216v-9.815h-1.216
			c-0.111,1.179-0.591,2.276-1.439,3.29c-1.474-1.622-2.911-2.691-4.312-3.207c-1.401-0.517-2.895-0.775-4.48-0.775
			c-2.838,0-5.184,0.89-7.035,2.669c-1.854,1.778-2.779,4.004-2.779,6.677c0,1.751,0.429,3.401,1.286,4.949
			c0.856,1.548,2.05,2.806,3.58,3.774c1.53,0.968,3.797,2.097,6.802,3.387c3.373,1.438,5.695,2.785,6.968,4.041
			c1.271,1.274,1.907,2.853,1.907,4.736c0,1.865-0.724,3.552-2.17,5.057c-1.447,1.505-3.488,2.258-6.124,2.258
			c-5.862,0-9.577-3.936-11.144-11.806h-1.382V62.35H139.544z"/>
		<path display="inline" fill="none" stroke="#0F5688" stroke-width="1.269" d="M169.945,28.949
			c0.728-1.162,1.507-1.857,2.336-2.087c0.829-0.231,2.451-0.346,4.866-0.346h5.558v26.46c0,3.134-0.088,5.129-0.263,5.985
			c-0.176,0.857-0.571,1.489-1.189,1.895c-0.617,0.405-1.728,0.608-3.331,0.608h-1.936v1.271h18.719v-1.271h-1.825
			c-1.678,0-2.82-0.222-3.429-0.664c-0.609-0.442-0.981-1.124-1.119-2.046c-0.139-0.922-0.208-2.848-0.208-5.778v-26.46h6.027
			c2.046,0,3.493,0.124,4.341,0.373s1.641,0.922,2.378,2.018c0.737,1.097,1.318,2.881,1.742,5.351h1.188l-0.193-9.014h-36.414
			L167,34.258h1.272C168.659,31.88,169.216,30.11,169.945,28.949z"/>
	</g>
	<rect x="-14.06" y="-20.49" fill="none" width="288" height="144"/>
	<g id="Layer_2_copy">
		<g>
			<path fill="#FFFFFF" d="M223.844,41.651c-4.859,4.196-31.852,28.725-80.406,25.184c48.459,4.484,71.799-11.124,76.723-15.239
				L223.844,41.651z"/>
			<path fill="#FFFFFF" d="M245.855,48.523c-30.859,20.509-66.834,28.632-109.507,21.693c-42.672-6.941-90.01-4.077-133.253,7.424
				c43.418-10.784,90.783-12.86,133.323-5.211c42.542,7.648,85.733,0.518,114.495-20.872L245.855,48.523z"/>
			<polygon fill="#FFFFFF" points="238.311,5.825 243.857,22.894 261.807,22.894 247.285,33.444 252.832,50.513 238.311,39.963 
				223.791,50.513 229.338,33.444 214.816,22.894 232.766,22.894 			"/>
			<path fill="#FFFFFF" d="M138.764,59.894c28.127-0.06,51.176-5.808,80.764-29.741l-5.074-4.148
				c-22.053,19.66-47.938,29.567-78.212,31.231c0,0,0.582,0.905,1.251,1.567C138.299,59.604,138.764,59.894,138.764,59.894z"/>
			<path fill="#FFFFFF" d="M130.95,57.439v2.34c-3.87-0.119-7.84-0.31-11.95-0.56c-4.59-0.28-9.23-0.41-13.91-0.43
				C71.2,58.68,35.53,65.3,3.22,77.46c32.21-12.73,67.88-19.95,101.87-20.351c4.58-0.06,9.13,0,13.63,0.2
				C122.87,57.49,126.95,57.529,130.95,57.439z"/>
		</g>
	</g>
</g>
<g id="Layer_3_copy">
	<linearGradient id="SVGID_1_" gradientUnits="userSpaceOnUse" x1="16.3599" y1="50.6709" x2="16.3599" y2="38.5418">
		<stop  offset="0" style="stop-color:#FFFFFF"/>
		<stop  offset="1" style="stop-color:#FFFFFF;stop-opacity:0"/>
	</linearGradient>
	<path opacity="0.5" fill="url(#SVGID_1_)" d="M28.43,40.05c-1.17,0.99-2.73,1.77-4.65,2.35c2.61,0.56,4.69,1.51,6.2,2.83
		c0.41,0.35,0.77,0.73,1.1,1.12c-0.26,0.04-0.51,0.08-0.76,0.11c-0.27,0.04-0.54,0.08-0.81,0.11c-1.11,0.16-2.21,0.32-3.29,0.48
		c-0.23,0.03-0.47,0.06-0.7,0.09c-0.23,0.04-0.47,0.07-0.7,0.1c-3.9,0.57-7.56,1.13-10.88,1.64c-0.22,0.03-0.44,0.06-0.65,0.09
		c-0.22,0.04-0.44,0.07-0.65,0.11c-1.45,0.22-2.83,0.44-4.12,0.64c-0.22,0.03-0.44,0.07-0.65,0.1c-0.22,0.04-0.44,0.07-0.65,0.11
		V34.74c0-2.99-0.08-4.93-0.25-5.77c-0.14-0.7-0.4-1.15-0.8-1.39c-0.26-0.15-1.05-0.4-3.38-0.4H1.42v-2.56l13.83-0.4
		c10.66,0,16.05,3.19,16.05,9.48C31.3,36.32,30.34,38.46,28.43,40.05z"/>
	<linearGradient id="SVGID_2_" gradientUnits="userSpaceOnUse" x1="58.375" y1="46.0913" x2="58.375" y2="35.92">
		<stop  offset="0" style="stop-color:#FFFFFF"/>
		<stop  offset="1" style="stop-color:#FFFFFF;stop-opacity:0"/>
	</linearGradient>
	<path opacity="0.5" fill="url(#SVGID_2_)" d="M79.33,41.04c-0.21,0.01-0.43,0.03-0.65,0.04c-0.21,0.01-0.43,0.03-0.65,0.04
		c-1.6,0.1-3.25,0.22-4.94,0.36c-0.22,0.01-0.43,0.03-0.65,0.05s-0.43,0.03-0.65,0.06c-8.36,0.68-17.64,1.73-26.74,2.89
		c-0.22,0.02-0.43,0.05-0.64,0.08c-0.22,0.03-0.44,0.05-0.65,0.08c-1.68,0.22-3.35,0.44-5,0.66c-0.22,0.03-0.43,0.06-0.64,0.09
		c-0.22,0.02-0.43,0.05-0.64,0.08c-0.04-0.56-0.06-1.14-0.06-1.72c0-5.95,2.02-10.8,6.01-14.42c3.97-3.59,8.99-5.42,14.92-5.42
		c5.97,0,11.04,1.81,15.06,5.36C76.79,32.27,78.78,36.22,79.33,41.04z"/>
	<linearGradient id="SVGID_3_" gradientUnits="userSpaceOnUse" x1="105.085" y1="42.2026" x2="105.085" y2="33.8145">
		<stop  offset="0" style="stop-color:#FFFFFF"/>
		<stop  offset="1" style="stop-color:#FFFFFF;stop-opacity:0"/>
	</linearGradient>
	<path opacity="0.5" fill="url(#SVGID_3_)" d="M125.99,41.69c-0.22-0.01-0.43-0.02-0.65-0.04c-0.22-0.01-0.44-0.03-0.67-0.04
		c-1.64-0.1-3.31-0.2-5.01-0.29c-0.22-0.01-0.44-0.02-0.66-0.03c-0.21-0.01-0.43-0.02-0.65-0.03c-8.13-0.4-16.93-0.64-26.57-0.57
		c-0.22-0.01-0.43-0.01-0.65,0h-0.66c-1.04,0.01-2.09,0.02-3.15,0.04c-0.59,0.01-1.2,0.02-1.82,0.04c-0.22,0.01-0.43,0.01-0.66,0.02
		c-0.21,0.01-0.43,0.01-0.66,0.02c0.57-4.62,2.53-8.48,5.84-11.48c3.97-3.59,8.99-5.42,14.91-5.42c5.98,0,11.05,1.81,15.07,5.36
		C123.53,32.4,125.54,36.57,125.99,41.69z"/>
	<linearGradient id="SVGID_4_" gradientUnits="userSpaceOnUse" x1="142.5098" y1="44.5176" x2="142.5098" y2="35.068">
		<stop  offset="0" style="stop-color:#FFFFFF"/>
		<stop  offset="1" style="stop-color:#FFFFFF;stop-opacity:0"/>
	</linearGradient>
	<path opacity="0.5" fill="url(#SVGID_4_)" d="M151.33,24.6h2.459v11.12h-2.379l-0.121-0.5c-0.658-2.7-1.85-4.86-3.52-6.4
		c-1.67-1.53-3.549-2.28-5.74-2.28c-2.029,0-3.51,0.53-4.42,1.58c-0.939,1.09-1.4,2.25-1.4,3.54c0,1.55,0.57,2.83,1.75,3.9
		c1.23,1.17,3.531,2.5,6.82,3.98c3.23,1.44,5.621,2.62,7.102,3.5c0.449,0.27,0.879,0.57,1.27,0.9c-0.41-0.03-0.82-0.07-1.23-0.11
		c-0.5-0.04-1.01-0.09-1.52-0.14c-3.98-0.37-8.121-0.75-12.461-1.11c-0.48-0.04-0.959-0.08-1.45-0.12
		c-0.399-0.03-0.81-0.07-1.22-0.1c-1.1-0.88-1.99-1.95-2.67-3.19c-0.91-1.64-1.37-3.41-1.37-5.26c0-2.84,1-5.25,2.979-7.15
		c1.971-1.89,4.48-2.85,7.48-2.85c1.66,0,3.24,0.28,4.711,0.82c1.32,0.48,2.67,1.43,4.029,2.81c0.48-0.74,0.77-1.53,0.85-2.35
		L151.33,24.6z"/>
	<linearGradient id="SVGID_5_" gradientUnits="userSpaceOnUse" x1="178.8398" y1="46.5654" x2="178.8398" y2="36.4932">
		<stop  offset="0" style="stop-color:#FFFFFF"/>
		<stop  offset="1" style="stop-color:#FFFFFF;stop-opacity:0"/>
	</linearGradient>
	<path opacity="0.5" fill="url(#SVGID_5_)" d="M197.9,34.92h-2.4l-0.09-0.54c-0.4-2.37-0.961-4.08-1.641-5.1
		c-0.65-0.96-1.33-1.55-2.02-1.76c-0.791-0.23-2.18-0.34-4.16-0.34h-5.381v18.77c-0.209,0-0.43-0.01-0.648-0.01
		c-0.211-0.01-0.43-0.01-0.65-0.02c-1.359-0.03-2.73-0.08-4.109-0.15c-0.211,0-0.432-0.01-0.65-0.03
		c-0.221-0.01-0.441-0.02-0.66-0.03V27.18h-4.9c-2.35,0-3.93,0.1-4.689,0.32c-0.67,0.18-1.33,0.79-1.961,1.8
		c-0.68,1.09-1.209,2.79-1.59,5.07l-0.08,0.55h-2.49L160,24.6h37.68L197.9,34.92z"/>
</g>
</svg>
