<?xml version="1.0" encoding="utf-8"?>
<!-- Generator: Adobe Illustrator 16.0.0, SVG Export Plug-In . SVG Version: 6.00 Build 0)  -->
<!DOCTYPE svg PUBLIC "-//W3C//DTD SVG 1.1//EN" "http://www.w3.org/Graphics/SVG/1.1/DTD/svg11.dtd">
<svg version="1.1" id="Capa_1" xmlns="http://www.w3.org/2000/svg" xmlns:xlink="http://www.w3.org/1999/xlink" x="0px" y="0px"
	 width="36.542px" height="51.066px" viewBox="50.159 -1.933 36.542 51.066" enable-background="new 50.159 -1.933 36.542 51.066"
	 xml:space="preserve">
<path fill="#F69020" d="M68.431-1.933c-10.076,0-18.271,8.199-18.271,18.271c0,9.461,13.676,19.698,17.63,32.338
	c0.085,0.273,0.34,0.459,0.626,0.457c0.287-0.004,0.538-0.193,0.619-0.467C72.87,35.715,86.7,25.809,86.701,16.337
	C86.7,6.266,78.504-1.933,68.431-1.933z M68.431,30.198c-7.9,0-14.328-6.429-14.328-14.328c0-7.9,6.428-14.328,14.328-14.328
	c7.897,0,14.326,6.428,14.326,14.328C82.757,23.768,76.328,30.198,68.431,30.198z"/>
<g id="star">
	<polygon fill="#F69020" points="68.647,21.293 75.179,25.233 73.45,17.803 79.216,12.807 71.616,12.155 68.647,5.15 65.679,12.155 
		58.077,12.807 63.843,17.803 62.115,25.233 	"/>
</g>
</svg>
