<?xml version="1.0" encoding="utf-8"?>
<!-- Generator: Adobe Illustrator 16.0.0, SVG Export Plug-In . SVG Version: 6.00 Build 0)  -->
<!DOCTYPE svg PUBLIC "-//W3C//DTD SVG 1.1//EN" "http://www.w3.org/Graphics/SVG/1.1/DTD/svg11.dtd">
<svg version="1.1" xmlns="http://www.w3.org/2000/svg" xmlns:xlink="http://www.w3.org/1999/xlink" x="0px" y="0px" width="7.619px"
	 height="14.021px" viewBox="0 0 7.619 14.021" enable-background="new 0 0 7.619 14.021" xml:space="preserve">
<g id="Layer_2">
	<rect x="-45.215" y="45.021" fill="#474848" width="302" height="701"/>
</g>
<g id="Layer_1">
	<path fill="#FFFFFF" d="M-3.112,687.771c-8.836,0-16,7.163-16,16s7.164,16,16,16s16-7.163,16-16S5.724,687.771-3.112,687.771z
		 M-5.678,706.917l-3.448,1.271c0,0-1.101,0.392-0.44,0.808c0.661,0.416,1.858,0.049,2.103-0.074l1.712-0.659v1.956
		c0,0-0.612,0.073-1.834,0.098c-1.223,0.025-3.521-0.122-5.112-1.125c-1.59-1.003,0.685-2.152,1.467-2.421l5.552-2.079V706.917z
		 M-1.471,698.65v13.721l-3.522-1.271v-16.117c0,0,3.914,0.807,5.307,1.442c1.395,0.636,3.669,1.663,3.669,5.038
		s-1.956,3.619-2.519,3.619s-1.248-0.391-1.419-0.562v-5.941c0,0-0.22-0.809-0.88-0.809S-1.446,698.504-1.471,698.65z
		 M8.703,707.699c-0.098,1.297-2.617,1.811-3.937,2.349c-1.321,0.538-5.553,2.104-5.553,2.104v-2.152l5.919-2.251
		c0.685-0.269,0.343-0.415,0.221-0.586c-0.123-0.172-1.174-0.147-1.614-0.123s-1.81,0.562-2.47,0.857
		c-0.661,0.292-2.006,0.658-2.006,0.658v-2.102c1.101-0.416,1.933-0.562,1.933-0.562c1.247-0.172,2.666-0.246,3.668-0.196
		C5.866,705.743,8.801,706.403,8.703,707.699z"/>
	<path fill="#FFFFFF" d="M216.785,644.022c-8.836,0-16,7.163-16,16s7.164,16,16,16s16-7.163,16-16S225.621,644.022,216.785,644.022z
		 M216.67,651.135c2.888,0,4.572,1.244,4.572,1.244c0.213,0.107-0.053,0.188-0.053,0.188c-0.108,0-0.362,0.014-0.362,0.014
		c-1.858,0.146-3.718,1.457-3.718,1.457c-0.12,0.08-0.268,0.161-0.414,0.161s-0.334-0.175-0.334-0.175s-0.909-0.548-1.965-1.002
		c-1.059-0.455-2.448-0.455-2.448-0.455C212.363,652.365,213.78,651.135,216.67,651.135z M209.528,665.123
		c-0.108-0.107-0.536-0.869-0.536-0.869c-0.842-1.457-1.443-4.105-0.896-6.405c0.549-2.3,2.543-4.253,2.543-4.253
		c0.333-0.281,0.641-0.174,0.787-0.146c0.148,0.026,0.67,0.307,0.67,0.307c0.842,0.496,2.62,2.261,2.62,2.261
		c-1.056,0.909-3.236,4.306-3.983,5.764c-0.75,1.458-0.95,3.156-0.95,3.156C209.822,665.471,209.528,665.123,209.528,665.123z
		 M216.989,668.907c-4.171-0.015-6.806-3.021-6.806-3.021c0.093-0.468,0.293-1.644,2.246-3.852c1.952-2.206,3.918-3.905,3.918-3.905
		c0.094-0.106,0.24-0.227,0.361-0.227s0.334,0.16,0.334,0.16c0.803,0.668,3.691,3.477,4.842,5.015
		c1.148,1.538,1.431,2.849,1.431,2.849S220.6,668.922,216.989,668.907z M223.971,664.99c0,0-0.067,0.133-0.201,0.105
		c-0.135-0.025-0.094-0.439-0.094-0.439s0.041-0.522-0.32-1.525c-0.361-1.004-1.471-3.477-3.879-6.338l-0.414-0.535
		c0,0-0.241-0.334,0.067-0.643c0.308-0.307,1.658-1.686,2.861-2.18c0,0,0.36-0.146,0.614,0c0.254,0.147,2.168,1.792,2.836,4.6
		C226.109,660.844,225.321,663.144,223.971,664.99z"/>
	<path fill="#FFFFFF" d="M172.807,651.292c-4.813,0-8.729,3.916-8.729,8.729s3.916,8.73,8.729,8.73c4.812,0,8.729-3.917,8.729-8.73
		S177.619,651.292,172.807,651.292z M170.433,652.611v2.479c-1.211,0.428-2.167,1.395-2.581,2.611h-2.473
		C165.908,655.164,167.902,653.16,170.433,652.611z M170.434,667.439c-2.51-0.545-4.49-2.52-5.039-5.027h2.48
		c0.425,1.188,1.369,2.129,2.559,2.549V667.439z M168.135,660.021c0-2.576,2.096-4.671,4.672-4.671s4.671,2.095,4.671,4.671
		s-2.095,4.671-4.671,4.671S168.135,662.598,168.135,660.021z M175.145,667.447v-2.476c1.203-0.414,2.162-1.361,2.59-2.56h2.48
		C179.663,664.93,177.668,666.914,175.145,667.447z M177.757,657.701c-0.417-1.229-1.386-2.201-2.611-2.622v-2.476
		c2.546,0.538,4.554,2.549,5.085,5.098H177.757z"/>
	<path fill="#FFFFFF" d="M172.807,656.154c-2.133,0-3.867,1.734-3.867,3.867s1.734,3.867,3.867,3.867
		c2.132,0,3.867-1.734,3.867-3.867S174.938,656.154,172.807,656.154z"/>
	<path fill="#FFFFFF" d="M172.807,644.021c-8.836,0-16,7.163-16,16s7.164,16,16,16s16-7.163,16-16S181.643,644.021,172.807,644.021z
		 M172.807,669.555c-5.258,0-9.533-4.276-9.533-9.533c0-5.258,4.275-9.533,9.533-9.533c5.257,0,9.533,4.275,9.533,9.533
		C182.34,665.278,178.063,669.555,172.807,669.555z"/>
	<path fill="#FFFFFF" d="M128.826,644.021c-8.836,0-16,7.163-16,16s7.164,16,16,16s16-7.163,16-16S137.662,644.021,128.826,644.021z
		 M136.179,654.616l-1.072-0.183c0,0-1.501-0.461-1.501,0.979v1.808h2.48v2.91h-2.449v8.516h-3.523V660.1h-3.309v8.547h-3.557
		v-8.516h-1.773v-2.879h1.776v-2.728c0,0-0.093-1.194,0.796-2.083s1.625-1.072,2.451-1.041c0.828,0.03,2.91,0.244,2.91,0.244v2.88
		L128,654.402c0,0-1.287-0.184-1.287,1.133v1.717h3.432v-2.973c0,0-0.078-1.057,0.734-1.869c0.812-0.811,1.654-1.01,2.298-1.01
		s3.002,0.215,3.002,0.215V654.616z"/>
	<path fill="#FFFFFF" d="M84.847,644.021c-8.836,0-16,7.163-16,16s7.164,16,16,16s16-7.163,16-16S93.683,644.021,84.847,644.021z
		 M84.847,669.558c-5.258,0-9.536-4.278-9.536-9.536s4.278-9.535,9.536-9.535s9.536,4.277,9.536,9.535
		S90.105,669.558,84.847,669.558z"/>
	<path fill="#FFFFFF" d="M40.867,644.021c-8.836,0-16,7.163-16,16s7.164,16,16,16s16-7.163,16-16S49.703,644.021,40.867,644.021z
		 M42.727,667.707c0,0.838-0.833,1.518-1.86,1.518c-1.027,0-1.86-0.68-1.86-1.518v-8.232c0-0.838,0.833-1.516,1.86-1.516
		c1.027,0,1.86,0.678,1.86,1.516V667.707z M40.867,656.189c-1.206,0-2.185-0.979-2.185-2.186s0.979-2.186,2.185-2.186
		c1.207,0,2.185,0.979,2.185,2.186S42.074,656.189,40.867,656.189z"/>
	<path fill="#FFFFFF" d="M-3.112,676.021c8.836,0,16-7.163,16-16s-7.164-16-16-16s-16,7.163-16,16S-11.948,676.021-3.112,676.021z
		 M2.649,666.879c-0.812,0-1.471-0.659-1.471-1.473c0-0.812,0.659-1.471,1.471-1.471c0.813,0,1.472,0.658,1.472,1.471
		C4.121,666.22,3.462,666.879,2.649,666.879z M-8.529,652.756c0.812,0,1.472,0.66,1.472,1.473s-0.659,1.471-1.472,1.471
		c-0.813,0-1.471-0.658-1.471-1.471S-9.342,652.756-8.529,652.756z M-11.146,655.101c0.344,1.028,1.269,1.783,2.389,1.876
		c0.077,0.006,0.15,0.023,0.229,0.023c1.528,0,2.771-1.244,2.771-2.771c0-0.014-0.004-0.027-0.004-0.041
		c-0.017-1.135-0.716-2.106-1.707-2.519c1.304-0.683,2.786-1.073,4.357-1.073c5.197,0,9.425,4.229,9.425,9.426
		c0,0.855-0.116,1.685-0.33,2.474c-0.182,0.669-0.438,1.309-0.756,1.911c-0.393-1.008-1.354-1.727-2.49-1.762
		c-0.03-0.001-0.058-0.01-0.088-0.01c-1.528,0-2.771,1.244-2.771,2.771c0,0.09,0.019,0.175,0.027,0.263
		c0.107,1.124,0.881,2.046,1.926,2.372c-1.438,0.891-3.13,1.405-4.943,1.405c-4.341,0-8.005-2.95-9.095-6.951
		c-0.215-0.789-0.33-1.618-0.33-2.474C-12.537,658.219-12.028,656.534-11.146,655.101z"/>
	<path fill="#FFFFFF" d="M-3.112,599.918c-8.836,0-16,7.163-16,16s7.164,16,16,16s16-7.163,16-16S5.724,599.918-3.112,599.918z
		 M-2.552,623.55c-1.687,0.238-5.316-0.595-6.625-3.69c-1.309-3.093-0.495-5.452,0.674-6.961c0,0,0.535-0.694,0.774-0.535
		c0.199,0.133,0.021,0.436,0.021,0.436s-0.277,1.39-0.259,2.063c0.02,0.675,0.219,2.638,1.131,2.915c0,0,0.06-2.935,1.369-5.156
		c1.31-2.223,3.172-3.629,4.284-4.066c1.11-0.438,2.737-0.277,2.737-0.277s1.825,1.408,2.063,7.576
		C3.854,622.023-0.866,623.312-2.552,623.55z"/>
	<path fill="#FFFFFF" d="M40.867,599.918c-8.836,0-16,7.163-16,16s7.164,16,16,16s16-7.163,16-16S49.703,599.918,40.867,599.918z
		 M50.856,617.99c0.028,0.209,0.044,0.422,0.044,0.637c0,1.833-1.07,3.545-3.015,4.817c-1.891,1.239-4.397,1.923-7.057,1.923
		c-2.66,0-5.167-0.684-7.057-1.923c-1.944-1.272-3.014-2.984-3.014-4.817c0-0.234,0.018-0.465,0.051-0.695
		c-0.36-0.312-1.171-1.139-1.171-2.281c0-1.188,0.784-2.489,2.506-2.543c0.048-0.002,1.031-0.017,1.74,0.631
		c1.797-1.143,4.127-1.793,6.612-1.846l1.829-5.145l4.357,1.082c0.29-0.792,1.05-1.361,1.944-1.361c1.143,0,2.073,0.93,2.073,2.072
		s-0.93,2.074-2.073,2.074c-1.111,0-2.018-0.878-2.069-1.977l-3.712-0.922l-1.487,4.179c2.433,0.085,4.708,0.741,6.465,1.872
		c0.709-0.677,1.721-0.662,1.767-0.66c1.724,0.054,2.508,1.355,2.508,2.543C52.096,616.873,51.169,617.733,50.856,617.99z"/>
	<path fill="#FFFFFF" d="M84.847,599.918c-8.836,0-16,7.163-16,16s7.164,16,16,16s16-7.163,16-16S93.683,599.918,84.847,599.918z
		 M89.299,617.418c0,0-1.48,0.955-3.152,0.955H82.9l-1.027,4.823h-4.178l3.167-14.556h7.242c0,0,3.892,0.088,3.892,3.955
		C91.997,612.596,91.973,615.58,89.299,617.418z"/>
	<path fill="#FFFFFF" d="M86.688,611.569h-2.283l-0.859,4.011h1.814c0.835,0,2.579-0.645,2.579-2.315
		C87.938,611.593,86.688,611.569,86.688,611.569z"/>
	<path fill="#FFFFFF" d="M128.826,599.918c-8.836,0-16,7.163-16,16s7.164,16,16,16s16-7.163,16-16S137.662,599.918,128.826,599.918z
		 M122.68,619.086c-0.203-0.363-0.225-1.292-0.225-1.729c0-0.436,0.059-1.227,0.299-1.705c0.238-0.479,0.826-0.269,0.826-0.269
		l3.492,1.423c0,0,0.385,0.08,0.385,0.674c0,0.596-0.428,0.691-0.428,0.691l-3.34,1.081
		C123.414,619.354,122.884,619.449,122.68,619.086z M128.125,624.27c-0.784,0-2.715-0.668-3.1-1.336c0,0-0.186-0.367,0.072-0.625
		l2.504-2.969c0,0,0.305-0.312,0.792-0.145c0.486,0.166,0.464,0.537,0.464,0.58v3.869
		C128.857,623.645,128.909,624.27,128.125,624.27z M128.438,615.543c-0.494,0.188-0.894-0.385-0.894-0.385l-3.681-5.764
		c0,0-0.159-0.232,0-0.494c0.16-0.262,0.559-0.566,1.83-0.943c1.27-0.377,1.908-0.428,2.338-0.371
		c0.428,0.059,0.471,0.451,0.479,0.596c0.008,0.146,0.377,6.644,0.377,6.644S128.931,615.354,128.438,615.543z M130.143,615.812
		c0.072-0.108,2.135-2.867,2.135-2.867s0.109-0.188,0.262-0.319c0,0,0.326-0.254,0.704-0.029s1.553,1.582,1.837,2.737
		c0,0,0.174,0.536-0.4,0.704c-0.573,0.166-3.672,0.922-3.672,0.922s-0.539,0.131-0.828-0.299
		C129.889,616.232,130.07,615.92,130.143,615.812z M135.131,620.487c-0.262,0.609-0.9,1.677-2.048,2.489c0,0-0.405,0.27-0.762-0.225
		s-2.048-3.303-2.048-3.303s-0.182-0.502,0.102-0.785s0.486-0.34,0.85-0.238l3.557,1.197
		C134.781,619.623,135.393,619.877,135.131,620.487z"/>
	<path fill="#FFFFFF" d="M172.807,599.918c-8.836,0-16,7.163-16,16s7.164,16,16,16s16-7.163,16-16S181.643,599.918,172.807,599.918z
		 M174.494,611.215c0,0,0.079-0.531-0.353-0.932c-0.432-0.402-1.472-0.374-1.472-0.374c-0.392,0-0.734-0.039-1.322,0.235
		c-0.588,0.275-0.824,1.05-0.824,1.05l-2.668-0.403c0.148-0.5,0.707-1.99,2.108-2.51c1.403-0.519,3.03-0.41,3.03-0.41
		c3.335-0.011,3.941,1.303,4.168,1.783c0.225,0.48,0.265,1.735,0.265,1.735l-0.049,3.805c0,0.245,0,1.079,0.167,1.806
		c0.168,0.725,0.529,1.254,0.529,1.254h-2.992c-0.078-0.127-0.371-1.108-0.371-1.108c-0.266,0.196-1.58,1.354-3.433,1.354
		c-1.854,0-3.833-0.804-3.833-3.068c0-2.267,2.342-2.844,3.902-3.109c1.559-0.264,3.167-0.677,3.167-0.677L174.494,611.215z
		 M180.4,621.664c-0.292,0.237-2.931,2.312-7.789,2.312c-4.86,0-7.59-2.329-9.609-3.895c0,0-0.146-0.255-0.09-0.419
		c0.039-0.122,0.309-0.072,0.417,0.037c0.11,0.109,4.259,2.875,9.335,2.857c5.078-0.02,7.28-1.511,7.463-1.603
		c0.182-0.09,0.555-0.19,0.71-0.035C180.99,621.072,180.691,621.428,180.4,621.664z M182.711,619.936
		c0.055,1.619-1.329,3.348-1.492,3.239c-0.164-0.109,0-0.491,0-0.491c0.218-0.564,0.438-1.328,0.562-1.93
		c0.129-0.601-0.381-0.764-0.709-0.764c-0.326,0-1.729,0.127-1.729,0.127c-0.528,0.055-0.2-0.327-0.2-0.327
		c1.456-0.655,2.876-0.583,2.876-0.583C182.82,619.17,182.711,619.936,182.711,619.936z"/>
	<path fill="#FFFFFF" d="M170.494,615.225c0,0.854,0.766,1.402,1.666,1.402c0.903,0,1.481-0.422,1.941-0.874
		c0.463-0.449,0.393-1.549,0.393-1.549v-0.813c-0.353,0.107-2.039,0.422-2.637,0.578
		C171.259,614.125,170.494,614.371,170.494,615.225z"/>
	<path fill="#FFFFFF" d="M207.76,614.016c-1.63,0-1.782,1.53-1.782,1.53h3.582C209.56,615.546,209.604,614.016,207.76,614.016z"/>
	<path fill="#FFFFFF" d="M213.938,614.041c-1.97,0.081-1.916,1.899-1.916,1.899c0.018,2.131,1.95,2.634,3.125,1.719
		C216.32,616.746,215.908,613.961,213.938,614.041z"/>
	<path fill="#FFFFFF" d="M218.209,617.148c0.035,0.762,0.896,1.228,2.158,0.842c1.262-0.385,1.101-1.809,1.101-1.809
		C218.736,616.155,218.173,616.388,218.209,617.148z"/>
	<path fill="#FFFFFF" d="M216.785,599.918c-8.836,0-16,7.163-16,16s7.164,16,16,16s16-7.163,16-16S225.621,599.918,216.785,599.918z
		 M214.225,618.895c-1.514,0-2.23-0.913-2.23-0.913c0.01,0.456-0.044,0.717-0.044,0.717h-1.173c0.021-0.25,0.033-1.197,0.039-2.337
		h-4.865c0,0,0.07,1.736,1.889,1.736c0,0,1.227,0.072,1.558-0.93h1.254c0,0-0.134,1.029-1.28,1.449
		c-1.146,0.422-3.277,0.547-4.271-1.003c0,0-0.367-0.617-0.367-1.575c0-0.959,0.386-1.907,1.316-2.445
		c0.932-0.537,2.785-0.483,3.564,0.036c0.688,0.459,1.13,1.067,1.206,2.239c0.009-2.166,0.002-4.755,0.002-4.755h1.21v3.008
		c0.519-0.796,2.372-1.28,3.626-0.563c1.253,0.716,1.549,1.996,1.343,3.16C216.795,617.883,215.738,618.895,214.225,618.895z
		 M221.611,618.689c-0.035-0.135-0.054-0.734-0.054-0.734c-0.752,0.823-1.118,0.787-2.122,0.932
		c-1.002,0.143-2.516-0.395-2.489-1.631c0.026-1.234,0.761-1.432,1.46-1.691c0.698-0.26,3.062-0.18,3.062-0.18
		c0-1.003-0.511-1.361-1.629-1.361c-1.12,0-1.235,0.807-1.235,0.807h-1.271c0,0,0.018-1.621,2.587-1.621
		c2.974,0,2.767,1.979,2.767,1.979s0,2.113,0,2.633s0.037,0.869,0.037,0.869H221.611z M225.104,620.723h-1.379l1.093-2.033
		l-2.804-5.274h1.389l2.095,4.119l2.052-4.138h1.289L225.104,620.723z"/>
	<path fill="#FFFFFF" d="M-3.112,555.987c-8.836,0-16,7.163-16,16s7.164,16,16,16s16-7.163,16-16S5.724,555.987-3.112,555.987z
		 M0.858,577.328c0,0-1.462-0.288-2.852-4.023l-1.263-2.779c0,0-0.92-2.508-3.898-2.508s-4.042,2.832-4.042,3.987
		s0.974,3.699,3.907,3.907c0,0,2.553,0.081,3.807-2.066c0,0,0.181-0.244,0.289-0.027l0.731,1.58c0,0,0.108,0.171-0.01,0.288
		c0,0-1.551,2.085-4.638,2.085c-3.085,0-5.964-2.445-5.964-5.803c0-3.355,2.815-5.766,6.172-5.766c3.357,0,4.764,2.247,5.549,3.952
		c0.785,1.706,1.57,3.519,1.706,3.83s0.677,1.719,1.773,1.896c1.096,0.176,2.829-0.136,2.829-1.692c0,0,0.203-0.947-1.529-1.421
		s-4.02-1.219-3.966-3.465s1.773-3.004,3.303-3.004c1.529,0,2.348,0.73,2.944,1.678c0,0,0.081,0.189-0.062,0.271l-1.143,0.575
		c0,0-0.183,0.095-0.298-0.074c-0.116-0.17-0.596-0.793-1.536-0.793c-0.941,0-1.394,0.738-1.394,1.375
		c0,0.636,0.588,1.068,2.125,1.488s3.451,1.078,3.451,3.568S3.781,578.501,0.858,577.328z"/>
	<path fill="#FFFFFF" d="M40.867,555.987c-8.836,0-16,7.163-16,16s7.164,16,16,16s16-7.163,16-16S49.703,555.987,40.867,555.987z
		 M49.948,568.641c-0.157,0.707-0.759,1.726-2.589,2.354c0,0,1.019,4.787-3.715,7.533c-4.733,2.746-11.665-0.079-11.9-6.226
		c0,0-0.262-5.701,5.859-7.688c0,0,1.987-0.654,4.446,0.312v4.212c0,0-0.627-0.393-1.647-0.393c-1.021,0-3.061,0.575-3.793,2.118
		s-0.732,2.615,0.576,3.715c1.308,1.098,5.361,0.993,6.329-2.564v-6.434c0,0,1.962,1.072,3.218,1.596
		c1.255,0.523,2.275,0.654,2.693,0.732S50.104,567.934,49.948,568.641z"/>
	<path fill="#FFFFFF" d="M81.566,566.867c0,0-0.147-0.324,0.282-0.178c0,0,3.06,0.504,6.468,5.358c0,0,1.84,2.87,3.287,1.718
		c1.446-1.153,0.563-6.99-4.464-8.682c-5.027-1.692-9.784,2.402-9.515,7.357c0,0-0.024,0.906,0.663,1.104
		C78.972,573.74,82.565,573.017,81.566,566.867z"/>
	<path fill="#FFFFFF" d="M84.847,587.987c8.836,0,16-7.163,16-16s-7.164-16-16-16s-16,7.163-16,16S76.011,587.987,84.847,587.987z
		 M84.846,562.779c5.086,0,9.208,4.122,9.208,9.208c0,5.085-4.122,9.208-9.208,9.208c-5.085,0-9.209-4.123-9.209-9.208
		C75.637,566.901,79.761,562.779,84.846,562.779z"/>
	<path fill="#FFFFFF" d="M128.826,555.987c-8.836,0-16,7.163-16,16s7.164,16,16,16s16-7.163,16-16S137.662,555.987,128.826,555.987z
		 M118.146,575.25c-0.009,0.123-0.062,0.289-0.114,0.289s-0.07-0.175-0.078-0.254c-0.01-0.078-0.123-0.99-0.123-1.209
		c0-0.221,0.114-1.045,0.114-1.045c0.017-0.069,0.034-0.174,0.104-0.174s0.088,0.156,0.088,0.156s0.132,0.58,0.132,1.026
		C118.269,574.487,118.146,575.25,118.146,575.25z M118.992,575.882c-0.014,0.179-0.09,0.421-0.167,0.421
		c-0.076,0-0.102-0.255-0.114-0.37c-0.014-0.114-0.179-1.442-0.179-1.761c0-0.32,0.165-1.838,0.165-1.838
		c0.026-0.104,0.052-0.256,0.154-0.256c0.102,0,0.127,0.229,0.127,0.229s0.191,1.161,0.191,1.812S118.992,575.882,118.992,575.882z
		 M119.872,576.227c-0.013,0.179-0.089,0.421-0.165,0.421c-0.078,0-0.104-0.255-0.115-0.37c-0.014-0.115-0.18-1.787-0.18-2.105
		c0-0.32,0.166-2.171,0.166-2.171c0.025-0.102,0.051-0.255,0.154-0.255c0.102,0,0.127,0.229,0.127,0.229s0.191,1.493,0.191,2.145
		S119.872,576.227,119.872,576.227z M120.74,576.329c-0.013,0.179-0.09,0.421-0.166,0.421s-0.103-0.256-0.115-0.37
		c-0.013-0.115-0.178-1.89-0.178-2.208c0-0.32,0.165-2.26,0.165-2.26c0.026-0.102,0.052-0.255,0.153-0.255
		c0.103,0,0.128,0.229,0.128,0.229s0.191,1.582,0.191,2.233S120.74,576.329,120.74,576.329z M121.633,576.329
		c-0.012,0.179-0.089,0.421-0.165,0.421c-0.077,0-0.103-0.256-0.114-0.37c-0.014-0.115-0.18-1.89-0.18-2.208
		c0-0.32,0.166-2.119,0.166-2.119c0.025-0.103,0.051-0.256,0.153-0.256s0.128,0.23,0.128,0.23s0.191,1.441,0.191,2.093
		S121.633,576.329,121.633,576.329z M122.527,576.329c-0.013,0.179-0.09,0.421-0.166,0.421s-0.102-0.256-0.115-0.37
		c-0.013-0.115-0.178-2.272-0.178-2.591c0-0.32,0.165-3.179,0.165-3.179c0.026-0.103,0.052-0.256,0.153-0.256
		c0.103,0,0.128,0.229,0.128,0.229s0.19,2.502,0.19,3.154C122.705,574.389,122.527,576.329,122.527,576.329z M123.51,576.176
		c-0.038,0.472-0.102,0.587-0.229,0.587s-0.204-0.498-0.218-0.689c-0.012-0.191-0.127-2.067-0.152-2.744
		c0,0,0.127-2.706,0.152-3.025c0.026-0.319,0.039-0.74,0.18-0.74s0.229,0.28,0.229,0.728s0.103,2.463,0.103,2.975
		C123.574,573.775,123.549,575.703,123.51,576.176z M124.391,576.213c-0.039,0.473-0.102,0.524-0.229,0.524
		s-0.204-0.435-0.218-0.626c-0.012-0.191-0.127-2.209-0.152-2.885c0,0,0.127-3.024,0.152-3.344s0.039-0.74,0.18-0.74
		s0.229,0.28,0.229,0.727c0,0.447,0.104,2.783,0.104,3.293C124.455,573.674,124.43,575.741,124.391,576.213z M125.348,576.1
		c-0.037,0.472-0.127,0.638-0.255,0.638s-0.217-0.473-0.229-0.663c-0.013-0.192-0.09-2.172-0.115-2.848c0,0,0.064-3.024,0.09-3.344
		s0.102-0.855,0.242-0.855s0.242,0.408,0.242,0.855c0,0.446,0.09,2.77,0.09,3.279C125.412,573.674,125.387,575.627,125.348,576.1z
		 M126.216,576.443c0,0-0.013,0.332-0.217,0.332s-0.255-0.23-0.269-0.345c-0.012-0.114-0.089-3.536-0.089-3.842
		c0-0.307,0.103-2.72,0.103-2.923c0-0.205,0.038-0.574,0.255-0.574c0.204,0,0.255,0.293,0.255,0.434c0,0.14,0.076,2.643,0.076,3.178
		C126.33,573.24,126.369,575.486,126.216,576.443z M127.16,576.367c-0.051,0.306-0.141,0.396-0.268,0.396s-0.268-0.281-0.268-0.524
		c0-0.242-0.077-2.973-0.064-3.649c0,0,0.09-2.311,0.102-2.897c0,0,0.014-0.447,0.23-0.447s0.294,0.281,0.294,0.447
		c0,0,0.089,2.157,0.089,3.332C127.275,574.197,127.212,576.061,127.16,576.367z M128.105,576.367
		c-0.076,0.408-0.153,0.408-0.243,0.408c-0.089,0-0.318-0.141-0.318-0.498s-0.064-3.217-0.064-4.098s0.077-3.178,0.077-3.331
		s0.089-0.497,0.306-0.497c0.192,0,0.269,0.242,0.269,0.42c0,0.179,0.076,2.643,0.076,3.549S128.182,575.958,128.105,576.367z
		 M129.088,576.277c0,0.294-0.102,0.473-0.318,0.473c-0.218,0-0.307-0.205-0.307-0.408c0-0.205-0.115-2.209-0.115-3.18
		c0-0.969,0.09-4.059,0.09-4.313s0.012-0.995,0.344-0.995s0.32,0.664,0.32,0.932s0.051,3.994,0.051,3.994
		C129.178,573.457,129.088,575.983,129.088,576.277z M137.359,576.801c0,0-7.314,0-7.672,0s-0.369-0.37-0.369-0.37v-8.642
		c0.012-0.166,1.99-1.314,4.365,0.025c2.373,1.34,2.361,3.727,2.361,3.727c1.033-0.522,3.777-0.088,3.777,2.427
		C139.822,576.481,137.359,576.801,137.359,576.801z"/>
	<path fill="#FFFFFF" d="M172.807,555.987c-8.836,0-16,7.163-16,16s7.164,16,16,16s16-7.163,16-16S181.643,555.987,172.807,555.987z
		 M180.226,577.751c-0.269,1.166-1.167,2.118-2.729,2.084c0,0-0.845,0.07-1.527-0.755l-3.915-4.886l-0.018,2.963
		c0,0,0.018,1.581-1.061,2.246c-1.077,0.664-2.909,0.808-3.825-1.168c0,0-0.197-0.683-0.214-1.113v-10.185
		c0,0-0.019-1.634,1.167-2.443c1.186-0.808,3.035-0.377,3.718,0.987c0,0,0.251,0.378,0.216,1.258v2.677l2.909-4.186
		c0,0,0.701-1.082,2.066-1.143s2.694,1.286,2.623,2.544c-0.072,1.258-0.63,1.688-0.63,1.688l-2.388,3.448l3.233,4.132
		C179.85,575.9,180.497,576.582,180.226,577.751z"/>
	<circle fill="#FFFFFF" cx="221.676" cy="568.637" r="1.284"/>
	<circle fill="#FFFFFF" cx="212.581" cy="568.637" r="1.284"/>
	<path fill="#FFFFFF" d="M216.785,555.987c-8.836,0-16,7.163-16,16s7.164,16,16,16s16-7.163,16-16S225.621,555.987,216.785,555.987z
		 M224.805,571.747c-1.247,1.393-3.31,1.411-3.31,1.411h-3.525l2.187,6.636h-7.575v-2.17l-5.046,1.536v-5.895l5.027,1.41v-1.555
		c-0.922,0-2.261-0.325-3.381-1.572c-1.121-1.248-1.574-3.762-0.182-5.589c1.393-1.825,3.526-1.771,3.526-1.771
		c4.051,0.108,4.483,3.832,4.483,3.832h0.108c0.598-3.037,3.454-4.52,6.004-3.543c2.549,0.977,2.911,3.652,2.911,4.014
		C226.033,568.854,226.052,570.355,224.805,571.747z"/>
	<circle fill="#FFFFFF" cx="213.807" cy="523.76" r="1.42"/>
	<circle fill="#FFFFFF" cx="220.508" cy="522.499" r="1.42"/>
	<path fill="#FFFFFF" d="M216.785,511.799c-8.836,0-16,7.163-16,16s7.164,16,16,16s16-7.163,16-16S225.621,511.799,216.785,511.799z
		 M207.146,533.44l2.021-1.939l0.56,2.999L207.146,533.44z M214.327,536.441l-3.38-1.42l-0.82-4.401l2.68-2.56l2.761-0.5
		l1.521,8.381L214.327,536.441z M218.188,535.762l-1.84-9.762c0,0-0.82,0.939-1.939,1.1c-1.121,0.16-3.102-0.16-3.861-2.4
		c0,0-0.721-2.22,1.34-3.779c0,0,2.021-1.441,4.121,0.219c0,0,0.84,0.7,1.5-0.24s1.48-1.7,2.74-1.74
		c1.26-0.039,2.881,0.381,3.561,2.561c0.681,2.181-1.619,5.32-4.92,3.781l1.779,9.801L218.188,535.762z M225.99,533.261
		c-0.642,1.28-1.602,1.341-1.602,1.341l-2.68,0.479l-1.5-8.361l2.779-0.521c0.281-0.06,0.801,0.041,1.361,0.34
		c0.56,0.301,1.54,1.602,1.819,2.741C226.449,530.42,226.629,531.98,225.99,533.261z"/>
	<path fill="#FFFFFF" d="M172.807,511.799c-8.836,0-16,7.163-16,16s7.164,16,16,16s16-7.163,16-16S181.643,511.799,172.807,511.799z
		 M168.321,518.199c-0.191,0.22-0.219,1.03-0.219,1.03v1.896c0,0.481-0.357,0.413-0.357,0.413s-0.935,0-1.718,0
		c-0.783,0-1.388,0.316-1.388,0.316L168.321,518.199z M181.336,528.769c-0.041,1.209-0.288,3.312-0.577,4.699
		s-0.729,3.794-2.35,4.371c0,0-0.455,0.123-1.181,0.149c-0.729,0.029-3.148,0.181-3.932-0.727c0,0-0.604-0.591-0.577-1.855
		c0.027-1.264,0.055-2.42,1.869-2.598c0,0,0.894-0.042,1.292,0c0,0,0.164,0.041,0.123,0.165c-0.042,0.124-0.123,0.508-0.11,0.632
		c0.013,0.123,0.055,0.372,0.083,0.44c0.026,0.068-0.029,0.206-0.207,0.206c0,0-1.347-0.206-1.306,0.811
		c0.04,1.018,1.306,0.839,1.58,0.839c0.275,0,1.485,0,1.677-0.33c0.193-0.33,0.303-0.921,0.247-1.704
		c-0.054-0.783-0.083-2.131-1.498-2.241c0,0-2.734-0.137-3.188-1.057c0,0-0.371-0.51-0.33-1.678c0,0,0.021-0.196-0.055-0.196
		c-0.076,0-0.044,0.077-0.044,0.166c0,0.088-0.003,0.965-0.155,1.583c-0.151,0.619-0.301,1.43-0.749,1.663
		c-0.447,0.234-1.002,0.048-1.175,0.028c-0.171-0.021-2.274-0.345-3.766-0.79c-1.491-0.447-1.361-0.826-1.883-2.399
		c-0.522-1.572-0.79-4.301-0.831-4.769c-0.041-0.468-0.207-1.938,1.635-2.075h1.801c0,0,0.556,0.007,0.783-0.221
		c0.227-0.228,0.192-0.398,0.206-0.66c0.013-0.26,0-2.02,0-2.02s-0.096-1.417,1.732-1.58c1.828-0.165,3.655,0.137,3.903,1.565
		c0,0,2.362-0.039,3.71,0.221c1.347,0.262,2.02,0.288,2.502,0.99c0.48,0.7,0.467,2.074,0.522,2.831
		C181.145,523.984,181.378,527.558,181.336,528.769z"/>
	<path fill="#FFFFFF" d="M177.378,526.061c-0.961,0-1.112,0.771-1.209,1.237c0,0,1.306-0.248,2.172,0.247
		C178.341,527.545,178.341,526.061,177.378,526.061z"/>
	<path fill="#FFFFFF" d="M127.468,520.639h-5.056c-0.366,0-0.662,0.296-0.662,0.66v11.105c0,0.365,0.296,0.661,0.662,0.661h5.056
		c0.365,0,0.662-0.296,0.662-0.661v-11.105C128.13,520.935,127.833,520.639,127.468,520.639z"/>
	<path fill="#FFFFFF" d="M135.242,520.639h-5.057c-0.365,0-0.662,0.296-0.662,0.66v6.096c0,0.366,0.296,0.662,0.662,0.662h5.057
		c0.366,0,0.661-0.296,0.661-0.662v-6.096C135.902,520.935,135.607,520.639,135.242,520.639z"/>
	<path fill="#FFFFFF" d="M128.826,511.75c-8.836,0-16,7.163-16,16s7.164,16,16,16s16-7.163,16-16S137.662,511.75,128.826,511.75z
		 M137.285,535.546c0,0.366-0.296,0.662-0.661,0.662h-15.595c-0.366,0-0.661-0.296-0.661-0.662v-15.594
		c0-0.365,0.295-0.661,0.661-0.661h15.595c0.365,0,0.661,0.296,0.661,0.661V535.546z"/>
	<path fill="#FFFFFF" d="M84.847,543.75c8.836,0,16-7.163,16-16s-7.164-16-16-16s-16,7.163-16,16S76.011,543.75,84.847,543.75z
		 M88.683,521.088h6.555l-10.192,9.291l-3.098-3.277L88.683,521.088z M80.292,526.598l3.998,4.574l-3.494,3.24l-6.339-7.814H80.292z
		"/>
	<path fill="#FFFFFF" d="M44.308,524.114c0,0-1.015-1.212-1.769-0.033c-0.754,1.179-2.031,2.817-2.359,3.047s-1.212,0.982-2.162,0
		c-0.95-0.983-1.769-1.998-2.817-0.786c-1.049,1.212-2.228,3.211-2.785,5.012c0,0,1.441,3.211,8.223,3.211
		c6.78,0,8.616-3.112,8.616-3.112S48.894,528.045,44.308,524.114z"/>
	<path fill="#FFFFFF" d="M40.867,511.75c-8.836,0-16,7.163-16,16s7.164,16,16,16s16-7.163,16-16S49.703,511.75,40.867,511.75z
		 M40.639,535.711c-7.174,0-9.369-3.67-9.369-3.67s1.54-12.251,9.565-12.251c8.374,0,9.63,12.219,9.63,12.219
		S47.812,535.711,40.639,535.711z"/>
	<path fill="#FFFFFF" d="M-3.112,511.75c-8.836,0-16,7.164-16,16c0,8.837,7.164,16,16,16s16-7.163,16-16
		C12.888,518.914,5.724,511.75-3.112,511.75z M-3.207,523.482c0,0-0.97,0.232-0.97,1.117v6.635c0,0-0.231,3.834-4.317,4.107
		c0,0-2.907,0.316-4.339-2.802c0,0-0.316-0.905-0.316-1.621l0.021-2.845h3.433v2.887c0,0,0.211,0.969,0.99,0.969
		c0.78,0,1.095-0.695,1.095-0.863v-6.51c0,0-0.21-1.728,1.622-3.434c1.833-1.706,5.182-1.348,6.552,0.863
		c0,0,0.801,0.948,0.801,2.486v1.327l-2.086,0.632l-1.327-0.653v-1.158C-2.047,524.62-2.069,523.482-3.207,523.482z M6.926,531.191
		c0,0-0.211,4.108-4.572,4.256c0,0-2.275,0.169-3.687-2.086c0,0-0.694-1.011-0.694-2.295v-2.928l1.328,0.609l2.105-0.59v2.844
		c0,0,0.065,1.012,1.033,1.012c0.969,0,1.011-0.906,1.011-0.906v-2.906h3.476V531.191z"/>
	<path fill="#FFFFFF" d="M216.785,467.729c-8.836,0-16,7.164-16,16c0,8.837,7.164,16,16,16s16-7.163,16-16
		C232.785,474.892,225.621,467.729,216.785,467.729z M214.45,479.543l6.135,3.573l-0.789,1.352l-6.135-3.645L214.45,479.543z
		 M212.817,483.018l6.825,1.872l-0.381,1.491l-6.839-1.886L212.817,483.018z M212.099,486.198l7.092,0.647l-0.141,1.533
		l-7.077-0.647L212.099,486.198z M211.916,488.801h7.12v1.52h-7.12V488.801z M221.443,492.713h-11.707v-7.345h1.181v6.162h9.344
		v-6.219h1.183V492.713z M220.823,482.905l-4.011-5.824l1.267-0.858l3.997,5.838L220.823,482.905z M222.356,481.978l-1.224-6.979
		l1.492-0.254l1.208,6.979L222.356,481.978z"/>
	<path fill="#FFFFFF" d="M172.807,467.729c-8.836,0-16,7.164-16,16c0,8.837,7.164,16,16,16s16-7.163,16-16
		C188.807,474.892,181.643,467.729,172.807,467.729z M179.807,480.659l-6,4.059h6l-12,8.051v-4.126l6-3.925h-6l5.934-4.059h-5.934
		v-3.972h12l-6.066,3.972H179.807z"/>
	<path fill="#FFFFFF" d="M129.583,467.729c-8.836,0-16,7.164-16,16c0,8.837,7.164,16,16,16s16-7.163,16-16
		C145.583,474.892,138.419,467.729,129.583,467.729z M136.277,480.371h-0.718l-0.287,0.287v6.139c0,0,0.144,0.467,0.431,0.467h0.574
		v1.4h-4.416v-1.363h0.826v-6.428l-2.369,7.791h-1.58l-2.046-7.646v6.318h0.825v1.328h-3.697v-1.363h0.574
		c0,0,0.539-0.037,0.575-0.468v-6.246c0,0-0.18-0.396-0.719-0.431h-0.431v-1.365h4.596l1.579,5.602l1.472-5.602h4.811V480.371z"/>
	<path fill="#FFFFFF" d="M86.286,489.692c0.189-0.142,0.806-0.537,1.09-0.49c0,0,0.585-0.079,0.886,0.49
		c0,0,0.126,0.238,0.285,0.127s0.095-0.236,0.047-0.331c-0.047-0.095-0.205-0.728-1.122-0.728c-0.917,0-1.486,0.585-1.612,0.728
		c-0.126,0.141-0.158,0.284-0.063,0.378C85.891,489.961,86.096,489.834,86.286,489.692z"/>
	<path fill="#FFFFFF" d="M84.847,499.729c8.836,0,16-7.163,16-16s-7.164-16-16-16s-16,7.163-16,16S76.011,499.729,84.847,499.729z
		 M82.283,477.224c0.316-0.215,0.818-0.564,1.03-0.752c0.32-0.285,0.652-0.581,0.807-1.731c0,0,0.012-0.344,0.166-0.166
		c0.155,0.177,1.209,1.636,2.384,2.216c0.685,0.339,1.014,0.497,1.234,0.616c2.938,1.205,5.007,4.091,5.007,7.463
		c0,4.454-3.61,8.063-8.063,8.063c-4.453,0-8.063-3.61-8.063-8.063C76.784,481.315,79.087,478.295,82.283,477.224z"/>
	<path fill="#FFFFFF" d="M82.57,489.123c1.407,0.064,3.462-1.392,3.81-1.596c0.348-0.205,0.807-0.585,1.36-0.553
		c0.553,0.031,0.98,0.617,2.214,1.739c1.233,1.122,2.039-1.233,2.149-1.771c0.111-0.537,0.364-1.408-0.363-2.072
		c-0.729-0.663-1.929,0.427-2.183,0.571c-0.252,0.141-1.28,0.932-1.896,0.964c-0.617,0.031-1.834-0.98-2.213-1.25
		c-0.379-0.27-1.897-1.281-3.557-0.458c-1.66,0.822-1.597,2.402-1.597,2.402C80.388,488.554,81.164,489.06,82.57,489.123z"/>
	<path fill="#FFFFFF" d="M88.689,490.657c-0.096,0.064-0.711,0.396-1.866,0.522c-1.154,0.125-2.008-0.3-2.261-0.442
		c-0.252-0.143-0.411,0-0.411,0c-0.206,0.237-0.016,0.378-0.016,0.378c0.711,0.569,1.691,0.633,2.704,0.569
		c1.011-0.063,1.865-0.601,1.976-0.664c0.11-0.063,0.237-0.142,0.19-0.332C88.958,490.499,88.783,490.594,88.689,490.657z"/>
	<path fill="#FFFFFF" d="M40.867,467.729c-8.836,0-16,7.164-16,16s7.164,16,16,16s16-7.164,16-16S49.703,467.729,40.867,467.729z
		 M49.101,487.207c-0.451,1.064-1.094,2.02-1.914,2.84c-0.822,0.821-1.776,1.465-2.841,1.916c-1.102,0.465-2.271,0.701-3.479,0.701
		c-1.206,0-2.375-0.236-3.479-0.701c-1.064-0.451-2.02-1.095-2.84-1.916c-0.82-0.82-1.465-1.775-1.916-2.84
		c-0.464-1.102-0.702-2.271-0.702-3.479c0-1.206,0.238-2.377,0.702-3.479c0.451-1.064,1.096-2.02,1.916-2.84
		c0.82-0.821,1.776-1.465,2.84-1.914c1.103-0.467,2.272-0.704,3.479-0.704c1.207,0,2.376,0.237,3.479,0.704
		c1.065,0.449,2.02,1.093,2.841,1.914c0.82,0.82,1.463,1.775,1.914,2.84c0.466,1.102,0.702,2.272,0.702,3.479
		C49.803,484.936,49.567,486.105,49.101,487.207z"/>
	<path fill="#FFFFFF" d="M40.867,475.235c-4.684,0-8.493,3.81-8.493,8.493s3.81,8.494,8.493,8.494c4.685,0,8.494-3.811,8.494-8.494
		S45.552,475.235,40.867,475.235z M33.2,483.693c0-1.113,0.238-2.17,0.664-3.125l3.641,10.018
		C34.956,489.34,33.2,486.722,33.2,483.693z M40.867,491.361c-0.743,0-1.461-0.106-2.142-0.305l2.298-6.591l2.377,6.466
		C42.607,491.209,41.756,491.361,40.867,491.361z M41.955,480.168c0.117-0.022,0.698-0.092,0.827-0.092
		c0.128,0,0.314-0.105,0.314-0.373s-0.326-0.268-0.326-0.268c-0.221,0-1.596,0.104-2.061,0.104c-0.466,0-1.828-0.093-1.956-0.104
		c-0.128-0.012-0.385,0.047-0.385,0.314s0.281,0.326,0.281,0.326l0.802,0.081l1.2,3.261l-1.675,4.977l-2.758-8.163
		c-0.046-0.101,0.07-0.086,0.07-0.086c0.071-0.007,0.66-0.062,0.66-0.062s0.458,0,0.403-0.373c-0.053-0.373-0.457-0.256-0.457-0.256
		c-1.344,0.108-2.392,0.062-2.392,0.062l-0.081,0.023c1.365-2.115,3.741-3.514,6.445-3.514c2.01,0,3.839,0.773,5.206,2.039
		c-0.391-0.001-0.767,0.104-0.974,0.344c-0.443,0.514-0.792,1.083,0.291,2.771c1.083,1.688,0.534,3.121,0.534,3.121l-1.232,4.018
		L41.955,480.168z M47.638,480.193c0-0.033,0-0.068-0.003-0.105c0.574,1.075,0.899,2.303,0.899,3.605
		c0,2.811-1.512,5.268-3.767,6.602c0.592-1.721,1.866-5.436,1.974-5.748c0.14-0.407,0.489-1.397,0.489-1.397
		C47.777,481.893,47.638,480.193,47.638,480.193z"/>
	<path fill="#FFFFFF" d="M0.012,485.812h-6.354c-1.054,0.291-0.817,1.107-0.817,1.107c0,0.686,0.87,0.896,0.87,0.896h6.46
		c0.923-0.211,0.817-1.08,0.817-1.08C0.987,485.919,0.012,485.812,0.012,485.812z"/>
	<path fill="#FFFFFF" d="M-3.112,467.729c-8.836,0-16,7.164-16,16s7.164,16,16,16s16-7.164,16-16S5.724,467.729-3.112,467.729z
		 M5.363,487.29c0,0-0.263,4.165-4.824,4.903h-7.224c0,0-4.429-0.343-4.904-5.221v-3.717v-2.689c0,0-0.052-2.083,1.635-3.771
		c1.687-1.687,3.743-1.528,3.743-1.528h3.665c0,0,2.268,0.236,3.613,1.951c1.344,1.713,1.239,3.375,1.239,3.375
		s-0.013,0.486,0.315,0.816c0.331,0.33,0.766,0.29,0.766,0.29h1.001c0,0,0.382,0.013,0.66,0.29c0.277,0.277,0.316,0.554,0.316,0.764
		V487.29z"/>
	<path fill="#FFFFFF" d="M-6.368,481.7h3.374c0,0,0.896-0.053,0.896-1.001c0-0.95-0.922-1.082-0.922-1.082h-3.164
		c-1.029,0.185-0.976,1.082-0.976,1.082C-7.159,481.488-6.368,481.7-6.368,481.7z"/>
	<path fill="#FFFFFF" d="M216.785,423.631c-8.836,0-16,7.164-16,16s7.164,16,16,16s16-7.164,16-16S225.621,423.631,216.785,423.631z
		 M225.479,442.135c0,0-0.075,2.215-2.473,2.578l1.413,3.696c0,0,0.076,0.219-0.037,0.334c-0.116,0.115-0.287,0.029-0.345-0.057
		l-3.447-3.984h-6.198c0,0-1.263-0.069-1.85-0.875l-2.745,3.497c0,0-0.201,0.272-0.501,0.258s-0.501-0.344-0.416-0.73l1.104-3.812
		c0,0-1.892-0.889-1.892-2.807v-6.633c0,0-0.1-1.16,0.903-2.163s2.048-0.974,2.162-0.974h9.67c0,0,1.211,0.007,2.048,0.845
		c0.288,0.288,0.491,0.586,0.639,0.876l0.045-0.002c0,0,1.919,0.516,1.919,2.56V442.135z"/>
	<path fill="#FFFFFF" d="M212.85,442.283h8.021c2.035-0.245,2.021-2.106,2.021-2.106v-6.562c-0.101-2.034-2.09-2.134-2.09-2.134
		h-9.543c-1.903,0-2.162,2.12-2.162,2.12v6.346c-0.029,1.003,0.701,2.121,1.448,2.25c0.744,0.129,0.429,0.73,0.429,0.73
		l-0.501,1.947l1.833-2.306C212.562,442.225,212.85,442.283,212.85,442.283z M218.437,435.393h1.244
		c1.033,0.07,0.903,0.745,0.903,0.745c-0.128,1.002-1.332,0.845-1.332,0.845h-1.16L218.437,435.393z M219.252,437.771
		c1.032,0.07,0.903,0.745,0.903,0.745c-0.13,1.003-1.333,0.845-1.333,0.845h-1.16l0.344-1.589H219.252z M215.6,433.988h1.246
		c1.032,0.072,0.901,0.745,0.901,0.745c-0.128,1.004-1.33,0.847-1.33,0.847h-1.162L215.6,433.988z M215.155,436.281h1.246
		c1.032,0.071,0.901,0.745,0.901,0.745c-0.128,1.003-1.331,0.845-1.331,0.845h-1.161L215.155,436.281z M215.958,438.702
		c1.031,0.071,0.902,0.745,0.902,0.745c-0.13,1.003-1.333,0.844-1.333,0.844h-1.161l0.345-1.589H215.958z M212.446,433.988h1.248
		c1.03,0.072,0.902,0.745,0.902,0.745c-0.13,1.004-1.333,0.847-1.333,0.847h-1.16L212.446,433.988z M211.66,437.87l0.344-1.589
		h1.245c1.032,0.071,0.903,0.745,0.903,0.745c-0.129,1.003-1.333,0.845-1.333,0.845H211.66z"/>
	<path fill="#FFFFFF" d="M223.865,440.334c0,0,0,1.16-0.759,1.919c-0.761,0.76-1.548,1.003-2.321,1.003h-7.794l-0.17,0.216
		c0.143,0.139,0.832,0.772,1.545,0.772h6.39l2.823,3.224l-1.031-2.708c0,0-0.115-0.325-0.011-0.43
		c0.105-0.104,0.25-0.067,0.372-0.067c0,0,0.984-0.095,1.577-0.821c0.592-0.725,0.534-1.336,0.534-1.336v-7.507
		c0,0-0.144-1.283-1.281-1.847c0.095,0.332,0.126,0.632,0.126,0.863V440.334z"/>
	<path fill="#FFFFFF" d="M172.807,423.716c-8.836,0-16,7.164-16,16s7.164,16,16,16s16-7.164,16-16S181.643,423.716,172.807,423.716z
		 M169.09,439.49c-0.243,1.891-2.51,1.592-2.51,1.592h-2.188l0.647-2.995h2.349C169.333,438.222,169.09,439.49,169.09,439.49z
		 M167.416,436.764h-2.188l0.648-2.996h2.35c1.943,0.135,1.699,1.403,1.699,1.403C169.684,437.062,167.416,436.764,167.416,436.764z
		 M174.191,444.053c-0.244,1.89-2.51,1.592-2.51,1.592h-2.188l0.648-2.996h2.348C174.434,442.783,174.191,444.053,174.191,444.053z
		 M175.028,439.49c-0.243,1.891-2.511,1.592-2.511,1.592h-2.187l0.648-2.995h2.349C175.271,438.222,175.028,439.49,175.028,439.49z
		 M173.354,436.764h-2.186l0.648-2.996h2.348c1.943,0.135,1.701,1.403,1.701,1.403C175.621,437.062,173.354,436.764,173.354,436.764
		z M180.399,442.299c-0.241,1.889-2.509,1.592-2.509,1.592h-2.188l0.648-2.996h2.348
		C180.643,441.029,180.399,442.299,180.399,442.299z M181.209,437.817c-0.241,1.89-2.51,1.591-2.51,1.591h-2.188l0.649-2.995h2.348
		C181.453,436.548,181.209,437.817,181.209,437.817z"/>
	<path fill="#FFFFFF" d="M128.821,455.716c8.836,0.003,16.002-7.158,16.005-15.995s-7.159-16.002-15.995-16.005
		s-16.002,7.158-16.005,15.995S119.985,455.713,128.821,455.716z M131.474,430.811c1.452,0,2.63,1.178,2.63,2.631
		c0,1.451-1.178,2.631-2.63,2.631c-1.454,0-2.632-1.18-2.632-2.631C128.842,431.988,130.02,430.811,131.474,430.811z
		 M126.482,441.182c1.301-2.57,0.574-2.963,2.571-5.02c0,0,2.298,2.359,7.287,1.512l0.454,1.937c0,0-2.117,0.816-5.201,0.453
		c0,0-0.938-0.091-0.938,0.635c0,0,0.061,0.333,0.393,0.635c0,0,1.784,1.785,2.329,2.51c0.544,0.727,1.36,2.118,1.813,3.901
		l-1.995,0.877c0,0-1.27-2.842-4.083-4.778c0,0-0.694-0.483-1.238,0.092c0,0-1.24,1.329-2.753,2.116
		c-1.513,0.785-3.659,0.847-3.659,0.847l-0.604-2.3C120.859,444.598,125.184,443.753,126.482,441.182z"/>
	<path fill="#FFFFFF" d="M84.847,455.717c8.836,0,16-7.164,16-16s-7.164-16-16-16s-16,7.164-16,16S76.011,455.717,84.847,455.717z
		 M90.687,433.746c0,0,0.101-1.218,1.217-1.04s0.38,2.484,0.38,2.484l-1.824,8.442c0,0-0.432-0.127-0.711-0.127L90.687,433.746z
		 M89.736,444.799c0.538,0,0.976,0.438,0.976,0.976c0,0.54-0.438,0.977-0.976,0.977c-0.539,0-0.976-0.437-0.976-0.977
		C88.76,445.236,89.197,444.799,89.736,444.799z M78.948,432.63l3.778,6.187l3.752-6.11c0,0,1.116,0.127,1.75,0.025l-4.69,7.909
		l0.051,6.161c0,0-0.583-0.329-1.774-0.025l0.151-6.009l-4.792-8.087C77.173,432.681,78.061,432.808,78.948,432.63z"/>
	<path fill="#FFFFFF" d="M40.867,423.717c-8.836,0-16,7.164-16,16s7.164,16,16,16s16-7.164,16-16S49.703,423.717,40.867,423.717z
		 M47.056,445.072c0,0-1.031,1.294-2.116,1.896c0,0,0.075,0.773,1.87,1.492c0,0,0.247,0,0.247,0.291v1.074
		c0,0,0.011,0.205-0.161,0.205c0,0-1.687,0.332-2.976-0.398c0,0-0.968-0.602-1.461-1.633c0,0-2.644,0.859-5.404-0.527
		c-2.761-1.385-3.718-3.277-4.341-4.727c-0.623-1.451-0.87-3.943,0.333-6.641c1.203-2.696,4.351-4.791,7.483-4.732
		c0,0,3.013-0.145,5.382,1.998c2.37,2.145,2.788,4.416,2.934,5.721C48.99,440.398,48.716,442.977,47.056,445.072z"/>
	<path fill="#FFFFFF" d="M44.799,438.566c-0.021-1.848-0.966-3.181-0.966-3.181c-1.354-2.04-3.374-1.825-3.374-1.825
		c-0.651-0.022-1.978,0.295-3.025,1.697c-1.047,1.401-1.063,3.336-1.063,3.336v2.594c0.065,1.822,0.99,3.143,0.99,3.143
		c1.379,1.943,3.248,1.838,3.248,1.838c0.516,0,0.919-0.137,0.919-0.137c-0.766-1.347-1.926-1.459-1.926-1.459
		c-0.152,0-0.121-0.193-0.121-0.193v-1.346c0-0.242,0.226-0.191,0.226-0.191c2.557-0.02,3.954,1.678,3.954,1.678
		c1.246-1.656,1.138-3.417,1.138-3.417V438.566z"/>
	<path fill="#FFFFFF" d="M-3.112,423.717c-8.836,0-16,7.164-16,16s7.164,16,16,16s16-7.164,16-16S5.724,423.717-3.112,423.717z
		 M3.265,447.604c0,0-4.284-0.077-6.222-0.077c-1.938,0-3.372-0.078-7.075,0.117v-0.893c0,0,1.066-0.252,1.299-0.31
		c0.232-0.058,0.91-0.097,0.91-1.065c0,0,0.059-2.598,0.059-5.834c0-3.237-0.059-5.428-0.059-5.428s0.097-0.93-1.104-1.066
		l-1.105-0.193v-0.91c0,0,3.877,0.096,7.288,0.096c3.412,0,5.505-0.174,5.814-0.251c0,0-0.193,2.81-0.291,4.476H1.908
		c0,0-0.251-1.162-0.523-1.879c-0.272-0.717-0.698-1.299-1.532-1.299h-4.806c0,0-0.407,0.059-0.407,0.445v5.68
		c0,0,2.345,0.02,3.275-0.136c0.931-0.155,0.872-0.33,1.046-0.969l0.349-1.28h0.892c0,0-0.097,2.268-0.097,2.869
		s0.058,2.52,0.058,2.791h-0.949c0,0-0.078-0.427-0.233-1.046c-0.154-0.621-0.252-1.028-1.124-1.105c0,0-2.558-0.097-3.237-0.097
		v4.846c0,0-0.135,1.395,1.59,1.395h3.644c0,0,1.745,0.02,2.345-1.763l0.776-1.745h0.833C3.808,442.973,3.478,445.996,3.265,447.604
		z"/>
	<path fill="#FFFFFF" d="M-3.112,379.479c-8.836,0-16,7.164-16,16s7.164,16,16,16s16-7.164,16-16S5.724,379.479-3.112,379.479z
		 M-11.592,388.246h6.099l-6.099,14.488V388.246z M-1.593,402.755l-1.224-2.834h-3.083l2.766-6.506l4.103,9.34H-1.593z
		 M5.368,402.733l-6.258-14.532h6.258V402.733z"/>
	<path fill="#FFFFFF" d="M43.753,388.815c-2.562,0.158-4.175,1.509-4.175,1.509c0.754,0.333,1.333,0.859,1.333,0.859
		c0.684-0.422,1.596-0.736,1.596-0.736c2.351-0.562,5.719,0.578,6.333,3.912c0.615,3.332-1.579,4.946-1.579,4.946
		c-3.947,3.053-6.946,0-6.946,0l-3.351-3.351c-0.122-0.123-0.544-0.316-0.965,0.105c-0.42,0.421-0.087,0.895-0.087,0.895
		l2.772,2.771c0.964,1,2.157,1.93,3.438,2.176c1.281,0.245,4.438,0.648,6.807-2.229c2.368-2.877,1.368-5.982,0.631-7.49
		C48.823,390.675,46.314,388.658,43.753,388.815z"/>
	<path fill="#FFFFFF" d="M37.333,400.586c-2.457,0.387-3.702-1.403-3.702-1.403c-2.262-2.911,0.316-5.333,0.316-5.333
		c2.491-2.49,5.314-0.158,5.314-0.158l2.421,2.439c0,0,0.474,0.49,0.982-0.018c0.508-0.509-0.053-1.105-0.053-1.105l-1.474-1.509
		c-0.614-0.649-3.491-3.421-6.824-1.632c-3.333,1.789-3.667,5.333-2.158,7.754c1.509,2.421,4.158,2.456,4.649,2.49
		c0.491,0.036,2.21,0.036,2.21,0.036C38.508,401.866,37.333,400.586,37.333,400.586z"/>
	<path fill="#FFFFFF" d="M40.867,379.479c-8.836,0-16,7.164-16,16s7.164,16,16,16s16-7.164,16-16S49.703,379.479,40.867,379.479z
		 M49.367,401.516c-2.333,2.246-5.526,2.158-5.526,2.158h-7.192c-1.263,0.069-4.263-0.545-6.035-3.509
		c-1.771-2.965-0.315-6.368-0.315-6.368c2.649-5.034,7.509-3.945,7.509-3.945c3.193-3.281,7.192-2.492,7.192-2.492
		c6.139,1.211,7.017,6.438,7,8C51.98,396.92,51.701,399.27,49.367,401.516z"/>
	<path fill="#FFFFFF" d="M84.847,411.479c8.836,0,16-7.164,16-16s-7.164-16-16-16s-16,7.164-16,16S76.011,411.479,84.847,411.479z
		 M89.208,392.519c0,0,0.015-0.278,0.269-0.278h4.885v8.674c0,0-0.04,0.186-0.278,0.186h-4.862v-1.15c0,0,0.017-0.284,0.254-0.284
		h2.972v-0.833h-3.241V392.519z M83.57,392.519c0,0,0.016-0.278,0.27-0.278h4.884v8.674c0,0-0.038,0.186-0.278,0.186h-4.861v-1.15
		c0,0,0.016-0.284,0.254-0.284h2.97v-0.833h-3.24V392.519z M81.047,390.111c0,0,0.023-0.254,0.255-0.254h1.659v1.156
		c0,0,0.023,0.264-0.292,0.264h-1.621V390.111z M81.047,392.496c0,0,0.023-0.256,0.255-0.256h1.659v6.352
		c0,0,0.023,0.264-0.292,0.264h-1.621V392.496z M75.329,392.488c0-0.201,0.24-0.238,0.24-0.238h2.982v-2.165
		c0-0.174,0.227-0.228,0.227-0.228h1.705l0.017,8.78c0,0.163-0.263,0.218-0.263,0.218h-4.908V392.488z"/>
	<path fill="#FFFFFF" d="M85.444,393.885v3.488h1.113c0.177,0,0.223-0.209,0.223-0.209v-3.518h-1.107
		C85.438,393.646,85.444,393.885,85.444,393.885z"/>
	<path fill="#FFFFFF" d="M77.204,393.962v3.472h1.088c0.263,0,0.248-0.27,0.248-0.27v-3.457h-1.12
		C77.197,393.707,77.204,393.962,77.204,393.962z"/>
	<path fill="#FFFFFF" d="M91.083,393.885v3.488h1.111c0.177,0,0.224-0.209,0.224-0.209v-3.518h-1.107
		C91.075,393.646,91.083,393.885,91.083,393.885z"/>
	<path fill="#FFFFFF" d="M128.955,399.118c-0.994,0-1.674-0.122-2.219-1.211c-0.543-1.088-0.774-1.103-1.211-1.157
		c-0.434-0.054-1.578,0.436-0.883,1.934c0.693,1.496,2.652,2.217,4.543,2.096c1.893-0.123,4.125-0.83,4.125-3.389
		s-3.021-2.817-5.035-3.361c0,0-1.389-0.271-1.389-1.048s0.967-1.128,1.66-1.128c0.694,0,1.496-0.015,2.055,1.019
		c0.559,1.034,1.075,1.089,1.782,0.749c0,0,0.559-0.312,0.436-1.17c-0.122-0.857-1.415-2.368-4.327-2.232
		c-2.912,0.137-3.879,1.675-3.879,2.967c0,1.293,1.172,2.327,2.506,2.668c1.333,0.34,2.366,0.57,2.748,0.693
		c0.381,0.123,1.088,0.436,1.088,1.238S129.948,399.118,128.955,399.118z"/>
	<path fill="#FFFFFF" d="M128.826,411.479c8.836,0,16-7.164,16-16s-7.164-16-16-16s-16,7.164-16,16S119.99,411.479,128.826,411.479z
		 M125.213,387.361c0.869,0,1.678,0.248,2.363,0.673c0.434-0.077,0.882-0.118,1.339-0.118c4.216,0,7.634,3.419,7.634,7.638
		c0,0.554-0.059,1.093-0.171,1.613c0.318,0.605,0.497,1.291,0.497,2.021c0,2.435-2.004,4.408-4.477,4.408
		c-0.768,0-1.49-0.191-2.122-0.526c-0.442,0.079-0.896,0.122-1.361,0.122c-4.216,0-7.634-3.42-7.634-7.638
		c0-0.526,0.053-1.038,0.154-1.535c-0.417-0.665-0.658-1.45-0.658-2.289C120.777,389.317,122.764,387.361,125.213,387.361z"/>
	<path fill="#FFFFFF" d="M172.807,379.479c-8.836,0-16,7.164-16,16s7.164,16,16,16s16-7.164,16-16S181.643,379.479,172.807,379.479z
		 M172.966,404.318c-1.552,0-3.072-0.396-4.417-1.146l-4.963,1.592l1.631-4.807c-0.86-1.414-1.312-3.031-1.312-4.701
		c0-4.996,4.064-9.062,9.062-9.062s9.062,4.065,9.062,9.062C182.027,400.254,177.963,404.318,172.966,404.318z"/>
	<path fill="#FFFFFF" d="M172.966,387.656c-4.19,0-7.601,3.408-7.601,7.6c0,1.503,0.438,2.955,1.266,4.201l0.199,0.299l-0.928,2.729
		l2.828-0.909l0.285,0.176c1.187,0.723,2.553,1.105,3.95,1.105c4.19,0,7.601-3.41,7.601-7.602S177.156,387.656,172.966,387.656z
		 M176.852,398.936c-0.658,0.413-1.242,0.607-1.913,0.475c-0.669-0.135-2.302-0.549-3.97-2.096c0,0-1.486-1.4-2.096-2.861
		s-0.061-2.485,0.475-2.996c0,0,0.354-0.329,0.621-0.318c0.268,0.013,0.537-0.011,0.646,0.051c0.109,0.06,0.134,0.145,0.182,0.207
		c0,0,0.695,1.606,0.756,1.752c0.061,0.146,0.086,0.318-0.037,0.525c-0.121,0.207-0.499,0.609-0.56,0.706
		c-0.062,0.097-0.159,0.17,0.013,0.426c0.17,0.256,0.925,1.705,3.008,2.57c0,0,0.219,0.098,0.39-0.073
		c0.17-0.17,0.62-0.756,0.683-0.828c0.061-0.074,0.231-0.268,0.512-0.146c0.279,0.121,1.766,0.828,1.766,0.828
		s0.207,0.074,0.193,0.39C177.509,397.863,177.509,398.521,176.852,398.936z"/>
	<path fill="#FFFFFF" d="M215.552,391.543h-2.792c0,0-0.482,0.015-0.482,0.581v2.651c0,0-0.013,0.609,0.525,0.609l1.983-0.015
		c0,0,0.101,0.979-0.892,1.234c0,0-0.34,0.113-0.34,0.339c0,0.227,0,0.667,0,0.667s0.042,0.312,0.354,0.27s2.068-0.439,2.141-2.494
		v-3.247C216.049,392.139,216.119,391.543,215.552,391.543z"/>
	<path fill="#FFFFFF" d="M216.785,379.479c-8.836,0-16,7.164-16,16s7.164,16,16,16s16-7.164,16-16S225.621,379.479,216.785,379.479z
		 M225.166,395.768c-0.315,2.588-2.314,5.045-2.314,5.045c-2.098,2.919-5.926,4.578-5.926,4.578c-0.141,0.071-0.127-0.1-0.127-0.1
		l-0.027-2.65c-4.713-0.007-8.533-3.83-8.533-8.546c0-4.72,3.826-8.546,8.547-8.546c4.72,0,8.546,3.826,8.546,8.546
		C225.331,394.667,225.273,395.227,225.166,395.768z"/>
	<path fill="#FFFFFF" d="M220.824,391.543h-2.792c0,0-0.481,0.015-0.481,0.581v2.651c0,0-0.016,0.609,0.523,0.609l1.984-0.015
		c0,0,0.1,0.979-0.893,1.234c0,0-0.34,0.113-0.34,0.339c0,0.227,0,0.667,0,0.667s0.042,0.312,0.354,0.27
		c0.312-0.042,2.069-0.439,2.14-2.494v-3.247C221.32,392.139,221.392,391.543,220.824,391.543z"/>
	<path fill="#FFFFFF" d="M-3.112,335.422c-8.836,0-16,7.164-16,16s7.164,16,16,16s16-7.164,16-16S5.724,335.422-3.112,335.422z
		 M4.904,353.283c0,0.092-0.075,0.166-0.167,0.166h-5.82v5.821c0,0.093-0.075,0.168-0.167,0.168h-3.723
		c-0.092,0-0.167-0.075-0.167-0.168v-5.821h-5.82c-0.093,0-0.167-0.074-0.167-0.166v-3.723c0-0.092,0.075-0.167,0.167-0.167h5.82
		v-5.821c0-0.092,0.075-0.167,0.167-0.167h3.723c0.092,0,0.167,0.075,0.167,0.167v5.821h5.82c0.093,0,0.167,0.075,0.167,0.167
		V353.283z"/>
	<path fill="#FFFFFF" d="M40.867,335.422c-8.836,0-16,7.164-16,16s7.164,16,16,16s16-7.164,16-16S49.703,335.422,40.867,335.422z
		 M37.471,351.362c0,0.183-0.018,0.364-0.049,0.538l5.82,2.965c0.548-0.511,1.281-0.824,2.089-0.824
		c1.694,0,3.067,1.374,3.067,3.068c0,1.693-1.373,3.066-3.067,3.066c-1.693,0-3.067-1.373-3.067-3.066
		c0-0.078,0.005-0.154,0.01-0.232l-6.022-3.066c-0.514,0.388-1.154,0.618-1.847,0.618c-1.694,0-3.067-1.372-3.067-3.066
		s1.373-3.067,3.067-3.067c0.774,0,1.481,0.288,2.021,0.762l5.854-3.027c-0.01-0.098-0.016-0.195-0.016-0.295
		c0-1.693,1.374-3.066,3.067-3.066c1.694,0,3.067,1.373,3.067,3.066c0,1.694-1.373,3.068-3.067,3.068
		c-0.785,0-1.5-0.297-2.042-0.781l-5.835,3.018C37.464,351.146,37.471,351.253,37.471,351.362z"/>
	<path fill="#FFFFFF" d="M84.847,367.422c8.836,0,16-7.164,16-16s-7.164-16-16-16s-16,7.164-16,16S76.011,367.422,84.847,367.422z
		 M78.564,342.296l4.179,1.213v10.293l-3.934,3.567l9.652-5.076l-2.607-1.19l-1.921-4.071l9.194,2.802v4.472l-10.383,6.24
		l-4.179-2.9V342.296z"/>
	<path fill="#FFFFFF" d="M128.826,367.422c8.836,0,16-7.164,16-16s-7.164-16-16-16s-16,7.164-16,16S119.99,367.422,128.826,367.422z
		 M127.857,344.502l8.889-1.781v7.931l-8.889,0.067V344.502z M127.857,352.125l8.889,0.067v7.931l-8.889-1.815V352.125z
		 M120.906,345.746l5.562-1.16v6.184l-5.562,0.016V345.746z M120.906,352.025h5.562v6.131l-5.562-1.125V352.025z"/>
	<path fill="#FFFFFF" d="M172.807,335.422c-8.836,0-16,7.164-16,16s7.164,16,16,16s16-7.164,16-16S181.643,335.422,172.807,335.422z
		 M181.011,354.638h-2.319c0,0,0.529,0.997,0.998,1.776c0.471,0.777,1.027,1.614,1.027,1.614s0.338,0.47,0.029,0.806
		c-0.309,0.338-1.188,0.823-1.658,0.045l-1.38-3.154l-0.718-1.116h-8.131l-1.115,2.024c0,0-0.133,0.221-0.309,0.367
		c0,0-1.204,1.058-1.953,1.865c0,0-0.314,0.359-0.426,0.248c-0.108-0.109,0.016-0.482,0.06-0.675
		c0.044-0.19,0.455-1.908,0.455-1.908s0.132-0.688,0.249-0.88l0.559-1.013h-1.776v-3.214h3.654l2.363-4.24
		c0,0,0.483-0.969,1.556-0.338c1.071,0.631,0.293,1.584,0.293,1.584l-1.717,2.994h4.359c0,0-2.363-4.945-2.994-6.531
		c0,0-0.484-1.101-0.25-1.277c0.235-0.175,0.543-0.102,1.336,1.248c0,0,1.057,1.586,1.879,2.965c0.822,1.38,1.775,2.95,2.084,3.581
		h3.845V354.638z"/>
	<path fill="#FFFFFF" d="M216.785,335.422c-8.836,0-16,7.164-16,16s7.164,16,16,16s16-7.164,16-16S225.621,335.422,216.785,335.422z
		 M212.173,343.609l8.954,5.013l-2.151,2.149l-7.207-7.264C211.936,343.507,212.082,343.555,212.173,343.609z M210.728,358.589
		c-0.336-0.294-0.266-0.53-0.266-0.74v-13.087c0,0,0.036-0.366,0.301-0.587l7.375,7.435l-7.099,7.1
		C210.919,358.695,210.808,358.66,210.728,358.589z M212.368,359.053l6.606-6.605l1.904,1.921L212.368,359.053z M224.666,352.066
		l-2.848,1.567l-2.008-2.022l2.253-2.252l2.716,1.521c0,0,0.335,0.279,0.335,0.531C225.114,351.661,224.862,351.94,224.666,352.066z
		"/>
	<circle fill="#FFFFFF" cx="214.393" cy="301.417" r="0.446"/>
	<circle fill="#FFFFFF" cx="219.145" cy="301.417" r="0.446"/>
	<path fill="#FFFFFF" d="M216.785,291.229c-8.836,0-16,7.164-16,16s7.164,16,16,16s16-7.164,16-16S225.621,291.229,216.785,291.229z
		 M211.106,309.917c0,0.629-0.509,1.139-1.139,1.139c-0.628,0-1.139-0.51-1.139-1.139v-4.787c0-0.629,0.511-1.139,1.139-1.139
		c0.63,0,1.139,0.51,1.139,1.139V309.917z M221.984,311.739c-0.138,1.233-1.232,1.216-1.232,1.216h-0.875v2.691
		c-0.159,1.111-1.161,1.056-1.161,1.056c-1.171-0.072-1.155-1.15-1.155-1.15v-2.592h-1.579v2.559c0,0.297-0.226,1.178-1.188,1.178
		s-1.139-1.068-1.139-1.068v-2.668h-0.952c-1.056-0.148-1.134-1.133-1.134-1.133v-7.654h10.416V311.739z M211.455,303.696
		c0.154-1.809,1.211-3.339,2.717-4.167c-0.002-0.003-0.004-0.006-0.008-0.01L213.323,298c-0.044-0.08-0.016-0.18,0.063-0.225
		c0.08-0.043,0.18-0.015,0.225,0.064l0.842,1.519c0.005,0.007,0.008,0.015,0.01,0.023c0.698-0.33,1.479-0.515,2.306-0.515
		c0.816,0,1.591,0.185,2.282,0.513l0.83-1.475c0.045-0.079,0.146-0.107,0.225-0.062c0.08,0.044,0.107,0.145,0.064,0.225
		l-0.824,1.463c1.503,0.832,2.562,2.369,2.73,4.166H211.455z M224.741,309.917c0,0.629-0.511,1.139-1.139,1.139
		c-0.63,0-1.139-0.51-1.139-1.139v-4.787c0-0.629,0.509-1.139,1.139-1.139c0.628,0,1.139,0.51,1.139,1.139V309.917z"/>
	<path fill="#FFFFFF" d="M172.807,291.229c-8.836,0-16,7.164-16,16s7.164,16,16,16s16-7.164,16-16S181.643,291.229,172.807,291.229z
		 M176.256,298.604c0,3.899-3.449,3.981-3.449,3.981C172.807,298.936,176.256,298.604,176.256,298.604z M178.58,313.859
		c-1.017,1.416-2.088,2.487-3.812,1.707s-2.724-0.164-3.467,0.054c-0.745,0.218-1.418,0.672-2.869-0.889
		c-1.452-1.562-2.197-3.722-2.451-4.848s-0.576-4.062,1.199-5.836c1.773-1.775,3.738-1.153,4.201-0.972
		c0.464,0.182,1.371,0.463,1.371,0.463c0.582,0.082,0.926-0.227,1.779-0.536c0.854-0.308,1.979-0.399,3.214,0.127
		c1.234,0.526,1.634,1.38,1.634,1.38s-1.852,0.799-1.852,3.286c0,2.487,2.305,3.467,2.305,3.467S179.597,312.443,178.58,313.859z"/>
	<path fill="#FFFFFF" d="M128.826,323.229c8.836,0,16-7.164,16-16s-7.164-16-16-16s-16,7.164-16,16S119.99,323.229,128.826,323.229z
		 M129.566,298.602h7.872v7.872h-7.872V298.602z M129.566,307.985h7.872v7.872h-7.872V307.985z M120.213,298.602h7.873v7.872h-7.873
		V298.602z M120.213,307.985h7.873v7.872h-7.873V307.985z"/>
	<path fill="#FFFFFF" d="M-3.49,322.893c8.836,0,16-7.164,16-16s-7.164-16-16-16s-16,7.164-16,16S-12.326,322.893-3.49,322.893z
		 M-11.59,298.792H4.611v16.201H-11.59V298.792z"/>
	<rect x="-3.49" y="306.908" fill="#FFFFFF" width="6.691" height="6.691"/>
	<rect x="-10.181" y="300.187" fill="#FFFFFF" width="6.691" height="6.691"/>
	<path fill="#FFFFFF" d="M-3.112,279.35c8.836,0,16-7.164,16-16s-7.164-16-16-16s-16,7.164-16,16S-11.948,279.35-3.112,279.35z
		 M-3.491,255.161c5.446,0,8.561,3.063,8.561,6.152c0,3.09-1.833,4.373-3.508,5.315c-1.675,0.943-4.169,0.295-4.169,0.295
		c0.354,1.374-0.51,4.692-3.201,4.614c-2.69-0.079-2.317-1.335-2.317-1.846c0-0.511,0.059-1.276,0.059-1.276l0.806,0.333
		c1.414,0.727,1.374-1.256,1.374-1.256v-7.737c1.787-0.334,3.083,0.04,3.083,0.04v4.653c0.766,0.314,1.335,0.393,2.258,0.314
		s2.611-0.903,2.611-3.004s-2.199-4.025-5.36-4.025c-3.161,0-5.105,2.435-5.105,3.869c0,1.433,0.825,2.238,0.825,2.238l-2.396,1.787
		c0,0-1.375-1.433-1.322-3.947C-11.227,258.461-8.937,255.161-3.491,255.161z"/>
	<path fill="#FFFFFF" d="M40.867,247.35c-8.836,0-16,7.164-16,16s7.164,16,16,16s16-7.164,16-16S49.703,247.35,40.867,247.35z
		 M46.885,257.848c1.577,0,2.854,1.278,2.854,2.854c0,1.576-1.277,2.854-2.854,2.854s-2.854-1.278-2.854-2.854
		C44.031,259.126,45.309,257.848,46.885,257.848z M40.269,258.982c1.408,0,2.548,1.141,2.548,2.548c0,1.407-1.14,2.548-2.548,2.548
		c-1.407,0-2.548-1.141-2.548-2.548C37.721,260.123,38.862,258.982,40.269,258.982z M34.262,259.946c1.27,0,2.3,1.03,2.3,2.3
		c0,1.271-1.03,2.3-2.3,2.3c-1.271,0-2.3-1.03-2.3-2.3C31.962,260.977,32.991,259.946,34.262,259.946z M36.81,268.641
		c0,0-0.042,0.211-0.254,0.211h-4.608c0,0-0.232-0.056-0.232-0.233v-0.995c0,0,0.127-2.434,2.562-2.541c0,0,0.935-0.066,1.75,0.749
		c0.815,0.814,0.783,1.735,0.783,1.735V268.641z M43.092,268.618c0,0-0.046,0.234-0.282,0.234h-5.106c0,0-0.257-0.062-0.257-0.258
		v-1.103c0,0,0.14-2.699,2.838-2.815c0,0,1.037-0.075,1.939,0.829c0.903,0.903,0.868,1.924,0.868,1.924V268.618z M50.021,268.592
		c0,0-0.051,0.26-0.312,0.26h-5.673c0,0-0.287-0.069-0.287-0.287v-1.225c0,0,0.157-2.998,3.154-3.127c0,0,1.151-0.083,2.155,0.92
		c1.004,1.004,0.964,2.138,0.964,2.138V268.592z"/>
	<path fill="#FFFFFF" d="M84.847,279.35c8.836,0,16-7.164,16-16s-7.164-16-16-16s-16,7.164-16,16S76.011,279.35,84.847,279.35z
		 M75.803,261.167h2.01v2.355h14.068v-2.355h2.01v4.365H75.803V261.167z"/>
	<path fill="#FFFFFF" d="M40.378,306.875c-1.312,0-1.38,1.312-1.38,1.718c0,0.396,0.181,1.504,1.493,1.504
		c1.312,0,2.566-1.561,2.566-1.561S41.69,306.875,40.378,306.875z"/>
	<path fill="#FFFFFF" d="M47.977,306.875c-1.312,0-2.68,1.662-2.68,1.662s1.256,1.561,2.567,1.561c1.312,0,1.493-1.108,1.493-1.504
		C49.356,308.187,49.288,306.875,47.977,306.875z"/>
	<path fill="#FFFFFF" d="M40.867,291.229c-8.836,0-16,7.164-16,16s7.164,16,16,16s16-7.164,16-16S49.703,291.229,40.867,291.229z
		 M47.926,311.991c-1.867,0-3.186-1.565-3.722-2.183l-0.004,0.007c-0.531,0.61-1.854,2.193-3.731,2.193
		c-1.402,0-2.537-0.827-3.023-2.06c-0.042,0.094-0.069,0.205-0.121,0.286c-0.468,0.729-1.307,1.898-3.206,1.898
		c-1.898,0-3.59-1.101-3.59-3.068h1.953c0,0,0.22,1.472,1.583,1.472c0,0,1.678-0.055,1.678-1.885c0-1.83-2.174-2.49-3.123-1.004
		h-1.83l0.977-5.324H37.2v1.637h-4.003l-0.385,2.188c0,0,0.523-0.756,2.05-0.756c1.385,0,2.176,0.948,2.549,1.73
		c0.388-1.166,1.305-1.95,2.854-2.148c2.049-0.261,3.803,2.144,3.927,2.318l0.002-0.006c0,0,1.809-2.601,3.935-2.329
		c2.126,0.271,3.076,1.639,3.076,3.595C51.205,310.51,49.803,311.991,47.926,311.991z"/>
	<path fill="#FFFFFF" d="M89.844,309.442c1.788,0,2.034-1.51,2.034-2.05c0-0.555-0.093-2.342-1.88-2.342
		c-1.788,0-3.652,2.266-3.652,2.266S88.056,309.442,89.844,309.442z"/>
	<path fill="#FFFFFF" d="M79.797,309.442c1.787,0,3.498-2.126,3.498-2.126s-1.865-2.266-3.652-2.266c-1.788,0-1.88,1.788-1.88,2.342
		C77.762,307.932,78.009,309.442,79.797,309.442z"/>
	<path fill="#FFFFFF" d="M84.847,323.229c8.836,0,16-7.164,16-16s-7.164-16-16-16s-16,7.164-16,16S76.011,323.229,84.847,323.229z
		 M79.488,302.461c2.792-0.356,5.182,2.921,5.352,3.159l0.003-0.008c0,0,2.465-3.544,5.362-3.175c2.897,0.37,4.191,2.234,4.191,4.9
		s-1.911,4.685-4.469,4.685c-2.544,0-4.341-2.134-5.073-2.976l-0.004,0.009c-0.724,0.832-2.527,2.989-5.085,2.989
		s-4.469-2.019-4.469-4.685C75.297,304.696,76.591,302.831,79.488,302.461z"/>
	<polygon fill="#FFFFFF" points="123.998,257.837 121.307,257.837 124.217,261.851 121.063,266.062 123.754,266.062 
		126.092,262.843 126.996,262.843 126.996,260.924 126.092,260.924 	"/>
	<path fill="#FFFFFF" d="M128.826,279.35c8.836,0,16-7.164,16-16s-7.164-16-16-16s-16,7.164-16,16S119.99,279.35,128.826,279.35z
		 M119.366,256.183h18.919v14.333l-6.108-3.043h-12.811V256.183z"/>
	<polygon fill="#FFFFFF" points="136.455,266.062 133.324,261.851 136.19,257.837 133.501,257.837 131.406,260.902 129.862,260.902 
		129.862,257.837 127.68,257.837 127.68,266.062 129.862,266.062 129.862,262.843 131.427,262.843 133.678,266.062 	"/>
	<path fill="#FFFFFF" d="M172.807,247.35c-8.836,0-16,7.164-16,16s7.164,16,16,16s16-7.164,16-16S181.643,247.35,172.807,247.35z
		 M180.345,272.51h-6.626c-0.144,0-0.12-0.167-0.12-0.167l0.017-2.65c0-0.12,0.095-0.168,0.095-0.168l2.986-1.493
		c0.08-0.04,0.04-0.127,0.04-0.127l-0.279-0.567c-0.024-0.048-0.113-0.024-0.113-0.024l-2.578,1.309
		c-0.144,0.072-0.159-0.111-0.159-0.111v-0.838c0-0.095,0.126-0.159,0.126-0.159l1.654-0.871c0.056-0.032,0.04-0.12,0.04-0.12
		l-0.329-0.591c-0.031-0.064-0.126-0.016-0.126-0.016l-1.222,0.646c-0.135,0.056-0.143-0.104-0.143-0.104v-1.613
		c0-0.096-0.081-0.096-0.081-0.096h-1.796c-0.088,0-0.096,0.12-0.096,0.12v2.658c0,0.152-0.159,0.08-0.159,0.08l-1.246-0.861
		c-0.047-0.04-0.119,0.016-0.119,0.016l-0.359,0.527c-0.04,0.08,0.032,0.127,0.032,0.127l1.796,1.261
		c0.047,0.032,0.044,0.096,0.044,0.096v3.636c0,0.124-0.101,0.1-0.101,0.1h-6.259c-0.151,0-0.072-0.183-0.072-0.183l7.52-18.034
		c0,0,0.032-0.104,0.097-0.104c0.063,0,0.095,0.096,0.095,0.096l7.505,17.97C180.512,272.455,180.345,272.51,180.345,272.51z"/>
	<path fill="#FFFFFF" d="M216.785,247.35c-8.836,0-16,7.164-16,16s7.164,16,16,16s16-7.164,16-16S225.621,247.35,216.785,247.35z
		 M213.848,255.078c3.344-1.284,6.35,0.161,6.477,0.211c0.127,0.051,0.102,0.194,0.102,0.194v5.523c0,0.194-0.152,0.076-0.152,0.076
		l-6.426-5.835C213.719,255.13,213.848,255.078,213.848,255.078z M208.266,265.481c0,0-1.987-5.979,4.341-9.889
		c0,0,0.149-0.109,0.27,0l3.142,2.871c0,0,0.094,0.068,0,0.161l-7.583,6.899C208.435,265.523,208.316,265.642,208.266,265.481z
		 M212.269,270.743c0,0-0.025,0.101-0.178,0c0,0-2.194-1.174-3.394-3.995c0,0-0.059-0.167,0-0.22l3.436-3.116
		c0,0,0.136-0.093,0.136,0.059V270.743z M224.615,267.322c0,0-1.053,2.5-4.049,3.963c-2.995,1.464-5.81,0.766-7.296,0.135
		c0,0-0.09-0.056-0.09-0.203v-3.896c0,0,0-0.144,0.151-0.144h11.189C224.521,267.179,224.699,267.128,224.615,267.322z
		 M225.115,266.157c-0.051,0.107-0.152,0.107-0.152,0.107h-3.495c-0.107,0-0.112-0.135-0.112-0.135v-10.134
		c0.017-0.186,0.236,0,0.236,0c3.242,2.229,4.008,5.303,4.008,7.161C225.6,265.014,225.166,266.05,225.115,266.157z"/>
	<path fill="#FFFFFF" d="M216.785,202.891c-8.836,0-16,7.164-16,16s7.164,16,16,16s16-7.164,16-16S225.621,202.891,216.785,202.891z
		 M210.574,225.891l-2.418-4.12c0,0-0.049-0.142,0-0.234l5.542-9.604c0,0,0.113-0.113,0.177,0.014l2.417,4.162
		c0,0,0.062,0.106,0,0.227l-5.556,9.604C210.736,225.94,210.66,226.019,210.574,225.891z M225.392,222.307l-2.362,4.151
		c0,0-0.097,0.114-0.201,0.116l-11.089-0.003c0,0-0.154-0.042-0.076-0.16l2.4-4.173c0,0,0.06-0.108,0.195-0.113l11.096,0.016
		C225.354,222.141,225.461,222.169,225.392,222.307z M225.329,221.077l-4.813,0.006c0,0-0.123,0.002-0.195-0.113l-5.529-9.62
		c0,0-0.029-0.105,0.123-0.116l4.777-0.027c0,0,0.146,0.027,0.202,0.117l5.536,9.606C225.43,220.93,225.471,221.085,225.329,221.077
		z"/>
	<path fill="#FFFFFF" d="M172.807,202.891c-8.836,0-16,7.164-16,16s7.164,16,16,16s16-7.164,16-16S181.643,202.891,172.807,202.891z
		 M163.611,214.003l5.367-3.307c0,0,0.104-0.064,0.185,0l3.331,2.752c0,0,0.096,0.088,0,0.169l-5.383,3.282
		c0,0-0.093,0.052-0.186-0.04l-3.314-2.695C163.611,214.164,163.515,214.075,163.611,214.003z M163.857,220.125l3.049-2.586
		c0,0,0.1-0.052,0.165-0.02l5.061,3.061c0,0,0.085,0.073,0.021,0.137l-2.965,2.559c0,0-0.061,0.064-0.166,0.004l-5.168-3.033
		C163.854,220.246,163.805,220.178,163.857,220.125z M172.602,221.115v5.895c0,0,0,0.169-0.162,0.079l-5.08-3.125
		c0,0-0.115-0.066-0.115-0.169v-0.796c0,0,0.018-0.139,0.145-0.066l1.6,0.863c0,0,0.035,0.036,0.096-0.006l3.367-2.757
		c0,0,0.055-0.072,0.115-0.036C172.626,221.03,172.602,221.115,172.602,221.115z M178.369,223.794c0,0.103-0.115,0.169-0.115,0.169
		l-5.08,3.125c-0.163,0.091-0.163-0.079-0.163-0.079v-5.895c0,0-0.024-0.084,0.036-0.121s0.114,0.036,0.114,0.036l3.368,2.757
		c0.06,0.042,0.096,0.006,0.096,0.006l1.6-0.863c0.126-0.073,0.145,0.066,0.145,0.066V223.794z M181.76,220.246l-5.169,3.033
		c-0.104,0.061-0.165-0.004-0.165-0.004l-2.965-2.559c-0.064-0.064,0.02-0.137,0.02-0.137l5.061-3.061
		c0.065-0.032,0.166,0.02,0.166,0.02l3.049,2.586C181.809,220.178,181.76,220.246,181.76,220.246z M182.001,214.164l-3.313,2.695
		c-0.094,0.092-0.186,0.04-0.186,0.04l-5.383-3.282c-0.096-0.081,0-0.169,0-0.169l3.331-2.752c0.081-0.064,0.185,0,0.185,0
		l5.366,3.307C182.098,214.075,182.001,214.164,182.001,214.164z"/>
	<path fill="#FFFFFF" d="M128.826,234.891c8.836,0,16-7.164,16-16s-7.164-16-16-16s-16,7.164-16,16S119.99,234.891,128.826,234.891z
		 M128.825,209.881c5.087,0,9.21,4.124,9.21,9.209c0,4.141-2.731,7.642-6.491,8.802c-0.438-0.131-0.437-0.521-0.437-0.521
		s0.033-2.027,0.033-2.737c0-0.709-0.608-1.521-0.608-1.521c3.583-0.288,4.157-2.636,4.157-4.326c0-1.689-0.963-2.602-0.963-2.602
		c0.338-1.437-0.068-2.366-0.068-2.366c-1.639,0.186-2.449,0.997-2.449,0.997s-1.064-0.389-2.417-0.389
		c-1.352,0-2.231,0.372-2.231,0.372c-1.283-1.115-2.517-0.963-2.517-0.963c-0.405,1.149-0.025,2.4-0.025,2.4
		c-1.015,1.039-0.989,2.763-0.989,2.763c0.152,4.081,4.132,4.145,4.132,4.145c-0.608,0.532-0.481,1.292-0.481,1.292
		c-0.063,0.013-0.165,0.076-0.405,0.19c-0.241,0.114-0.748,0.025-0.748,0.025c-1.091,0-1.406-0.786-1.635-1.065
		c-0.228-0.279-0.443-0.532-0.724-0.697c-0.278-0.165-1.089-0.329-1.013,0.051c0.075,0.38,0.76,0.19,1.191,1.243
		c0.431,1.052,0.836,1.368,1.406,1.584c0.57,0.215,1.812,0.025,1.812,0.025v1.825c-0.114,0.266-0.418,0.266-0.418,0.266
		l-0.014,0.019c-3.772-1.151-6.519-4.66-6.519-8.81C119.615,214.005,123.74,209.881,128.825,209.881z"/>
	<path fill="#FFFFFF" d="M82.874,220.538l-1.597-3.253c-2.95,1.616-1.919,4.142-1.919,4.142L82.874,220.538z"/>
	<path fill="#FFFFFF" d="M84.847,234.891c8.836,0,16-7.164,16-16s-7.164-16-16-16s-16,7.164-16,16S76.011,234.891,84.847,234.891z
		 M80.442,215.521l-0.875-1.939l2.694-0.633l0.97,1.845c0,0,3.522-0.922,7.685-0.074c0,0,2.869,0.485,5.273,3.637
		c0,0,0.465,0.829-0.424,1.112l-8.081,2.222l-2.708-4.909c0,0,1.252-0.384,3.03-0.323l1.617,2.444l3.395-0.768
		c0,0-2.061-3.374-8.93-1.778l3.01,5.496l-10.365,2.91c0,0-0.606,0.303-0.828-0.324C75.903,224.438,73.121,218.302,80.442,215.521z"
		/>
	<path fill="#FFFFFF" d="M39.053,219.368c0.063-0.223,0.986-2.639-0.954-4.134c-1.94-1.495-3.88-0.668-4.738,0.19
		c-0.859,0.859-1.701,2.798-0.318,4.643c1.383,1.844,3.784,1.224,3.784,1.224l3.514,3.132l9.206-7.505v-4.849l-9.078,9.651
		L39.053,219.368z"/>
	<path fill="#FFFFFF" d="M40.867,202.891c-8.836,0-16,7.164-16,16s7.164,16,16,16s16-7.164,16-16S49.703,202.891,40.867,202.891z
		 M50.008,217.349l-4.119,3.323l0.541,0.604l-5.692,5.692l-4.977-4.944c0,0-1.86,0.079-3.18-1.59
		c-1.32-1.669-1.033-4.038,0.318-5.39c1.351-1.352,3.688-1.812,5.596-0.254c0,0,0.843,0.748,1.241,1.765l0.985-0.954l2.464,2.4
		l6.821-7.186V217.349z"/>
	<path fill="#FFFFFF" d="M-3.112,234.891c8.836,0,16-7.164,16-16s-7.164-16-16-16s-16,7.164-16,16S-11.948,234.891-3.112,234.891z
		 M3.533,213.036c0,0,0.003-0.003,0.006-0.007c0.001-0.001,0.004-0.003,0.005-0.004c0.005-0.005,0.011-0.011,0.018-0.018
		c0.002-0.002,0.006-0.005,0.008-0.008c0.011-0.01,0.023-0.021,0.038-0.034c0.001-0.001,0.003-0.002,0.004-0.003
		c0.013-0.011,0.029-0.022,0.045-0.034c0.005-0.003,0.011-0.007,0.017-0.011c0.015-0.01,0.031-0.02,0.047-0.029
		c0.006-0.003,0.011-0.006,0.018-0.01c0.022-0.012,0.047-0.023,0.071-0.032c0.005-0.001,0.01-0.003,0.014-0.004
		c0.021-0.008,0.044-0.014,0.068-0.019c0.008-0.002,0.017-0.003,0.025-0.005c0.022-0.004,0.046-0.006,0.07-0.007
		c0.008,0,0.016-0.001,0.024,0c0.004,0,0.009,0,0.014,0c0.02,0,0.04,0.003,0.06,0.006c0.004,0,0.008,0.001,0.013,0.002
		c0.023,0.004,0.047,0.011,0.071,0.02c0.006,0.002,0.011,0.004,0.017,0.006c0.023,0.009,0.045,0.019,0.068,0.031
		c0.003,0.001,0.006,0.003,0.009,0.004c0.025,0.014,0.05,0.031,0.076,0.05c0.005,0.005,0.012,0.01,0.018,0.015
		c0.026,0.021,0.053,0.043,0.079,0.069l1.503,1.504c0,0,0.258,0.451,0,0.708l-1.346,1.339l-7.378,7.342c0,0-0.003,0.002-0.007,0.004
		c-0.001,0.001-0.004,0.002-0.005,0.003c-0.004,0.002-0.01,0.006-0.017,0.009c-0.003,0.002-0.007,0.004-0.011,0.006
		c-0.007,0.003-0.015,0.007-0.024,0.012c-0.005,0.002-0.01,0.005-0.016,0.007c-0.01,0.004-0.021,0.009-0.032,0.013
		c-0.007,0.002-0.013,0.005-0.02,0.008c-0.014,0.005-0.03,0.011-0.046,0.016c-0.005,0.001-0.009,0.003-0.015,0.005
		c-0.021,0.006-0.044,0.013-0.069,0.018c-0.006,0.001-0.014,0.002-0.02,0.004c-0.018,0.003-0.037,0.006-0.057,0.009
		c-0.01,0.001-0.02,0.002-0.03,0.002c-0.018,0.002-0.036,0.003-0.055,0.003c-0.014,0-0.028,0-0.042,0c-0.009,0-0.017,0-0.026-0.001
		c-0.019-0.001-0.038-0.003-0.058-0.006c-0.006-0.001-0.013-0.001-0.02-0.002c-0.025-0.004-0.053-0.011-0.08-0.019
		c-0.005-0.001-0.01-0.003-0.016-0.005c-0.021-0.007-0.044-0.014-0.065-0.023c-0.009-0.004-0.019-0.008-0.027-0.013
		c-0.019-0.009-0.038-0.018-0.056-0.029c-0.01-0.006-0.02-0.011-0.029-0.018c-0.02-0.012-0.039-0.025-0.058-0.04
		c-0.009-0.006-0.018-0.012-0.026-0.019c-0.027-0.022-0.055-0.046-0.082-0.074l-4.77-4.727c0,0-0.312-0.419,0-0.73
		c0.312-0.312,1.493-1.493,1.493-1.493s0.004-0.003,0.007-0.006c0.001-0.001,0.003-0.002,0.004-0.003
		c0.003-0.003,0.009-0.008,0.016-0.012c0.002-0.002,0.005-0.004,0.008-0.006c0.008-0.006,0.019-0.013,0.029-0.02
		c0.002-0.002,0.004-0.003,0.006-0.005c0.014-0.009,0.03-0.018,0.047-0.027c0.003-0.002,0.008-0.004,0.011-0.006
		c0.014-0.007,0.028-0.014,0.044-0.021c0.006-0.003,0.013-0.005,0.019-0.008c0.017-0.006,0.033-0.012,0.05-0.018
		c0.005-0.002,0.011-0.004,0.018-0.006c0.023-0.007,0.048-0.013,0.074-0.017c0.003,0,0.007,0,0.011-0.001
		c0.022-0.003,0.044-0.005,0.068-0.005c0.015,0,0.03,0,0.046,0.001c0.003,0,0.007,0,0.011,0c0.021,0.002,0.043,0.005,0.064,0.01
		c0.006,0.001,0.012,0.003,0.017,0.004c0.018,0.005,0.036,0.01,0.054,0.017c0.005,0.002,0.011,0.004,0.017,0.006
		c0.022,0.009,0.045,0.02,0.068,0.033c0.004,0.002,0.008,0.005,0.012,0.008c0.02,0.011,0.039,0.024,0.058,0.039
		c0.006,0.004,0.013,0.009,0.019,0.014c0.023,0.019,0.047,0.039,0.071,0.062l2.986,2.944l5.534-5.534L3.533,213.036z M-11.662,217.4
		l7.054-7.054c0.824-0.824,2.158-0.824,2.981,0l3.195,3.195l-4.809,4.81l-2.256-2.223c-0.325-0.323-0.723-0.494-1.152-0.494
		c-0.591,0-1.001,0.327-1.112,0.427l-0.02,0.018l-0.019,0.02l-1.494,1.493c-0.618,0.618-0.518,1.512-0.099,2.076l0.046,0.062
		l0.055,0.055l4.771,4.728c0.357,0.357,0.806,0.548,1.294,0.548c0.514,0,0.893-0.217,0.997-0.284l0.093-0.059l0.079-0.078
		l7.38-7.344l0.104,0.104c0.823,0.823,0.824,2.158,0,2.981l-7.054,7.054c-0.823,0.824-2.158,0.823-2.981,0l-7.054-7.054
		C-12.485,219.559-12.485,218.224-11.662,217.4z"/>
	<path fill="#FFFFFF" d="M-3.112,191.091c8.836,0,16-7.164,16-16s-7.164-16-16-16s-16,7.164-16,16S-11.948,191.091-3.112,191.091z
		 M-7.457,169.362c0,0,0.431,3.723,1.257,5.824c0.827,2.101,1.974,4.169,2.96,5.315c0,0,1.527-1.209,2.769-3.883
		c0,0-2.96-1.559-2.96-5.442c0,0,0.159-4.265,3.724-4.265c3.564,0,3.755,3.12,3.755,3.883c0,0.765-0.255,2.292-0.637,2.896
		c0,0-1.496,0.414-2.451-0.796c0,0,0.382-0.732,0.382-1.941c0-1.21-0.605-1.623-1.146-1.623c-0.542,0-0.987,0.891-0.987,2.1
		c0,1.209,0.765,3.66,3.724,3.66h1.083v1.941c0,0-1.56,0.191-1.974,0.191c0,0-1.528,3.437-4.392,5.665c0,0-0.668,0.382-0.955,0.382
		s-1.05-0.35-1.496-0.795c-0.445-0.446-4.232-3.194-5.474-13.112H-7.457z"/>
	<path fill="#FFFFFF" d="M40.867,159.091c-8.836,0-16,7.164-16,16s7.164,16,16,16s16-7.164,16-16S49.703,159.091,40.867,159.091z
		 M34.32,173.959v0.98h-1.028v3.108h-1.389v-3.101h-0.849v-0.987h0.877v-0.504c0,0-0.076-1.402,1.574-1.402
		c0,0,0.532,0.007,0.857,0.09l-0.096,0.953c0,0-0.317-0.055-0.45-0.055c-0.13,0-0.482,0.104-0.504,0.525v0.394H34.32z
		 M36.31,178.047H34.9v-5.891h1.409V178.047z M38.409,178.047H37v-4.109h1.409V178.047z M38.409,173.275H37v-1.036h1.409V173.275z
		 M42.401,177.957c-0.325,0.125-1.637,0.394-2.598-0.186c-0.958-0.58-0.938-1.665-0.938-1.665s-0.008-0.829,0.394-1.381
		c0.4-0.552,1.291-0.87,1.926-0.87c0.636,0,1.182,0.221,1.182,0.221l-0.098,1.064c-0.241-0.159-0.648-0.276-1.07-0.228
		c-0.42,0.048-0.87,0.442-0.87,1.08c0,0.639,0.476,1.102,1.084,1.123c0.608,0.021,0.988-0.207,0.988-0.207V177.957z M45.571,178.04
		l-1.14-2.001v2.036h-1.443v-5.926h1.443v3.455l1.181-1.645h1.534l-1.43,1.857l1.554,2.224H45.571z M50.604,175.078
		c0,0-0.442-0.097-0.677-0.035s-0.821,0.332-0.821,1.036v1.961h-1.409v-4.081h1.278v0.766c0,0,0.338-0.794,0.988-0.856
		c0,0,0.552-0.014,0.717,0.062L50.604,175.078z"/>
	<path fill="#FFFFFF" d="M84.847,191.091c8.836,0,16-7.164,16-16s-7.164-16-16-16s-16,7.164-16,16S76.011,191.091,84.847,191.091z
		 M88.832,171.739c1.851,0,3.352,1.5,3.352,3.352s-1.5,3.352-3.352,3.352s-3.353-1.5-3.353-3.352S86.981,171.739,88.832,171.739z
		 M80.862,171.739c1.851,0,3.352,1.5,3.352,3.352s-1.5,3.352-3.352,3.352c-1.852,0-3.352-1.5-3.352-3.352
		S79.011,171.739,80.862,171.739z"/>
	<path fill="#FFFFFF" d="M128.826,191.091c8.836,0,16-7.164,16-16s-7.164-16-16-16s-16,7.164-16,16S119.99,191.091,128.826,191.091z
		 M122.652,169.62c0.905-0.814,2.018-1.744,2.981-1.652s1.755,0.585,2.111,2.547c0.355,1.962,0.642,4.359,1.216,5.736
		c0,0,0.367,0.964,0.757,0.918c0.391-0.046,1.103-0.872,1.813-2.02c0.711-1.147,1.102-2.111,0.871-3.029
		c-0.229-0.917-1.697-0.688-2.316-0.436c0,0,1.081-4.302,4.863-3.923c0,0,2.502,0,2.364,2.983c-0.138,2.982-2.157,5.576-4.084,7.916
		c-1.928,2.341-3.855,3.993-5.484,3.763c-1.629-0.23-2.249-2.639-2.776-4.658c-0.527-2.02-1.217-4.681-1.95-5.576
		c0,0-0.345-0.458-0.849-0.16l-1.033,0.711l-0.803-1.009C120.334,171.731,121.745,170.434,122.652,169.62z"/>
	<polygon fill="#FFFFFF" points="214.803,134.476 220.315,130.878 214.803,127.28 	"/>
	<path fill="#FFFFFF" d="M216.785,114.888c-8.836,0-16,7.164-16,16s7.164,16,16,16s16-7.164,16-16S225.621,114.888,216.785,114.888z
		 M225.023,137.199c-0.874,0.64-8.238,0.471-8.238,0.471s-7.363,0.169-8.238-0.471c-0.875-0.639-1.546-2.522-1.546-6.321
		c0,0,0.032-2.892,0.337-4.035c0.301-1.144,0.671-1.85,1.109-2.252c0.436-0.404,1.344-0.505,8.338-0.505s7.902,0.101,8.34,0.505
		c0.437,0.403,0.806,1.109,1.109,2.252c0.302,1.144,0.335,4.035,0.335,4.035C226.569,134.677,225.898,136.56,225.023,137.199z"/>
	<path fill="#FFFFFF" d="M216.785,159.091c-8.836,0-16,7.164-16,16s7.164,16,16,16s16-7.164,16-16S225.621,159.091,216.785,159.091z
		 M219.161,167.496h1.153v4.184c0,0,0.018,0.331,0.264,0.331s0.576-0.28,0.67-0.391v-4.124h1.18v5.431h-1.162v-0.568
		c0,0-0.56,0.67-1.332,0.67s-0.772-0.882-0.772-1.001V167.496z M214.979,168.599c0,0,0.033-1.255,1.653-1.255s1.62,1.298,1.62,1.298
		l0.019,2.826c0,0,0,0.772-0.366,1.137c-0.363,0.365-0.934,0.476-1.365,0.476c-0.433,0-0.861-0.174-1.205-0.518
		s-0.355-1.019-0.355-1.019V168.599z M211.889,165.562l0.875,2.961l0.831-2.961h1.298l-1.485,4.302v3.071h-1.272v-2.961
		l-1.545-4.413H211.889z M226.764,181.07c0,1.961-1.595,3.55-3.562,3.55H210.37c-1.97,0-3.564-1.589-3.564-3.55v-2.946
		c0-1.961,1.595-3.55,3.564-3.55h12.831c1.968,0,3.562,1.589,3.562,3.55V181.07z"/>
	<polygon fill="#FFFFFF" points="209.657,176.86 210.828,176.86 210.828,182.55 211.948,182.55 211.948,176.86 213.119,176.86 
		213.119,175.893 209.657,175.893 	"/>
	<path fill="#FFFFFF" d="M216.623,172.121c0.399,0,0.468-0.399,0.468-0.399v-3.029c0-0.068-0.043-0.399-0.491-0.399
		c-0.451,0-0.477,0.416-0.477,0.416v2.995C216.123,171.782,216.225,172.121,216.623,172.121z"/>
	<path fill="#FFFFFF" d="M222.081,181.831c0,0-0.44,0.07-0.44-0.516v-1.107h1.903v-1.189c0,0,0.069-1.502-1.375-1.502
		s-1.554,1.254-1.554,1.49v2.31c0,0,0.084,1.375,1.434,1.375c1.349,0,1.496-0.853,1.496-1.763h-1.006
		C222.539,180.927,222.736,181.831,222.081,181.831z M221.654,178.776c0,0-0.039-0.408,0.438-0.408c0.479,0,0.44,0.427,0.44,0.427
		v0.649h-0.878V178.776z"/>
	<path fill="#FFFFFF" d="M215.436,181.392c0,0-0.33,0.35-0.604,0.35c-0.273,0-0.255-0.324-0.255-0.324v-3.793h-0.992v4.232
		c0,0.235,0.134,0.782,0.675,0.782c0.54,0,1.189-0.63,1.189-0.63v0.541h0.993v-4.926h-1.006V181.392z"/>
	<path fill="#FFFFFF" d="M219.159,177.573c-0.655,0-0.948,0.484-0.948,0.484v-2.164h-1.012v6.657h1.018v-0.369
		c0.459,0.458,0.968,0.458,0.968,0.458c0.853,0,0.884-0.986,0.884-0.986v-2.921C220.068,178.229,219.814,177.573,219.159,177.573z
		 M219.057,181.544c0,0.114-0.076,0.324-0.388,0.324s-0.472-0.235-0.472-0.235v-3.099c0.182-0.182,0.431-0.204,0.431-0.204
		c0.423,0,0.429,0.471,0.429,0.471V181.544z"/>
	<path fill="#FFFFFF" d="M172.807,114.888c-8.836,0-16,7.164-16,16s7.164,16,16,16s16-7.164,16-16S181.643,114.888,172.807,114.888z
		 M172.807,140.301c-5.199,0-9.414-4.214-9.414-9.413s4.215-9.413,9.414-9.413c5.197,0,9.412,4.214,9.412,9.413
		S178.004,140.301,172.807,140.301z"/>
	<path fill="#FFFFFF" d="M128.826,146.888c8.836,0,16-7.164,16-16s-7.164-16-16-16s-16,7.164-16,16S119.99,146.888,128.826,146.888z
		 M121.664,128.12c0,0,0.259-6.192,7.18-6.458c6.893-0.265,7.135,6.097,7.135,6.097s0.217,1.566-0.892,4.041
		c-1.108,2.474-3.206,3.197-4.828,3.229c-1.622,0.032-2.619-1.285-2.619-1.285l-0.595,2.33c-0.482,2.008-1.477,3.197-1.67,3.502
		c-0.193,0.305-0.451,0.562-0.562,0.546c-0.113-0.016-0.113-0.321-0.113-0.321s-0.128-1.768-0.111-2.41
		c0.016-0.643,0.256-1.671,0.256-1.671l1.287-5.607c-0.29-0.594-0.37-1.59-0.37-1.59c-0.081-1.479,0.947-2.731,2.056-2.764
		c1.109-0.032,1.397,0.819,1.463,1.478c0.064,0.659-0.418,2.346-0.853,3.47c-0.433,1.125,0.499,3.358,2.731,2.153
		c2.234-1.205,2.217-5.157,2.217-5.157c0-4.386-4.306-4.226-4.306-4.226c-4.466,0-5.333,3.743-5.333,5.013
		c0,1.269,0.715,2.185,0.715,2.185c0.232,0.273,0.12,0.675,0.12,0.675l-0.241,0.851c-0.088,0.309-0.57,0.113-0.57,0.113
		C121.423,131.108,121.664,128.12,121.664,128.12z"/>
	<path fill="#FFFFFF" d="M82.683,132.934c0-1.323-1.425-1.526-1.425-1.526h-3.053v3.052h3.076
		C81.28,134.46,82.683,134.256,82.683,132.934z"/>
	<path fill="#FFFFFF" d="M82.185,128.389c0,0-0.067-1.255-1.175-1.255h-2.805v2.51h2.579
		C80.783,129.644,82.185,129.689,82.185,128.389z"/>
	<path fill="#FFFFFF" d="M84.847,146.888c8.836,0,16-7.164,16-16s-7.164-16-16-16s-16,7.164-16,16S76.01,146.888,84.847,146.888z
		 M87.634,125.935h4.522v1.199h-4.522V125.935z M89.873,128.016c4.454,0,4.071,4.918,4.071,4.918h-5.879
		c0.022,0.893,0.656,2.001,1.945,2.001c1.289,0,1.808-1.085,1.808-1.085h2.013c-0.271,0.656-1.018,2.713-3.776,2.713
		s-3.844-1.99-4.047-2.736c-0.203-0.747-0.203-1.56-0.203-1.56C86.006,128.107,89.873,128.016,89.873,128.016z M75.741,125.212
		h6.331c1.062,0.181,2.442,0.61,2.533,2.6c0.09,1.991-1.47,2.488-1.47,2.488c2.177,0.664,1.989,2.759,1.989,2.759
		c0,3.459-3.64,3.323-3.64,3.323h-5.743V125.212z"/>
	<path fill="#FFFFFF" d="M89.896,129.757c-1.583,0-1.832,1.65-1.832,1.65h3.618C91.478,129.621,89.896,129.757,89.896,129.757z"/>
	<path fill="#FFFFFF" d="M40.867,114.888c-8.836,0-16,7.164-16,16s7.164,16,16,16s16-7.164,16-16S49.704,114.888,40.867,114.888z
		 M45.69,138.854c0,0-1.885,0.501-3.018,0.501c-1.134,0-4.344-0.118-4.86-3.388v-6.95h-1.767v-2.93h0.5c0,0,1.457-0.339,2.135-1.531
		c0.678-1.193,0.604-2.135,0.604-2.135h2.4v3.667h3.799v2.945h-3.77v4.8c0,0,0.029,0.766,0.103,1.06
		c0.074,0.295,0.662,1.001,1.591,1.001c0.927,0,2.282-0.588,2.282-0.588V138.854z"/>
	<path fill="#FFFFFF" d="M0.994,127.563h1.303c0.447,0,0.811-0.363,0.811-0.811v-1.302c0-0.447-0.363-0.811-0.811-0.811H0.994
		c-0.447,0-0.811,0.363-0.811,0.811v1.302C0.184,127.2,0.547,127.563,0.994,127.563z"/>
	<path fill="#FFFFFF" d="M-3.112,134.155c1.82,0,3.296-1.476,3.296-3.296c0-0.548-0.135-1.065-0.372-1.52
		c-0.068-0.13-0.144-0.256-0.229-0.375c-0.001-0.003-0.004-0.006-0.006-0.009c-0.06-0.085-0.125-0.168-0.193-0.248
		c-0.005-0.005-0.009-0.011-0.014-0.016c-0.066-0.076-0.136-0.148-0.208-0.218c-0.008-0.006-0.015-0.014-0.022-0.021
		c-0.022-0.021-0.045-0.042-0.068-0.062c-0.009-0.008-0.018-0.016-0.026-0.022c-0.04-0.036-0.082-0.069-0.123-0.102
		c-0.012-0.009-0.023-0.018-0.035-0.027c-0.021-0.017-0.043-0.033-0.064-0.049c-0.015-0.011-0.031-0.021-0.046-0.032
		c-0.026-0.02-0.055-0.038-0.083-0.057c-0.025-0.017-0.051-0.034-0.077-0.05c-0.021-0.013-0.04-0.024-0.06-0.036
		s-0.041-0.024-0.062-0.035c-0.019-0.011-0.038-0.021-0.057-0.032c-0.037-0.019-0.073-0.038-0.11-0.056
		c-0.015-0.007-0.032-0.015-0.047-0.022c-0.028-0.012-0.055-0.025-0.082-0.037c-0.017-0.007-0.035-0.015-0.053-0.022
		c-0.033-0.014-0.067-0.027-0.101-0.04c-0.014-0.005-0.028-0.011-0.042-0.016c-0.038-0.014-0.076-0.027-0.115-0.039
		c-0.015-0.005-0.031-0.01-0.047-0.015c-0.034-0.011-0.068-0.021-0.104-0.03c-0.012-0.003-0.023-0.006-0.034-0.009
		c-0.046-0.012-0.092-0.022-0.137-0.032c-0.014-0.002-0.027-0.005-0.04-0.008c-0.038-0.007-0.075-0.014-0.112-0.02
		c-0.013-0.002-0.026-0.004-0.039-0.006c-0.048-0.007-0.095-0.014-0.144-0.019c-0.009-0.001-0.019-0.001-0.027-0.002
		c-0.041-0.004-0.083-0.007-0.125-0.009c-0.013-0.001-0.027-0.001-0.041-0.002c-0.051-0.002-0.101-0.003-0.151-0.003
		c-0.051,0-0.102,0.001-0.151,0.003c-0.014,0.001-0.028,0.001-0.042,0.002c-0.041,0.002-0.083,0.005-0.125,0.009
		c-0.009,0.001-0.018,0.001-0.026,0.002c-0.048,0.005-0.097,0.011-0.145,0.019c-0.013,0.002-0.025,0.004-0.038,0.006
		c-0.038,0.006-0.075,0.013-0.111,0.02c-0.014,0.002-0.027,0.005-0.04,0.008c-0.046,0.01-0.092,0.02-0.137,0.032
		c-0.012,0.003-0.023,0.006-0.036,0.009c-0.034,0.009-0.069,0.019-0.104,0.03c-0.015,0.005-0.031,0.009-0.046,0.015
		c-0.039,0.012-0.077,0.025-0.115,0.039c-0.014,0.005-0.028,0.01-0.042,0.016c-0.034,0.013-0.067,0.026-0.102,0.04
		c-0.018,0.008-0.034,0.015-0.052,0.022c-0.027,0.012-0.055,0.024-0.082,0.037c-0.017,0.007-0.032,0.015-0.048,0.022
		c-0.037,0.018-0.073,0.037-0.109,0.056c-0.02,0.011-0.039,0.021-0.058,0.032c-0.021,0.011-0.041,0.023-0.062,0.035
		c-0.02,0.012-0.04,0.023-0.06,0.036c-0.026,0.016-0.053,0.033-0.079,0.05c-0.027,0.019-0.055,0.037-0.082,0.057
		c-0.015,0.01-0.03,0.021-0.045,0.032c-0.022,0.016-0.044,0.032-0.066,0.049c-0.012,0.009-0.023,0.018-0.034,0.027
		c-0.042,0.033-0.083,0.066-0.124,0.102c-0.008,0.007-0.018,0.015-0.025,0.022c-0.023,0.02-0.046,0.041-0.068,0.062
		c-0.008,0.007-0.015,0.015-0.022,0.021c-0.073,0.07-0.142,0.143-0.208,0.218c-0.004,0.005-0.009,0.01-0.013,0.016
		c-0.069,0.079-0.133,0.162-0.194,0.248c-0.002,0.003-0.004,0.006-0.006,0.009c-0.084,0.119-0.161,0.245-0.229,0.375
		c-0.237,0.455-0.372,0.972-0.372,1.52C-6.409,132.68-4.933,134.155-3.112,134.155z"/>
	<path fill="#FFFFFF" d="M-3.112,146.888c8.836,0,16-7.164,16-16s-7.164-16-16-16s-16,7.164-16,16S-11.949,146.888-3.112,146.888z
		 M-11.166,124.566c0-0.957,0.775-1.732,1.731-1.732H3.209c0.957,0,1.732,0.775,1.732,1.732v12.644c0,0.957-0.776,1.732-1.732,1.732
		H-9.435c-0.957,0-1.731-0.775-1.731-1.732V124.566z"/>
	<path fill="#FFFFFF" d="M-8.271,137.079H2.046c0.57,0,1.032-0.462,1.032-1.032v-6.707h-1.41c0.152,0.479,0.235,0.989,0.235,1.519
		c0,2.77-2.246,5.016-5.016,5.016c-2.77,0-5.016-2.246-5.016-5.016c0-0.53,0.082-1.04,0.234-1.519h-1.41v6.707
		C-9.304,136.617-8.841,137.079-8.271,137.079z"/>
	<path fill="#FFFFFF" d="M216.294,94.12c1.877-0.546,1.946-1.696,1.991-2.22c0.046-0.523-0.365-1.354-0.932-1.797
		c-0.57-0.445-1.425-1.082-1.425-1.082c-2.583,0.034-3.447,0.569-4.04,1.093c-0.592,0.523-0.602,1.457-0.602,1.457
		C211.194,93.767,214.416,94.667,216.294,94.12z"/>
	<path fill="#FFFFFF" d="M217.033,83.911c0.205-0.967-0.113-2.879-1.24-4.006c-1.127-1.126-2.402-0.353-2.402-0.353
		c-1.74,1.104-0.988,3.709,0,5.042c0.991,1.331,2.414,0.808,2.653,0.66C216.282,85.106,216.828,84.879,217.033,83.911z"/>
	<path fill="#FFFFFF" d="M216.785,102.887c8.836,0,16-7.164,16-16s-7.164-16-16-16s-16,7.164-16,16S207.949,102.887,216.785,102.887
		z M221.544,83.957h1.002v1.669h1.67v1.001h-1.67v1.67h-1.002v-1.67h-1.669v-1.001h1.669V83.957z M210.44,89.784
		c1.552-1.396,4.73-1.38,4.73-1.38c-0.106-0.152-0.622-0.82-0.668-1.29c-0.046-0.471,0.218-1.032,0.218-1.032
		s-1.721,0.334-3.161-0.864c-1.442-1.2-1.487-3.324-0.152-5.024c1.335-1.699,4.113-1.608,4.113-1.608h4.674l-1.382,0.789h-1.305
		c1.653,1.23,1.502,2.748,1.502,2.748c-0.014,1.684-0.637,2.246-0.895,2.489c-0.259,0.243-0.805,0.667-1.108,0.986
		c-0.304,0.318-0.607,1.001-0.203,1.441c0.402,0.44,2.009,1.502,2.616,2.534c0.607,1.032,0.258,2.246,0.258,2.246
		c-0.805,2.959-4.795,3.976-7.877,3.035C208.721,93.911,208.889,91.18,210.44,89.784z"/>
	<path fill="#FFFFFF" d="M172.806,102.887c8.836,0,16-7.164,16-16s-7.164-16-16-16s-16,7.164-16,16S163.969,102.887,172.806,102.887
		z M168.939,93.837h-2.895v-9.284h2.895V93.837z M170.754,84.553h2.774v1.313c0.745-1.218,2.152-1.908,4.291-1.313
		c2.138,0.595,1.962,4.25,1.962,4.25v5.034h-2.909V89.06c0-0.541,0.121-2.179-1.61-2.179c-1.733,0-1.625,2.166-1.625,2.166v4.79
		h-2.883V84.553z M167.504,79.938c0.926,0,1.676,0.75,1.676,1.676c0,0.926-0.75,1.676-1.676,1.676s-1.676-0.75-1.676-1.676
		C165.828,80.688,166.578,79.938,167.504,79.938z"/>
	<path fill="#FFFFFF" d="M128.826,102.887c8.836,0,16-7.164,16-16s-7.164-16-16-16s-16,7.164-16,16S119.99,102.887,128.826,102.887z
		 M124.021,84.412h2.846v-2.637c0,0-0.12-1.724,1.188-3.032c1.308-1.308,3.068-1.184,5.575-0.966v2.944h-1.854
		c0,0-0.778-0.016-1.145,0.404c-0.365,0.421-0.326,1.021-0.326,1.168v2.118h3.215l-0.412,3.279h-2.819v8.445h-3.411v-8.461h-2.857
		V84.412z"/>
	<path fill="#FFFFFF" d="M84.847,102.887c8.836,0,16-7.164,16-16s-7.164-16-16-16s-16,7.164-16,16S76.01,102.887,84.847,102.887z
		 M81.066,91.225c0,0-2.765-0.053-3.562-2.633c0,0,1.382,0.107,1.622-0.159c0,0-2.978-0.718-3.004-3.829
		c0,0,0.904,0.452,1.728,0.479c0,0-2.871-2.074-1.13-5.172c0,0,2.899,3.842,7.937,4.108c0,0-0.682-2.27,1.409-4.005
		c2.092-1.738,4.68-0.267,5.176,0.389c0,0,1.472-0.23,2.499-0.921c0,0-0.336,1.327-1.577,2.125c0,0,1.454-0.193,2.127-0.583
		c0,0-0.709,1.134-1.932,2.003c0,0,0.514,4.795-3.607,8.757c-4.122,3.962-10.902,3.138-13.348,1.064
		C75.403,92.847,78.727,93.22,81.066,91.225z"/>
	<path fill="#FFFFFF" d="M40.867,70.887c-8.836,0-16,7.164-16,16s7.164,16,16,16s16-7.164,16-16S49.704,70.887,40.867,70.887z
		 M35.777,94.184c-1.207,0-2.184-0.977-2.184-2.183c0-1.205,0.978-2.183,2.184-2.183c1.205,0,2.184,0.978,2.184,2.183
		C37.96,93.207,36.982,94.184,35.777,94.184z M41.011,94.184c0-4.02-3.397-7.417-7.418-7.417v-2.331
		c2.597,0,5.046,1.026,6.899,2.891c1.838,1.852,2.852,4.288,2.852,6.857H41.011z M45.806,94.184c0-6.647-5.591-12.263-12.213-12.263
		v-2.332c1.963,0,3.87,0.394,5.672,1.17c1.726,0.746,3.281,1.809,4.619,3.161c1.332,1.346,2.379,2.908,3.112,4.641
		c0.758,1.794,1.143,3.686,1.143,5.624H45.806z"/>
	<path fill="#FFFFFF" d="M-3.112,102.887c8.836,0,16-7.164,16-16s-7.164-16-16-16s-16,7.164-16,16S-11.949,102.887-3.112,102.887z
		 M-11.02,92.102l6.062-4.56c0,0,1.001,1.081,1.897,1.081c0.896,0,1.818-1.081,1.818-1.081l5.878,4.56H-11.02z M5.164,91.733
		l-6.089-4.402l6.089-5.14V91.733z M-10.439,80.672H4.215c0.791,0,0.791,0.423,0.791,0.423l-7.249,5.613
		c-0.21,0.212-0.448,0.264-0.922,0.264s-0.844-0.396-0.844-0.396l-7.117-5.614C-10.901,80.739-10.439,80.672-10.439,80.672z
		 M-11.389,82.006l6.036,5.22l-6.036,4.507V82.006z"/>
	<path fill="#FFFFFF" d="M173.78,127.637c1.642-0.63,3.141-1.539,4.127-2.848c-1.38-1.156-3.159-1.853-5.101-1.853
		c-0.622,0-1.229,0.071-1.809,0.207c0.508,0.678,1.335,1.866,2.253,3.511C173.421,126.959,173.599,127.287,173.78,127.637z"/>
	<path fill="#FFFFFF" d="M174.479,129.057c0.195,0.417,0.391,0.856,0.586,1.318c1.641-0.318,3.539-0.339,5.684,0.168
		c-0.073-1.742-0.708-3.339-1.729-4.615C177.867,127.361,176.234,128.361,174.479,129.057z"/>
	<path fill="#FFFFFF" d="M169.428,123.688c-2.166,1.018-3.798,2.986-4.36,5.367c1.135,0,4.207-0.084,7.19-0.918
		C170.988,125.736,169.826,124.192,169.428,123.688z"/>
	<path fill="#FFFFFF" d="M175.656,131.859c0.623,1.657,1.199,3.534,1.632,5.596c1.766-1.208,3.021-3.109,3.369-5.312
		C178.909,131.694,177.238,131.601,175.656,131.859z"/>
	<path fill="#FFFFFF" d="M169.988,132.61c0.926-0.675,2.105-1.357,3.534-1.832c-0.181-0.417-0.362-0.819-0.544-1.204
		c-3.181,0.948-6.435,1.06-7.789,1.06c-0.127,0-0.238-0.001-0.33-0.002c-0.003,0.085-0.004,0.17-0.004,0.256
		c0,1.93,0.688,3.698,1.83,5.076C167.213,135.212,168.307,133.838,169.988,132.61z"/>
	<path fill="#FFFFFF" d="M170.918,133.883c-1.707,1.246-2.734,2.664-3.09,3.204c1.363,1.096,3.094,1.751,4.979,1.751
		c1.074,0,2.098-0.213,3.031-0.599c-0.434-2.219-1.047-4.231-1.725-6.007C172.997,132.594,171.931,133.144,170.918,133.883z"/>
	<path fill="#FFFFFF" d="M170.513,181.686l2.312-2.293h4.225l2.708-2.69v-8.522h-12.746v11.23h3.502V181.686z M175.496,171.232
		h1.553v4.658h-1.553V171.232z M171.272,171.232h1.552v4.658h-1.552V171.232z"/>
	<path fill="#FFFFFF" d="M172.807,159.547c-8.836,0-16,7.164-16,16s7.164,16,16,16s16-7.164,16-16S181.643,159.547,172.807,159.547z
		 M181.311,177.497l-4.64,4.64h-3.521l-2.293,2.311h-2.311v-2.365h-4.243V169.77l1.21-3.124h15.798V177.497z"/>
	<path fill="#FFFFFF" d="M40.829,612.701c-5.104,0-9.258,2.658-9.258,5.926s4.154,5.926,9.258,5.926
		c5.105,0,9.258-2.658,9.258-5.926S45.934,612.701,40.829,612.701z M36.047,617.457c0-0.871,0.706-1.577,1.577-1.577
		c0.871,0,1.577,0.706,1.577,1.577s-0.706,1.576-1.577,1.576C36.753,619.033,36.047,618.328,36.047,617.457z M44.591,621.742
		c-0.059,0.053-1.478,1.284-3.686,1.284c-2.19,0-3.7-1.14-3.763-1.188c-0.201-0.153-0.239-0.441-0.085-0.642
		c0.154-0.2,0.441-0.239,0.641-0.086c0.024,0.018,1.346,1.001,3.207,1.001c1.849,0,3.068-1.046,3.081-1.057
		c0.19-0.167,0.479-0.147,0.646,0.043C44.798,621.286,44.779,621.574,44.591,621.742z M44.237,619.033
		c-0.871,0-1.577-0.705-1.577-1.576s0.706-1.577,1.577-1.577c0.872,0,1.577,0.706,1.577,1.577S45.108,619.033,44.237,619.033z"/>
	<path fill="#FFFFFF" d="M33.188,614.224c-0.451-0.306-1.016-0.303-1.022-0.303c-1.694,0.053-1.715,1.66-1.715,1.729
		c0,0.572,0.314,1.054,0.59,1.367C31.412,615.987,32.142,615.034,33.188,614.224z"/>
	<circle fill="#FFFFFF" cx="48.625" cy="608.542" r="1.259"/>
	<path fill="#FFFFFF" d="M49.565,613.921c-0.003,0-0.602-0.003-1.059,0.333c1.046,0.82,1.771,1.784,2.131,2.825
		c0.288-0.311,0.645-0.819,0.645-1.429C51.282,615.581,51.262,613.974,49.565,613.921z"/>
	<path fill="#FFFFFF" d="M-9.035,662.495c0.971,2.315,3.26,3.944,5.923,3.944c1.093,0,2.115-0.287,3.017-0.771
		c-0.008-0.088-0.027-0.173-0.027-0.263c0-1.527,1.244-2.771,2.771-2.771c0.03,0,0.058,0.009,0.088,0.01
		c0.022-0.051,0.052-0.098,0.073-0.149c0.32-0.762,0.497-1.598,0.497-2.474c0-3.539-2.879-6.42-6.419-6.42
		c-0.947,0-1.841,0.217-2.65,0.586c0,0.014,0.004,0.027,0.004,0.041c0,1.527-1.244,2.771-2.771,2.771
		c-0.078,0-0.152-0.018-0.229-0.023c-0.491,0.908-0.774,1.943-0.774,3.045C-9.532,660.897-9.354,661.733-9.035,662.495z"/>
	<path fill="#FFFFFF" d="M84.847,651.78c-4.544,0-8.241,3.697-8.241,8.241c0,4.545,3.697,8.242,8.241,8.242s8.241-3.697,8.241-8.242
		C93.088,655.478,89.392,651.78,84.847,651.78z M86.462,653.666c0.556-0.068,1.148,1.021,1.322,2.436
		c0.175,1.413-0.135,2.615-0.69,2.684c-0.556,0.068-1.148-1.022-1.322-2.436C85.597,654.936,85.907,653.734,86.462,653.666z
		 M81.695,654.377c0.556-0.068,1.148,1.022,1.322,2.437c0.174,1.413-0.136,2.614-0.691,2.684c-0.557,0.067-1.148-1.022-1.322-2.437
		C80.83,655.648,81.138,654.446,81.695,654.377z M92.132,659.574c-0.025,0.195-0.193,0.338-0.385,0.338
		c-0.017,0-0.034,0-0.051-0.003l-0.174-0.022c0.008,0.539-0.043,1.463-0.375,2.465c-0.478,1.439-1.646,3.31-4.5,4.044
		c-0.726,0.188-1.393,0.269-2.002,0.269c-2.199,0-3.658-1.064-4.551-2.086c-0.984-1.125-1.453-2.367-1.605-2.838l-0.263,0.078
		c-0.037,0.011-0.075,0.016-0.112,0.016c-0.167,0-0.321-0.109-0.372-0.277c-0.061-0.205,0.056-0.422,0.261-0.483l1.229-0.366
		c0.206-0.062,0.422,0.055,0.483,0.261c0.062,0.206-0.055,0.421-0.262,0.483l-0.221,0.066c0.141,0.425,0.576,1.565,1.461,2.568
		c1.45,1.645,3.387,2.168,5.759,1.558c2.019-0.521,3.349-1.71,3.956-3.537c0.324-0.976,0.347-1.873,0.333-2.321l-0.319-0.041
		c-0.213-0.027-0.363-0.222-0.335-0.435s0.223-0.363,0.435-0.335l1.272,0.164C92.009,659.166,92.159,659.361,92.132,659.574z"/>
	<g>
		<polygon fill="#FFFFFF" points="23.861,24.04 23.861,38.876 31.062,32.001 		"/>
		<path fill="#FFFFFF" d="M33.798,34.132c-1.069,0-2.264-1.648-2.264-1.648l-7.232,6.955h18.677l-7.012-6.955
			C35.967,32.483,34.867,34.132,33.798,34.132z"/>
		<path fill="#FFFFFF" d="M33.671,31.614c0.567,0,0.85-0.079,1.101-0.401l8.647-8.562c0,0,0-0.645-0.943-0.645H24.994
			c0,0-0.551,0.102-0.818,0.443l8.49,8.562C32.665,31.011,33.105,31.614,33.671,31.614z"/>
		<polygon fill="#FFFFFF" points="43.608,38.876 43.608,24.322 36.344,32.162 		"/>
	</g>
	<path fill="#FFFFFF" d="M67.514,38.887c0.817,0,1.613-0.081,2.397-0.199h-4.794C65.901,38.807,66.697,38.887,67.514,38.887z"/>
	<path fill="#FFFFFF" d="M56.612,0.412c-0.93,0.625-2.262,0.834-2.262,0.834c-0.449-0.594-2.792-1.926-4.686-0.353
		c-1.893,1.571-1.275,3.625-1.275,3.625C43.829,4.278,41.205,0.8,41.205,0.8c-1.576,2.804,1.023,4.681,1.023,4.681
		c-0.746-0.024-1.563-0.434-1.563-0.434c0.023,2.817,2.72,3.466,2.72,3.466c-0.217,0.241-1.468,0.145-1.468,0.145
		c0.721,2.335,3.224,2.382,3.224,2.382c-2.118,1.806-5.126,1.469-5.126,1.469c2.214,1.877,8.352,2.624,12.083-0.963
		c3.73-3.586,3.266-7.927,3.266-7.927c1.106-0.786,1.748-1.812,1.748-1.812c-0.609,0.353-1.925,0.527-1.925,0.527
		C56.308,1.612,56.612,0.412,56.612,0.412z"/>
	<path fill="#FFFFFF" d="M3.215,0.834C2.227,1.822,2.317,3.125,2.317,3.125v1.993h-2.15v2.466h2.16v6.395h2.578V7.596h2.131
		l0.312-2.478H4.917V3.517c0-0.112-0.029-0.565,0.247-0.883C5.44,2.317,6.028,2.329,6.028,2.329h1.401V0.104
		C5.535-0.061,4.204-0.155,3.215,0.834z"/>
	<g>
		<circle fill="#FFFFFF" cx="18.445" cy="1.884" r="1.672"/>
		<rect x="16.991" y="4.816" fill="#FFFFFF" width="2.887" height="9.26"/>
		<path fill="#FFFFFF" d="M28.736,4.816c-2.134-0.594-3.538,0.094-4.281,1.31v-1.31h-2.768v9.26h2.876V9.298
			c0,0-0.108-2.161,1.621-2.161c1.727,0,1.606,1.634,1.606,2.173v4.765h2.902V9.055C30.693,9.055,30.868,5.409,28.736,4.816z"/>
	</g>
</g>
</svg>
