<?xml version="1.0" encoding="utf-8"?>
<!-- Generator: Adobe Illustrator 16.0.0, SVG Export Plug-In . SVG Version: 6.00 Build 0)  -->
<!DOCTYPE svg PUBLIC "-//W3C//DTD SVG 1.1//EN" "http://www.w3.org/Graphics/SVG/1.1/DTD/svg11.dtd">
<svg version="1.1" xmlns="http://www.w3.org/2000/svg" xmlns:xlink="http://www.w3.org/1999/xlink" x="0px" y="0px"
	 width="14.333px" height="14.015px" viewBox="0 0 14.333 14.015" enable-background="new 0 0 14.333 14.015" xml:space="preserve">
<g id="Layer_2">
	<rect x="-61.833" y="44.848" fill="#474848" width="302" height="701"/>
</g>
<g id="Layer_1">
	<path fill="#FFFFFF" d="M-19.73,687.598c-8.836,0-16,7.163-16,16s7.164,16,16,16s16-7.163,16-16S-10.895,687.598-19.73,687.598z
		 M-22.296,706.744l-3.448,1.271c0,0-1.101,0.392-0.44,0.808c0.661,0.416,1.858,0.049,2.103-0.074l1.712-0.659v1.956
		c0,0-0.612,0.073-1.834,0.098c-1.223,0.025-3.521-0.122-5.112-1.125c-1.59-1.003,0.685-2.152,1.467-2.421l5.552-2.079V706.744z
		 M-18.089,698.477v13.721l-3.522-1.271v-16.117c0,0,3.914,0.807,5.307,1.442c1.395,0.636,3.669,1.663,3.669,5.038
		s-1.956,3.619-2.519,3.619s-1.248-0.391-1.419-0.562v-5.941c0,0-0.22-0.809-0.88-0.809S-18.065,698.331-18.089,698.477z
		 M-7.916,707.526c-0.098,1.297-2.617,1.811-3.937,2.349c-1.321,0.538-5.553,2.104-5.553,2.104v-2.152l5.919-2.251
		c0.685-0.269,0.343-0.415,0.221-0.586c-0.123-0.172-1.174-0.147-1.614-0.123s-1.81,0.562-2.47,0.857
		c-0.661,0.292-2.006,0.658-2.006,0.658v-2.102c1.101-0.416,1.933-0.562,1.933-0.562c1.247-0.172,2.666-0.246,3.668-0.196
		C-10.752,705.57-7.818,706.23-7.916,707.526z"/>
	<path fill="#FFFFFF" d="M200.167,643.849c-8.836,0-16,7.163-16,16s7.164,16,16,16s16-7.163,16-16S209.002,643.849,200.167,643.849z
		 M200.051,650.961c2.888,0,4.572,1.244,4.572,1.244c0.213,0.107-0.053,0.188-0.053,0.188c-0.108,0-0.362,0.014-0.362,0.014
		c-1.858,0.146-3.718,1.457-3.718,1.457c-0.12,0.08-0.268,0.161-0.414,0.161s-0.334-0.175-0.334-0.175s-0.909-0.548-1.965-1.002
		c-1.059-0.455-2.448-0.455-2.448-0.455C195.745,652.192,197.162,650.961,200.051,650.961z M192.91,664.95
		c-0.108-0.107-0.536-0.869-0.536-0.869c-0.842-1.457-1.443-4.105-0.896-6.405c0.549-2.3,2.543-4.253,2.543-4.253
		c0.333-0.281,0.641-0.174,0.787-0.146c0.148,0.026,0.67,0.307,0.67,0.307c0.842,0.496,2.62,2.261,2.62,2.261
		c-1.056,0.909-3.236,4.306-3.983,5.764c-0.75,1.458-0.95,3.156-0.95,3.156C193.204,665.297,192.91,664.95,192.91,664.95z
		 M200.371,668.734c-4.171-0.015-6.806-3.021-6.806-3.021c0.093-0.468,0.293-1.644,2.246-3.852c1.952-2.206,3.918-3.905,3.918-3.905
		c0.094-0.106,0.24-0.227,0.361-0.227s0.334,0.16,0.334,0.16c0.803,0.668,3.691,3.477,4.842,5.015
		c1.148,1.538,1.431,2.849,1.431,2.849S203.981,668.749,200.371,668.734z M207.352,664.817c0,0-0.067,0.133-0.201,0.105
		c-0.135-0.025-0.094-0.439-0.094-0.439s0.041-0.522-0.32-1.525c-0.361-1.004-1.471-3.477-3.879-6.338l-0.414-0.535
		c0,0-0.241-0.334,0.067-0.643c0.308-0.307,1.658-1.686,2.861-2.18c0,0,0.36-0.146,0.614,0c0.254,0.147,2.168,1.792,2.836,4.6
		C209.491,660.67,208.703,662.97,207.352,664.817z"/>
	<path fill="#FFFFFF" d="M156.188,651.119c-4.813,0-8.729,3.916-8.729,8.729s3.916,8.73,8.729,8.73c4.812,0,8.729-3.917,8.729-8.73
		S161,651.119,156.188,651.119z M153.814,652.438v2.479c-1.211,0.428-2.167,1.395-2.581,2.611h-2.473
		C149.29,654.991,151.284,652.987,153.814,652.438z M153.815,667.266c-2.51-0.545-4.49-2.52-5.039-5.027h2.48
		c0.425,1.188,1.369,2.129,2.559,2.549V667.266z M151.516,659.848c0-2.576,2.096-4.671,4.672-4.671s4.671,2.095,4.671,4.671
		s-2.095,4.671-4.671,4.671S151.516,662.424,151.516,659.848z M158.526,667.274v-2.476c1.203-0.414,2.162-1.361,2.59-2.56h2.48
		C163.044,664.756,161.049,666.741,158.526,667.274z M161.138,657.528c-0.417-1.229-1.386-2.201-2.611-2.622v-2.476
		c2.546,0.538,4.554,2.549,5.085,5.098H161.138z"/>
	<path fill="#FFFFFF" d="M156.188,655.981c-2.133,0-3.867,1.734-3.867,3.867s1.734,3.867,3.867,3.867
		c2.132,0,3.867-1.734,3.867-3.867S158.32,655.981,156.188,655.981z"/>
	<path fill="#FFFFFF" d="M156.188,643.848c-8.836,0-16,7.163-16,16s7.164,16,16,16s16-7.163,16-16S165.024,643.848,156.188,643.848z
		 M156.188,669.381c-5.258,0-9.533-4.276-9.533-9.533c0-5.258,4.275-9.533,9.533-9.533c5.257,0,9.533,4.275,9.533,9.533
		C165.721,665.105,161.445,669.381,156.188,669.381z"/>
	<path fill="#FFFFFF" d="M112.208,643.848c-8.836,0-16,7.163-16,16s7.164,16,16,16s16-7.163,16-16S121.043,643.848,112.208,643.848z
		 M119.56,654.443l-1.072-0.183c0,0-1.501-0.461-1.501,0.979v1.808h2.48v2.91h-2.449v8.516h-3.523v-8.547h-3.309v8.547h-3.557
		v-8.516h-1.773v-2.879h1.776v-2.728c0,0-0.093-1.194,0.796-2.083s1.625-1.072,2.451-1.041c0.828,0.03,2.91,0.244,2.91,0.244v2.88
		l-1.408-0.122c0,0-1.287-0.184-1.287,1.133v1.717h3.432v-2.973c0,0-0.078-1.057,0.734-1.869c0.812-0.811,1.654-1.01,2.298-1.01
		s3.002,0.215,3.002,0.215V654.443z"/>
	<path fill="#FFFFFF" d="M68.229,643.848c-8.836,0-16,7.163-16,16s7.164,16,16,16s16-7.163,16-16S77.064,643.848,68.229,643.848z
		 M68.229,669.384c-5.258,0-9.536-4.278-9.536-9.536s4.278-9.535,9.536-9.535s9.536,4.277,9.536,9.535
		S73.486,669.384,68.229,669.384z"/>
	<path fill="#FFFFFF" d="M24.249,643.848c-8.836,0-16,7.163-16,16s7.164,16,16,16s16-7.163,16-16S33.084,643.848,24.249,643.848z
		 M26.108,667.534c0,0.838-0.833,1.518-1.86,1.518c-1.027,0-1.86-0.68-1.86-1.518v-8.232c0-0.838,0.833-1.516,1.86-1.516
		c1.027,0,1.86,0.678,1.86,1.516V667.534z M24.249,656.016c-1.206,0-2.185-0.979-2.185-2.186s0.979-2.186,2.185-2.186
		c1.207,0,2.185,0.979,2.185,2.186S25.456,656.016,24.249,656.016z"/>
	<path fill="#FFFFFF" d="M-19.731,675.848c8.836,0,16-7.163,16-16s-7.164-16-16-16s-16,7.163-16,16S-28.567,675.848-19.731,675.848z
		 M-13.97,666.706c-0.812,0-1.471-0.659-1.471-1.473c0-0.812,0.659-1.471,1.471-1.471c0.813,0,1.472,0.658,1.472,1.471
		C-12.498,666.046-13.157,666.706-13.97,666.706z M-25.148,652.583c0.812,0,1.472,0.66,1.472,1.473s-0.659,1.471-1.472,1.471
		c-0.813,0-1.471-0.658-1.471-1.471S-25.961,652.583-25.148,652.583z M-27.765,654.927c0.344,1.028,1.269,1.783,2.389,1.876
		c0.077,0.006,0.15,0.023,0.229,0.023c1.528,0,2.771-1.244,2.771-2.771c0-0.014-0.004-0.027-0.004-0.041
		c-0.017-1.135-0.716-2.106-1.707-2.519c1.304-0.683,2.786-1.073,4.357-1.073c5.197,0,9.425,4.229,9.425,9.426
		c0,0.855-0.116,1.685-0.33,2.474c-0.182,0.669-0.438,1.309-0.756,1.911c-0.393-1.008-1.354-1.727-2.49-1.762
		c-0.03-0.001-0.058-0.01-0.088-0.01c-1.528,0-2.771,1.244-2.771,2.771c0,0.09,0.019,0.175,0.027,0.263
		c0.107,1.124,0.881,2.046,1.926,2.372c-1.438,0.891-3.13,1.405-4.943,1.405c-4.341,0-8.005-2.95-9.095-6.951
		c-0.215-0.789-0.33-1.618-0.33-2.474C-29.156,658.045-28.646,656.361-27.765,654.927z"/>
	<path fill="#FFFFFF" d="M-19.731,599.745c-8.836,0-16,7.163-16,16s7.164,16,16,16s16-7.163,16-16S-10.895,599.745-19.731,599.745z
		 M-19.17,623.376c-1.687,0.238-5.316-0.595-6.625-3.69c-1.309-3.093-0.495-5.452,0.674-6.961c0,0,0.535-0.694,0.774-0.535
		c0.199,0.133,0.021,0.436,0.021,0.436s-0.277,1.39-0.259,2.063c0.02,0.675,0.219,2.638,1.131,2.915c0,0,0.06-2.935,1.369-5.156
		c1.31-2.223,3.172-3.629,4.284-4.066c1.11-0.438,2.737-0.277,2.737-0.277s1.825,1.408,2.063,7.576
		C-12.764,621.85-17.484,623.139-19.17,623.376z"/>
	<path fill="#FFFFFF" d="M24.249,599.745c-8.836,0-16,7.163-16,16s7.164,16,16,16s16-7.163,16-16S33.084,599.745,24.249,599.745z
		 M34.238,617.817c0.028,0.209,0.044,0.422,0.044,0.637c0,1.833-1.07,3.545-3.015,4.817c-1.891,1.239-4.397,1.923-7.057,1.923
		c-2.66,0-5.167-0.684-7.057-1.923c-1.944-1.272-3.014-2.984-3.014-4.817c0-0.234,0.018-0.465,0.051-0.695
		c-0.36-0.312-1.171-1.139-1.171-2.281c0-1.188,0.784-2.489,2.506-2.543c0.048-0.002,1.031-0.017,1.74,0.631
		c1.797-1.143,4.127-1.793,6.612-1.846l1.829-5.145l4.357,1.082c0.29-0.792,1.05-1.361,1.944-1.361c1.143,0,2.073,0.93,2.073,2.072
		s-0.93,2.074-2.073,2.074c-1.111,0-2.018-0.878-2.069-1.977l-3.712-0.922l-1.487,4.179c2.433,0.085,4.708,0.741,6.465,1.872
		c0.709-0.677,1.721-0.662,1.767-0.66c1.724,0.054,2.508,1.355,2.508,2.543C35.478,616.7,34.55,617.56,34.238,617.817z"/>
	<path fill="#FFFFFF" d="M68.229,599.745c-8.836,0-16,7.163-16,16s7.164,16,16,16s16-7.163,16-16S77.064,599.745,68.229,599.745z
		 M72.68,617.245c0,0-1.48,0.955-3.152,0.955h-3.246l-1.027,4.823h-4.178l3.167-14.556h7.242c0,0,3.892,0.088,3.892,3.955
		C75.378,612.422,75.354,615.407,72.68,617.245z"/>
	<path fill="#FFFFFF" d="M70.069,611.396h-2.283l-0.859,4.011h1.814c0.835,0,2.579-0.645,2.579-2.315
		C71.319,611.419,70.069,611.396,70.069,611.396z"/>
	<path fill="#FFFFFF" d="M112.208,599.745c-8.836,0-16,7.163-16,16s7.164,16,16,16s16-7.163,16-16S121.043,599.745,112.208,599.745z
		 M106.061,618.913c-0.203-0.363-0.225-1.292-0.225-1.729c0-0.436,0.059-1.227,0.299-1.705c0.238-0.479,0.826-0.269,0.826-0.269
		l3.492,1.423c0,0,0.385,0.08,0.385,0.674c0,0.596-0.428,0.691-0.428,0.691l-3.34,1.081
		C106.795,619.181,106.265,619.276,106.061,618.913z M111.506,624.096c-0.784,0-2.715-0.668-3.1-1.336c0,0-0.186-0.367,0.072-0.625
		l2.504-2.969c0,0,0.305-0.312,0.792-0.145c0.486,0.166,0.464,0.537,0.464,0.58v3.869
		C112.239,623.471,112.291,624.096,111.506,624.096z M111.819,615.37c-0.494,0.188-0.894-0.385-0.894-0.385l-3.681-5.764
		c0,0-0.159-0.232,0-0.494c0.16-0.262,0.559-0.566,1.83-0.943c1.27-0.377,1.908-0.428,2.338-0.371
		c0.428,0.059,0.471,0.451,0.479,0.596c0.008,0.146,0.377,6.644,0.377,6.644S112.312,615.181,111.819,615.37z M113.524,615.638
		c0.072-0.108,2.135-2.867,2.135-2.867s0.109-0.188,0.262-0.319c0,0,0.326-0.254,0.704-0.029s1.553,1.582,1.837,2.737
		c0,0,0.174,0.536-0.4,0.704c-0.573,0.166-3.672,0.922-3.672,0.922s-0.539,0.131-0.828-0.299
		C113.27,616.059,113.452,615.747,113.524,615.638z M118.512,620.314c-0.262,0.609-0.9,1.677-2.048,2.489
		c0,0-0.405,0.27-0.762-0.225s-2.048-3.303-2.048-3.303s-0.182-0.502,0.102-0.785s0.486-0.34,0.85-0.238l3.557,1.197
		C118.163,619.45,118.774,619.704,118.512,620.314z"/>
	<path fill="#FFFFFF" d="M156.188,599.745c-8.836,0-16,7.163-16,16s7.164,16,16,16s16-7.163,16-16S165.024,599.745,156.188,599.745z
		 M157.875,611.042c0,0,0.079-0.531-0.353-0.932c-0.432-0.402-1.472-0.374-1.472-0.374c-0.392,0-0.734-0.039-1.322,0.235
		c-0.588,0.275-0.824,1.05-0.824,1.05l-2.668-0.403c0.148-0.5,0.707-1.99,2.108-2.51c1.403-0.519,3.03-0.41,3.03-0.41
		c3.335-0.011,3.941,1.303,4.168,1.783c0.225,0.48,0.265,1.735,0.265,1.735l-0.049,3.805c0,0.245,0,1.079,0.167,1.806
		c0.168,0.725,0.529,1.254,0.529,1.254h-2.992c-0.078-0.127-0.371-1.108-0.371-1.108c-0.266,0.196-1.58,1.354-3.433,1.354
		c-1.854,0-3.833-0.804-3.833-3.068c0-2.267,2.342-2.844,3.902-3.109c1.559-0.264,3.167-0.677,3.167-0.677L157.875,611.042z
		 M163.782,621.491c-0.292,0.237-2.931,2.312-7.789,2.312c-4.86,0-7.59-2.329-9.609-3.895c0,0-0.146-0.255-0.09-0.419
		c0.039-0.122,0.309-0.072,0.417,0.037c0.11,0.109,4.259,2.875,9.335,2.857c5.078-0.02,7.28-1.511,7.463-1.603
		c0.182-0.09,0.555-0.19,0.71-0.035C164.372,620.899,164.073,621.254,163.782,621.491z M166.092,619.762
		c0.055,1.619-1.329,3.348-1.492,3.239c-0.164-0.109,0-0.491,0-0.491c0.218-0.564,0.438-1.328,0.562-1.93
		c0.129-0.601-0.381-0.764-0.709-0.764c-0.326,0-1.729,0.127-1.729,0.127c-0.528,0.055-0.2-0.327-0.2-0.327
		c1.456-0.655,2.876-0.583,2.876-0.583C166.202,618.997,166.092,619.762,166.092,619.762z"/>
	<path fill="#FFFFFF" d="M153.875,615.051c0,0.854,0.766,1.402,1.666,1.402c0.903,0,1.481-0.422,1.941-0.874
		c0.463-0.449,0.393-1.549,0.393-1.549v-0.813c-0.353,0.107-2.039,0.422-2.637,0.578
		C154.64,613.952,153.875,614.198,153.875,615.051z"/>
	<path fill="#FFFFFF" d="M191.141,613.842c-1.63,0-1.782,1.53-1.782,1.53h3.582C192.941,615.373,192.985,613.842,191.141,613.842z"
		/>
	<path fill="#FFFFFF" d="M197.319,613.868c-1.97,0.081-1.916,1.899-1.916,1.899c0.018,2.131,1.95,2.634,3.125,1.719
		C199.702,616.573,199.29,613.788,197.319,613.868z"/>
	<path fill="#FFFFFF" d="M201.59,616.975c0.035,0.762,0.896,1.228,2.158,0.842c1.262-0.385,1.101-1.809,1.101-1.809
		C202.118,615.982,201.554,616.214,201.59,616.975z"/>
	<path fill="#FFFFFF" d="M200.167,599.745c-8.836,0-16,7.163-16,16s7.164,16,16,16s16-7.163,16-16S209.002,599.745,200.167,599.745z
		 M197.606,618.721c-1.514,0-2.23-0.913-2.23-0.913c0.01,0.456-0.044,0.717-0.044,0.717h-1.173c0.021-0.25,0.033-1.197,0.039-2.337
		h-4.865c0,0,0.07,1.736,1.889,1.736c0,0,1.227,0.072,1.558-0.93h1.254c0,0-0.134,1.029-1.28,1.449
		c-1.146,0.422-3.277,0.547-4.271-1.003c0,0-0.367-0.617-0.367-1.575c0-0.959,0.386-1.907,1.316-2.445
		c0.932-0.537,2.785-0.483,3.564,0.036c0.688,0.459,1.13,1.067,1.206,2.239c0.009-2.166,0.002-4.755,0.002-4.755h1.21v3.008
		c0.519-0.796,2.372-1.28,3.626-0.563c1.253,0.716,1.549,1.996,1.343,3.16C200.176,617.709,199.12,618.721,197.606,618.721z
		 M204.993,618.516c-0.035-0.135-0.054-0.734-0.054-0.734c-0.752,0.823-1.118,0.787-2.122,0.932
		c-1.002,0.143-2.516-0.395-2.489-1.631c0.026-1.234,0.761-1.432,1.46-1.691c0.698-0.26,3.062-0.18,3.062-0.18
		c0-1.003-0.511-1.361-1.629-1.361c-1.12,0-1.235,0.807-1.235,0.807h-1.271c0,0,0.018-1.621,2.587-1.621
		c2.974,0,2.767,1.979,2.767,1.979s0,2.113,0,2.633s0.037,0.869,0.037,0.869H204.993z M208.485,620.549h-1.379l1.093-2.033
		l-2.804-5.274h1.389l2.095,4.119l2.052-4.138h1.289L208.485,620.549z"/>
	<path fill="#FFFFFF" d="M-19.731,555.814c-8.836,0-16,7.163-16,16s7.164,16,16,16s16-7.163,16-16S-10.895,555.814-19.731,555.814z
		 M-15.76,577.155c0,0-1.462-0.288-2.852-4.023l-1.263-2.779c0,0-0.92-2.508-3.898-2.508s-4.042,2.832-4.042,3.987
		s0.974,3.699,3.907,3.907c0,0,2.553,0.081,3.807-2.066c0,0,0.181-0.244,0.289-0.027l0.731,1.58c0,0,0.108,0.171-0.01,0.288
		c0,0-1.551,2.085-4.638,2.085c-3.085,0-5.964-2.445-5.964-5.803c0-3.355,2.815-5.766,6.172-5.766c3.357,0,4.764,2.247,5.549,3.952
		c0.785,1.706,1.57,3.519,1.706,3.83s0.677,1.719,1.773,1.896c1.096,0.176,2.829-0.136,2.829-1.692c0,0,0.203-0.947-1.529-1.421
		s-4.02-1.219-3.966-3.465s1.773-3.004,3.303-3.004c1.529,0,2.348,0.73,2.944,1.678c0,0,0.081,0.189-0.062,0.271l-1.143,0.575
		c0,0-0.183,0.095-0.298-0.074c-0.116-0.17-0.596-0.793-1.536-0.793c-0.941,0-1.394,0.738-1.394,1.375
		c0,0.636,0.588,1.068,2.125,1.488s3.451,1.078,3.451,3.568S-12.837,578.328-15.76,577.155z"/>
	<path fill="#FFFFFF" d="M24.249,555.814c-8.836,0-16,7.163-16,16s7.164,16,16,16s16-7.163,16-16S33.084,555.814,24.249,555.814z
		 M33.329,568.467c-0.157,0.707-0.759,1.726-2.589,2.354c0,0,1.019,4.787-3.715,7.533c-4.733,2.746-11.665-0.079-11.9-6.226
		c0,0-0.262-5.701,5.859-7.688c0,0,1.987-0.654,4.446,0.312v4.212c0,0-0.627-0.393-1.647-0.393c-1.021,0-3.061,0.575-3.793,2.118
		s-0.732,2.615,0.576,3.715c1.308,1.098,5.361,0.993,6.329-2.564v-6.434c0,0,1.962,1.072,3.218,1.596
		c1.255,0.523,2.275,0.654,2.693,0.732S33.485,567.76,33.329,568.467z"/>
	<path fill="#FFFFFF" d="M64.947,566.694c0,0-0.147-0.324,0.282-0.178c0,0,3.06,0.504,6.468,5.358c0,0,1.84,2.87,3.287,1.718
		c1.446-1.153,0.563-6.99-4.464-8.682c-5.027-1.692-9.784,2.402-9.515,7.357c0,0-0.024,0.906,0.663,1.104
		C62.354,573.567,65.946,572.843,64.947,566.694z"/>
	<path fill="#FFFFFF" d="M68.228,587.814c8.836,0,16-7.163,16-16s-7.164-16-16-16s-16,7.163-16,16S59.392,587.814,68.228,587.814z
		 M68.228,562.606c5.086,0,9.208,4.122,9.208,9.208c0,5.085-4.122,9.208-9.208,9.208c-5.085,0-9.209-4.123-9.209-9.208
		C59.019,566.728,63.142,562.606,68.228,562.606z"/>
	<path fill="#FFFFFF" d="M112.208,555.814c-8.836,0-16,7.163-16,16s7.164,16,16,16s16-7.163,16-16S121.043,555.814,112.208,555.814z
		 M101.527,575.077c-0.009,0.123-0.062,0.289-0.114,0.289s-0.07-0.175-0.078-0.254c-0.01-0.078-0.123-0.99-0.123-1.209
		c0-0.221,0.114-1.045,0.114-1.045c0.017-0.069,0.034-0.174,0.104-0.174s0.088,0.156,0.088,0.156s0.132,0.58,0.132,1.026
		C101.65,574.314,101.527,575.077,101.527,575.077z M102.374,575.708c-0.014,0.179-0.09,0.421-0.167,0.421
		c-0.076,0-0.102-0.255-0.114-0.37c-0.014-0.114-0.179-1.442-0.179-1.761c0-0.32,0.165-1.838,0.165-1.838
		c0.026-0.104,0.052-0.256,0.154-0.256c0.102,0,0.127,0.229,0.127,0.229s0.191,1.161,0.191,1.812S102.374,575.708,102.374,575.708z
		 M103.253,576.053c-0.013,0.179-0.089,0.421-0.165,0.421c-0.078,0-0.104-0.255-0.115-0.37c-0.014-0.115-0.18-1.787-0.18-2.105
		c0-0.32,0.166-2.171,0.166-2.171c0.025-0.102,0.051-0.255,0.154-0.255c0.102,0,0.127,0.229,0.127,0.229s0.191,1.493,0.191,2.145
		S103.253,576.053,103.253,576.053z M104.122,576.156c-0.013,0.179-0.09,0.421-0.166,0.421s-0.103-0.256-0.115-0.37
		c-0.013-0.115-0.178-1.89-0.178-2.208c0-0.32,0.165-2.26,0.165-2.26c0.026-0.102,0.052-0.255,0.153-0.255
		c0.103,0,0.128,0.229,0.128,0.229s0.191,1.582,0.191,2.233S104.122,576.156,104.122,576.156z M105.014,576.156
		c-0.012,0.179-0.089,0.421-0.165,0.421c-0.077,0-0.103-0.256-0.114-0.37c-0.014-0.115-0.18-1.89-0.18-2.208
		c0-0.32,0.166-2.119,0.166-2.119c0.025-0.103,0.051-0.256,0.153-0.256s0.128,0.23,0.128,0.23s0.191,1.441,0.191,2.093
		S105.014,576.156,105.014,576.156z M105.909,576.156c-0.013,0.179-0.09,0.421-0.166,0.421s-0.102-0.256-0.115-0.37
		c-0.013-0.115-0.178-2.272-0.178-2.591c0-0.32,0.165-3.179,0.165-3.179c0.026-0.103,0.052-0.256,0.153-0.256
		c0.103,0,0.128,0.229,0.128,0.229s0.19,2.502,0.19,3.154C106.086,574.215,105.909,576.156,105.909,576.156z M106.891,576.002
		c-0.038,0.472-0.102,0.587-0.229,0.587s-0.204-0.498-0.218-0.689c-0.012-0.191-0.127-2.067-0.152-2.744
		c0,0,0.127-2.706,0.152-3.025c0.026-0.319,0.039-0.74,0.18-0.74s0.229,0.28,0.229,0.728s0.103,2.463,0.103,2.975
		C106.956,573.602,106.93,575.53,106.891,576.002z M107.772,576.04c-0.039,0.473-0.102,0.524-0.229,0.524s-0.204-0.435-0.218-0.626
		c-0.012-0.191-0.127-2.209-0.152-2.885c0,0,0.127-3.024,0.152-3.344s0.039-0.74,0.18-0.74s0.229,0.28,0.229,0.727
		c0,0.447,0.104,2.783,0.104,3.293C107.836,573.5,107.811,575.568,107.772,576.04z M108.729,575.926
		c-0.037,0.472-0.127,0.638-0.255,0.638s-0.217-0.473-0.229-0.663c-0.013-0.192-0.09-2.172-0.115-2.848c0,0,0.064-3.024,0.09-3.344
		s0.102-0.855,0.242-0.855s0.242,0.408,0.242,0.855c0,0.446,0.09,2.77,0.09,3.279C108.793,573.5,108.768,575.454,108.729,575.926z
		 M109.597,576.27c0,0-0.013,0.332-0.217,0.332s-0.255-0.23-0.269-0.345c-0.012-0.114-0.089-3.536-0.089-3.842
		c0-0.307,0.103-2.72,0.103-2.923c0-0.205,0.038-0.574,0.255-0.574c0.204,0,0.255,0.293,0.255,0.434c0,0.14,0.076,2.643,0.076,3.178
		C109.711,573.067,109.75,575.313,109.597,576.27z M110.542,576.194c-0.051,0.306-0.141,0.396-0.268,0.396s-0.268-0.281-0.268-0.524
		c0-0.242-0.077-2.973-0.064-3.649c0,0,0.09-2.311,0.102-2.897c0,0,0.014-0.447,0.23-0.447s0.294,0.281,0.294,0.447
		c0,0,0.089,2.157,0.089,3.332C110.657,574.024,110.593,575.887,110.542,576.194z M111.487,576.194
		c-0.076,0.408-0.153,0.408-0.243,0.408c-0.089,0-0.318-0.141-0.318-0.498s-0.064-3.217-0.064-4.098s0.077-3.178,0.077-3.331
		s0.089-0.497,0.306-0.497c0.192,0,0.269,0.242,0.269,0.42c0,0.179,0.076,2.643,0.076,3.549S111.563,575.785,111.487,576.194z
		 M112.469,576.104c0,0.294-0.102,0.473-0.318,0.473c-0.218,0-0.307-0.205-0.307-0.408c0-0.205-0.115-2.209-0.115-3.18
		c0-0.969,0.09-4.059,0.09-4.313s0.012-0.995,0.344-0.995s0.32,0.664,0.32,0.932s0.051,3.994,0.051,3.994
		C112.559,573.284,112.469,575.81,112.469,576.104z M120.741,576.627c0,0-7.314,0-7.672,0s-0.369-0.37-0.369-0.37v-8.642
		c0.012-0.166,1.99-1.314,4.365,0.025c2.373,1.34,2.361,3.727,2.361,3.727c1.033-0.522,3.777-0.088,3.777,2.427
		C123.204,576.308,120.741,576.627,120.741,576.627z"/>
	<path fill="#FFFFFF" d="M156.188,555.814c-8.836,0-16,7.163-16,16s7.164,16,16,16s16-7.163,16-16S165.024,555.814,156.188,555.814z
		 M163.607,577.578c-0.269,1.166-1.167,2.118-2.729,2.084c0,0-0.845,0.07-1.527-0.755l-3.915-4.886l-0.018,2.963
		c0,0,0.018,1.581-1.061,2.246c-1.077,0.664-2.909,0.808-3.825-1.168c0,0-0.197-0.683-0.214-1.113v-10.185
		c0,0-0.019-1.634,1.167-2.443c1.186-0.808,3.035-0.377,3.718,0.987c0,0,0.251,0.378,0.216,1.258v2.677l2.909-4.186
		c0,0,0.701-1.082,2.066-1.143s2.694,1.286,2.623,2.544c-0.072,1.258-0.63,1.688-0.63,1.688l-2.388,3.448l3.233,4.132
		C163.231,575.727,163.878,576.409,163.607,577.578z"/>
	<circle fill="#FFFFFF" cx="205.057" cy="568.464" r="1.284"/>
	<circle fill="#FFFFFF" cx="195.962" cy="568.464" r="1.284"/>
	<path fill="#FFFFFF" d="M200.167,555.814c-8.836,0-16,7.163-16,16s7.164,16,16,16s16-7.163,16-16S209.002,555.814,200.167,555.814z
		 M208.186,571.574c-1.247,1.393-3.31,1.411-3.31,1.411h-3.525l2.187,6.636h-7.575v-2.17l-5.046,1.536v-5.895l5.027,1.41v-1.555
		c-0.922,0-2.261-0.325-3.381-1.572c-1.121-1.248-1.574-3.762-0.182-5.589c1.393-1.825,3.526-1.771,3.526-1.771
		c4.051,0.108,4.483,3.832,4.483,3.832h0.108c0.598-3.037,3.454-4.52,6.004-3.543c2.549,0.977,2.911,3.652,2.911,4.014
		C209.415,568.681,209.433,570.182,208.186,571.574z"/>
	<circle fill="#FFFFFF" cx="197.188" cy="523.586" r="1.42"/>
	<circle fill="#FFFFFF" cx="203.889" cy="522.325" r="1.42"/>
	<path fill="#FFFFFF" d="M200.167,511.625c-8.836,0-16,7.163-16,16s7.164,16,16,16s16-7.163,16-16S209.002,511.625,200.167,511.625z
		 M190.528,533.267l2.021-1.939l0.56,2.999L190.528,533.267z M197.708,536.268l-3.38-1.42l-0.82-4.401l2.68-2.56l2.761-0.5
		l1.521,8.381L197.708,536.268z M201.569,535.588l-1.84-9.762c0,0-0.82,0.939-1.939,1.1c-1.121,0.16-3.102-0.16-3.861-2.4
		c0,0-0.721-2.22,1.34-3.779c0,0,2.021-1.441,4.121,0.219c0,0,0.84,0.7,1.5-0.24s1.48-1.7,2.74-1.74
		c1.26-0.039,2.881,0.381,3.561,2.561c0.681,2.181-1.619,5.32-4.92,3.781l1.779,9.801L201.569,535.588z M209.372,533.087
		c-0.642,1.28-1.602,1.341-1.602,1.341l-2.68,0.479l-1.5-8.361l2.779-0.521c0.281-0.06,0.801,0.041,1.361,0.34
		c0.56,0.301,1.54,1.602,1.819,2.741C209.831,530.247,210.01,531.807,209.372,533.087z"/>
	<path fill="#FFFFFF" d="M156.188,511.625c-8.836,0-16,7.163-16,16s7.164,16,16,16s16-7.163,16-16S165.024,511.625,156.188,511.625z
		 M151.702,518.026c-0.191,0.22-0.219,1.03-0.219,1.03v1.896c0,0.481-0.357,0.413-0.357,0.413s-0.935,0-1.718,0
		c-0.783,0-1.388,0.316-1.388,0.316L151.702,518.026z M164.717,528.595c-0.041,1.209-0.288,3.312-0.577,4.699
		s-0.729,3.794-2.35,4.371c0,0-0.455,0.123-1.181,0.149c-0.729,0.029-3.148,0.181-3.932-0.727c0,0-0.604-0.591-0.577-1.855
		c0.027-1.264,0.055-2.42,1.869-2.598c0,0,0.894-0.042,1.292,0c0,0,0.164,0.041,0.123,0.165c-0.042,0.124-0.123,0.508-0.11,0.632
		c0.013,0.123,0.055,0.372,0.083,0.44c0.026,0.068-0.029,0.206-0.207,0.206c0,0-1.347-0.206-1.306,0.811
		c0.04,1.018,1.306,0.839,1.58,0.839c0.275,0,1.485,0,1.677-0.33c0.193-0.33,0.303-0.921,0.247-1.704
		c-0.054-0.783-0.083-2.131-1.498-2.241c0,0-2.734-0.137-3.188-1.057c0,0-0.371-0.51-0.33-1.678c0,0,0.021-0.196-0.055-0.196
		c-0.076,0-0.044,0.077-0.044,0.166c0,0.088-0.003,0.965-0.155,1.583c-0.151,0.619-0.301,1.43-0.749,1.663
		c-0.447,0.234-1.002,0.048-1.175,0.028c-0.171-0.021-2.274-0.345-3.766-0.79c-1.491-0.447-1.361-0.826-1.883-2.399
		c-0.522-1.572-0.79-4.301-0.831-4.769c-0.041-0.468-0.207-1.938,1.635-2.075h1.801c0,0,0.556,0.007,0.783-0.221
		c0.227-0.228,0.192-0.398,0.206-0.66c0.013-0.26,0-2.02,0-2.02s-0.096-1.417,1.732-1.58c1.828-0.165,3.655,0.137,3.903,1.565
		c0,0,2.362-0.039,3.71,0.221c1.347,0.262,2.02,0.288,2.502,0.99c0.48,0.7,0.467,2.074,0.522,2.831
		C164.526,523.811,164.759,527.384,164.717,528.595z"/>
	<path fill="#FFFFFF" d="M160.759,525.887c-0.961,0-1.112,0.771-1.209,1.237c0,0,1.306-0.248,2.172,0.247
		C161.722,527.372,161.722,525.887,160.759,525.887z"/>
	<path fill="#FFFFFF" d="M110.849,520.465h-5.056c-0.366,0-0.662,0.296-0.662,0.66v11.105c0,0.365,0.296,0.661,0.662,0.661h5.056
		c0.365,0,0.662-0.296,0.662-0.661v-11.105C111.511,520.761,111.214,520.465,110.849,520.465z"/>
	<path fill="#FFFFFF" d="M118.623,520.465h-5.057c-0.365,0-0.662,0.296-0.662,0.66v6.096c0,0.366,0.296,0.662,0.662,0.662h5.057
		c0.366,0,0.661-0.296,0.661-0.662v-6.096C119.284,520.761,118.989,520.465,118.623,520.465z"/>
	<path fill="#FFFFFF" d="M112.208,511.577c-8.836,0-16,7.163-16,16s7.164,16,16,16s16-7.163,16-16S121.043,511.577,112.208,511.577z
		 M120.667,535.373c0,0.366-0.296,0.662-0.661,0.662h-15.595c-0.366,0-0.661-0.296-0.661-0.662v-15.594
		c0-0.365,0.295-0.661,0.661-0.661h15.595c0.365,0,0.661,0.296,0.661,0.661V535.373z"/>
	<path fill="#FFFFFF" d="M68.228,543.577c8.836,0,16-7.163,16-16s-7.164-16-16-16s-16,7.163-16,16S59.392,543.577,68.228,543.577z
		 M72.064,520.915h6.555l-10.192,9.291l-3.098-3.277L72.064,520.915z M63.673,526.424l3.998,4.574l-3.494,3.24l-6.339-7.814H63.673z
		"/>
	<path fill="#FFFFFF" d="M27.689,523.941c0,0-1.015-1.212-1.769-0.033c-0.754,1.179-2.031,2.817-2.359,3.047s-1.212,0.982-2.162,0
		c-0.95-0.983-1.769-1.998-2.817-0.786c-1.049,1.212-2.228,3.211-2.785,5.012c0,0,1.441,3.211,8.223,3.211
		c6.78,0,8.616-3.112,8.616-3.112S32.275,527.872,27.689,523.941z"/>
	<path fill="#FFFFFF" d="M24.249,511.577c-8.836,0-16,7.163-16,16s7.164,16,16,16s16-7.163,16-16S33.084,511.577,24.249,511.577z
		 M24.021,535.538c-7.174,0-9.369-3.67-9.369-3.67s1.54-12.251,9.565-12.251c8.374,0,9.63,12.219,9.63,12.219
		S31.194,535.538,24.021,535.538z"/>
	<path fill="#FFFFFF" d="M-19.731,511.577c-8.836,0-16,7.164-16,16c0,8.837,7.164,16,16,16s16-7.163,16-16
		C-3.731,518.741-10.895,511.577-19.731,511.577z M-19.825,523.309c0,0-0.97,0.232-0.97,1.117v6.635c0,0-0.231,3.834-4.317,4.107
		c0,0-2.907,0.316-4.339-2.802c0,0-0.316-0.905-0.316-1.621l0.021-2.845h3.433v2.887c0,0,0.211,0.969,0.99,0.969
		c0.78,0,1.095-0.695,1.095-0.863v-6.51c0,0-0.21-1.728,1.622-3.434c1.833-1.706,5.182-1.348,6.552,0.863
		c0,0,0.801,0.948,0.801,2.486v1.327l-2.086,0.632l-1.327-0.653v-1.158C-18.666,524.447-18.688,523.309-19.825,523.309z
		 M-9.693,531.018c0,0-0.211,4.108-4.572,4.256c0,0-2.275,0.169-3.687-2.086c0,0-0.694-1.011-0.694-2.295v-2.928l1.328,0.609
		l2.105-0.59v2.844c0,0,0.065,1.012,1.033,1.012c0.969,0,1.011-0.906,1.011-0.906v-2.906h3.476V531.018z"/>
	<path fill="#FFFFFF" d="M200.167,467.555c-8.836,0-16,7.164-16,16c0,8.837,7.164,16,16,16s16-7.163,16-16
		C216.167,474.719,209.002,467.555,200.167,467.555z M197.832,479.37l6.135,3.573l-0.789,1.352l-6.135-3.645L197.832,479.37z
		 M196.199,482.845l6.825,1.872l-0.381,1.491l-6.839-1.886L196.199,482.845z M195.48,486.025l7.092,0.647l-0.141,1.533l-7.077-0.647
		L195.48,486.025z M195.297,488.628h7.12v1.52h-7.12V488.628z M204.825,492.54h-11.707v-7.345h1.181v6.162h9.344v-6.219h1.183
		V492.54z M204.205,482.731l-4.011-5.824l1.267-0.858l3.997,5.838L204.205,482.731z M205.738,481.804l-1.224-6.979l1.492-0.254
		l1.208,6.979L205.738,481.804z"/>
	<path fill="#FFFFFF" d="M156.188,467.555c-8.836,0-16,7.164-16,16c0,8.837,7.164,16,16,16s16-7.163,16-16
		C172.188,474.719,165.024,467.555,156.188,467.555z M163.188,480.486l-6,4.059h6l-12,8.051v-4.126l6-3.925h-6l5.934-4.059h-5.934
		v-3.972h12l-6.066,3.972H163.188z"/>
	<path fill="#FFFFFF" d="M112.964,467.555c-8.836,0-16,7.164-16,16c0,8.837,7.164,16,16,16s16-7.163,16-16
		C128.964,474.719,121.8,467.555,112.964,467.555z M119.659,480.198h-0.718l-0.287,0.287v6.139c0,0,0.144,0.467,0.431,0.467h0.574
		v1.4h-4.416v-1.363h0.826V480.7l-2.369,7.791h-1.58l-2.046-7.646v6.318h0.825v1.328h-3.697v-1.363h0.574
		c0,0,0.539-0.037,0.575-0.468v-6.246c0,0-0.18-0.396-0.719-0.431h-0.431v-1.365h4.596l1.579,5.602l1.472-5.602h4.811V480.198z"/>
	<path fill="#FFFFFF" d="M69.667,489.519c0.189-0.142,0.806-0.537,1.09-0.49c0,0,0.585-0.079,0.886,0.49
		c0,0,0.126,0.238,0.285,0.127s0.095-0.236,0.047-0.331c-0.047-0.095-0.205-0.728-1.122-0.728c-0.917,0-1.486,0.585-1.612,0.728
		c-0.126,0.141-0.158,0.284-0.063,0.378C69.272,489.788,69.477,489.661,69.667,489.519z"/>
	<path fill="#FFFFFF" d="M68.228,499.555c8.836,0,16-7.163,16-16s-7.164-16-16-16s-16,7.163-16,16S59.392,499.555,68.228,499.555z
		 M65.664,477.051c0.316-0.215,0.818-0.564,1.03-0.752c0.32-0.285,0.652-0.581,0.807-1.731c0,0,0.012-0.344,0.166-0.166
		c0.155,0.177,1.209,1.636,2.384,2.216c0.685,0.339,1.014,0.497,1.234,0.616c2.938,1.205,5.007,4.091,5.007,7.463
		c0,4.454-3.61,8.063-8.063,8.063c-4.453,0-8.063-3.61-8.063-8.063C60.165,481.142,62.468,478.122,65.664,477.051z"/>
	<path fill="#FFFFFF" d="M65.952,488.95c1.407,0.064,3.462-1.392,3.81-1.596c0.348-0.205,0.807-0.585,1.36-0.553
		c0.553,0.031,0.98,0.617,2.214,1.739c1.233,1.122,2.039-1.233,2.149-1.771c0.111-0.537,0.364-1.408-0.363-2.072
		c-0.729-0.663-1.929,0.427-2.183,0.571c-0.252,0.141-1.28,0.932-1.896,0.964c-0.617,0.031-1.834-0.98-2.213-1.25
		c-0.379-0.27-1.897-1.281-3.557-0.458c-1.66,0.822-1.597,2.402-1.597,2.402C63.77,488.38,64.545,488.886,65.952,488.95z"/>
	<path fill="#FFFFFF" d="M72.07,490.483c-0.096,0.064-0.711,0.396-1.866,0.522c-1.154,0.125-2.008-0.3-2.261-0.442
		c-0.252-0.143-0.411,0-0.411,0c-0.206,0.237-0.016,0.378-0.016,0.378c0.711,0.569,1.691,0.633,2.704,0.569
		c1.011-0.063,1.865-0.601,1.976-0.664c0.11-0.063,0.237-0.142,0.19-0.332C72.339,490.326,72.165,490.42,72.07,490.483z"/>
	<path fill="#FFFFFF" d="M24.249,467.555c-8.836,0-16,7.164-16,16s7.164,16,16,16s16-7.164,16-16S33.084,467.555,24.249,467.555z
		 M32.482,487.034c-0.451,1.064-1.094,2.02-1.914,2.84c-0.822,0.821-1.776,1.465-2.841,1.916c-1.102,0.465-2.271,0.701-3.479,0.701
		c-1.206,0-2.375-0.236-3.479-0.701c-1.064-0.451-2.02-1.095-2.84-1.916c-0.82-0.82-1.465-1.775-1.916-2.84
		c-0.464-1.102-0.702-2.271-0.702-3.479c0-1.206,0.238-2.377,0.702-3.479c0.451-1.064,1.096-2.02,1.916-2.84
		c0.82-0.821,1.776-1.465,2.84-1.914c1.103-0.467,2.272-0.704,3.479-0.704c1.207,0,2.376,0.237,3.479,0.704
		c1.065,0.449,2.02,1.093,2.841,1.914c0.82,0.82,1.463,1.775,1.914,2.84c0.466,1.102,0.702,2.272,0.702,3.479
		C33.185,484.762,32.949,485.932,32.482,487.034z"/>
	<path fill="#FFFFFF" d="M24.249,475.062c-4.684,0-8.493,3.81-8.493,8.493s3.81,8.494,8.493,8.494c4.685,0,8.494-3.811,8.494-8.494
		S28.933,475.062,24.249,475.062z M16.582,483.52c0-1.113,0.238-2.17,0.664-3.125l3.641,10.018
		C18.337,489.167,16.582,486.548,16.582,483.52z M24.249,491.188c-0.743,0-1.461-0.106-2.142-0.305l2.298-6.591l2.377,6.466
		C25.989,491.036,25.137,491.188,24.249,491.188z M25.336,479.995c0.117-0.022,0.698-0.092,0.827-0.092
		c0.128,0,0.314-0.105,0.314-0.373s-0.326-0.268-0.326-0.268c-0.221,0-1.596,0.104-2.061,0.104c-0.466,0-1.828-0.093-1.956-0.104
		c-0.128-0.012-0.385,0.047-0.385,0.314s0.281,0.326,0.281,0.326l0.802,0.081l1.2,3.261l-1.675,4.977l-2.758-8.163
		c-0.046-0.101,0.07-0.086,0.07-0.086c0.071-0.007,0.66-0.062,0.66-0.062s0.458,0,0.403-0.373c-0.053-0.373-0.457-0.256-0.457-0.256
		c-1.344,0.108-2.392,0.062-2.392,0.062l-0.081,0.023c1.365-2.115,3.741-3.514,6.445-3.514c2.01,0,3.839,0.773,5.206,2.039
		c-0.391-0.001-0.767,0.104-0.974,0.344c-0.443,0.514-0.792,1.083,0.291,2.771c1.083,1.688,0.534,3.121,0.534,3.121l-1.232,4.018
		L25.336,479.995z M31.019,480.02c0-0.033,0-0.068-0.003-0.105c0.574,1.075,0.899,2.303,0.899,3.605
		c0,2.811-1.512,5.268-3.767,6.602c0.592-1.721,1.866-5.436,1.974-5.748c0.14-0.407,0.489-1.397,0.489-1.397
		C31.159,481.719,31.019,480.02,31.019,480.02z"/>
	<path fill="#FFFFFF" d="M-16.607,485.639h-6.354c-1.054,0.291-0.817,1.107-0.817,1.107c0,0.686,0.87,0.896,0.87,0.896h6.46
		c0.923-0.211,0.817-1.08,0.817-1.08C-15.631,485.746-16.607,485.639-16.607,485.639z"/>
	<path fill="#FFFFFF" d="M-19.731,467.555c-8.836,0-16,7.164-16,16s7.164,16,16,16s16-7.164,16-16S-10.895,467.555-19.731,467.555z
		 M-11.255,487.117c0,0-0.263,4.165-4.824,4.903h-7.224c0,0-4.429-0.343-4.904-5.221v-3.717v-2.689c0,0-0.052-2.083,1.635-3.771
		c1.687-1.687,3.743-1.528,3.743-1.528h3.665c0,0,2.268,0.236,3.613,1.951c1.344,1.713,1.239,3.375,1.239,3.375
		s-0.013,0.486,0.315,0.816c0.331,0.33,0.766,0.29,0.766,0.29h1.001c0,0,0.382,0.013,0.66,0.29c0.277,0.277,0.316,0.554,0.316,0.764
		V487.117z"/>
	<path fill="#FFFFFF" d="M-22.987,481.527h3.374c0,0,0.896-0.053,0.896-1.001c0-0.95-0.922-1.082-0.922-1.082h-3.164
		c-1.029,0.185-0.976,1.082-0.976,1.082C-23.778,481.315-22.987,481.527-22.987,481.527z"/>
	<path fill="#FFFFFF" d="M200.167,423.458c-8.836,0-16,7.164-16,16s7.164,16,16,16s16-7.164,16-16S209.002,423.458,200.167,423.458z
		 M208.86,441.962c0,0-0.075,2.215-2.473,2.578l1.413,3.696c0,0,0.076,0.219-0.037,0.334c-0.116,0.115-0.287,0.029-0.345-0.057
		l-3.447-3.984h-6.198c0,0-1.263-0.069-1.85-0.875l-2.745,3.497c0,0-0.201,0.272-0.501,0.258s-0.501-0.344-0.416-0.73l1.104-3.812
		c0,0-1.892-0.889-1.892-2.807v-6.633c0,0-0.1-1.16,0.903-2.163s2.048-0.974,2.162-0.974h9.67c0,0,1.211,0.007,2.048,0.845
		c0.288,0.288,0.491,0.586,0.639,0.876l0.045-0.002c0,0,1.919,0.516,1.919,2.56V441.962z"/>
	<path fill="#FFFFFF" d="M196.231,442.11h8.021c2.035-0.245,2.021-2.106,2.021-2.106v-6.562c-0.101-2.034-2.09-2.134-2.09-2.134
		h-9.543c-1.903,0-2.162,2.12-2.162,2.12v6.346c-0.029,1.003,0.701,2.121,1.448,2.25c0.744,0.129,0.429,0.73,0.429,0.73
		l-0.501,1.947l1.833-2.306C195.944,442.052,196.231,442.11,196.231,442.11z M201.818,435.22h1.244
		c1.033,0.07,0.903,0.745,0.903,0.745c-0.128,1.002-1.332,0.845-1.332,0.845h-1.16L201.818,435.22z M202.633,437.598
		c1.032,0.07,0.903,0.745,0.903,0.745c-0.13,1.003-1.333,0.845-1.333,0.845h-1.16l0.344-1.589H202.633z M198.981,433.814h1.246
		c1.032,0.072,0.901,0.745,0.901,0.745c-0.128,1.004-1.33,0.847-1.33,0.847h-1.162L198.981,433.814z M198.537,436.107h1.246
		c1.032,0.071,0.901,0.745,0.901,0.745c-0.128,1.003-1.331,0.845-1.331,0.845h-1.161L198.537,436.107z M199.339,438.529
		c1.031,0.071,0.902,0.745,0.902,0.745c-0.13,1.003-1.333,0.844-1.333,0.844h-1.161l0.345-1.589H199.339z M195.828,433.814h1.248
		c1.03,0.072,0.902,0.745,0.902,0.745c-0.13,1.004-1.333,0.847-1.333,0.847h-1.16L195.828,433.814z M195.042,437.697l0.344-1.589
		h1.245c1.032,0.071,0.903,0.745,0.903,0.745c-0.129,1.003-1.333,0.845-1.333,0.845H195.042z"/>
	<path fill="#FFFFFF" d="M207.247,440.161c0,0,0,1.16-0.759,1.919c-0.761,0.76-1.548,1.003-2.321,1.003h-7.794l-0.17,0.216
		c0.143,0.139,0.832,0.772,1.545,0.772h6.39l2.823,3.224l-1.031-2.708c0,0-0.115-0.325-0.011-0.43
		c0.105-0.104,0.25-0.067,0.372-0.067c0,0,0.984-0.095,1.577-0.821c0.592-0.725,0.534-1.336,0.534-1.336v-7.507
		c0,0-0.144-1.283-1.281-1.847c0.095,0.332,0.126,0.632,0.126,0.863V440.161z"/>
	<path fill="#FFFFFF" d="M156.188,423.542c-8.836,0-16,7.164-16,16s7.164,16,16,16s16-7.164,16-16S165.024,423.542,156.188,423.542z
		 M152.471,439.317c-0.243,1.891-2.51,1.592-2.51,1.592h-2.188l0.647-2.995h2.349C152.714,438.048,152.471,439.317,152.471,439.317z
		 M150.797,436.59h-2.188l0.648-2.996h2.35c1.943,0.135,1.699,1.403,1.699,1.403C153.065,436.888,150.797,436.59,150.797,436.59z
		 M157.573,443.879c-0.244,1.89-2.51,1.592-2.51,1.592h-2.188l0.648-2.996h2.348C157.815,442.61,157.573,443.879,157.573,443.879z
		 M158.41,439.317c-0.243,1.891-2.511,1.592-2.511,1.592h-2.187l0.648-2.995h2.349C158.653,438.048,158.41,439.317,158.41,439.317z
		 M156.735,436.59h-2.186l0.648-2.996h2.348c1.943,0.135,1.701,1.403,1.701,1.403C159.002,436.888,156.735,436.59,156.735,436.59z
		 M163.781,442.125c-0.241,1.889-2.509,1.592-2.509,1.592h-2.188l0.648-2.996h2.348
		C164.024,440.856,163.781,442.125,163.781,442.125z M164.59,437.644c-0.241,1.89-2.51,1.591-2.51,1.591h-2.188l0.649-2.995h2.348
		C164.834,436.375,164.59,437.644,164.59,437.644z"/>
	<path fill="#FFFFFF" d="M112.202,455.542c8.836,0.003,16.002-7.158,16.005-15.995s-7.159-16.002-15.995-16.005
		s-16.002,7.158-16.005,15.995S103.366,455.54,112.202,455.542z M114.855,430.637c1.452,0,2.63,1.178,2.63,2.631
		c0,1.451-1.178,2.631-2.63,2.631c-1.454,0-2.632-1.18-2.632-2.631C112.223,431.815,113.401,430.637,114.855,430.637z
		 M109.864,441.008c1.301-2.57,0.574-2.963,2.571-5.02c0,0,2.298,2.359,7.287,1.512l0.454,1.937c0,0-2.117,0.816-5.201,0.453
		c0,0-0.938-0.091-0.938,0.635c0,0,0.061,0.333,0.393,0.635c0,0,1.784,1.785,2.329,2.51c0.544,0.727,1.36,2.118,1.813,3.901
		l-1.995,0.877c0,0-1.27-2.842-4.083-4.778c0,0-0.694-0.483-1.238,0.092c0,0-1.24,1.329-2.753,2.116
		c-1.513,0.785-3.659,0.847-3.659,0.847l-0.604-2.3C104.241,444.424,108.565,443.58,109.864,441.008z"/>
	<path fill="#FFFFFF" d="M68.228,455.543c8.836,0,16-7.164,16-16s-7.164-16-16-16s-16,7.164-16,16S59.392,455.543,68.228,455.543z
		 M74.068,433.573c0,0,0.101-1.218,1.217-1.04s0.38,2.484,0.38,2.484l-1.824,8.442c0,0-0.432-0.127-0.711-0.127L74.068,433.573z
		 M73.117,444.625c0.538,0,0.976,0.438,0.976,0.976c0,0.54-0.438,0.977-0.976,0.977c-0.539,0-0.976-0.437-0.976-0.977
		C72.141,445.063,72.578,444.625,73.117,444.625z M62.329,432.457l3.778,6.187l3.752-6.11c0,0,1.116,0.127,1.75,0.025l-4.69,7.909
		l0.051,6.161c0,0-0.583-0.329-1.774-0.025l0.151-6.009l-4.792-8.087C60.555,432.507,61.442,432.634,62.329,432.457z"/>
	<path fill="#FFFFFF" d="M24.249,423.543c-8.836,0-16,7.164-16,16s7.164,16,16,16s16-7.164,16-16S33.084,423.543,24.249,423.543z
		 M30.437,444.899c0,0-1.031,1.294-2.116,1.896c0,0,0.075,0.773,1.87,1.492c0,0,0.247,0,0.247,0.291v1.074
		c0,0,0.011,0.205-0.161,0.205c0,0-1.687,0.332-2.976-0.398c0,0-0.968-0.602-1.461-1.633c0,0-2.644,0.859-5.404-0.527
		c-2.761-1.385-3.718-3.277-4.341-4.727c-0.623-1.451-0.87-3.943,0.333-6.641c1.203-2.696,4.351-4.791,7.483-4.732
		c0,0,3.013-0.145,5.382,1.998c2.37,2.145,2.788,4.416,2.934,5.721C32.371,440.225,32.097,442.803,30.437,444.899z"/>
	<path fill="#FFFFFF" d="M28.181,438.393c-0.021-1.848-0.966-3.181-0.966-3.181c-1.354-2.04-3.374-1.825-3.374-1.825
		c-0.651-0.022-1.978,0.295-3.025,1.697c-1.047,1.401-1.063,3.336-1.063,3.336v2.594c0.065,1.822,0.99,3.143,0.99,3.143
		c1.379,1.943,3.248,1.838,3.248,1.838c0.516,0,0.919-0.137,0.919-0.137c-0.766-1.347-1.926-1.459-1.926-1.459
		c-0.152,0-0.121-0.193-0.121-0.193v-1.346c0-0.242,0.226-0.191,0.226-0.191c2.557-0.02,3.954,1.678,3.954,1.678
		c1.246-1.656,1.138-3.417,1.138-3.417V438.393z"/>
	<path fill="#FFFFFF" d="M-19.731,423.543c-8.836,0-16,7.164-16,16s7.164,16,16,16s16-7.164,16-16S-10.895,423.543-19.731,423.543z
		 M-13.354,447.431c0,0-4.284-0.077-6.222-0.077c-1.938,0-3.372-0.078-7.075,0.117v-0.893c0,0,1.066-0.252,1.299-0.31
		c0.232-0.058,0.91-0.097,0.91-1.065c0,0,0.059-2.598,0.059-5.834c0-3.237-0.059-5.428-0.059-5.428s0.097-0.93-1.104-1.066
		l-1.105-0.193v-0.91c0,0,3.877,0.096,7.288,0.096c3.412,0,5.505-0.174,5.814-0.251c0,0-0.193,2.81-0.291,4.476h-0.872
		c0,0-0.251-1.162-0.523-1.879c-0.272-0.717-0.698-1.299-1.532-1.299h-4.806c0,0-0.407,0.059-0.407,0.445v5.68
		c0,0,2.345,0.02,3.275-0.136c0.931-0.155,0.872-0.33,1.046-0.969l0.349-1.28h0.892c0,0-0.097,2.268-0.097,2.869
		s0.058,2.52,0.058,2.791h-0.949c0,0-0.078-0.427-0.233-1.046c-0.154-0.621-0.252-1.028-1.124-1.105c0,0-2.558-0.097-3.237-0.097
		v4.846c0,0-0.135,1.395,1.59,1.395h3.644c0,0,1.745,0.02,2.345-1.763l0.776-1.745h0.833
		C-12.811,442.799-13.141,445.823-13.354,447.431z"/>
	<path fill="#FFFFFF" d="M-19.731,379.305c-8.836,0-16,7.164-16,16s7.164,16,16,16s16-7.164,16-16S-10.895,379.305-19.731,379.305z
		 M-28.21,388.072h6.099l-6.099,14.488V388.072z M-18.212,402.582l-1.224-2.834h-3.083l2.766-6.506l4.103,9.34H-18.212z
		 M-11.251,402.56l-6.258-14.532h6.258V402.56z"/>
	<path fill="#FFFFFF" d="M27.135,388.642c-2.562,0.158-4.175,1.509-4.175,1.509c0.754,0.333,1.333,0.859,1.333,0.859
		c0.684-0.422,1.596-0.736,1.596-0.736c2.351-0.562,5.719,0.578,6.333,3.912c0.615,3.332-1.579,4.946-1.579,4.946
		c-3.947,3.053-6.946,0-6.946,0l-3.351-3.351c-0.122-0.123-0.544-0.316-0.965,0.105c-0.42,0.421-0.087,0.895-0.087,0.895
		l2.772,2.771c0.964,1,2.157,1.93,3.438,2.176c1.281,0.245,4.438,0.648,6.807-2.229c2.368-2.877,1.368-5.982,0.631-7.49
		C32.204,390.501,29.696,388.485,27.135,388.642z"/>
	<path fill="#FFFFFF" d="M20.715,400.413c-2.457,0.387-3.702-1.403-3.702-1.403c-2.262-2.911,0.316-5.333,0.316-5.333
		c2.491-2.49,5.314-0.158,5.314-0.158l2.421,2.439c0,0,0.474,0.49,0.982-0.018c0.508-0.509-0.053-1.105-0.053-1.105l-1.474-1.509
		c-0.614-0.649-3.491-3.421-6.824-1.632c-3.333,1.789-3.667,5.333-2.158,7.754c1.509,2.421,4.158,2.456,4.649,2.49
		c0.491,0.036,2.21,0.036,2.21,0.036C21.89,401.693,20.715,400.413,20.715,400.413z"/>
	<path fill="#FFFFFF" d="M24.249,379.305c-8.836,0-16,7.164-16,16s7.164,16,16,16s16-7.164,16-16S33.084,379.305,24.249,379.305z
		 M32.749,401.342c-2.333,2.246-5.526,2.158-5.526,2.158H20.03c-1.263,0.069-4.263-0.545-6.035-3.509
		c-1.771-2.965-0.315-6.368-0.315-6.368c2.649-5.034,7.509-3.945,7.509-3.945c3.193-3.281,7.192-2.492,7.192-2.492
		c6.139,1.211,7.017,6.438,7,8C35.362,396.747,35.082,399.096,32.749,401.342z"/>
	<path fill="#FFFFFF" d="M68.228,411.305c8.836,0,16-7.164,16-16s-7.164-16-16-16s-16,7.164-16,16S59.392,411.305,68.228,411.305z
		 M72.59,392.345c0,0,0.015-0.278,0.269-0.278h4.885v8.674c0,0-0.04,0.186-0.278,0.186h-4.862v-1.15c0,0,0.017-0.284,0.254-0.284
		h2.972v-0.833H72.59V392.345z M66.952,392.345c0,0,0.016-0.278,0.27-0.278h4.884v8.674c0,0-0.038,0.186-0.278,0.186h-4.861v-1.15
		c0,0,0.016-0.284,0.254-0.284h2.97v-0.833h-3.24V392.345z M64.428,389.938c0,0,0.023-0.254,0.255-0.254h1.659v1.156
		c0,0,0.023,0.264-0.292,0.264h-1.621V389.938z M64.428,392.323c0,0,0.023-0.256,0.255-0.256h1.659v6.352
		c0,0,0.023,0.264-0.292,0.264h-1.621V392.323z M58.71,392.315c0-0.201,0.24-0.238,0.24-0.238h2.982v-2.165
		c0-0.174,0.227-0.228,0.227-0.228h1.705l0.017,8.78c0,0.163-0.263,0.218-0.263,0.218H58.71V392.315z"/>
	<path fill="#FFFFFF" d="M68.826,393.711v3.488h1.113c0.177,0,0.223-0.209,0.223-0.209v-3.518h-1.107
		C68.819,393.473,68.826,393.711,68.826,393.711z"/>
	<path fill="#FFFFFF" d="M60.585,393.789v3.472h1.088c0.263,0,0.248-0.27,0.248-0.27v-3.457h-1.12
		C60.579,393.534,60.585,393.789,60.585,393.789z"/>
	<path fill="#FFFFFF" d="M74.465,393.711v3.488h1.111c0.177,0,0.224-0.209,0.224-0.209v-3.518h-1.107
		C74.457,393.473,74.465,393.711,74.465,393.711z"/>
	<path fill="#FFFFFF" d="M112.336,398.945c-0.994,0-1.674-0.122-2.219-1.211c-0.543-1.088-0.774-1.103-1.211-1.157
		c-0.434-0.054-1.578,0.436-0.883,1.934c0.693,1.496,2.652,2.217,4.543,2.096c1.893-0.123,4.125-0.83,4.125-3.389
		s-3.021-2.817-5.035-3.361c0,0-1.389-0.271-1.389-1.048s0.967-1.128,1.66-1.128c0.694,0,1.496-0.015,2.055,1.019
		c0.559,1.034,1.075,1.089,1.782,0.749c0,0,0.559-0.312,0.436-1.17c-0.122-0.857-1.415-2.368-4.327-2.232
		c-2.912,0.137-3.879,1.675-3.879,2.967c0,1.293,1.172,2.327,2.506,2.668c1.333,0.34,2.366,0.57,2.748,0.693
		c0.381,0.123,1.088,0.436,1.088,1.238S113.33,398.945,112.336,398.945z"/>
	<path fill="#FFFFFF" d="M112.208,411.305c8.836,0,16-7.164,16-16s-7.164-16-16-16s-16,7.164-16,16S103.372,411.305,112.208,411.305
		z M108.594,387.188c0.869,0,1.678,0.248,2.363,0.673c0.434-0.077,0.882-0.118,1.339-0.118c4.216,0,7.634,3.419,7.634,7.638
		c0,0.554-0.059,1.093-0.171,1.613c0.318,0.605,0.497,1.291,0.497,2.021c0,2.435-2.004,4.408-4.477,4.408
		c-0.768,0-1.49-0.191-2.122-0.526c-0.442,0.079-0.896,0.122-1.361,0.122c-4.216,0-7.634-3.42-7.634-7.638
		c0-0.526,0.053-1.038,0.154-1.535c-0.417-0.665-0.658-1.45-0.658-2.289C104.159,389.144,106.145,387.188,108.594,387.188z"/>
	<path fill="#FFFFFF" d="M156.188,379.305c-8.836,0-16,7.164-16,16s7.164,16,16,16s16-7.164,16-16S165.024,379.305,156.188,379.305z
		 M156.347,404.145c-1.552,0-3.072-0.396-4.417-1.146l-4.963,1.592l1.631-4.807c-0.86-1.414-1.312-3.031-1.312-4.701
		c0-4.996,4.064-9.062,9.062-9.062s9.062,4.065,9.062,9.062C165.409,400.081,161.344,404.145,156.347,404.145z"/>
	<path fill="#FFFFFF" d="M156.347,387.483c-4.19,0-7.601,3.408-7.601,7.6c0,1.503,0.438,2.955,1.266,4.201l0.199,0.299l-0.928,2.729
		l2.828-0.909l0.285,0.176c1.187,0.723,2.553,1.105,3.95,1.105c4.19,0,7.601-3.41,7.601-7.602S160.538,387.483,156.347,387.483z
		 M160.233,398.762c-0.658,0.413-1.242,0.607-1.913,0.475c-0.669-0.135-2.302-0.549-3.97-2.096c0,0-1.486-1.4-2.096-2.861
		s-0.061-2.485,0.475-2.996c0,0,0.354-0.329,0.621-0.318c0.268,0.013,0.537-0.011,0.646,0.051c0.109,0.06,0.134,0.145,0.182,0.207
		c0,0,0.695,1.606,0.756,1.752c0.061,0.146,0.086,0.318-0.037,0.525c-0.121,0.207-0.499,0.609-0.56,0.706
		c-0.062,0.097-0.159,0.17,0.013,0.426c0.17,0.256,0.925,1.705,3.008,2.57c0,0,0.219,0.098,0.39-0.073
		c0.17-0.17,0.62-0.756,0.683-0.828c0.061-0.074,0.231-0.268,0.512-0.146c0.279,0.121,1.766,0.828,1.766,0.828
		s0.207,0.074,0.193,0.39C160.89,397.69,160.89,398.348,160.233,398.762z"/>
	<path fill="#FFFFFF" d="M198.933,391.37h-2.792c0,0-0.482,0.015-0.482,0.581v2.651c0,0-0.013,0.609,0.525,0.609l1.983-0.015
		c0,0,0.101,0.979-0.892,1.234c0,0-0.34,0.113-0.34,0.339c0,0.227,0,0.667,0,0.667s0.042,0.312,0.354,0.27s2.068-0.439,2.141-2.494
		v-3.247C199.43,391.965,199.5,391.37,198.933,391.37z"/>
	<path fill="#FFFFFF" d="M200.167,379.305c-8.836,0-16,7.164-16,16s7.164,16,16,16s16-7.164,16-16S209.002,379.305,200.167,379.305z
		 M208.547,395.594c-0.315,2.588-2.314,5.045-2.314,5.045c-2.098,2.919-5.926,4.578-5.926,4.578c-0.141,0.071-0.127-0.1-0.127-0.1
		l-0.027-2.65c-4.713-0.007-8.533-3.83-8.533-8.546c0-4.72,3.826-8.546,8.547-8.546c4.72,0,8.546,3.826,8.546,8.546
		C208.712,394.494,208.655,395.053,208.547,395.594z"/>
	<path fill="#FFFFFF" d="M204.206,391.37h-2.792c0,0-0.481,0.015-0.481,0.581v2.651c0,0-0.016,0.609,0.523,0.609l1.984-0.015
		c0,0,0.1,0.979-0.893,1.234c0,0-0.34,0.113-0.34,0.339c0,0.227,0,0.667,0,0.667s0.042,0.312,0.354,0.27
		c0.312-0.042,2.069-0.439,2.14-2.494v-3.247C204.702,391.965,204.773,391.37,204.206,391.37z"/>
	<path fill="#FFFFFF" d="M-19.731,335.249c-8.836,0-16,7.164-16,16s7.164,16,16,16s16-7.164,16-16S-10.895,335.249-19.731,335.249z
		 M-11.714,353.11c0,0.092-0.075,0.166-0.167,0.166h-5.82v5.821c0,0.093-0.075,0.168-0.167,0.168h-3.723
		c-0.092,0-0.167-0.075-0.167-0.168v-5.821h-5.82c-0.093,0-0.167-0.074-0.167-0.166v-3.723c0-0.092,0.075-0.167,0.167-0.167h5.82
		v-5.821c0-0.092,0.075-0.167,0.167-0.167h3.723c0.092,0,0.167,0.075,0.167,0.167v5.821h5.82c0.093,0,0.167,0.075,0.167,0.167
		V353.11z"/>
	<path fill="#FFFFFF" d="M24.249,335.249c-8.836,0-16,7.164-16,16s7.164,16,16,16s16-7.164,16-16S33.084,335.249,24.249,335.249z
		 M20.852,351.189c0,0.183-0.018,0.364-0.049,0.538l5.82,2.965c0.548-0.511,1.281-0.824,2.089-0.824
		c1.694,0,3.067,1.374,3.067,3.068c0,1.693-1.373,3.066-3.067,3.066c-1.693,0-3.067-1.373-3.067-3.066
		c0-0.078,0.005-0.154,0.01-0.232l-6.022-3.066c-0.514,0.388-1.154,0.618-1.847,0.618c-1.694,0-3.067-1.372-3.067-3.066
		s1.373-3.067,3.067-3.067c0.774,0,1.481,0.288,2.021,0.762l5.854-3.027c-0.01-0.098-0.016-0.195-0.016-0.295
		c0-1.693,1.374-3.066,3.067-3.066c1.694,0,3.067,1.373,3.067,3.066c0,1.694-1.373,3.068-3.067,3.068
		c-0.785,0-1.5-0.297-2.042-0.781l-5.835,3.018C20.846,350.972,20.852,351.08,20.852,351.189z"/>
	<path fill="#FFFFFF" d="M68.228,367.249c8.836,0,16-7.164,16-16s-7.164-16-16-16s-16,7.164-16,16S59.392,367.249,68.228,367.249z
		 M61.946,342.123l4.179,1.213v10.293l-3.934,3.567l9.652-5.076l-2.607-1.19l-1.921-4.071l9.194,2.802v4.472l-10.383,6.24
		l-4.179-2.9V342.123z"/>
	<path fill="#FFFFFF" d="M112.208,367.249c8.836,0,16-7.164,16-16s-7.164-16-16-16s-16,7.164-16,16S103.372,367.249,112.208,367.249
		z M111.239,344.329l8.889-1.781v7.931l-8.889,0.067V344.329z M111.239,351.952l8.889,0.067v7.931l-8.889-1.815V351.952z
		 M104.288,345.573l5.562-1.16v6.184l-5.562,0.016V345.573z M104.288,351.852h5.562v6.131l-5.562-1.125V351.852z"/>
	<path fill="#FFFFFF" d="M156.188,335.249c-8.836,0-16,7.164-16,16s7.164,16,16,16s16-7.164,16-16S165.024,335.249,156.188,335.249z
		 M164.392,354.464h-2.319c0,0,0.529,0.997,0.998,1.776c0.471,0.777,1.027,1.614,1.027,1.614s0.338,0.47,0.029,0.806
		c-0.309,0.338-1.188,0.823-1.658,0.045l-1.38-3.154l-0.718-1.116h-8.131l-1.115,2.024c0,0-0.133,0.221-0.309,0.367
		c0,0-1.204,1.058-1.953,1.865c0,0-0.314,0.359-0.426,0.248c-0.108-0.109,0.016-0.482,0.06-0.675
		c0.044-0.19,0.455-1.908,0.455-1.908s0.132-0.688,0.249-0.88l0.559-1.013h-1.776v-3.214h3.654l2.363-4.24
		c0,0,0.483-0.969,1.556-0.338c1.071,0.631,0.293,1.584,0.293,1.584l-1.717,2.994h4.359c0,0-2.363-4.945-2.994-6.531
		c0,0-0.484-1.101-0.25-1.277c0.235-0.175,0.543-0.102,1.336,1.248c0,0,1.057,1.586,1.879,2.965c0.822,1.38,1.775,2.95,2.084,3.581
		h3.845V354.464z"/>
	<path fill="#FFFFFF" d="M200.167,335.249c-8.836,0-16,7.164-16,16s7.164,16,16,16s16-7.164,16-16S209.002,335.249,200.167,335.249z
		 M195.554,343.436l8.954,5.013l-2.151,2.149l-7.207-7.264C195.317,343.333,195.463,343.382,195.554,343.436z M194.109,358.416
		c-0.336-0.294-0.266-0.53-0.266-0.74v-13.087c0,0,0.036-0.366,0.301-0.587l7.375,7.435l-7.099,7.1
		C194.3,358.522,194.189,358.486,194.109,358.416z M195.75,358.88l6.606-6.605l1.904,1.921L195.75,358.88z M208.047,351.893
		l-2.848,1.567l-2.008-2.022l2.253-2.252l2.716,1.521c0,0,0.335,0.279,0.335,0.531C208.496,351.487,208.244,351.767,208.047,351.893
		z"/>
	<circle fill="#FFFFFF" cx="197.774" cy="301.243" r="0.446"/>
	<circle fill="#FFFFFF" cx="202.526" cy="301.243" r="0.446"/>
	<path fill="#FFFFFF" d="M200.167,291.056c-8.836,0-16,7.164-16,16s7.164,16,16,16s16-7.164,16-16S209.002,291.056,200.167,291.056z
		 M194.488,309.744c0,0.629-0.509,1.139-1.139,1.139c-0.628,0-1.139-0.51-1.139-1.139v-4.787c0-0.629,0.511-1.139,1.139-1.139
		c0.63,0,1.139,0.51,1.139,1.139V309.744z M205.366,311.565c-0.138,1.233-1.232,1.216-1.232,1.216h-0.875v2.691
		c-0.159,1.111-1.161,1.056-1.161,1.056c-1.171-0.072-1.155-1.15-1.155-1.15v-2.592h-1.579v2.559c0,0.297-0.226,1.178-1.188,1.178
		s-1.139-1.068-1.139-1.068v-2.668h-0.952c-1.056-0.148-1.134-1.133-1.134-1.133V304h10.416V311.565z M194.836,303.522
		c0.154-1.809,1.211-3.339,2.717-4.167c-0.002-0.003-0.004-0.006-0.008-0.01l-0.841-1.519c-0.044-0.08-0.016-0.18,0.063-0.225
		c0.08-0.043,0.18-0.015,0.225,0.064l0.842,1.519c0.005,0.007,0.008,0.015,0.01,0.023c0.698-0.33,1.479-0.515,2.306-0.515
		c0.816,0,1.591,0.185,2.282,0.513l0.83-1.475c0.045-0.079,0.146-0.107,0.225-0.062c0.08,0.044,0.107,0.145,0.064,0.225
		l-0.824,1.463c1.503,0.832,2.562,2.369,2.73,4.166H194.836z M208.123,309.744c0,0.629-0.511,1.139-1.139,1.139
		c-0.63,0-1.139-0.51-1.139-1.139v-4.787c0-0.629,0.509-1.139,1.139-1.139c0.628,0,1.139,0.51,1.139,1.139V309.744z"/>
	<path fill="#FFFFFF" d="M156.188,291.056c-8.836,0-16,7.164-16,16s7.164,16,16,16s16-7.164,16-16S165.024,291.056,156.188,291.056z
		 M159.637,298.431c0,3.899-3.449,3.981-3.449,3.981C156.188,298.762,159.637,298.431,159.637,298.431z M161.961,313.686
		c-1.017,1.416-2.088,2.487-3.812,1.707s-2.724-0.164-3.467,0.054c-0.745,0.218-1.418,0.672-2.869-0.889
		c-1.452-1.562-2.197-3.722-2.451-4.848s-0.576-4.062,1.199-5.836c1.773-1.775,3.738-1.153,4.201-0.972
		c0.464,0.182,1.371,0.463,1.371,0.463c0.582,0.082,0.926-0.227,1.779-0.536c0.854-0.308,1.979-0.399,3.214,0.127
		c1.234,0.526,1.634,1.38,1.634,1.38s-1.852,0.799-1.852,3.286c0,2.487,2.305,3.467,2.305,3.467S162.978,312.27,161.961,313.686z"/>
	<path fill="#FFFFFF" d="M112.208,323.056c8.836,0,16-7.164,16-16s-7.164-16-16-16s-16,7.164-16,16S103.372,323.056,112.208,323.056
		z M112.948,298.428h7.872v7.872h-7.872V298.428z M112.948,307.812h7.872v7.872h-7.872V307.812z M103.594,298.428h7.873v7.872
		h-7.873V298.428z M103.594,307.812h7.873v7.872h-7.873V307.812z"/>
	<path fill="#FFFFFF" d="M-20.108,322.72c8.836,0,16-7.164,16-16s-7.164-16-16-16s-16,7.164-16,16S-28.944,322.72-20.108,322.72z
		 M-28.209,298.619h16.202v16.201h-16.202V298.619z"/>
	<rect x="-20.108" y="306.735" fill="#FFFFFF" width="6.691" height="6.691"/>
	<rect x="-26.799" y="300.013" fill="#FFFFFF" width="6.691" height="6.691"/>
	<path fill="#FFFFFF" d="M-19.731,279.177c8.836,0,16-7.164,16-16s-7.164-16-16-16s-16,7.164-16,16S-28.567,279.177-19.731,279.177z
		 M-20.11,254.988c5.446,0,8.561,3.063,8.561,6.152c0,3.09-1.833,4.373-3.508,5.315c-1.675,0.943-4.169,0.295-4.169,0.295
		c0.354,1.374-0.51,4.692-3.201,4.614c-2.69-0.079-2.317-1.335-2.317-1.846c0-0.511,0.059-1.276,0.059-1.276l0.806,0.333
		c1.414,0.727,1.374-1.256,1.374-1.256v-7.737c1.787-0.334,3.083,0.04,3.083,0.04v4.653c0.766,0.314,1.335,0.393,2.258,0.314
		s2.611-0.903,2.611-3.004s-2.199-4.025-5.36-4.025c-3.161,0-5.105,2.435-5.105,3.869c0,1.433,0.825,2.238,0.825,2.238l-2.396,1.787
		c0,0-1.375-1.433-1.322-3.947C-27.845,258.288-25.555,254.988-20.11,254.988z"/>
	<path fill="#FFFFFF" d="M24.249,247.177c-8.836,0-16,7.164-16,16s7.164,16,16,16s16-7.164,16-16S33.084,247.177,24.249,247.177z
		 M30.267,257.675c1.577,0,2.854,1.278,2.854,2.854c0,1.576-1.277,2.854-2.854,2.854s-2.854-1.278-2.854-2.854
		C27.412,258.953,28.69,257.675,30.267,257.675z M23.65,258.809c1.408,0,2.548,1.141,2.548,2.548c0,1.407-1.14,2.548-2.548,2.548
		c-1.407,0-2.548-1.141-2.548-2.548C21.103,259.949,22.244,258.809,23.65,258.809z M17.644,259.773c1.27,0,2.3,1.03,2.3,2.3
		c0,1.271-1.03,2.3-2.3,2.3c-1.271,0-2.3-1.03-2.3-2.3C15.343,260.803,16.373,259.773,17.644,259.773z M20.191,268.467
		c0,0-0.042,0.211-0.254,0.211h-4.608c0,0-0.232-0.056-0.232-0.233v-0.995c0,0,0.127-2.434,2.562-2.541c0,0,0.935-0.066,1.75,0.749
		c0.815,0.814,0.783,1.735,0.783,1.735V268.467z M26.474,268.445c0,0-0.046,0.234-0.282,0.234h-5.106c0,0-0.257-0.062-0.257-0.258
		v-1.103c0,0,0.14-2.699,2.838-2.815c0,0,1.037-0.075,1.939,0.829c0.903,0.903,0.868,1.924,0.868,1.924V268.445z M33.402,268.418
		c0,0-0.051,0.26-0.312,0.26h-5.673c0,0-0.287-0.069-0.287-0.287v-1.225c0,0,0.157-2.998,3.154-3.127c0,0,1.151-0.083,2.155,0.92
		c1.004,1.004,0.964,2.138,0.964,2.138V268.418z"/>
	<path fill="#FFFFFF" d="M68.228,279.177c8.836,0,16-7.164,16-16s-7.164-16-16-16s-16,7.164-16,16S59.392,279.177,68.228,279.177z
		 M59.185,260.994h2.01v2.355h14.068v-2.355h2.01v4.365H59.185V260.994z"/>
	<path fill="#FFFFFF" d="M23.76,306.702c-1.312,0-1.38,1.312-1.38,1.718c0,0.396,0.181,1.504,1.493,1.504
		c1.312,0,2.566-1.561,2.566-1.561S25.071,306.702,23.76,306.702z"/>
	<path fill="#FFFFFF" d="M31.358,306.702c-1.312,0-2.68,1.662-2.68,1.662s1.256,1.561,2.567,1.561c1.312,0,1.493-1.108,1.493-1.504
		C32.737,308.013,32.669,306.702,31.358,306.702z"/>
	<path fill="#FFFFFF" d="M24.249,291.056c-8.836,0-16,7.164-16,16s7.164,16,16,16s16-7.164,16-16S33.084,291.056,24.249,291.056z
		 M31.307,311.818c-1.867,0-3.186-1.565-3.722-2.183l-0.004,0.007c-0.531,0.61-1.854,2.193-3.731,2.193
		c-1.402,0-2.537-0.827-3.023-2.06c-0.042,0.094-0.069,0.205-0.121,0.286c-0.468,0.729-1.307,1.898-3.206,1.898
		c-1.898,0-3.59-1.101-3.59-3.068h1.953c0,0,0.22,1.472,1.583,1.472c0,0,1.678-0.055,1.678-1.885c0-1.83-2.174-2.49-3.123-1.004
		h-1.83l0.977-5.324h5.434v1.637h-4.003l-0.385,2.188c0,0,0.523-0.756,2.05-0.756c1.385,0,2.176,0.948,2.549,1.73
		c0.388-1.166,1.305-1.95,2.854-2.148c2.049-0.261,3.803,2.144,3.927,2.318l0.002-0.006c0,0,1.809-2.601,3.935-2.329
		c2.126,0.271,3.076,1.639,3.076,3.595C34.586,310.337,33.184,311.818,31.307,311.818z"/>
	<path fill="#FFFFFF" d="M73.225,309.269c1.788,0,2.034-1.51,2.034-2.05c0-0.555-0.093-2.342-1.88-2.342
		c-1.788,0-3.652,2.266-3.652,2.266S71.438,309.269,73.225,309.269z"/>
	<path fill="#FFFFFF" d="M63.178,309.269c1.787,0,3.498-2.126,3.498-2.126s-1.865-2.266-3.652-2.266c-1.788,0-1.88,1.788-1.88,2.342
		C61.144,307.758,61.391,309.269,63.178,309.269z"/>
	<path fill="#FFFFFF" d="M68.228,323.055c8.836,0,16-7.164,16-16s-7.164-16-16-16s-16,7.164-16,16S59.392,323.055,68.228,323.055z
		 M62.87,302.288c2.792-0.356,5.182,2.921,5.352,3.159l0.003-0.008c0,0,2.465-3.544,5.362-3.175c2.897,0.37,4.191,2.234,4.191,4.9
		s-1.911,4.685-4.469,4.685c-2.544,0-4.341-2.134-5.073-2.976l-0.004,0.009c-0.724,0.832-2.527,2.989-5.085,2.989
		s-4.469-2.019-4.469-4.685C58.678,304.522,59.973,302.658,62.87,302.288z"/>
	<polygon fill="#FFFFFF" points="107.379,257.664 104.688,257.664 107.599,261.677 104.445,265.889 107.136,265.889 
		109.473,262.669 110.377,262.669 110.377,260.751 109.473,260.751 	"/>
	<path fill="#FFFFFF" d="M112.208,279.177c8.836,0,16-7.164,16-16s-7.164-16-16-16s-16,7.164-16,16S103.372,279.177,112.208,279.177
		z M102.748,256.01h18.919v14.333l-6.108-3.043h-12.811V256.01z"/>
	<polygon fill="#FFFFFF" points="119.836,265.889 116.706,261.677 119.572,257.664 116.883,257.664 114.787,260.729 
		113.244,260.729 113.244,257.664 111.061,257.664 111.061,265.889 113.244,265.889 113.244,262.669 114.809,262.669 
		117.06,265.889 	"/>
	<path fill="#FFFFFF" d="M156.188,247.177c-8.836,0-16,7.164-16,16s7.164,16,16,16s16-7.164,16-16S165.024,247.177,156.188,247.177z
		 M163.726,272.336H157.1c-0.144,0-0.12-0.167-0.12-0.167l0.017-2.65c0-0.12,0.095-0.168,0.095-0.168l2.986-1.493
		c0.08-0.04,0.04-0.127,0.04-0.127l-0.279-0.567c-0.024-0.048-0.113-0.024-0.113-0.024l-2.578,1.309
		c-0.144,0.072-0.159-0.111-0.159-0.111v-0.838c0-0.095,0.126-0.159,0.126-0.159l1.654-0.871c0.056-0.032,0.04-0.12,0.04-0.12
		l-0.329-0.591c-0.031-0.064-0.126-0.016-0.126-0.016l-1.222,0.646c-0.135,0.056-0.143-0.104-0.143-0.104v-1.613
		c0-0.096-0.081-0.096-0.081-0.096h-1.796c-0.088,0-0.096,0.12-0.096,0.12v2.658c0,0.152-0.159,0.08-0.159,0.08l-1.246-0.861
		c-0.047-0.04-0.119,0.016-0.119,0.016l-0.359,0.527c-0.04,0.08,0.032,0.127,0.032,0.127l1.796,1.261
		c0.047,0.032,0.044,0.096,0.044,0.096v3.636c0,0.124-0.101,0.1-0.101,0.1h-6.259c-0.151,0-0.072-0.183-0.072-0.183l7.52-18.034
		c0,0,0.032-0.104,0.097-0.104c0.063,0,0.095,0.096,0.095,0.096l7.505,17.97C163.893,272.281,163.726,272.336,163.726,272.336z"/>
	<path fill="#FFFFFF" d="M200.167,247.177c-8.836,0-16,7.164-16,16s7.164,16,16,16s16-7.164,16-16S209.002,247.177,200.167,247.177z
		 M197.229,254.904c3.344-1.284,6.35,0.161,6.477,0.211c0.127,0.051,0.102,0.194,0.102,0.194v5.523c0,0.194-0.152,0.076-0.152,0.076
		l-6.426-5.835C197.1,254.957,197.229,254.904,197.229,254.904z M191.647,265.308c0,0-1.987-5.979,4.341-9.889
		c0,0,0.149-0.109,0.27,0l3.142,2.871c0,0,0.094,0.068,0,0.161l-7.583,6.899C191.816,265.35,191.698,265.468,191.647,265.308z
		 M195.65,270.569c0,0-0.025,0.101-0.178,0c0,0-2.194-1.174-3.394-3.995c0,0-0.059-0.167,0-0.22l3.436-3.116
		c0,0,0.136-0.093,0.136,0.059V270.569z M207.997,267.149c0,0-1.053,2.5-4.049,3.963c-2.995,1.464-5.81,0.766-7.296,0.135
		c0,0-0.09-0.056-0.09-0.203v-3.896c0,0,0-0.144,0.151-0.144h11.189C207.903,267.005,208.081,266.955,207.997,267.149z
		 M208.497,265.983c-0.051,0.107-0.152,0.107-0.152,0.107h-3.495c-0.107,0-0.112-0.135-0.112-0.135v-10.134
		c0.017-0.186,0.236,0,0.236,0c3.242,2.229,4.008,5.303,4.008,7.161C208.981,264.84,208.547,265.876,208.497,265.983z"/>
	<path fill="#FFFFFF" d="M200.167,202.718c-8.836,0-16,7.164-16,16s7.164,16,16,16s16-7.164,16-16S209.002,202.718,200.167,202.718z
		 M193.956,225.718l-2.418-4.12c0,0-0.049-0.142,0-0.234l5.542-9.604c0,0,0.113-0.113,0.177,0.014l2.417,4.162
		c0,0,0.062,0.106,0,0.227l-5.556,9.604C194.118,225.767,194.042,225.845,193.956,225.718z M208.773,222.134l-2.362,4.151
		c0,0-0.097,0.114-0.201,0.116l-11.089-0.003c0,0-0.154-0.042-0.076-0.16l2.4-4.173c0,0,0.06-0.108,0.195-0.113l11.096,0.016
		C208.736,221.968,208.842,221.996,208.773,222.134z M208.71,220.903l-4.813,0.006c0,0-0.123,0.002-0.195-0.113l-5.529-9.62
		c0,0-0.029-0.105,0.123-0.116l4.777-0.027c0,0,0.146,0.027,0.202,0.117l5.536,9.606
		C208.811,220.757,208.852,220.912,208.71,220.903z"/>
	<path fill="#FFFFFF" d="M156.188,202.718c-8.836,0-16,7.164-16,16s7.164,16,16,16s16-7.164,16-16S165.024,202.718,156.188,202.718z
		 M146.993,213.83l5.367-3.307c0,0,0.104-0.064,0.185,0l3.331,2.752c0,0,0.096,0.088,0,0.169l-5.383,3.282
		c0,0-0.093,0.052-0.186-0.04l-3.314-2.695C146.993,213.99,146.896,213.902,146.993,213.83z M147.239,219.952l3.049-2.586
		c0,0,0.1-0.052,0.165-0.02l5.061,3.061c0,0,0.085,0.073,0.021,0.137l-2.965,2.559c0,0-0.061,0.064-0.166,0.004l-5.168-3.033
		C147.235,220.073,147.186,220.004,147.239,219.952z M155.983,220.941v5.895c0,0,0,0.169-0.162,0.079l-5.08-3.125
		c0,0-0.115-0.066-0.115-0.169v-0.796c0,0,0.018-0.139,0.145-0.066l1.6,0.863c0,0,0.035,0.036,0.096-0.006l3.367-2.757
		c0,0,0.055-0.072,0.115-0.036C156.007,220.857,155.983,220.941,155.983,220.941z M161.75,223.621c0,0.103-0.115,0.169-0.115,0.169
		l-5.08,3.125c-0.163,0.091-0.163-0.079-0.163-0.079v-5.895c0,0-0.024-0.084,0.036-0.121s0.114,0.036,0.114,0.036l3.368,2.757
		c0.06,0.042,0.096,0.006,0.096,0.006l1.6-0.863c0.126-0.073,0.145,0.066,0.145,0.066V223.621z M165.141,220.073l-5.169,3.033
		c-0.104,0.061-0.165-0.004-0.165-0.004l-2.965-2.559c-0.064-0.064,0.02-0.137,0.02-0.137l5.061-3.061
		c0.065-0.032,0.166,0.02,0.166,0.02l3.049,2.586C165.19,220.004,165.141,220.073,165.141,220.073z M165.382,213.99l-3.313,2.695
		c-0.094,0.092-0.186,0.04-0.186,0.04l-5.383-3.282c-0.096-0.081,0-0.169,0-0.169l3.331-2.752c0.081-0.064,0.185,0,0.185,0
		l5.366,3.307C165.479,213.902,165.382,213.99,165.382,213.99z"/>
	<path fill="#FFFFFF" d="M112.208,234.718c8.836,0,16-7.164,16-16s-7.164-16-16-16s-16,7.164-16,16S103.372,234.718,112.208,234.718
		z M112.207,209.708c5.087,0,9.21,4.124,9.21,9.209c0,4.141-2.731,7.642-6.491,8.802c-0.438-0.131-0.437-0.521-0.437-0.521
		s0.033-2.027,0.033-2.737c0-0.709-0.608-1.521-0.608-1.521c3.583-0.288,4.157-2.636,4.157-4.326c0-1.689-0.963-2.602-0.963-2.602
		c0.338-1.437-0.068-2.366-0.068-2.366c-1.639,0.186-2.449,0.997-2.449,0.997s-1.064-0.389-2.417-0.389
		c-1.352,0-2.231,0.372-2.231,0.372c-1.283-1.115-2.517-0.963-2.517-0.963c-0.405,1.149-0.025,2.4-0.025,2.4
		c-1.015,1.039-0.989,2.763-0.989,2.763c0.152,4.081,4.132,4.145,4.132,4.145c-0.608,0.532-0.481,1.292-0.481,1.292
		c-0.063,0.013-0.165,0.076-0.405,0.19c-0.241,0.114-0.748,0.025-0.748,0.025c-1.091,0-1.406-0.786-1.635-1.065
		c-0.228-0.279-0.443-0.532-0.724-0.697c-0.278-0.165-1.089-0.329-1.013,0.051c0.075,0.38,0.76,0.19,1.191,1.243
		c0.431,1.052,0.836,1.368,1.406,1.584c0.57,0.215,1.812,0.025,1.812,0.025v1.825c-0.114,0.266-0.418,0.266-0.418,0.266
		l-0.014,0.019c-3.772-1.151-6.519-4.66-6.519-8.81C102.997,213.832,107.122,209.708,112.207,209.708z"/>
	<path fill="#FFFFFF" d="M66.255,220.365l-1.597-3.253c-2.95,1.616-1.919,4.142-1.919,4.142L66.255,220.365z"/>
	<path fill="#FFFFFF" d="M68.228,234.718c8.836,0,16-7.164,16-16s-7.164-16-16-16s-16,7.164-16,16S59.392,234.718,68.228,234.718z
		 M63.824,215.347l-0.875-1.939l2.694-0.633l0.97,1.845c0,0,3.522-0.922,7.685-0.074c0,0,2.869,0.485,5.273,3.637
		c0,0,0.465,0.829-0.424,1.112l-8.081,2.222l-2.708-4.909c0,0,1.252-0.384,3.03-0.323l1.617,2.444l3.395-0.768
		c0,0-2.061-3.374-8.93-1.778l3.01,5.496l-10.365,2.91c0,0-0.606,0.303-0.828-0.324C59.285,224.264,56.502,218.129,63.824,215.347z"
		/>
	<path fill="#FFFFFF" d="M22.434,219.195c0.063-0.223,0.986-2.639-0.954-4.134c-1.94-1.495-3.88-0.668-4.738,0.19
		c-0.859,0.859-1.701,2.798-0.318,4.643c1.383,1.844,3.784,1.224,3.784,1.224l3.514,3.132l9.206-7.505v-4.849l-9.078,9.651
		L22.434,219.195z"/>
	<path fill="#FFFFFF" d="M24.249,202.718c-8.836,0-16,7.164-16,16s7.164,16,16,16s16-7.164,16-16S33.084,202.718,24.249,202.718z
		 M33.389,217.176l-4.119,3.323l0.541,0.604l-5.692,5.692l-4.977-4.944c0,0-1.86,0.079-3.18-1.59
		c-1.32-1.669-1.033-4.038,0.318-5.39c1.351-1.352,3.688-1.812,5.596-0.254c0,0,0.843,0.748,1.241,1.765l0.985-0.954l2.464,2.4
		l6.821-7.186V217.176z"/>
	<path fill="#FFFFFF" d="M-19.731,234.718c8.836,0,16-7.164,16-16s-7.164-16-16-16s-16,7.164-16,16S-28.567,234.718-19.731,234.718z
		 M-13.086,212.862c0,0,0.003-0.003,0.006-0.007c0.001-0.001,0.004-0.003,0.005-0.004c0.005-0.005,0.011-0.011,0.018-0.018
		c0.002-0.002,0.006-0.005,0.008-0.008c0.011-0.01,0.023-0.021,0.038-0.034c0.001-0.001,0.003-0.002,0.004-0.003
		c0.013-0.011,0.029-0.022,0.045-0.034c0.005-0.003,0.011-0.007,0.017-0.011c0.015-0.01,0.031-0.02,0.047-0.029
		c0.006-0.003,0.011-0.006,0.018-0.01c0.022-0.012,0.047-0.023,0.071-0.032c0.005-0.001,0.01-0.003,0.014-0.004
		c0.021-0.008,0.044-0.014,0.068-0.019c0.008-0.002,0.017-0.003,0.025-0.005c0.022-0.004,0.046-0.006,0.07-0.007
		c0.008,0,0.016-0.001,0.024,0c0.004,0,0.009,0,0.014,0c0.02,0,0.04,0.003,0.06,0.006c0.004,0,0.008,0.001,0.013,0.002
		c0.023,0.004,0.047,0.011,0.071,0.02c0.006,0.002,0.011,0.004,0.017,0.006c0.023,0.009,0.045,0.019,0.068,0.031
		c0.003,0.001,0.006,0.003,0.009,0.004c0.025,0.014,0.05,0.031,0.076,0.05c0.005,0.005,0.012,0.01,0.018,0.015
		c0.026,0.021,0.053,0.043,0.079,0.069l1.503,1.504c0,0,0.258,0.451,0,0.708l-1.346,1.339l-7.378,7.342c0,0-0.003,0.002-0.007,0.004
		c-0.001,0.001-0.004,0.002-0.005,0.003c-0.004,0.002-0.01,0.006-0.017,0.009c-0.003,0.002-0.007,0.004-0.011,0.006
		c-0.007,0.003-0.015,0.007-0.024,0.012c-0.005,0.002-0.01,0.005-0.016,0.007c-0.01,0.004-0.021,0.009-0.032,0.013
		c-0.007,0.002-0.013,0.005-0.02,0.008c-0.014,0.005-0.03,0.011-0.046,0.016c-0.005,0.001-0.009,0.003-0.015,0.005
		c-0.021,0.006-0.044,0.013-0.069,0.018c-0.006,0.001-0.014,0.002-0.02,0.004c-0.018,0.003-0.037,0.006-0.057,0.009
		c-0.01,0.001-0.02,0.002-0.03,0.002c-0.018,0.002-0.036,0.003-0.055,0.003c-0.014,0-0.028,0-0.042,0c-0.009,0-0.017,0-0.026-0.001
		c-0.019-0.001-0.038-0.003-0.058-0.006c-0.006-0.001-0.013-0.001-0.02-0.002c-0.025-0.004-0.053-0.011-0.08-0.019
		c-0.005-0.001-0.01-0.003-0.016-0.005c-0.021-0.007-0.044-0.014-0.065-0.023c-0.009-0.004-0.019-0.008-0.027-0.013
		c-0.019-0.009-0.038-0.018-0.056-0.029c-0.01-0.006-0.02-0.011-0.029-0.018c-0.02-0.012-0.039-0.025-0.058-0.04
		c-0.009-0.006-0.018-0.012-0.026-0.019c-0.027-0.022-0.055-0.046-0.082-0.074l-4.77-4.727c0,0-0.312-0.419,0-0.73
		c0.312-0.312,1.493-1.493,1.493-1.493s0.004-0.003,0.007-0.006c0.001-0.001,0.003-0.002,0.004-0.003
		c0.003-0.003,0.009-0.008,0.016-0.012c0.002-0.002,0.005-0.004,0.008-0.006c0.008-0.006,0.019-0.013,0.029-0.02
		c0.002-0.002,0.004-0.003,0.006-0.005c0.014-0.009,0.03-0.018,0.047-0.027c0.003-0.002,0.008-0.004,0.011-0.006
		c0.014-0.007,0.028-0.014,0.044-0.021c0.006-0.003,0.013-0.005,0.019-0.008c0.017-0.006,0.033-0.012,0.05-0.018
		c0.005-0.002,0.011-0.004,0.018-0.006c0.023-0.007,0.048-0.013,0.074-0.017c0.003,0,0.007,0,0.011-0.001
		c0.022-0.003,0.044-0.005,0.068-0.005c0.015,0,0.03,0,0.046,0.001c0.003,0,0.007,0,0.011,0c0.021,0.002,0.043,0.005,0.064,0.01
		c0.006,0.001,0.012,0.003,0.017,0.004c0.018,0.005,0.036,0.01,0.054,0.017c0.005,0.002,0.011,0.004,0.017,0.006
		c0.022,0.009,0.045,0.02,0.068,0.033c0.004,0.002,0.008,0.005,0.012,0.008c0.02,0.011,0.039,0.024,0.058,0.039
		c0.006,0.004,0.013,0.009,0.019,0.014c0.023,0.019,0.047,0.039,0.071,0.062l2.986,2.944l5.534-5.534L-13.086,212.862z
		 M-28.281,217.227l7.054-7.054c0.824-0.824,2.158-0.824,2.981,0l3.195,3.195l-4.809,4.81l-2.256-2.223
		c-0.325-0.323-0.723-0.494-1.152-0.494c-0.591,0-1.001,0.327-1.112,0.427l-0.02,0.018l-0.019,0.02l-1.494,1.493
		c-0.618,0.618-0.518,1.512-0.099,2.076l0.046,0.062l0.055,0.055l4.771,4.728c0.357,0.357,0.806,0.548,1.294,0.548
		c0.514,0,0.893-0.217,0.997-0.284l0.093-0.059l0.079-0.078l7.38-7.344l0.104,0.104c0.823,0.823,0.824,2.158,0,2.981l-7.054,7.054
		c-0.823,0.824-2.158,0.823-2.981,0l-7.054-7.054C-29.104,219.385-29.104,218.05-28.281,217.227z"/>
	<path fill="#FFFFFF" d="M-19.731,190.917c8.836,0,16-7.164,16-16s-7.164-16-16-16s-16,7.164-16,16S-28.567,190.917-19.731,190.917z
		 M-24.075,169.189c0,0,0.431,3.723,1.257,5.824c0.827,2.101,1.974,4.169,2.96,5.315c0,0,1.527-1.209,2.769-3.883
		c0,0-2.96-1.559-2.96-5.442c0,0,0.159-4.265,3.724-4.265c3.564,0,3.755,3.12,3.755,3.883c0,0.765-0.255,2.292-0.637,2.896
		c0,0-1.496,0.414-2.451-0.796c0,0,0.382-0.732,0.382-1.941c0-1.21-0.605-1.623-1.146-1.623c-0.542,0-0.987,0.891-0.987,2.1
		c0,1.209,0.765,3.66,3.724,3.66h1.083v1.941c0,0-1.56,0.191-1.974,0.191c0,0-1.528,3.437-4.392,5.665c0,0-0.668,0.382-0.955,0.382
		s-1.05-0.35-1.496-0.795c-0.445-0.446-4.232-3.194-5.474-13.112H-24.075z"/>
	<path fill="#FFFFFF" d="M24.249,158.917c-8.836,0-16,7.164-16,16s7.164,16,16,16s16-7.164,16-16S33.084,158.917,24.249,158.917z
		 M17.702,173.786v0.98h-1.028v3.108h-1.389v-3.101h-0.849v-0.987h0.877v-0.504c0,0-0.076-1.402,1.574-1.402
		c0,0,0.532,0.007,0.857,0.09l-0.096,0.953c0,0-0.317-0.055-0.45-0.055c-0.13,0-0.482,0.104-0.504,0.525v0.394H17.702z
		 M19.691,177.874h-1.409v-5.891h1.409V177.874z M21.791,177.874h-1.409v-4.109h1.409V177.874z M21.791,173.102h-1.409v-1.036h1.409
		V173.102z M25.782,177.784c-0.325,0.125-1.637,0.394-2.598-0.186c-0.958-0.58-0.938-1.665-0.938-1.665s-0.008-0.829,0.394-1.381
		c0.4-0.552,1.291-0.87,1.926-0.87c0.636,0,1.182,0.221,1.182,0.221l-0.098,1.064c-0.241-0.159-0.648-0.276-1.07-0.228
		c-0.42,0.048-0.87,0.442-0.87,1.08c0,0.639,0.476,1.102,1.084,1.123c0.608,0.021,0.988-0.207,0.988-0.207V177.784z M28.952,177.867
		l-1.14-2.001v2.036h-1.443v-5.926h1.443v3.455l1.181-1.645h1.534l-1.43,1.857l1.554,2.224H28.952z M33.986,174.904
		c0,0-0.442-0.097-0.677-0.035s-0.821,0.332-0.821,1.036v1.961h-1.409v-4.081h1.278v0.766c0,0,0.338-0.794,0.988-0.856
		c0,0,0.552-0.014,0.717,0.062L33.986,174.904z"/>
	<path fill="#FFFFFF" d="M68.228,190.917c8.836,0,16-7.164,16-16s-7.164-16-16-16s-16,7.164-16,16S59.392,190.917,68.228,190.917z
		 M72.213,171.565c1.851,0,3.352,1.5,3.352,3.352s-1.5,3.352-3.352,3.352s-3.353-1.5-3.353-3.352S70.362,171.565,72.213,171.565z
		 M64.244,171.565c1.851,0,3.352,1.5,3.352,3.352s-1.5,3.352-3.352,3.352c-1.852,0-3.352-1.5-3.352-3.352
		S62.392,171.565,64.244,171.565z"/>
	<path fill="#FFFFFF" d="M112.208,190.917c8.836,0,16-7.164,16-16s-7.164-16-16-16s-16,7.164-16,16S103.372,190.917,112.208,190.917
		z M106.034,169.446c0.905-0.814,2.018-1.744,2.981-1.652s1.755,0.585,2.111,2.547c0.355,1.962,0.642,4.359,1.216,5.736
		c0,0,0.367,0.964,0.757,0.918c0.391-0.046,1.103-0.872,1.813-2.02c0.711-1.147,1.102-2.111,0.871-3.029
		c-0.229-0.917-1.697-0.688-2.316-0.436c0,0,1.081-4.302,4.863-3.923c0,0,2.502,0,2.364,2.983c-0.138,2.982-2.157,5.576-4.084,7.916
		c-1.928,2.341-3.855,3.993-5.484,3.763c-1.629-0.23-2.249-2.639-2.776-4.658c-0.527-2.02-1.217-4.681-1.95-5.576
		c0,0-0.345-0.458-0.849-0.16l-1.033,0.711l-0.803-1.009C103.715,171.558,105.126,170.261,106.034,169.446z"/>
	<polygon fill="#FFFFFF" points="198.184,134.302 203.697,130.705 198.184,127.106 	"/>
	<path fill="#FFFFFF" d="M200.167,114.714c-8.836,0-16,7.164-16,16s7.164,16,16,16s16-7.164,16-16S209.002,114.714,200.167,114.714z
		 M208.405,137.026c-0.874,0.64-8.238,0.471-8.238,0.471s-7.363,0.169-8.238-0.471c-0.875-0.639-1.546-2.522-1.546-6.321
		c0,0,0.032-2.892,0.337-4.035c0.301-1.144,0.671-1.85,1.109-2.252c0.436-0.404,1.344-0.505,8.338-0.505s7.902,0.101,8.34,0.505
		c0.437,0.403,0.806,1.109,1.109,2.252c0.302,1.144,0.335,4.035,0.335,4.035C209.951,134.504,209.28,136.387,208.405,137.026z"/>
	<path fill="#FFFFFF" d="M200.167,158.917c-8.836,0-16,7.164-16,16s7.164,16,16,16s16-7.164,16-16S209.002,158.917,200.167,158.917z
		 M202.542,167.323h1.153v4.184c0,0,0.018,0.331,0.264,0.331s0.576-0.28,0.67-0.391v-4.124h1.18v5.431h-1.162v-0.568
		c0,0-0.56,0.67-1.332,0.67s-0.772-0.882-0.772-1.001V167.323z M198.36,168.426c0,0,0.033-1.255,1.653-1.255s1.62,1.298,1.62,1.298
		l0.019,2.826c0,0,0,0.772-0.366,1.137c-0.363,0.365-0.934,0.476-1.365,0.476c-0.433,0-0.861-0.174-1.205-0.518
		s-0.355-1.019-0.355-1.019V168.426z M195.27,165.388l0.875,2.961l0.831-2.961h1.298l-1.485,4.302v3.071h-1.272v-2.961l-1.545-4.413
		H195.27z M210.145,180.896c0,1.961-1.595,3.55-3.562,3.55h-12.831c-1.97,0-3.564-1.589-3.564-3.55v-2.946
		c0-1.961,1.595-3.55,3.564-3.55h12.831c1.968,0,3.562,1.589,3.562,3.55V180.896z"/>
	<polygon fill="#FFFFFF" points="193.039,176.687 194.209,176.687 194.209,182.376 195.33,182.376 195.33,176.687 196.5,176.687 
		196.5,175.72 193.039,175.72 	"/>
	<path fill="#FFFFFF" d="M200.004,171.948c0.399,0,0.468-0.399,0.468-0.399v-3.029c0-0.068-0.043-0.399-0.491-0.399
		c-0.451,0-0.477,0.416-0.477,0.416v2.995C199.504,171.608,199.606,171.948,200.004,171.948z"/>
	<path fill="#FFFFFF" d="M205.462,181.658c0,0-0.44,0.07-0.44-0.516v-1.107h1.903v-1.189c0,0,0.069-1.502-1.375-1.502
		s-1.554,1.254-1.554,1.49v2.31c0,0,0.084,1.375,1.434,1.375c1.349,0,1.496-0.853,1.496-1.763h-1.006
		C205.92,180.753,206.118,181.658,205.462,181.658z M205.036,178.603c0,0-0.039-0.408,0.438-0.408c0.479,0,0.44,0.427,0.44,0.427
		v0.649h-0.878V178.603z"/>
	<path fill="#FFFFFF" d="M198.817,181.218c0,0-0.33,0.35-0.604,0.35c-0.273,0-0.255-0.324-0.255-0.324v-3.793h-0.992v4.232
		c0,0.235,0.134,0.782,0.675,0.782c0.54,0,1.189-0.63,1.189-0.63v0.541h0.993v-4.926h-1.006V181.218z"/>
	<path fill="#FFFFFF" d="M202.541,177.399c-0.655,0-0.948,0.484-0.948,0.484v-2.164h-1.012v6.657h1.018v-0.369
		c0.459,0.458,0.968,0.458,0.968,0.458c0.853,0,0.884-0.986,0.884-0.986v-2.921C203.45,178.055,203.196,177.399,202.541,177.399z
		 M202.438,181.371c0,0.114-0.076,0.324-0.388,0.324s-0.472-0.235-0.472-0.235v-3.099c0.182-0.182,0.431-0.204,0.431-0.204
		c0.423,0,0.429,0.471,0.429,0.471V181.371z"/>
	<path fill="#FFFFFF" d="M156.188,114.714c-8.836,0-16,7.164-16,16s7.164,16,16,16s16-7.164,16-16S165.024,114.714,156.188,114.714z
		 M156.188,140.127c-5.199,0-9.414-4.214-9.414-9.413s4.215-9.413,9.414-9.413c5.197,0,9.412,4.214,9.412,9.413
		S161.385,140.127,156.188,140.127z"/>
	<path fill="#FFFFFF" d="M112.208,146.714c8.836,0,16-7.164,16-16s-7.164-16-16-16s-16,7.164-16,16S103.371,146.714,112.208,146.714
		z M105.045,127.947c0,0,0.259-6.192,7.18-6.458c6.893-0.265,7.135,6.097,7.135,6.097s0.217,1.566-0.892,4.041
		c-1.108,2.474-3.206,3.197-4.828,3.229c-1.622,0.032-2.619-1.285-2.619-1.285l-0.595,2.33c-0.482,2.008-1.477,3.197-1.67,3.502
		c-0.193,0.305-0.451,0.562-0.562,0.546c-0.113-0.016-0.113-0.321-0.113-0.321s-0.128-1.768-0.111-2.41
		c0.016-0.643,0.256-1.671,0.256-1.671l1.287-5.607c-0.29-0.594-0.37-1.59-0.37-1.59c-0.081-1.479,0.947-2.731,2.056-2.764
		c1.109-0.032,1.397,0.819,1.463,1.478c0.064,0.659-0.418,2.346-0.853,3.47c-0.433,1.125,0.499,3.358,2.731,2.153
		c2.234-1.205,2.217-5.157,2.217-5.157c0-4.386-4.306-4.226-4.306-4.226c-4.466,0-5.333,3.743-5.333,5.013
		c0,1.269,0.715,2.185,0.715,2.185c0.232,0.273,0.12,0.675,0.12,0.675l-0.241,0.851c-0.088,0.309-0.57,0.113-0.57,0.113
		C104.804,130.935,105.045,127.947,105.045,127.947z"/>
	<path fill="#FFFFFF" d="M66.064,132.761c0-1.323-1.425-1.526-1.425-1.526h-3.053v3.052h3.076
		C64.662,134.287,66.064,134.083,66.064,132.761z"/>
	<path fill="#FFFFFF" d="M65.566,128.215c0,0-0.067-1.255-1.175-1.255h-2.805v2.51h2.579
		C64.165,129.47,65.566,129.516,65.566,128.215z"/>
	<path fill="#FFFFFF" d="M68.228,146.714c8.836,0,16-7.164,16-16s-7.164-16-16-16s-16,7.164-16,16S59.392,146.714,68.228,146.714z
		 M71.015,125.762h4.522v1.199h-4.522V125.762z M73.254,127.843c4.454,0,4.071,4.918,4.071,4.918h-5.879
		c0.022,0.893,0.656,2.001,1.945,2.001c1.289,0,1.808-1.085,1.808-1.085h2.013c-0.271,0.656-1.018,2.713-3.776,2.713
		s-3.844-1.99-4.047-2.736c-0.203-0.747-0.203-1.56-0.203-1.56C69.387,127.934,73.254,127.843,73.254,127.843z M59.122,125.039
		h6.331c1.062,0.181,2.442,0.61,2.533,2.6c0.09,1.991-1.47,2.488-1.47,2.488c2.177,0.664,1.989,2.759,1.989,2.759
		c0,3.459-3.64,3.323-3.64,3.323h-5.743V125.039z"/>
	<path fill="#FFFFFF" d="M73.277,129.584c-1.583,0-1.832,1.65-1.832,1.65h3.618C74.859,129.448,73.277,129.584,73.277,129.584z"/>
	<path fill="#FFFFFF" d="M24.249,114.714c-8.836,0-16,7.164-16,16s7.164,16,16,16s16-7.164,16-16S33.085,114.714,24.249,114.714z
		 M29.072,138.681c0,0-1.885,0.501-3.018,0.501c-1.134,0-4.344-0.118-4.86-3.388v-6.95h-1.767v-2.93h0.5
		c0,0,1.457-0.339,2.135-1.531c0.678-1.193,0.604-2.135,0.604-2.135h2.4v3.667h3.799v2.945h-3.77v4.8c0,0,0.029,0.766,0.103,1.06
		c0.074,0.295,0.662,1.001,1.591,1.001c0.927,0,2.282-0.588,2.282-0.588V138.681z"/>
	<path fill="#FFFFFF" d="M-15.625,127.39h1.303c0.447,0,0.811-0.363,0.811-0.811v-1.302c0-0.447-0.363-0.811-0.811-0.811h-1.303
		c-0.447,0-0.811,0.363-0.811,0.811v1.302C-16.435,127.027-16.072,127.39-15.625,127.39z"/>
	<path fill="#FFFFFF" d="M-19.731,133.982c1.82,0,3.296-1.476,3.296-3.296c0-0.548-0.135-1.065-0.372-1.52
		c-0.068-0.13-0.144-0.256-0.229-0.375c-0.001-0.003-0.004-0.006-0.006-0.009c-0.06-0.085-0.125-0.168-0.193-0.248
		c-0.005-0.005-0.009-0.011-0.014-0.016c-0.066-0.076-0.136-0.148-0.208-0.218c-0.008-0.006-0.015-0.014-0.022-0.021
		c-0.022-0.021-0.045-0.042-0.068-0.062c-0.009-0.008-0.018-0.016-0.026-0.022c-0.04-0.036-0.082-0.069-0.123-0.102
		c-0.012-0.009-0.023-0.018-0.035-0.027c-0.021-0.017-0.043-0.033-0.064-0.049c-0.015-0.011-0.031-0.021-0.046-0.032
		c-0.026-0.02-0.055-0.038-0.083-0.057c-0.025-0.017-0.051-0.034-0.077-0.05c-0.021-0.013-0.04-0.024-0.06-0.036
		s-0.041-0.024-0.062-0.035c-0.019-0.011-0.038-0.021-0.057-0.032c-0.037-0.019-0.073-0.038-0.11-0.056
		c-0.015-0.007-0.032-0.015-0.047-0.022c-0.028-0.012-0.055-0.025-0.082-0.037c-0.017-0.007-0.035-0.015-0.053-0.022
		c-0.033-0.014-0.067-0.027-0.101-0.04c-0.014-0.005-0.028-0.011-0.042-0.016c-0.038-0.014-0.076-0.027-0.115-0.039
		c-0.015-0.005-0.031-0.01-0.047-0.015c-0.034-0.011-0.068-0.021-0.104-0.03c-0.012-0.003-0.023-0.006-0.034-0.009
		c-0.046-0.012-0.092-0.022-0.137-0.032c-0.014-0.002-0.027-0.005-0.04-0.008c-0.038-0.007-0.075-0.014-0.112-0.02
		c-0.013-0.002-0.026-0.004-0.039-0.006c-0.048-0.007-0.095-0.014-0.144-0.019c-0.009-0.001-0.019-0.001-0.027-0.002
		c-0.041-0.004-0.083-0.007-0.125-0.009c-0.013-0.001-0.027-0.001-0.041-0.002c-0.051-0.002-0.101-0.003-0.151-0.003
		c-0.051,0-0.102,0.001-0.151,0.003c-0.014,0.001-0.028,0.001-0.042,0.002c-0.041,0.002-0.083,0.005-0.125,0.009
		c-0.009,0.001-0.018,0.001-0.026,0.002c-0.048,0.005-0.097,0.011-0.145,0.019c-0.013,0.002-0.025,0.004-0.038,0.006
		c-0.038,0.006-0.075,0.013-0.111,0.02c-0.014,0.002-0.027,0.005-0.04,0.008c-0.046,0.01-0.092,0.02-0.137,0.032
		c-0.012,0.003-0.023,0.006-0.036,0.009c-0.034,0.009-0.069,0.019-0.104,0.03c-0.015,0.005-0.031,0.009-0.046,0.015
		c-0.039,0.012-0.077,0.025-0.115,0.039c-0.014,0.005-0.028,0.01-0.042,0.016c-0.034,0.013-0.067,0.026-0.102,0.04
		c-0.018,0.008-0.034,0.015-0.052,0.022c-0.027,0.012-0.055,0.024-0.082,0.037c-0.017,0.007-0.032,0.015-0.048,0.022
		c-0.037,0.018-0.073,0.037-0.109,0.056c-0.02,0.011-0.039,0.021-0.058,0.032c-0.021,0.011-0.041,0.023-0.062,0.035
		c-0.02,0.012-0.04,0.023-0.06,0.036c-0.026,0.016-0.053,0.033-0.079,0.05c-0.027,0.019-0.055,0.037-0.082,0.057
		c-0.015,0.01-0.03,0.021-0.045,0.032c-0.022,0.016-0.044,0.032-0.066,0.049c-0.012,0.009-0.023,0.018-0.034,0.027
		c-0.042,0.033-0.083,0.066-0.124,0.102c-0.008,0.007-0.018,0.015-0.025,0.022c-0.023,0.02-0.046,0.041-0.068,0.062
		c-0.008,0.007-0.015,0.015-0.022,0.021c-0.073,0.07-0.142,0.143-0.208,0.218c-0.004,0.005-0.009,0.01-0.013,0.016
		c-0.069,0.079-0.133,0.162-0.194,0.248c-0.002,0.003-0.004,0.006-0.006,0.009c-0.084,0.119-0.161,0.245-0.229,0.375
		c-0.237,0.455-0.372,0.972-0.372,1.52C-23.027,132.506-21.551,133.982-19.731,133.982z"/>
	<path fill="#FFFFFF" d="M-19.731,146.715c8.836,0,16-7.164,16-16s-7.164-16-16-16s-16,7.164-16,16S-28.567,146.715-19.731,146.715z
		 M-27.785,124.393c0-0.957,0.775-1.732,1.731-1.732h12.644c0.957,0,1.732,0.775,1.732,1.732v12.644
		c0,0.957-0.776,1.732-1.732,1.732h-12.644c-0.957,0-1.731-0.775-1.731-1.732V124.393z"/>
	<path fill="#FFFFFF" d="M-24.89,136.906h10.318c0.57,0,1.032-0.462,1.032-1.032v-6.707h-1.41c0.152,0.479,0.235,0.989,0.235,1.519
		c0,2.77-2.246,5.016-5.016,5.016c-2.77,0-5.016-2.246-5.016-5.016c0-0.53,0.082-1.04,0.234-1.519h-1.41v6.707
		C-25.922,136.444-25.46,136.906-24.89,136.906z"/>
	<path fill="#FFFFFF" d="M199.675,93.947c1.877-0.546,1.946-1.696,1.991-2.22c0.046-0.523-0.365-1.354-0.932-1.797
		c-0.57-0.445-1.425-1.082-1.425-1.082c-2.583,0.034-3.447,0.569-4.04,1.093c-0.592,0.523-0.602,1.457-0.602,1.457
		C194.576,93.594,197.797,94.493,199.675,93.947z"/>
	<path fill="#FFFFFF" d="M200.415,83.738c0.205-0.967-0.113-2.879-1.24-4.006c-1.127-1.126-2.402-0.353-2.402-0.353
		c-1.74,1.104-0.988,3.709,0,5.042c0.991,1.331,2.414,0.808,2.653,0.66C199.664,84.933,200.209,84.706,200.415,83.738z"/>
	<path fill="#FFFFFF" d="M200.167,102.714c8.836,0,16-7.164,16-16s-7.164-16-16-16s-16,7.164-16,16S191.331,102.714,200.167,102.714
		z M204.925,83.783h1.002v1.669h1.67v1.001h-1.67v1.67h-1.002v-1.67h-1.669v-1.001h1.669V83.783z M193.822,89.61
		c1.552-1.396,4.73-1.38,4.73-1.38c-0.106-0.152-0.622-0.82-0.668-1.29c-0.046-0.471,0.218-1.032,0.218-1.032
		s-1.721,0.334-3.161-0.864c-1.442-1.2-1.487-3.324-0.152-5.024c1.335-1.699,4.113-1.608,4.113-1.608h4.674l-1.382,0.789h-1.305
		c1.653,1.23,1.502,2.748,1.502,2.748c-0.014,1.684-0.637,2.246-0.895,2.489c-0.259,0.243-0.805,0.667-1.108,0.986
		c-0.304,0.318-0.607,1.001-0.203,1.441c0.402,0.44,2.009,1.502,2.616,2.534c0.607,1.032,0.258,2.246,0.258,2.246
		c-0.805,2.959-4.795,3.976-7.877,3.035C192.102,93.738,192.27,91.006,193.822,89.61z"/>
	<path fill="#FFFFFF" d="M156.187,102.714c8.836,0,16-7.164,16-16s-7.164-16-16-16s-16,7.164-16,16S147.351,102.714,156.187,102.714
		z M152.321,93.664h-2.895V84.38h2.895V93.664z M154.135,84.38h2.774v1.313c0.745-1.218,2.152-1.908,4.291-1.313
		c2.138,0.595,1.962,4.25,1.962,4.25v5.034h-2.909v-4.777c0-0.541,0.121-2.179-1.61-2.179c-1.733,0-1.625,2.166-1.625,2.166v4.79
		h-2.883V84.38z M150.885,79.765c0.926,0,1.676,0.75,1.676,1.676c0,0.926-0.75,1.676-1.676,1.676s-1.676-0.75-1.676-1.676
		C149.209,80.515,149.959,79.765,150.885,79.765z"/>
	<path fill="#FFFFFF" d="M112.208,102.714c8.836,0,16-7.164,16-16s-7.164-16-16-16s-16,7.164-16,16S103.371,102.714,112.208,102.714
		z M107.403,84.238h2.846v-2.637c0,0-0.12-1.724,1.188-3.032c1.308-1.308,3.068-1.184,5.575-0.966v2.944h-1.854
		c0,0-0.778-0.016-1.145,0.404c-0.365,0.421-0.326,1.021-0.326,1.168v2.118h3.215l-0.412,3.279h-2.819v8.445h-3.411v-8.461h-2.857
		V84.238z"/>
	<path fill="#FFFFFF" d="M68.228,102.714c8.836,0,16-7.164,16-16s-7.164-16-16-16s-16,7.164-16,16S59.392,102.714,68.228,102.714z
		 M64.448,91.052c0,0-2.765-0.053-3.562-2.633c0,0,1.382,0.107,1.622-0.159c0,0-2.978-0.718-3.004-3.829
		c0,0,0.904,0.452,1.728,0.479c0,0-2.871-2.074-1.13-5.172c0,0,2.899,3.842,7.937,4.108c0,0-0.682-2.27,1.409-4.005
		c2.092-1.738,4.68-0.267,5.176,0.389c0,0,1.472-0.23,2.499-0.921c0,0-0.336,1.327-1.577,2.125c0,0,1.454-0.193,2.127-0.583
		c0,0-0.709,1.134-1.932,2.003c0,0,0.514,4.795-3.607,8.757c-4.122,3.962-10.902,3.138-13.348,1.064
		C58.785,92.674,62.108,93.046,64.448,91.052z"/>
	<path fill="#FFFFFF" d="M24.249,70.714c-8.836,0-16,7.164-16,16s7.164,16,16,16s16-7.164,16-16S33.085,70.714,24.249,70.714z
		 M19.158,94.011c-1.207,0-2.184-0.977-2.184-2.183c0-1.205,0.978-2.183,2.184-2.183c1.205,0,2.184,0.978,2.184,2.183
		C21.342,93.034,20.363,94.011,19.158,94.011z M24.392,94.011c0-4.02-3.397-7.417-7.418-7.417v-2.331
		c2.597,0,5.046,1.026,6.899,2.891c1.838,1.852,2.852,4.288,2.852,6.857H24.392z M29.188,94.011c0-6.647-5.591-12.263-12.213-12.263
		v-2.332c1.963,0,3.87,0.394,5.672,1.17c1.726,0.746,3.281,1.809,4.619,3.161c1.332,1.346,2.379,2.908,3.112,4.641
		c0.758,1.794,1.143,3.686,1.143,5.624H29.188z"/>
	<path fill="#FFFFFF" d="M-19.731,102.714c8.836,0,16-7.164,16-16s-7.164-16-16-16s-16,7.164-16,16S-28.567,102.714-19.731,102.714z
		 M-27.638,91.929l6.062-4.56c0,0,1.001,1.081,1.897,1.081c0.896,0,1.818-1.081,1.818-1.081l5.878,4.56H-27.638z M-11.455,91.56
		l-6.089-4.402l6.089-5.14V91.56z M-27.058,80.499h14.655c0.791,0,0.791,0.423,0.791,0.423l-7.249,5.613
		c-0.21,0.212-0.448,0.264-0.922,0.264s-0.844-0.396-0.844-0.396l-7.117-5.614C-27.52,80.566-27.058,80.499-27.058,80.499z
		 M-28.007,81.833l6.036,5.22l-6.036,4.507V81.833z"/>
	<path fill="#FFFFFF" d="M157.162,127.464c1.642-0.63,3.141-1.539,4.127-2.848c-1.38-1.156-3.159-1.853-5.101-1.853
		c-0.622,0-1.229,0.071-1.809,0.207c0.508,0.678,1.335,1.866,2.253,3.511C156.802,126.786,156.98,127.114,157.162,127.464z"/>
	<path fill="#FFFFFF" d="M157.86,128.883c0.195,0.417,0.391,0.856,0.586,1.318c1.641-0.318,3.539-0.339,5.684,0.168
		c-0.073-1.742-0.708-3.339-1.729-4.615C161.249,127.188,159.616,128.188,157.86,128.883z"/>
	<path fill="#FFFFFF" d="M152.809,123.515c-2.166,1.018-3.798,2.986-4.36,5.367c1.135,0,4.207-0.084,7.19-0.918
		C154.37,125.563,153.208,124.019,152.809,123.515z"/>
	<path fill="#FFFFFF" d="M159.038,131.686c0.623,1.657,1.199,3.534,1.632,5.596c1.766-1.208,3.021-3.109,3.369-5.312
		C162.291,131.521,160.62,131.427,159.038,131.686z"/>
	<path fill="#FFFFFF" d="M153.37,132.437c0.926-0.675,2.105-1.357,3.534-1.832c-0.181-0.417-0.362-0.819-0.544-1.204
		c-3.181,0.948-6.435,1.06-7.789,1.06c-0.127,0-0.238-0.001-0.33-0.002c-0.003,0.085-0.004,0.17-0.004,0.256
		c0,1.93,0.688,3.698,1.83,5.076C150.594,135.039,151.688,133.665,153.37,132.437z"/>
	<path fill="#FFFFFF" d="M154.299,133.71c-1.707,1.246-2.734,2.664-3.09,3.204c1.363,1.096,3.094,1.751,4.979,1.751
		c1.074,0,2.098-0.213,3.031-0.599c-0.434-2.219-1.047-4.231-1.725-6.007C156.378,132.42,155.312,132.97,154.299,133.71z"/>
	<path fill="#FFFFFF" d="M153.894,181.512l2.312-2.293h4.225l2.708-2.69v-8.522h-12.746v11.23h3.502V181.512z M158.877,171.059
		h1.553v4.658h-1.553V171.059z M154.654,171.059h1.552v4.658h-1.552V171.059z"/>
	<path fill="#FFFFFF" d="M156.188,159.374c-8.836,0-16,7.164-16,16s7.164,16,16,16s16-7.164,16-16S165.024,159.374,156.188,159.374z
		 M164.692,177.324l-4.64,4.64h-3.521l-2.293,2.311h-2.311v-2.365h-4.243v-12.313l1.21-3.124h15.798V177.324z"/>
	<path fill="#FFFFFF" d="M24.21,612.528c-5.104,0-9.258,2.658-9.258,5.926s4.154,5.926,9.258,5.926c5.105,0,9.258-2.658,9.258-5.926
		S29.315,612.528,24.21,612.528z M19.428,617.284c0-0.871,0.706-1.577,1.577-1.577c0.871,0,1.577,0.706,1.577,1.577
		s-0.706,1.576-1.577,1.576C20.134,618.86,19.428,618.155,19.428,617.284z M27.972,621.569c-0.059,0.053-1.478,1.284-3.686,1.284
		c-2.19,0-3.7-1.14-3.763-1.188c-0.201-0.153-0.239-0.441-0.085-0.642c0.154-0.2,0.441-0.239,0.641-0.086
		c0.024,0.018,1.346,1.001,3.207,1.001c1.849,0,3.068-1.046,3.081-1.057c0.19-0.167,0.479-0.147,0.646,0.043
		C28.179,621.113,28.161,621.401,27.972,621.569z M27.618,618.86c-0.871,0-1.577-0.705-1.577-1.576s0.706-1.577,1.577-1.577
		c0.872,0,1.577,0.706,1.577,1.577S28.49,618.86,27.618,618.86z"/>
	<path fill="#FFFFFF" d="M16.569,614.05c-0.451-0.306-1.016-0.303-1.022-0.303c-1.694,0.053-1.715,1.66-1.715,1.729
		c0,0.572,0.314,1.054,0.59,1.367C14.793,615.814,15.523,614.861,16.569,614.05z"/>
	<circle fill="#FFFFFF" cx="32.006" cy="608.369" r="1.259"/>
	<path fill="#FFFFFF" d="M32.947,613.748c-0.003,0-0.602-0.003-1.059,0.333c1.046,0.82,1.771,1.784,2.131,2.825
		c0.288-0.311,0.645-0.819,0.645-1.429C34.663,615.408,34.643,613.8,32.947,613.748z"/>
	<path fill="#FFFFFF" d="M-25.654,662.322c0.971,2.315,3.26,3.944,5.923,3.944c1.093,0,2.115-0.287,3.017-0.771
		c-0.008-0.088-0.027-0.173-0.027-0.263c0-1.527,1.244-2.771,2.771-2.771c0.03,0,0.058,0.009,0.088,0.01
		c0.022-0.051,0.052-0.098,0.073-0.149c0.32-0.762,0.497-1.598,0.497-2.474c0-3.539-2.879-6.42-6.419-6.42
		c-0.947,0-1.841,0.217-2.65,0.586c0,0.014,0.004,0.027,0.004,0.041c0,1.527-1.244,2.771-2.771,2.771
		c-0.078,0-0.152-0.018-0.229-0.023c-0.491,0.908-0.774,1.943-0.774,3.045C-26.15,660.724-25.973,661.56-25.654,662.322z"/>
	<path fill="#FFFFFF" d="M68.229,651.607c-4.544,0-8.241,3.697-8.241,8.241c0,4.545,3.697,8.242,8.241,8.242
		s8.241-3.697,8.241-8.242C76.47,655.304,72.773,651.607,68.229,651.607z M69.844,653.493c0.556-0.068,1.148,1.021,1.322,2.436
		c0.175,1.413-0.135,2.615-0.69,2.684c-0.556,0.068-1.148-1.022-1.322-2.436C68.978,654.762,69.288,653.561,69.844,653.493z
		 M65.076,654.204c0.556-0.068,1.148,1.022,1.322,2.437c0.174,1.413-0.136,2.614-0.691,2.684c-0.557,0.067-1.148-1.022-1.322-2.437
		C64.211,655.475,64.52,654.273,65.076,654.204z M75.514,659.401c-0.025,0.195-0.193,0.338-0.385,0.338
		c-0.017,0-0.034,0-0.051-0.003l-0.174-0.022c0.008,0.539-0.043,1.463-0.375,2.465c-0.478,1.439-1.646,3.31-4.5,4.044
		c-0.726,0.188-1.393,0.269-2.002,0.269c-2.199,0-3.658-1.064-4.551-2.086c-0.984-1.125-1.453-2.367-1.605-2.838l-0.263,0.078
		c-0.037,0.011-0.075,0.016-0.112,0.016c-0.167,0-0.321-0.109-0.372-0.277c-0.061-0.205,0.056-0.422,0.261-0.483l1.229-0.366
		c0.206-0.062,0.422,0.055,0.483,0.261c0.062,0.206-0.055,0.421-0.262,0.483l-0.221,0.066c0.141,0.425,0.576,1.565,1.461,2.568
		c1.45,1.645,3.387,2.168,5.759,1.558c2.019-0.521,3.349-1.71,3.956-3.537c0.324-0.976,0.347-1.873,0.333-2.321l-0.319-0.041
		c-0.213-0.027-0.363-0.222-0.335-0.435s0.223-0.363,0.435-0.335l1.272,0.164C75.391,658.993,75.541,659.188,75.514,659.401z"/>
	<g>
		<polygon fill="#FFFFFF" points="7.243,23.867 7.243,38.703 14.444,31.828 		"/>
		<path fill="#FFFFFF" d="M17.179,33.958c-1.069,0-2.264-1.648-2.264-1.648l-7.232,6.955H26.36l-7.012-6.955
			C19.349,32.31,18.249,33.958,17.179,33.958z"/>
		<path fill="#FFFFFF" d="M17.053,31.44c0.567,0,0.85-0.079,1.101-0.401l8.647-8.562c0,0,0-0.645-0.943-0.645H8.375
			c0,0-0.551,0.102-0.818,0.443l8.49,8.562C16.046,30.837,16.487,31.44,17.053,31.44z"/>
		<polygon fill="#FFFFFF" points="26.989,38.703 26.989,24.149 19.726,31.989 		"/>
	</g>
	<path fill="#FFFFFF" d="M50.895,38.714c0.817,0,1.613-0.081,2.397-0.199h-4.794C49.282,38.633,50.078,38.714,50.895,38.714z"/>
	<path fill="#FFFFFF" d="M39.994,0.238c-0.93,0.625-2.262,0.834-2.262,0.834c-0.449-0.594-2.792-1.926-4.686-0.353
		c-1.893,1.571-1.275,3.625-1.275,3.625c-4.561-0.24-7.185-3.718-7.185-3.718c-1.576,2.804,1.023,4.681,1.023,4.681
		c-0.746-0.024-1.563-0.434-1.563-0.434c0.023,2.817,2.72,3.466,2.72,3.466c-0.217,0.241-1.468,0.145-1.468,0.145
		c0.721,2.335,3.224,2.382,3.224,2.382c-2.118,1.806-5.126,1.469-5.126,1.469c2.214,1.877,8.352,2.624,12.083-0.963
		c3.73-3.586,3.266-7.927,3.266-7.927c1.106-0.786,1.748-1.812,1.748-1.812c-0.609,0.353-1.925,0.527-1.925,0.527
		C39.689,1.439,39.994,0.238,39.994,0.238z"/>
	<path fill="#FFFFFF" d="M-13.403,0.661c-0.989,0.988-0.898,2.291-0.898,2.291v1.993h-2.15v2.466h2.16v6.395h2.578V7.423h2.131
		l0.312-2.478h-2.431V3.344c0-0.112-0.029-0.565,0.247-0.883c0.277-0.317,0.865-0.305,0.865-0.305h1.401v-2.224
		C-11.084-0.234-12.415-0.329-13.403,0.661z"/>
	<g>
		<circle fill="#FFFFFF" cx="1.827" cy="1.71" r="1.672"/>
		<rect x="0.372" y="4.643" fill="#FFFFFF" width="2.887" height="9.26"/>
		<path fill="#FFFFFF" d="M12.118,4.643C9.984,4.048,8.58,4.737,7.837,5.953v-1.31H5.069v9.26h2.876V9.125
			c0,0-0.108-2.161,1.621-2.161c1.727,0,1.606,1.634,1.606,2.173v4.765h2.902V8.882C14.074,8.882,14.25,5.235,12.118,4.643z"/>
	</g>
</g>
</svg>
