<?xml version="1.0" encoding="utf-8"?>
<!-- Generator: Adobe Illustrator 16.0.0, SVG Export Plug-In . SVG Version: 6.00 Build 0)  -->
<!DOCTYPE svg PUBLIC "-//W3C//DTD SVG 1.1//EN" "http://www.w3.org/Graphics/SVG/1.1/DTD/svg11.dtd">
<svg version="1.1" xmlns="http://www.w3.org/2000/svg" xmlns:xlink="http://www.w3.org/1999/xlink" x="0px" y="0px"
	 width="17.096px" height="13.926px" viewBox="0 0 17.096 13.926" enable-background="new 0 0 17.096 13.926" xml:space="preserve">
<g id="Layer_2">
	<rect x="-85.229" y="44.869" fill="#474848" width="302" height="701"/>
</g>
<g id="Layer_1">
	<path fill="#FFFFFF" d="M-43.125,687.619c-8.836,0-16,7.163-16,16s7.164,16,16,16s16-7.163,16-16S-34.29,687.619-43.125,687.619z
		 M-45.691,706.765l-3.448,1.271c0,0-1.101,0.392-0.44,0.808c0.661,0.416,1.858,0.049,2.103-0.074l1.712-0.659v1.956
		c0,0-0.612,0.073-1.834,0.098c-1.223,0.025-3.521-0.122-5.112-1.125c-1.59-1.003,0.685-2.152,1.467-2.421l5.552-2.079V706.765z
		 M-41.484,698.498v13.721l-3.522-1.271V694.83c0,0,3.914,0.807,5.307,1.442c1.395,0.636,3.669,1.663,3.669,5.038
		s-1.956,3.619-2.519,3.619s-1.248-0.391-1.419-0.562v-5.941c0,0-0.22-0.809-0.88-0.809S-41.46,698.352-41.484,698.498z
		 M-31.311,707.547c-0.098,1.297-2.617,1.811-3.937,2.349c-1.321,0.538-5.553,2.104-5.553,2.104v-2.152l5.919-2.251
		c0.685-0.269,0.343-0.415,0.221-0.586c-0.123-0.172-1.174-0.147-1.614-0.123s-1.81,0.562-2.47,0.857
		c-0.661,0.292-2.006,0.658-2.006,0.658v-2.102c1.101-0.416,1.933-0.562,1.933-0.562c1.247-0.172,2.666-0.246,3.668-0.196
		C-34.147,705.591-31.213,706.251-31.311,707.547z"/>
	<path fill="#FFFFFF" d="M176.771,643.87c-8.836,0-16,7.163-16,16s7.164,16,16,16s16-7.163,16-16S185.607,643.87,176.771,643.87z
		 M176.656,650.982c2.888,0,4.572,1.244,4.572,1.244c0.213,0.107-0.053,0.188-0.053,0.188c-0.108,0-0.362,0.014-0.362,0.014
		c-1.858,0.146-3.718,1.457-3.718,1.457c-0.12,0.08-0.268,0.161-0.414,0.161s-0.334-0.175-0.334-0.175s-0.909-0.548-1.965-1.002
		c-1.059-0.455-2.448-0.455-2.448-0.455C172.35,652.213,173.767,650.982,176.656,650.982z M169.515,664.971
		c-0.108-0.107-0.536-0.869-0.536-0.869c-0.842-1.457-1.443-4.105-0.896-6.405c0.549-2.3,2.543-4.253,2.543-4.253
		c0.333-0.281,0.641-0.174,0.787-0.146c0.148,0.026,0.67,0.307,0.67,0.307c0.842,0.496,2.62,2.261,2.62,2.261
		c-1.056,0.909-3.236,4.306-3.983,5.764c-0.75,1.458-0.95,3.156-0.95,3.156C169.809,665.318,169.515,664.971,169.515,664.971z
		 M176.976,668.755c-4.171-0.015-6.806-3.021-6.806-3.021c0.093-0.468,0.293-1.644,2.246-3.852c1.952-2.206,3.918-3.905,3.918-3.905
		c0.094-0.106,0.24-0.227,0.361-0.227s0.334,0.16,0.334,0.16c0.803,0.668,3.691,3.477,4.842,5.015
		c1.148,1.538,1.431,2.849,1.431,2.849S180.586,668.77,176.976,668.755z M183.957,664.838c0,0-0.067,0.133-0.201,0.105
		c-0.135-0.025-0.094-0.439-0.094-0.439s0.041-0.522-0.32-1.525c-0.361-1.004-1.471-3.477-3.879-6.338l-0.414-0.535
		c0,0-0.241-0.334,0.067-0.643c0.308-0.307,1.658-1.686,2.861-2.18c0,0,0.36-0.146,0.614,0c0.254,0.147,2.168,1.792,2.836,4.6
		C186.096,660.691,185.308,662.991,183.957,664.838z"/>
	<path fill="#FFFFFF" d="M132.793,651.14c-4.813,0-8.729,3.916-8.729,8.729s3.916,8.73,8.729,8.73c4.812,0,8.729-3.917,8.729-8.73
		S137.605,651.14,132.793,651.14z M130.419,652.459v2.479c-1.211,0.428-2.167,1.395-2.581,2.611h-2.473
		C125.895,655.012,127.889,653.008,130.419,652.459z M130.42,667.287c-2.51-0.545-4.49-2.52-5.039-5.027h2.48
		c0.425,1.188,1.369,2.129,2.559,2.549V667.287z M128.121,659.869c0-2.576,2.096-4.671,4.672-4.671s4.671,2.095,4.671,4.671
		s-2.095,4.671-4.671,4.671S128.121,662.445,128.121,659.869z M135.131,667.295v-2.476c1.203-0.414,2.162-1.361,2.59-2.56h2.48
		C139.649,664.777,137.654,666.762,135.131,667.295z M137.743,657.549c-0.417-1.229-1.386-2.201-2.611-2.622v-2.476
		c2.546,0.538,4.554,2.549,5.085,5.098H137.743z"/>
	<path fill="#FFFFFF" d="M132.793,656.002c-2.133,0-3.867,1.734-3.867,3.867s1.734,3.867,3.867,3.867
		c2.132,0,3.867-1.734,3.867-3.867S134.925,656.002,132.793,656.002z"/>
	<path fill="#FFFFFF" d="M132.793,643.869c-8.836,0-16,7.163-16,16s7.164,16,16,16s16-7.163,16-16S141.629,643.869,132.793,643.869z
		 M132.793,669.402c-5.258,0-9.533-4.276-9.533-9.533c0-5.258,4.275-9.533,9.533-9.533c5.257,0,9.533,4.275,9.533,9.533
		C142.326,665.126,138.05,669.402,132.793,669.402z"/>
	<path fill="#FFFFFF" d="M88.812,643.869c-8.836,0-16,7.163-16,16s7.164,16,16,16s16-7.163,16-16S97.648,643.869,88.812,643.869z
		 M96.165,654.464l-1.072-0.183c0,0-1.501-0.461-1.501,0.979v1.808h2.48v2.91h-2.449v8.516H90.1v-8.547h-3.309v8.547h-3.557v-8.516
		h-1.773V657.1h1.776v-2.728c0,0-0.093-1.194,0.796-2.083s1.625-1.072,2.451-1.041c0.828,0.03,2.91,0.244,2.91,0.244v2.88
		l-1.408-0.122c0,0-1.287-0.184-1.287,1.133v1.717h3.432v-2.973c0,0-0.078-1.057,0.734-1.869c0.812-0.811,1.654-1.01,2.298-1.01
		s3.002,0.215,3.002,0.215V654.464z"/>
	<path fill="#FFFFFF" d="M44.833,643.869c-8.836,0-16,7.163-16,16s7.164,16,16,16s16-7.163,16-16S53.669,643.869,44.833,643.869z
		 M44.833,669.405c-5.258,0-9.536-4.278-9.536-9.536s4.278-9.535,9.536-9.535s9.536,4.277,9.536,9.535
		S50.091,669.405,44.833,669.405z"/>
	<path fill="#FFFFFF" d="M0.854,643.869c-8.836,0-16,7.163-16,16s7.164,16,16,16s16-7.163,16-16S9.689,643.869,0.854,643.869z
		 M2.713,667.555c0,0.838-0.833,1.518-1.86,1.518c-1.027,0-1.86-0.68-1.86-1.518v-8.232c0-0.838,0.833-1.516,1.86-1.516
		c1.027,0,1.86,0.678,1.86,1.516V667.555z M0.854,656.037c-1.206,0-2.185-0.979-2.185-2.186s0.979-2.186,2.185-2.186
		c1.207,0,2.185,0.979,2.185,2.186S2.061,656.037,0.854,656.037z"/>
	<path fill="#FFFFFF" d="M-43.126,675.869c8.836,0,16-7.163,16-16s-7.164-16-16-16s-16,7.163-16,16S-51.962,675.869-43.126,675.869z
		 M-37.365,666.727c-0.812,0-1.471-0.659-1.471-1.473c0-0.812,0.659-1.471,1.471-1.471c0.813,0,1.472,0.658,1.472,1.471
		C-35.893,666.067-36.552,666.727-37.365,666.727z M-48.543,652.604c0.812,0,1.472,0.66,1.472,1.473s-0.659,1.471-1.472,1.471
		c-0.813,0-1.471-0.658-1.471-1.471S-49.356,652.604-48.543,652.604z M-51.16,654.948c0.344,1.028,1.269,1.783,2.389,1.876
		c0.077,0.006,0.15,0.023,0.229,0.023c1.528,0,2.771-1.244,2.771-2.771c0-0.014-0.004-0.027-0.004-0.041
		c-0.017-1.135-0.716-2.106-1.707-2.519c1.304-0.683,2.786-1.073,4.357-1.073c5.197,0,9.425,4.229,9.425,9.426
		c0,0.855-0.116,1.685-0.33,2.474c-0.182,0.669-0.438,1.309-0.756,1.911c-0.393-1.008-1.354-1.727-2.49-1.762
		c-0.03-0.001-0.058-0.01-0.088-0.01c-1.528,0-2.771,1.244-2.771,2.771c0,0.09,0.019,0.175,0.027,0.263
		c0.107,1.124,0.881,2.046,1.926,2.372c-1.438,0.891-3.13,1.405-4.943,1.405c-4.341,0-8.005-2.95-9.095-6.951
		c-0.215-0.789-0.33-1.618-0.33-2.474C-52.551,658.066-52.042,656.382-51.16,654.948z"/>
	<path fill="#FFFFFF" d="M-43.126,599.766c-8.836,0-16,7.163-16,16s7.164,16,16,16s16-7.163,16-16S-34.29,599.766-43.126,599.766z
		 M-42.565,623.397c-1.687,0.238-5.316-0.595-6.625-3.69c-1.309-3.093-0.495-5.452,0.674-6.961c0,0,0.535-0.694,0.774-0.535
		c0.199,0.133,0.021,0.436,0.021,0.436s-0.277,1.39-0.259,2.063c0.02,0.675,0.219,2.638,1.131,2.915c0,0,0.06-2.935,1.369-5.156
		c1.31-2.223,3.172-3.629,4.284-4.066c1.11-0.438,2.737-0.277,2.737-0.277s1.825,1.408,2.063,7.576
		C-36.159,621.871-40.879,623.16-42.565,623.397z"/>
	<path fill="#FFFFFF" d="M0.854,599.766c-8.836,0-16,7.163-16,16s7.164,16,16,16s16-7.163,16-16S9.689,599.766,0.854,599.766z
		 M10.843,617.838c0.028,0.209,0.044,0.422,0.044,0.637c0,1.833-1.07,3.545-3.015,4.817c-1.891,1.239-4.397,1.923-7.057,1.923
		c-2.66,0-5.167-0.684-7.057-1.923c-1.944-1.272-3.014-2.984-3.014-4.817c0-0.234,0.018-0.465,0.051-0.695
		c-0.36-0.312-1.171-1.139-1.171-2.281c0-1.188,0.784-2.489,2.506-2.543c0.048-0.002,1.031-0.017,1.74,0.631
		c1.797-1.143,4.127-1.793,6.612-1.846l1.829-5.145l4.357,1.082c0.29-0.792,1.05-1.361,1.944-1.361c1.143,0,2.073,0.93,2.073,2.072
		s-0.93,2.074-2.073,2.074c-1.111,0-2.018-0.878-2.069-1.977l-3.712-0.922l-1.487,4.179c2.433,0.085,4.708,0.741,6.465,1.872
		c0.709-0.677,1.721-0.662,1.767-0.66c1.724,0.054,2.508,1.355,2.508,2.543C12.083,616.721,11.155,617.581,10.843,617.838z"/>
	<path fill="#FFFFFF" d="M44.833,599.766c-8.836,0-16,7.163-16,16s7.164,16,16,16s16-7.163,16-16S53.669,599.766,44.833,599.766z
		 M49.285,617.266c0,0-1.48,0.955-3.152,0.955h-3.246l-1.027,4.823h-4.178l3.167-14.556h7.242c0,0,3.892,0.088,3.892,3.955
		C51.983,612.443,51.959,615.428,49.285,617.266z"/>
	<path fill="#FFFFFF" d="M46.674,611.417h-2.283l-0.859,4.011h1.814c0.835,0,2.579-0.645,2.579-2.315
		C47.924,611.44,46.674,611.417,46.674,611.417z"/>
	<path fill="#FFFFFF" d="M88.812,599.766c-8.836,0-16,7.163-16,16s7.164,16,16,16s16-7.163,16-16S97.648,599.766,88.812,599.766z
		 M82.666,618.934c-0.203-0.363-0.225-1.292-0.225-1.729c0-0.436,0.059-1.227,0.299-1.705c0.238-0.479,0.826-0.269,0.826-0.269
		l3.492,1.423c0,0,0.385,0.08,0.385,0.674c0,0.596-0.428,0.691-0.428,0.691l-3.34,1.081C83.4,619.202,82.87,619.297,82.666,618.934z
		 M88.111,624.117c-0.784,0-2.715-0.668-3.1-1.336c0,0-0.186-0.367,0.072-0.625l2.504-2.969c0,0,0.305-0.312,0.792-0.145
		c0.486,0.166,0.464,0.537,0.464,0.58v3.869C88.844,623.492,88.896,624.117,88.111,624.117z M88.424,615.391
		c-0.494,0.188-0.894-0.385-0.894-0.385l-3.681-5.764c0,0-0.159-0.232,0-0.494c0.16-0.262,0.559-0.566,1.83-0.943
		c1.27-0.377,1.908-0.428,2.338-0.371c0.428,0.059,0.471,0.451,0.479,0.596c0.008,0.146,0.377,6.644,0.377,6.644
		S88.917,615.202,88.424,615.391z M90.129,615.659c0.072-0.108,2.135-2.867,2.135-2.867s0.109-0.188,0.262-0.319
		c0,0,0.326-0.254,0.704-0.029s1.553,1.582,1.837,2.737c0,0,0.174,0.536-0.4,0.704c-0.573,0.166-3.672,0.922-3.672,0.922
		s-0.539,0.131-0.828-0.299C89.875,616.08,90.057,615.768,90.129,615.659z M95.117,620.335c-0.262,0.609-0.9,1.677-2.048,2.489
		c0,0-0.405,0.27-0.762-0.225s-2.048-3.303-2.048-3.303s-0.182-0.502,0.102-0.785s0.486-0.34,0.85-0.238l3.557,1.197
		C94.768,619.471,95.379,619.725,95.117,620.335z"/>
	<path fill="#FFFFFF" d="M132.793,599.766c-8.836,0-16,7.163-16,16s7.164,16,16,16s16-7.163,16-16S141.629,599.766,132.793,599.766z
		 M134.48,611.062c0,0,0.079-0.531-0.353-0.932c-0.432-0.402-1.472-0.374-1.472-0.374c-0.392,0-0.734-0.039-1.322,0.235
		c-0.588,0.275-0.824,1.05-0.824,1.05l-2.668-0.403c0.148-0.5,0.707-1.99,2.108-2.51c1.403-0.519,3.03-0.41,3.03-0.41
		c3.335-0.011,3.941,1.303,4.168,1.783c0.225,0.48,0.265,1.735,0.265,1.735l-0.049,3.805c0,0.245,0,1.079,0.167,1.806
		c0.168,0.725,0.529,1.254,0.529,1.254h-2.992c-0.078-0.127-0.371-1.108-0.371-1.108c-0.266,0.196-1.58,1.354-3.433,1.354
		c-1.854,0-3.833-0.804-3.833-3.068c0-2.267,2.342-2.844,3.902-3.109c1.559-0.264,3.167-0.677,3.167-0.677L134.48,611.062z
		 M140.387,621.512c-0.292,0.237-2.931,2.312-7.789,2.312c-4.86,0-7.59-2.329-9.609-3.895c0,0-0.146-0.255-0.09-0.419
		c0.039-0.122,0.309-0.072,0.417,0.037c0.11,0.109,4.259,2.875,9.335,2.857c5.078-0.02,7.28-1.511,7.463-1.603
		c0.182-0.09,0.555-0.19,0.71-0.035C140.977,620.92,140.678,621.275,140.387,621.512z M142.697,619.783
		c0.055,1.619-1.329,3.348-1.492,3.239c-0.164-0.109,0-0.491,0-0.491c0.218-0.564,0.438-1.328,0.562-1.93
		c0.129-0.601-0.381-0.764-0.709-0.764c-0.326,0-1.729,0.127-1.729,0.127c-0.528,0.055-0.2-0.327-0.2-0.327
		c1.456-0.655,2.876-0.583,2.876-0.583C142.807,619.018,142.697,619.783,142.697,619.783z"/>
	<path fill="#FFFFFF" d="M130.48,615.072c0,0.854,0.766,1.402,1.666,1.402c0.903,0,1.481-0.422,1.941-0.874
		c0.463-0.449,0.393-1.549,0.393-1.549v-0.813c-0.353,0.107-2.039,0.422-2.637,0.578C131.245,613.973,130.48,614.219,130.48,615.072
		z"/>
	<path fill="#FFFFFF" d="M167.746,613.863c-1.63,0-1.782,1.53-1.782,1.53h3.582C169.546,615.394,169.59,613.863,167.746,613.863z"/>
	<path fill="#FFFFFF" d="M173.924,613.889c-1.97,0.081-1.916,1.899-1.916,1.899c0.018,2.131,1.95,2.634,3.125,1.719
		C176.307,616.594,175.895,613.809,173.924,613.889z"/>
	<path fill="#FFFFFF" d="M178.195,616.996c0.035,0.762,0.896,1.228,2.158,0.842c1.262-0.385,1.101-1.809,1.101-1.809
		C178.723,616.003,178.159,616.235,178.195,616.996z"/>
	<path fill="#FFFFFF" d="M176.771,599.766c-8.836,0-16,7.163-16,16s7.164,16,16,16s16-7.163,16-16S185.607,599.766,176.771,599.766z
		 M174.211,618.742c-1.514,0-2.23-0.913-2.23-0.913c0.01,0.456-0.044,0.717-0.044,0.717h-1.173c0.021-0.25,0.033-1.197,0.039-2.337
		h-4.865c0,0,0.07,1.736,1.889,1.736c0,0,1.227,0.072,1.558-0.93h1.254c0,0-0.134,1.029-1.28,1.449
		c-1.146,0.422-3.277,0.547-4.271-1.003c0,0-0.367-0.617-0.367-1.575c0-0.959,0.386-1.907,1.316-2.445
		c0.932-0.537,2.785-0.483,3.564,0.036c0.688,0.459,1.13,1.067,1.206,2.239c0.009-2.166,0.002-4.755,0.002-4.755h1.21v3.008
		c0.519-0.796,2.372-1.28,3.626-0.563c1.253,0.716,1.549,1.996,1.343,3.16C176.781,617.73,175.725,618.742,174.211,618.742z
		 M181.598,618.537c-0.035-0.135-0.054-0.734-0.054-0.734c-0.752,0.823-1.118,0.787-2.122,0.932
		c-1.002,0.143-2.516-0.395-2.489-1.631c0.026-1.234,0.761-1.432,1.46-1.691c0.698-0.26,3.062-0.18,3.062-0.18
		c0-1.003-0.511-1.361-1.629-1.361c-1.12,0-1.235,0.807-1.235,0.807h-1.271c0,0,0.018-1.621,2.587-1.621
		c2.974,0,2.767,1.979,2.767,1.979s0,2.113,0,2.633s0.037,0.869,0.037,0.869H181.598z M185.09,620.57h-1.379l1.093-2.033
		L182,613.263h1.389l2.095,4.119l2.052-4.138h1.289L185.09,620.57z"/>
	<path fill="#FFFFFF" d="M-43.126,555.835c-8.836,0-16,7.163-16,16s7.164,16,16,16s16-7.163,16-16S-34.29,555.835-43.126,555.835z
		 M-39.155,577.176c0,0-1.462-0.288-2.852-4.023l-1.263-2.779c0,0-0.92-2.508-3.898-2.508s-4.042,2.832-4.042,3.987
		s0.974,3.699,3.907,3.907c0,0,2.553,0.081,3.807-2.066c0,0,0.181-0.244,0.289-0.027l0.731,1.58c0,0,0.108,0.171-0.01,0.288
		c0,0-1.551,2.085-4.638,2.085c-3.085,0-5.964-2.445-5.964-5.803c0-3.355,2.815-5.766,6.172-5.766c3.357,0,4.764,2.247,5.549,3.952
		c0.785,1.706,1.57,3.519,1.706,3.83s0.677,1.719,1.773,1.896c1.096,0.176,2.829-0.136,2.829-1.692c0,0,0.203-0.947-1.529-1.421
		s-4.02-1.219-3.966-3.465s1.773-3.004,3.303-3.004c1.529,0,2.348,0.73,2.944,1.678c0,0,0.081,0.189-0.062,0.271l-1.143,0.575
		c0,0-0.183,0.095-0.298-0.074c-0.116-0.17-0.596-0.793-1.536-0.793c-0.941,0-1.394,0.738-1.394,1.375
		c0,0.636,0.588,1.068,2.125,1.488s3.451,1.078,3.451,3.568S-36.232,578.349-39.155,577.176z"/>
	<path fill="#FFFFFF" d="M0.854,555.835c-8.836,0-16,7.163-16,16s7.164,16,16,16s16-7.163,16-16S9.689,555.835,0.854,555.835z
		 M9.934,568.488c-0.157,0.707-0.759,1.726-2.589,2.354c0,0,1.019,4.787-3.715,7.533c-4.733,2.746-11.665-0.079-11.9-6.226
		c0,0-0.262-5.701,5.859-7.688c0,0,1.987-0.654,4.446,0.312v4.212c0,0-0.627-0.393-1.647-0.393c-1.021,0-3.061,0.575-3.793,2.118
		s-0.732,2.615,0.576,3.715c1.308,1.098,5.361,0.993,6.329-2.564v-6.434c0,0,1.962,1.072,3.218,1.596
		c1.255,0.523,2.275,0.654,2.693,0.732S10.09,567.781,9.934,568.488z"/>
	<path fill="#FFFFFF" d="M41.552,566.715c0,0-0.147-0.324,0.282-0.178c0,0,3.06,0.504,6.468,5.358c0,0,1.84,2.87,3.287,1.718
		c1.446-1.153,0.563-6.99-4.464-8.682c-5.027-1.692-9.784,2.402-9.515,7.357c0,0-0.024,0.906,0.663,1.104
		C38.958,573.588,42.551,572.864,41.552,566.715z"/>
	<path fill="#FFFFFF" d="M44.833,587.835c8.836,0,16-7.163,16-16s-7.164-16-16-16s-16,7.163-16,16S35.997,587.835,44.833,587.835z
		 M44.833,562.627c5.086,0,9.208,4.122,9.208,9.208c0,5.085-4.122,9.208-9.208,9.208c-5.085,0-9.209-4.123-9.209-9.208
		C35.624,566.749,39.747,562.627,44.833,562.627z"/>
	<path fill="#FFFFFF" d="M88.812,555.835c-8.836,0-16,7.163-16,16s7.164,16,16,16s16-7.163,16-16S97.648,555.835,88.812,555.835z
		 M78.132,575.098c-0.009,0.123-0.062,0.289-0.114,0.289s-0.07-0.175-0.078-0.254c-0.01-0.078-0.123-0.99-0.123-1.209
		c0-0.221,0.114-1.045,0.114-1.045c0.017-0.069,0.034-0.174,0.104-0.174s0.088,0.156,0.088,0.156s0.132,0.58,0.132,1.026
		C78.255,574.335,78.132,575.098,78.132,575.098z M78.979,575.729c-0.014,0.179-0.09,0.421-0.167,0.421
		c-0.076,0-0.102-0.255-0.114-0.37c-0.014-0.114-0.179-1.442-0.179-1.761c0-0.32,0.165-1.838,0.165-1.838
		c0.026-0.104,0.052-0.256,0.154-0.256c0.102,0,0.127,0.229,0.127,0.229s0.191,1.161,0.191,1.812S78.979,575.729,78.979,575.729z
		 M79.858,576.074c-0.013,0.179-0.089,0.421-0.165,0.421c-0.078,0-0.104-0.255-0.115-0.37c-0.014-0.115-0.18-1.787-0.18-2.105
		c0-0.32,0.166-2.171,0.166-2.171c0.025-0.102,0.051-0.255,0.154-0.255c0.102,0,0.127,0.229,0.127,0.229s0.191,1.493,0.191,2.145
		S79.858,576.074,79.858,576.074z M80.727,576.177c-0.013,0.179-0.09,0.421-0.166,0.421s-0.103-0.256-0.115-0.37
		c-0.013-0.115-0.178-1.89-0.178-2.208c0-0.32,0.165-2.26,0.165-2.26c0.026-0.102,0.052-0.255,0.153-0.255
		c0.103,0,0.128,0.229,0.128,0.229s0.191,1.582,0.191,2.233S80.727,576.177,80.727,576.177z M81.619,576.177
		c-0.012,0.179-0.089,0.421-0.165,0.421c-0.077,0-0.103-0.256-0.114-0.37c-0.014-0.115-0.18-1.89-0.18-2.208
		c0-0.32,0.166-2.119,0.166-2.119c0.025-0.103,0.051-0.256,0.153-0.256s0.128,0.23,0.128,0.23s0.191,1.441,0.191,2.093
		S81.619,576.177,81.619,576.177z M82.514,576.177c-0.013,0.179-0.09,0.421-0.166,0.421s-0.102-0.256-0.115-0.37
		c-0.013-0.115-0.178-2.272-0.178-2.591c0-0.32,0.165-3.179,0.165-3.179c0.026-0.103,0.052-0.256,0.153-0.256
		c0.103,0,0.128,0.229,0.128,0.229s0.19,2.502,0.19,3.154C82.691,574.236,82.514,576.177,82.514,576.177z M83.496,576.023
		c-0.038,0.472-0.102,0.587-0.229,0.587s-0.204-0.498-0.218-0.689c-0.012-0.191-0.127-2.067-0.152-2.744
		c0,0,0.127-2.706,0.152-3.025c0.026-0.319,0.039-0.74,0.18-0.74s0.229,0.28,0.229,0.728s0.103,2.463,0.103,2.975
		C83.561,573.623,83.535,575.551,83.496,576.023z M84.377,576.061c-0.039,0.473-0.102,0.524-0.229,0.524s-0.204-0.435-0.218-0.626
		c-0.012-0.191-0.127-2.209-0.152-2.885c0,0,0.127-3.024,0.152-3.344s0.039-0.74,0.18-0.74s0.229,0.28,0.229,0.727
		c0,0.447,0.104,2.783,0.104,3.293C84.441,573.521,84.416,575.589,84.377,576.061z M85.334,575.947
		c-0.037,0.472-0.127,0.638-0.255,0.638s-0.217-0.473-0.229-0.663c-0.013-0.192-0.09-2.172-0.115-2.848c0,0,0.064-3.024,0.09-3.344
		s0.102-0.855,0.242-0.855s0.242,0.408,0.242,0.855c0,0.446,0.09,2.77,0.09,3.279C85.398,573.521,85.373,575.475,85.334,575.947z
		 M86.202,576.291c0,0-0.013,0.332-0.217,0.332s-0.255-0.23-0.269-0.345c-0.012-0.114-0.089-3.536-0.089-3.842
		c0-0.307,0.103-2.72,0.103-2.923c0-0.205,0.038-0.574,0.255-0.574c0.204,0,0.255,0.293,0.255,0.434c0,0.14,0.076,2.643,0.076,3.178
		C86.316,573.088,86.355,575.334,86.202,576.291z M87.146,576.215c-0.051,0.306-0.141,0.396-0.268,0.396s-0.268-0.281-0.268-0.524
		c0-0.242-0.077-2.973-0.064-3.649c0,0,0.09-2.311,0.102-2.897c0,0,0.014-0.447,0.23-0.447s0.294,0.281,0.294,0.447
		c0,0,0.089,2.157,0.089,3.332C87.262,574.045,87.198,575.908,87.146,576.215z M88.092,576.215
		c-0.076,0.408-0.153,0.408-0.243,0.408c-0.089,0-0.318-0.141-0.318-0.498s-0.064-3.217-0.064-4.098s0.077-3.178,0.077-3.331
		s0.089-0.497,0.306-0.497c0.192,0,0.269,0.242,0.269,0.42c0,0.179,0.076,2.643,0.076,3.549S88.168,575.806,88.092,576.215z
		 M89.074,576.125c0,0.294-0.102,0.473-0.318,0.473c-0.218,0-0.307-0.205-0.307-0.408c0-0.205-0.115-2.209-0.115-3.18
		c0-0.969,0.09-4.059,0.09-4.313s0.012-0.995,0.344-0.995s0.32,0.664,0.32,0.932s0.051,3.994,0.051,3.994
		C89.164,573.305,89.074,575.831,89.074,576.125z M97.346,576.648c0,0-7.314,0-7.672,0s-0.369-0.37-0.369-0.37v-8.642
		c0.012-0.166,1.99-1.314,4.365,0.025c2.373,1.34,2.361,3.727,2.361,3.727c1.033-0.522,3.777-0.088,3.777,2.427
		C99.809,576.329,97.346,576.648,97.346,576.648z"/>
	<path fill="#FFFFFF" d="M132.793,555.835c-8.836,0-16,7.163-16,16s7.164,16,16,16s16-7.163,16-16S141.629,555.835,132.793,555.835z
		 M140.212,577.599c-0.269,1.166-1.167,2.118-2.729,2.084c0,0-0.845,0.07-1.527-0.755l-3.915-4.886l-0.018,2.963
		c0,0,0.018,1.581-1.061,2.246c-1.077,0.664-2.909,0.808-3.825-1.168c0,0-0.197-0.683-0.214-1.113v-10.185
		c0,0-0.019-1.634,1.167-2.443c1.186-0.808,3.035-0.377,3.718,0.987c0,0,0.251,0.378,0.216,1.258v2.677l2.909-4.186
		c0,0,0.701-1.082,2.066-1.143s2.694,1.286,2.623,2.544c-0.072,1.258-0.63,1.688-0.63,1.688l-2.388,3.448l3.233,4.132
		C139.836,575.748,140.483,576.43,140.212,577.599z"/>
	<circle fill="#FFFFFF" cx="181.662" cy="568.485" r="1.284"/>
	<circle fill="#FFFFFF" cx="172.567" cy="568.485" r="1.284"/>
	<path fill="#FFFFFF" d="M176.771,555.835c-8.836,0-16,7.163-16,16s7.164,16,16,16s16-7.163,16-16S185.607,555.835,176.771,555.835z
		 M184.791,571.595c-1.247,1.393-3.31,1.411-3.31,1.411h-3.525l2.187,6.636h-7.575v-2.17l-5.046,1.536v-5.895l5.027,1.41v-1.555
		c-0.922,0-2.261-0.325-3.381-1.572c-1.121-1.248-1.574-3.762-0.182-5.589c1.393-1.825,3.526-1.771,3.526-1.771
		c4.051,0.108,4.483,3.832,4.483,3.832h0.108c0.598-3.037,3.454-4.52,6.004-3.543c2.549,0.977,2.911,3.652,2.911,4.014
		C186.02,568.702,186.038,570.203,184.791,571.595z"/>
	<circle fill="#FFFFFF" cx="173.793" cy="523.607" r="1.42"/>
	<circle fill="#FFFFFF" cx="180.494" cy="522.346" r="1.42"/>
	<path fill="#FFFFFF" d="M176.771,511.646c-8.836,0-16,7.163-16,16s7.164,16,16,16s16-7.163,16-16S185.607,511.646,176.771,511.646z
		 M167.133,533.288l2.021-1.939l0.56,2.999L167.133,533.288z M174.313,536.289l-3.38-1.42l-0.82-4.401l2.68-2.56l2.761-0.5
		l1.521,8.381L174.313,536.289z M178.174,535.609l-1.84-9.762c0,0-0.82,0.939-1.939,1.1c-1.121,0.16-3.102-0.16-3.861-2.4
		c0,0-0.721-2.22,1.34-3.779c0,0,2.021-1.441,4.121,0.219c0,0,0.84,0.7,1.5-0.24s1.48-1.7,2.74-1.74
		c1.26-0.039,2.881,0.381,3.561,2.561c0.681,2.181-1.619,5.32-4.92,3.781l1.779,9.801L178.174,535.609z M185.977,533.108
		c-0.642,1.28-1.602,1.341-1.602,1.341l-2.68,0.479l-1.5-8.361l2.779-0.521c0.281-0.06,0.801,0.041,1.361,0.34
		c0.56,0.301,1.54,1.602,1.819,2.741C186.436,530.268,186.615,531.828,185.977,533.108z"/>
	<path fill="#FFFFFF" d="M132.793,511.646c-8.836,0-16,7.163-16,16s7.164,16,16,16s16-7.163,16-16S141.629,511.646,132.793,511.646z
		 M128.307,518.047c-0.191,0.22-0.219,1.03-0.219,1.03v1.896c0,0.481-0.357,0.413-0.357,0.413s-0.935,0-1.718,0
		c-0.783,0-1.388,0.316-1.388,0.316L128.307,518.047z M141.322,528.616c-0.041,1.209-0.288,3.312-0.577,4.699
		s-0.729,3.794-2.35,4.371c0,0-0.455,0.123-1.181,0.149c-0.729,0.029-3.148,0.181-3.932-0.727c0,0-0.604-0.591-0.577-1.855
		c0.027-1.264,0.055-2.42,1.869-2.598c0,0,0.894-0.042,1.292,0c0,0,0.164,0.041,0.123,0.165c-0.042,0.124-0.123,0.508-0.11,0.632
		c0.013,0.123,0.055,0.372,0.083,0.44c0.026,0.068-0.029,0.206-0.207,0.206c0,0-1.347-0.206-1.306,0.811
		c0.04,1.018,1.306,0.839,1.58,0.839c0.275,0,1.485,0,1.677-0.33c0.193-0.33,0.303-0.921,0.247-1.704
		c-0.054-0.783-0.083-2.131-1.498-2.241c0,0-2.734-0.137-3.188-1.057c0,0-0.371-0.51-0.33-1.678c0,0,0.021-0.196-0.055-0.196
		c-0.076,0-0.044,0.077-0.044,0.166c0,0.088-0.003,0.965-0.155,1.583c-0.151,0.619-0.301,1.43-0.749,1.663
		c-0.447,0.234-1.002,0.048-1.175,0.028c-0.171-0.021-2.274-0.345-3.766-0.79c-1.491-0.447-1.361-0.826-1.883-2.399
		c-0.522-1.572-0.79-4.301-0.831-4.769c-0.041-0.468-0.207-1.938,1.635-2.075h1.801c0,0,0.556,0.007,0.783-0.221
		c0.227-0.228,0.192-0.398,0.206-0.66c0.013-0.26,0-2.02,0-2.02s-0.096-1.417,1.732-1.58c1.828-0.165,3.655,0.137,3.903,1.565
		c0,0,2.362-0.039,3.71,0.221c1.347,0.262,2.02,0.288,2.502,0.99c0.48,0.7,0.467,2.074,0.522,2.831
		C141.131,523.832,141.364,527.405,141.322,528.616z"/>
	<path fill="#FFFFFF" d="M137.364,525.908c-0.961,0-1.112,0.771-1.209,1.237c0,0,1.306-0.248,2.172,0.247
		C138.327,527.393,138.327,525.908,137.364,525.908z"/>
	<path fill="#FFFFFF" d="M87.454,520.486h-5.056c-0.366,0-0.662,0.296-0.662,0.66v11.105c0,0.365,0.296,0.661,0.662,0.661h5.056
		c0.365,0,0.662-0.296,0.662-0.661v-11.105C88.116,520.782,87.819,520.486,87.454,520.486z"/>
	<path fill="#FFFFFF" d="M95.228,520.486h-5.057c-0.365,0-0.662,0.296-0.662,0.66v6.096c0,0.366,0.296,0.662,0.662,0.662h5.057
		c0.366,0,0.661-0.296,0.661-0.662v-6.096C95.889,520.782,95.594,520.486,95.228,520.486z"/>
	<path fill="#FFFFFF" d="M88.812,511.598c-8.836,0-16,7.163-16,16s7.164,16,16,16s16-7.163,16-16S97.648,511.598,88.812,511.598z
		 M97.271,535.394c0,0.366-0.296,0.662-0.661,0.662H81.016c-0.366,0-0.661-0.296-0.661-0.662V519.8c0-0.365,0.295-0.661,0.661-0.661
		H96.61c0.365,0,0.661,0.296,0.661,0.661V535.394z"/>
	<path fill="#FFFFFF" d="M44.833,543.598c8.836,0,16-7.163,16-16s-7.164-16-16-16s-16,7.163-16,16S35.997,543.598,44.833,543.598z
		 M48.669,520.936h6.555l-10.192,9.291l-3.098-3.277L48.669,520.936z M40.278,526.445l3.998,4.574l-3.494,3.24l-6.339-7.814H40.278z
		"/>
	<path fill="#FFFFFF" d="M4.294,523.962c0,0-1.015-1.212-1.769-0.033c-0.754,1.179-2.031,2.817-2.359,3.047s-1.212,0.982-2.162,0
		c-0.95-0.983-1.769-1.998-2.817-0.786c-1.049,1.212-2.228,3.211-2.785,5.012c0,0,1.441,3.211,8.223,3.211
		c6.78,0,8.616-3.112,8.616-3.112S8.88,527.893,4.294,523.962z"/>
	<path fill="#FFFFFF" d="M0.854,511.598c-8.836,0-16,7.163-16,16s7.164,16,16,16s16-7.163,16-16S9.689,511.598,0.854,511.598z
		 M0.625,535.559c-7.174,0-9.369-3.67-9.369-3.67s1.54-12.251,9.565-12.251c8.374,0,9.63,12.219,9.63,12.219
		S7.799,535.559,0.625,535.559z"/>
	<path fill="#FFFFFF" d="M-43.126,511.598c-8.836,0-16,7.164-16,16c0,8.837,7.164,16,16,16s16-7.163,16-16
		C-27.126,518.762-34.29,511.598-43.126,511.598z M-43.22,523.33c0,0-0.97,0.232-0.97,1.117v6.635c0,0-0.231,3.834-4.317,4.107
		c0,0-2.907,0.316-4.339-2.802c0,0-0.316-0.905-0.316-1.621l0.021-2.845h3.433v2.887c0,0,0.211,0.969,0.99,0.969
		c0.78,0,1.095-0.695,1.095-0.863v-6.51c0,0-0.21-1.728,1.622-3.434c1.833-1.706,5.182-1.348,6.552,0.863
		c0,0,0.801,0.948,0.801,2.486v1.327l-2.086,0.632l-1.327-0.653v-1.158C-42.061,524.468-42.083,523.33-43.22,523.33z
		 M-33.088,531.039c0,0-0.211,4.108-4.572,4.256c0,0-2.275,0.169-3.687-2.086c0,0-0.694-1.011-0.694-2.295v-2.928l1.328,0.609
		l2.105-0.59v2.844c0,0,0.065,1.012,1.033,1.012c0.969,0,1.011-0.906,1.011-0.906v-2.906h3.476V531.039z"/>
	<path fill="#FFFFFF" d="M176.771,467.576c-8.836,0-16,7.164-16,16c0,8.837,7.164,16,16,16s16-7.163,16-16
		C192.771,474.74,185.607,467.576,176.771,467.576z M174.437,479.391l6.135,3.573l-0.789,1.352l-6.135-3.645L174.437,479.391z
		 M172.804,482.866l6.825,1.872l-0.381,1.491l-6.839-1.886L172.804,482.866z M172.085,486.046l7.092,0.647l-0.141,1.533
		l-7.077-0.647L172.085,486.046z M171.902,488.649h7.12v1.52h-7.12V488.649z M181.43,492.561h-11.707v-7.345h1.181v6.162h9.344
		v-6.219h1.183V492.561z M180.81,482.752l-4.011-5.824l1.267-0.858l3.997,5.838L180.81,482.752z M182.343,481.825l-1.224-6.979
		l1.492-0.254l1.208,6.979L182.343,481.825z"/>
	<path fill="#FFFFFF" d="M132.793,467.576c-8.836,0-16,7.164-16,16c0,8.837,7.164,16,16,16s16-7.163,16-16
		C148.793,474.74,141.629,467.576,132.793,467.576z M139.793,480.507l-6,4.059h6l-12,8.051v-4.126l6-3.925h-6l5.934-4.059h-5.934
		v-3.972h12l-6.066,3.972H139.793z"/>
	<path fill="#FFFFFF" d="M89.569,467.576c-8.836,0-16,7.164-16,16c0,8.837,7.164,16,16,16s16-7.163,16-16
		C105.569,474.74,98.405,467.576,89.569,467.576z M96.264,480.219h-0.718l-0.287,0.287v6.139c0,0,0.144,0.467,0.431,0.467h0.574v1.4
		h-4.416v-1.363h0.826v-6.428l-2.369,7.791h-1.58l-2.046-7.646v6.318h0.825v1.328h-3.697v-1.363h0.574c0,0,0.539-0.037,0.575-0.468
		v-6.246c0,0-0.18-0.396-0.719-0.431h-0.431v-1.365h4.596l1.579,5.602l1.472-5.602h4.811V480.219z"/>
	<path fill="#FFFFFF" d="M46.272,489.54c0.189-0.142,0.806-0.537,1.09-0.49c0,0,0.585-0.079,0.886,0.49c0,0,0.126,0.238,0.285,0.127
		s0.095-0.236,0.047-0.331c-0.047-0.095-0.205-0.728-1.122-0.728c-0.917,0-1.486,0.585-1.612,0.728
		c-0.126,0.141-0.158,0.284-0.063,0.378C45.877,489.809,46.082,489.682,46.272,489.54z"/>
	<path fill="#FFFFFF" d="M44.833,499.576c8.836,0,16-7.163,16-16s-7.164-16-16-16s-16,7.163-16,16S35.997,499.576,44.833,499.576z
		 M42.269,477.072c0.316-0.215,0.818-0.564,1.03-0.752c0.32-0.285,0.652-0.581,0.807-1.731c0,0,0.012-0.344,0.166-0.166
		c0.155,0.177,1.209,1.636,2.384,2.216c0.685,0.339,1.014,0.497,1.234,0.616c2.938,1.205,5.007,4.091,5.007,7.463
		c0,4.454-3.61,8.063-8.063,8.063c-4.453,0-8.063-3.61-8.063-8.063C36.77,481.163,39.073,478.143,42.269,477.072z"/>
	<path fill="#FFFFFF" d="M42.557,488.971c1.407,0.064,3.462-1.392,3.81-1.596c0.348-0.205,0.807-0.585,1.36-0.553
		c0.553,0.031,0.98,0.617,2.214,1.739c1.233,1.122,2.039-1.233,2.149-1.771c0.111-0.537,0.364-1.408-0.363-2.072
		c-0.729-0.663-1.929,0.427-2.183,0.571c-0.252,0.141-1.28,0.932-1.896,0.964c-0.617,0.031-1.834-0.98-2.213-1.25
		c-0.379-0.27-1.897-1.281-3.557-0.458c-1.66,0.822-1.597,2.402-1.597,2.402C40.375,488.401,41.15,488.907,42.557,488.971z"/>
	<path fill="#FFFFFF" d="M48.675,490.504c-0.096,0.064-0.711,0.396-1.866,0.522c-1.154,0.125-2.008-0.3-2.261-0.442
		c-0.252-0.143-0.411,0-0.411,0c-0.206,0.237-0.016,0.378-0.016,0.378c0.711,0.569,1.691,0.633,2.704,0.569
		c1.011-0.063,1.865-0.601,1.976-0.664c0.11-0.063,0.237-0.142,0.19-0.332C48.944,490.347,48.77,490.441,48.675,490.504z"/>
	<path fill="#FFFFFF" d="M0.854,467.576c-8.836,0-16,7.164-16,16s7.164,16,16,16s16-7.164,16-16S9.689,467.576,0.854,467.576z
		 M9.087,487.055c-0.451,1.064-1.094,2.02-1.914,2.84c-0.822,0.821-1.776,1.465-2.841,1.916c-1.102,0.465-2.271,0.701-3.479,0.701
		c-1.206,0-2.375-0.236-3.479-0.701c-1.064-0.451-2.02-1.095-2.84-1.916c-0.82-0.82-1.465-1.775-1.916-2.84
		c-0.464-1.102-0.702-2.271-0.702-3.479c0-1.206,0.238-2.377,0.702-3.479c0.451-1.064,1.096-2.02,1.916-2.84
		c0.82-0.821,1.776-1.465,2.84-1.914c1.103-0.467,2.272-0.704,3.479-0.704c1.207,0,2.376,0.237,3.479,0.704
		c1.065,0.449,2.02,1.093,2.841,1.914c0.82,0.82,1.463,1.775,1.914,2.84c0.466,1.102,0.702,2.272,0.702,3.479
		C9.79,484.783,9.554,485.953,9.087,487.055z"/>
	<path fill="#FFFFFF" d="M0.854,475.083c-4.684,0-8.493,3.81-8.493,8.493s3.81,8.494,8.493,8.494c4.685,0,8.494-3.811,8.494-8.494
		S5.538,475.083,0.854,475.083z M-6.813,483.541c0-1.113,0.238-2.17,0.664-3.125l3.641,10.018
		C-5.058,489.188-6.813,486.569-6.813,483.541z M0.854,491.209c-0.743,0-1.461-0.106-2.142-0.305l2.298-6.591l2.377,6.466
		C2.594,491.057,1.742,491.209,0.854,491.209z M1.941,480.016c0.117-0.022,0.698-0.092,0.827-0.092c0.128,0,0.314-0.105,0.314-0.373
		s-0.326-0.268-0.326-0.268c-0.221,0-1.596,0.104-2.061,0.104c-0.466,0-1.828-0.093-1.956-0.104
		c-0.128-0.012-0.385,0.047-0.385,0.314s0.281,0.326,0.281,0.326l0.802,0.081l1.2,3.261l-1.675,4.977l-2.758-8.163
		c-0.046-0.101,0.07-0.086,0.07-0.086c0.071-0.007,0.66-0.062,0.66-0.062s0.458,0,0.403-0.373c-0.053-0.373-0.457-0.256-0.457-0.256
		c-1.344,0.108-2.392,0.062-2.392,0.062l-0.081,0.023c1.365-2.115,3.741-3.514,6.445-3.514c2.01,0,3.839,0.773,5.206,2.039
		c-0.391-0.001-0.767,0.104-0.974,0.344c-0.443,0.514-0.792,1.083,0.291,2.771c1.083,1.688,0.534,3.121,0.534,3.121l-1.232,4.018
		L1.941,480.016z M7.624,480.041c0-0.033,0-0.068-0.003-0.105c0.574,1.075,0.899,2.303,0.899,3.605c0,2.811-1.512,5.268-3.767,6.602
		c0.592-1.721,1.866-5.436,1.974-5.748c0.14-0.407,0.489-1.397,0.489-1.397C7.764,481.74,7.624,480.041,7.624,480.041z"/>
	<path fill="#FFFFFF" d="M-40.002,485.66h-6.354c-1.054,0.291-0.817,1.107-0.817,1.107c0,0.686,0.87,0.896,0.87,0.896h6.46
		c0.923-0.211,0.817-1.08,0.817-1.08C-39.026,485.767-40.002,485.66-40.002,485.66z"/>
	<path fill="#FFFFFF" d="M-43.126,467.576c-8.836,0-16,7.164-16,16s7.164,16,16,16s16-7.164,16-16S-34.29,467.576-43.126,467.576z
		 M-34.65,487.138c0,0-0.263,4.165-4.824,4.903h-7.224c0,0-4.429-0.343-4.904-5.221v-3.717v-2.689c0,0-0.052-2.083,1.635-3.771
		c1.687-1.687,3.743-1.528,3.743-1.528h3.665c0,0,2.268,0.236,3.613,1.951c1.344,1.713,1.239,3.375,1.239,3.375
		s-0.013,0.486,0.315,0.816c0.331,0.33,0.766,0.29,0.766,0.29h1.001c0,0,0.382,0.013,0.66,0.29c0.277,0.277,0.316,0.554,0.316,0.764
		V487.138z"/>
	<path fill="#FFFFFF" d="M-46.382,481.548h3.374c0,0,0.896-0.053,0.896-1.001c0-0.95-0.922-1.082-0.922-1.082h-3.164
		c-1.029,0.185-0.976,1.082-0.976,1.082C-47.173,481.336-46.382,481.548-46.382,481.548z"/>
	<path fill="#FFFFFF" d="M176.771,423.479c-8.836,0-16,7.164-16,16s7.164,16,16,16s16-7.164,16-16S185.607,423.479,176.771,423.479z
		 M185.465,441.983c0,0-0.075,2.215-2.473,2.578l1.413,3.696c0,0,0.076,0.219-0.037,0.334c-0.116,0.115-0.287,0.029-0.345-0.057
		l-3.447-3.984h-6.198c0,0-1.263-0.069-1.85-0.875l-2.745,3.497c0,0-0.201,0.272-0.501,0.258s-0.501-0.344-0.416-0.73l1.104-3.812
		c0,0-1.892-0.889-1.892-2.807v-6.633c0,0-0.1-1.16,0.903-2.163s2.048-0.974,2.162-0.974h9.67c0,0,1.211,0.007,2.048,0.845
		c0.288,0.288,0.491,0.586,0.639,0.876l0.045-0.002c0,0,1.919,0.516,1.919,2.56V441.983z"/>
	<path fill="#FFFFFF" d="M172.836,442.131h8.021c2.035-0.245,2.021-2.106,2.021-2.106v-6.562c-0.101-2.034-2.09-2.134-2.09-2.134
		h-9.543c-1.903,0-2.162,2.12-2.162,2.12v6.346c-0.029,1.003,0.701,2.121,1.448,2.25c0.744,0.129,0.429,0.73,0.429,0.73
		l-0.501,1.947l1.833-2.306C172.549,442.073,172.836,442.131,172.836,442.131z M178.423,435.241h1.244
		c1.033,0.07,0.903,0.745,0.903,0.745c-0.128,1.002-1.332,0.845-1.332,0.845h-1.16L178.423,435.241z M179.238,437.619
		c1.032,0.07,0.903,0.745,0.903,0.745c-0.13,1.003-1.333,0.845-1.333,0.845h-1.16l0.344-1.589H179.238z M175.586,433.835h1.246
		c1.032,0.072,0.901,0.745,0.901,0.745c-0.128,1.004-1.33,0.847-1.33,0.847h-1.162L175.586,433.835z M175.142,436.128h1.246
		c1.032,0.071,0.901,0.745,0.901,0.745c-0.128,1.003-1.331,0.845-1.331,0.845h-1.161L175.142,436.128z M175.944,438.55
		c1.031,0.071,0.902,0.745,0.902,0.745c-0.13,1.003-1.333,0.844-1.333,0.844h-1.161l0.345-1.589H175.944z M172.433,433.835h1.248
		c1.03,0.072,0.902,0.745,0.902,0.745c-0.13,1.004-1.333,0.847-1.333,0.847h-1.16L172.433,433.835z M171.646,437.718l0.344-1.589
		h1.245c1.032,0.071,0.903,0.745,0.903,0.745c-0.129,1.003-1.333,0.845-1.333,0.845H171.646z"/>
	<path fill="#FFFFFF" d="M183.852,440.182c0,0,0,1.16-0.759,1.919c-0.761,0.76-1.548,1.003-2.321,1.003h-7.794l-0.17,0.216
		c0.143,0.139,0.832,0.772,1.545,0.772h6.39l2.823,3.224l-1.031-2.708c0,0-0.115-0.325-0.011-0.43
		c0.105-0.104,0.25-0.067,0.372-0.067c0,0,0.984-0.095,1.577-0.821c0.592-0.725,0.534-1.336,0.534-1.336v-7.507
		c0,0-0.144-1.283-1.281-1.847c0.095,0.332,0.126,0.632,0.126,0.863V440.182z"/>
	<path fill="#FFFFFF" d="M132.793,423.563c-8.836,0-16,7.164-16,16s7.164,16,16,16s16-7.164,16-16S141.629,423.563,132.793,423.563z
		 M129.076,439.338c-0.243,1.891-2.51,1.592-2.51,1.592h-2.188l0.647-2.995h2.349C129.319,438.069,129.076,439.338,129.076,439.338z
		 M127.402,436.611h-2.188l0.648-2.996h2.35c1.943,0.135,1.699,1.403,1.699,1.403C129.67,436.909,127.402,436.611,127.402,436.611z
		 M134.178,443.9c-0.244,1.89-2.51,1.592-2.51,1.592h-2.188l0.648-2.996h2.348C134.42,442.631,134.178,443.9,134.178,443.9z
		 M135.015,439.338c-0.243,1.891-2.511,1.592-2.511,1.592h-2.187l0.648-2.995h2.349
		C135.258,438.069,135.015,439.338,135.015,439.338z M133.34,436.611h-2.186l0.648-2.996h2.348c1.943,0.135,1.701,1.403,1.701,1.403
		C135.607,436.909,133.34,436.611,133.34,436.611z M140.386,442.146c-0.241,1.889-2.509,1.592-2.509,1.592h-2.188l0.648-2.996h2.348
		C140.629,440.877,140.386,442.146,140.386,442.146z M141.195,437.665c-0.241,1.89-2.51,1.591-2.51,1.591h-2.188l0.649-2.995h2.348
		C141.439,436.396,141.195,437.665,141.195,437.665z"/>
	<path fill="#FFFFFF" d="M88.807,455.563c8.836,0.003,16.002-7.158,16.005-15.995s-7.159-16.002-15.995-16.005
		s-16.002,7.158-16.005,15.995S79.971,455.561,88.807,455.563z M91.46,430.658c1.452,0,2.63,1.178,2.63,2.631
		c0,1.451-1.178,2.631-2.63,2.631c-1.454,0-2.632-1.18-2.632-2.631C88.828,431.836,90.006,430.658,91.46,430.658z M86.469,441.029
		c1.301-2.57,0.574-2.963,2.571-5.02c0,0,2.298,2.359,7.287,1.512l0.454,1.937c0,0-2.117,0.816-5.201,0.453
		c0,0-0.938-0.091-0.938,0.635c0,0,0.061,0.333,0.393,0.635c0,0,1.784,1.785,2.329,2.51c0.544,0.727,1.36,2.118,1.813,3.901
		l-1.995,0.877c0,0-1.27-2.842-4.083-4.778c0,0-0.694-0.483-1.238,0.092c0,0-1.24,1.329-2.753,2.116
		c-1.513,0.785-3.659,0.847-3.659,0.847l-0.604-2.3C80.846,444.445,85.17,443.601,86.469,441.029z"/>
	<path fill="#FFFFFF" d="M44.833,455.564c8.836,0,16-7.164,16-16s-7.164-16-16-16s-16,7.164-16,16S35.997,455.564,44.833,455.564z
		 M50.673,433.594c0,0,0.101-1.218,1.217-1.04s0.38,2.484,0.38,2.484l-1.824,8.442c0,0-0.432-0.127-0.711-0.127L50.673,433.594z
		 M49.722,444.646c0.538,0,0.976,0.438,0.976,0.976c0,0.54-0.438,0.977-0.976,0.977c-0.539,0-0.976-0.437-0.976-0.977
		C48.746,445.084,49.183,444.646,49.722,444.646z M38.934,432.478l3.778,6.187l3.752-6.11c0,0,1.116,0.127,1.75,0.025l-4.69,7.909
		l0.051,6.161c0,0-0.583-0.329-1.774-0.025l0.151-6.009l-4.792-8.087C37.16,432.528,38.047,432.655,38.934,432.478z"/>
	<path fill="#FFFFFF" d="M0.854,423.564c-8.836,0-16,7.164-16,16s7.164,16,16,16s16-7.164,16-16S9.689,423.564,0.854,423.564z
		 M7.042,444.92c0,0-1.031,1.294-2.116,1.896c0,0,0.075,0.773,1.87,1.492c0,0,0.247,0,0.247,0.291v1.074
		c0,0,0.011,0.205-0.161,0.205c0,0-1.687,0.332-2.976-0.398c0,0-0.968-0.602-1.461-1.633c0,0-2.644,0.859-5.404-0.527
		c-2.761-1.385-3.718-3.277-4.341-4.727c-0.623-1.451-0.87-3.943,0.333-6.641c1.203-2.696,4.351-4.791,7.483-4.732
		c0,0,3.013-0.145,5.382,1.998c2.37,2.145,2.788,4.416,2.934,5.721C8.976,440.246,8.702,442.824,7.042,444.92z"/>
	<path fill="#FFFFFF" d="M4.786,438.414c-0.021-1.848-0.966-3.181-0.966-3.181c-1.354-2.04-3.374-1.825-3.374-1.825
		c-0.651-0.022-1.978,0.295-3.025,1.697c-1.047,1.401-1.063,3.336-1.063,3.336v2.594c0.065,1.822,0.99,3.143,0.99,3.143
		c1.379,1.943,3.248,1.838,3.248,1.838c0.516,0,0.919-0.137,0.919-0.137c-0.766-1.347-1.926-1.459-1.926-1.459
		c-0.152,0-0.121-0.193-0.121-0.193v-1.346c0-0.242,0.226-0.191,0.226-0.191c2.557-0.02,3.954,1.678,3.954,1.678
		c1.246-1.656,1.138-3.417,1.138-3.417V438.414z"/>
	<path fill="#FFFFFF" d="M-43.126,423.564c-8.836,0-16,7.164-16,16s7.164,16,16,16s16-7.164,16-16S-34.29,423.564-43.126,423.564z
		 M-36.749,447.452c0,0-4.284-0.077-6.222-0.077c-1.938,0-3.372-0.078-7.075,0.117V446.6c0,0,1.066-0.252,1.299-0.31
		c0.232-0.058,0.91-0.097,0.91-1.065c0,0,0.059-2.598,0.059-5.834c0-3.237-0.059-5.428-0.059-5.428s0.097-0.93-1.104-1.066
		l-1.105-0.193v-0.91c0,0,3.877,0.096,7.288,0.096c3.412,0,5.505-0.174,5.814-0.251c0,0-0.193,2.81-0.291,4.476h-0.872
		c0,0-0.251-1.162-0.523-1.879c-0.272-0.717-0.698-1.299-1.532-1.299h-4.806c0,0-0.407,0.059-0.407,0.445v5.68
		c0,0,2.345,0.02,3.275-0.136c0.931-0.155,0.872-0.33,1.046-0.969l0.349-1.28h0.892c0,0-0.097,2.268-0.097,2.869
		s0.058,2.52,0.058,2.791H-40.8c0,0-0.078-0.427-0.233-1.046c-0.154-0.621-0.252-1.028-1.124-1.105c0,0-2.558-0.097-3.237-0.097
		v4.846c0,0-0.135,1.395,1.59,1.395h3.644c0,0,1.745,0.02,2.345-1.763l0.776-1.745h0.833
		C-36.206,442.82-36.536,445.844-36.749,447.452z"/>
	<path fill="#FFFFFF" d="M-43.126,379.326c-8.836,0-16,7.164-16,16s7.164,16,16,16s16-7.164,16-16S-34.29,379.326-43.126,379.326z
		 M-51.605,388.093h6.099l-6.099,14.488V388.093z M-41.607,402.603l-1.224-2.834h-3.083l2.766-6.506l4.103,9.34H-41.607z
		 M-34.646,402.581l-6.258-14.532h6.258V402.581z"/>
	<path fill="#FFFFFF" d="M3.74,388.663c-2.562,0.158-4.175,1.509-4.175,1.509c0.754,0.333,1.333,0.859,1.333,0.859
		c0.684-0.422,1.596-0.736,1.596-0.736c2.351-0.562,5.719,0.578,6.333,3.912c0.615,3.332-1.579,4.946-1.579,4.946
		c-3.947,3.053-6.946,0-6.946,0l-3.351-3.351c-0.122-0.123-0.544-0.316-0.965,0.105c-0.42,0.421-0.087,0.895-0.087,0.895
		l2.772,2.771c0.964,1,2.157,1.93,3.438,2.176c1.281,0.245,4.438,0.648,6.807-2.229c2.368-2.877,1.368-5.982,0.631-7.49
		C8.809,390.522,6.301,388.506,3.74,388.663z"/>
	<path fill="#FFFFFF" d="M-2.68,400.434c-2.457,0.387-3.702-1.403-3.702-1.403c-2.262-2.911,0.316-5.333,0.316-5.333
		c2.491-2.49,5.314-0.158,5.314-0.158l2.421,2.439c0,0,0.474,0.49,0.982-0.018c0.508-0.509-0.053-1.105-0.053-1.105l-1.474-1.509
		c-0.614-0.649-3.491-3.421-6.824-1.632c-3.333,1.789-3.667,5.333-2.158,7.754c1.509,2.421,4.158,2.456,4.649,2.49
		c0.491,0.036,2.21,0.036,2.21,0.036C-1.505,401.714-2.68,400.434-2.68,400.434z"/>
	<path fill="#FFFFFF" d="M0.854,379.326c-8.836,0-16,7.164-16,16s7.164,16,16,16s16-7.164,16-16S9.689,379.326,0.854,379.326z
		 M9.354,401.363c-2.333,2.246-5.526,2.158-5.526,2.158h-7.192c-1.263,0.069-4.263-0.545-6.035-3.509
		c-1.771-2.965-0.315-6.368-0.315-6.368c2.649-5.034,7.509-3.945,7.509-3.945c3.193-3.281,7.192-2.492,7.192-2.492
		c6.139,1.211,7.017,6.438,7,8C11.967,396.768,11.687,399.117,9.354,401.363z"/>
	<path fill="#FFFFFF" d="M44.833,411.326c8.836,0,16-7.164,16-16s-7.164-16-16-16s-16,7.164-16,16S35.997,411.326,44.833,411.326z
		 M49.195,392.366c0,0,0.015-0.278,0.269-0.278h4.885v8.674c0,0-0.04,0.186-0.278,0.186h-4.862v-1.15c0,0,0.017-0.284,0.254-0.284
		h2.972v-0.833h-3.241V392.366z M43.557,392.366c0,0,0.016-0.278,0.27-0.278h4.884v8.674c0,0-0.038,0.186-0.278,0.186h-4.861v-1.15
		c0,0,0.016-0.284,0.254-0.284h2.97v-0.833h-3.24V392.366z M41.033,389.959c0,0,0.023-0.254,0.255-0.254h1.659v1.156
		c0,0,0.023,0.264-0.292,0.264h-1.621V389.959z M41.033,392.344c0,0,0.023-0.256,0.255-0.256h1.659v6.352
		c0,0,0.023,0.264-0.292,0.264h-1.621V392.344z M35.315,392.336c0-0.201,0.24-0.238,0.24-0.238h2.982v-2.165
		c0-0.174,0.227-0.228,0.227-0.228h1.705l0.017,8.78c0,0.163-0.263,0.218-0.263,0.218h-4.908V392.336z"/>
	<path fill="#FFFFFF" d="M45.431,393.732v3.488h1.113c0.177,0,0.223-0.209,0.223-0.209v-3.518h-1.107
		C45.424,393.494,45.431,393.732,45.431,393.732z"/>
	<path fill="#FFFFFF" d="M37.19,393.81v3.472h1.088c0.263,0,0.248-0.27,0.248-0.27v-3.457h-1.12
		C37.184,393.555,37.19,393.81,37.19,393.81z"/>
	<path fill="#FFFFFF" d="M51.07,393.732v3.488h1.111c0.177,0,0.224-0.209,0.224-0.209v-3.518h-1.107
		C51.062,393.494,51.07,393.732,51.07,393.732z"/>
	<path fill="#FFFFFF" d="M88.941,398.966c-0.994,0-1.674-0.122-2.219-1.211c-0.543-1.088-0.774-1.103-1.211-1.157
		c-0.434-0.054-1.578,0.436-0.883,1.934c0.693,1.496,2.652,2.217,4.543,2.096c1.893-0.123,4.125-0.83,4.125-3.389
		s-3.021-2.817-5.035-3.361c0,0-1.389-0.271-1.389-1.048s0.967-1.128,1.66-1.128c0.694,0,1.496-0.015,2.055,1.019
		c0.559,1.034,1.075,1.089,1.782,0.749c0,0,0.559-0.312,0.436-1.17c-0.122-0.857-1.415-2.368-4.327-2.232
		c-2.912,0.137-3.879,1.675-3.879,2.967c0,1.293,1.172,2.327,2.506,2.668c1.333,0.34,2.366,0.57,2.748,0.693
		c0.381,0.123,1.088,0.436,1.088,1.238S89.935,398.966,88.941,398.966z"/>
	<path fill="#FFFFFF" d="M88.812,411.326c8.836,0,16-7.164,16-16s-7.164-16-16-16s-16,7.164-16,16S79.977,411.326,88.812,411.326z
		 M85.199,387.209c0.869,0,1.678,0.248,2.363,0.673c0.434-0.077,0.882-0.118,1.339-0.118c4.216,0,7.634,3.419,7.634,7.638
		c0,0.554-0.059,1.093-0.171,1.613c0.318,0.605,0.497,1.291,0.497,2.021c0,2.435-2.004,4.408-4.477,4.408
		c-0.768,0-1.49-0.191-2.122-0.526c-0.442,0.079-0.896,0.122-1.361,0.122c-4.216,0-7.634-3.42-7.634-7.638
		c0-0.526,0.053-1.038,0.154-1.535c-0.417-0.665-0.658-1.45-0.658-2.289C80.764,389.165,82.75,387.209,85.199,387.209z"/>
	<path fill="#FFFFFF" d="M132.793,379.326c-8.836,0-16,7.164-16,16s7.164,16,16,16s16-7.164,16-16S141.629,379.326,132.793,379.326z
		 M132.952,404.166c-1.552,0-3.072-0.396-4.417-1.146l-4.963,1.592l1.631-4.807c-0.86-1.414-1.312-3.031-1.312-4.701
		c0-4.996,4.064-9.062,9.062-9.062s9.062,4.065,9.062,9.062C142.014,400.102,137.949,404.166,132.952,404.166z"/>
	<path fill="#FFFFFF" d="M132.952,387.504c-4.19,0-7.601,3.408-7.601,7.6c0,1.503,0.438,2.955,1.266,4.201l0.199,0.299l-0.928,2.729
		l2.828-0.909l0.285,0.176c1.187,0.723,2.553,1.105,3.95,1.105c4.19,0,7.601-3.41,7.601-7.602S137.143,387.504,132.952,387.504z
		 M136.838,398.783c-0.658,0.413-1.242,0.607-1.913,0.475c-0.669-0.135-2.302-0.549-3.97-2.096c0,0-1.486-1.4-2.096-2.861
		s-0.061-2.485,0.475-2.996c0,0,0.354-0.329,0.621-0.318c0.268,0.013,0.537-0.011,0.646,0.051c0.109,0.06,0.134,0.145,0.182,0.207
		c0,0,0.695,1.606,0.756,1.752c0.061,0.146,0.086,0.318-0.037,0.525c-0.121,0.207-0.499,0.609-0.56,0.706
		c-0.062,0.097-0.159,0.17,0.013,0.426c0.17,0.256,0.925,1.705,3.008,2.57c0,0,0.219,0.098,0.39-0.073
		c0.17-0.17,0.62-0.756,0.683-0.828c0.061-0.074,0.231-0.268,0.512-0.146c0.279,0.121,1.766,0.828,1.766,0.828
		s0.207,0.074,0.193,0.39C137.495,397.711,137.495,398.369,136.838,398.783z"/>
	<path fill="#FFFFFF" d="M175.538,391.391h-2.792c0,0-0.482,0.015-0.482,0.581v2.651c0,0-0.013,0.609,0.525,0.609l1.983-0.015
		c0,0,0.101,0.979-0.892,1.234c0,0-0.34,0.113-0.34,0.339c0,0.227,0,0.667,0,0.667s0.042,0.312,0.354,0.27s2.068-0.439,2.141-2.494
		v-3.247C176.035,391.986,176.105,391.391,175.538,391.391z"/>
	<path fill="#FFFFFF" d="M176.771,379.326c-8.836,0-16,7.164-16,16s7.164,16,16,16s16-7.164,16-16S185.607,379.326,176.771,379.326z
		 M185.152,395.615c-0.315,2.588-2.314,5.045-2.314,5.045c-2.098,2.919-5.926,4.578-5.926,4.578c-0.141,0.071-0.127-0.1-0.127-0.1
		l-0.027-2.65c-4.713-0.007-8.533-3.83-8.533-8.546c0-4.72,3.826-8.546,8.547-8.546c4.72,0,8.546,3.826,8.546,8.546
		C185.317,394.515,185.26,395.074,185.152,395.615z"/>
	<path fill="#FFFFFF" d="M180.811,391.391h-2.792c0,0-0.481,0.015-0.481,0.581v2.651c0,0-0.016,0.609,0.523,0.609l1.984-0.015
		c0,0,0.1,0.979-0.893,1.234c0,0-0.34,0.113-0.34,0.339c0,0.227,0,0.667,0,0.667s0.042,0.312,0.354,0.27
		c0.312-0.042,2.069-0.439,2.14-2.494v-3.247C181.307,391.986,181.378,391.391,180.811,391.391z"/>
	<path fill="#FFFFFF" d="M-43.126,335.27c-8.836,0-16,7.164-16,16s7.164,16,16,16s16-7.164,16-16S-34.29,335.27-43.126,335.27z
		 M-35.109,353.131c0,0.092-0.075,0.166-0.167,0.166h-5.82v5.821c0,0.093-0.075,0.168-0.167,0.168h-3.723
		c-0.092,0-0.167-0.075-0.167-0.168v-5.821h-5.82c-0.093,0-0.167-0.074-0.167-0.166v-3.723c0-0.092,0.075-0.167,0.167-0.167h5.82
		v-5.821c0-0.092,0.075-0.167,0.167-0.167h3.723c0.092,0,0.167,0.075,0.167,0.167v5.821h5.82c0.093,0,0.167,0.075,0.167,0.167
		V353.131z"/>
	<path fill="#FFFFFF" d="M0.854,335.27c-8.836,0-16,7.164-16,16s7.164,16,16,16s16-7.164,16-16S9.689,335.27,0.854,335.27z
		 M-2.543,351.21c0,0.183-0.018,0.364-0.049,0.538l5.82,2.965c0.548-0.511,1.281-0.824,2.089-0.824c1.694,0,3.067,1.374,3.067,3.068
		c0,1.693-1.373,3.066-3.067,3.066c-1.693,0-3.067-1.373-3.067-3.066c0-0.078,0.005-0.154,0.01-0.232l-6.022-3.066
		c-0.514,0.388-1.154,0.618-1.847,0.618c-1.694,0-3.067-1.372-3.067-3.066s1.373-3.067,3.067-3.067c0.774,0,1.481,0.288,2.021,0.762
		l5.854-3.027c-0.01-0.098-0.016-0.195-0.016-0.295c0-1.693,1.374-3.066,3.067-3.066c1.694,0,3.067,1.373,3.067,3.066
		c0,1.694-1.373,3.068-3.067,3.068c-0.785,0-1.5-0.297-2.042-0.781l-5.835,3.018C-2.549,350.993-2.543,351.101-2.543,351.21z"/>
	<path fill="#FFFFFF" d="M44.833,367.27c8.836,0,16-7.164,16-16s-7.164-16-16-16s-16,7.164-16,16S35.997,367.27,44.833,367.27z
		 M38.551,342.144l4.179,1.213v10.293l-3.934,3.567l9.652-5.076l-2.607-1.19l-1.921-4.071l9.194,2.802v4.472l-10.383,6.24
		l-4.179-2.9V342.144z"/>
	<path fill="#FFFFFF" d="M88.812,367.27c8.836,0,16-7.164,16-16s-7.164-16-16-16s-16,7.164-16,16S79.977,367.27,88.812,367.27z
		 M87.844,344.35l8.889-1.781v7.931l-8.889,0.067V344.35z M87.844,351.973l8.889,0.067v7.931l-8.889-1.815V351.973z M80.893,345.594
		l5.562-1.16v6.184l-5.562,0.016V345.594z M80.893,351.873h5.562v6.131l-5.562-1.125V351.873z"/>
	<path fill="#FFFFFF" d="M132.793,335.27c-8.836,0-16,7.164-16,16s7.164,16,16,16s16-7.164,16-16S141.629,335.27,132.793,335.27z
		 M140.997,354.485h-2.319c0,0,0.529,0.997,0.998,1.776c0.471,0.777,1.027,1.614,1.027,1.614s0.338,0.47,0.029,0.806
		c-0.309,0.338-1.188,0.823-1.658,0.045l-1.38-3.154l-0.718-1.116h-8.131l-1.115,2.024c0,0-0.133,0.221-0.309,0.367
		c0,0-1.204,1.058-1.953,1.865c0,0-0.314,0.359-0.426,0.248c-0.108-0.109,0.016-0.482,0.06-0.675
		c0.044-0.19,0.455-1.908,0.455-1.908s0.132-0.688,0.249-0.88l0.559-1.013h-1.776v-3.214h3.654l2.363-4.24
		c0,0,0.483-0.969,1.556-0.338c1.071,0.631,0.293,1.584,0.293,1.584l-1.717,2.994h4.359c0,0-2.363-4.945-2.994-6.531
		c0,0-0.484-1.101-0.25-1.277c0.235-0.175,0.543-0.102,1.336,1.248c0,0,1.057,1.586,1.879,2.965c0.822,1.38,1.775,2.95,2.084,3.581
		h3.845V354.485z"/>
	<path fill="#FFFFFF" d="M176.771,335.27c-8.836,0-16,7.164-16,16s7.164,16,16,16s16-7.164,16-16S185.607,335.27,176.771,335.27z
		 M172.159,343.457l8.954,5.013l-2.151,2.149l-7.207-7.264C171.922,343.354,172.068,343.403,172.159,343.457z M170.714,358.437
		c-0.336-0.294-0.266-0.53-0.266-0.74v-13.087c0,0,0.036-0.366,0.301-0.587l7.375,7.435l-7.099,7.1
		C170.905,358.543,170.794,358.507,170.714,358.437z M172.354,358.901l6.606-6.605l1.904,1.921L172.354,358.901z M184.652,351.914
		l-2.848,1.567l-2.008-2.022l2.253-2.252l2.716,1.521c0,0,0.335,0.279,0.335,0.531C185.101,351.508,184.849,351.788,184.652,351.914
		z"/>
	<circle fill="#FFFFFF" cx="174.379" cy="301.264" r="0.446"/>
	<circle fill="#FFFFFF" cx="179.131" cy="301.264" r="0.446"/>
	<path fill="#FFFFFF" d="M176.771,291.077c-8.836,0-16,7.164-16,16s7.164,16,16,16s16-7.164,16-16S185.607,291.077,176.771,291.077z
		 M171.093,309.765c0,0.629-0.509,1.139-1.139,1.139c-0.628,0-1.139-0.51-1.139-1.139v-4.787c0-0.629,0.511-1.139,1.139-1.139
		c0.63,0,1.139,0.51,1.139,1.139V309.765z M181.971,311.586c-0.138,1.233-1.232,1.216-1.232,1.216h-0.875v2.691
		c-0.159,1.111-1.161,1.056-1.161,1.056c-1.171-0.072-1.155-1.15-1.155-1.15v-2.592h-1.579v2.559c0,0.297-0.226,1.178-1.188,1.178
		s-1.139-1.068-1.139-1.068v-2.668h-0.952c-1.056-0.148-1.134-1.133-1.134-1.133v-7.654h10.416V311.586z M171.441,303.543
		c0.154-1.809,1.211-3.339,2.717-4.167c-0.002-0.003-0.004-0.006-0.008-0.01l-0.841-1.519c-0.044-0.08-0.016-0.18,0.063-0.225
		c0.08-0.043,0.18-0.015,0.225,0.064l0.842,1.519c0.005,0.007,0.008,0.015,0.01,0.023c0.698-0.33,1.479-0.515,2.306-0.515
		c0.816,0,1.591,0.185,2.282,0.513l0.83-1.475c0.045-0.079,0.146-0.107,0.225-0.062c0.08,0.044,0.107,0.145,0.064,0.225
		l-0.824,1.463c1.503,0.832,2.562,2.369,2.73,4.166H171.441z M184.728,309.765c0,0.629-0.511,1.139-1.139,1.139
		c-0.63,0-1.139-0.51-1.139-1.139v-4.787c0-0.629,0.509-1.139,1.139-1.139c0.628,0,1.139,0.51,1.139,1.139V309.765z"/>
	<path fill="#FFFFFF" d="M132.793,291.077c-8.836,0-16,7.164-16,16s7.164,16,16,16s16-7.164,16-16S141.629,291.077,132.793,291.077z
		 M136.242,298.452c0,3.899-3.449,3.981-3.449,3.981C132.793,298.783,136.242,298.452,136.242,298.452z M138.566,313.707
		c-1.017,1.416-2.088,2.487-3.812,1.707s-2.724-0.164-3.467,0.054c-0.745,0.218-1.418,0.672-2.869-0.889
		c-1.452-1.562-2.197-3.722-2.451-4.848s-0.576-4.062,1.199-5.836c1.773-1.775,3.738-1.153,4.201-0.972
		c0.464,0.182,1.371,0.463,1.371,0.463c0.582,0.082,0.926-0.227,1.779-0.536c0.854-0.308,1.979-0.399,3.214,0.127
		c1.234,0.526,1.634,1.38,1.634,1.38s-1.852,0.799-1.852,3.286c0,2.487,2.305,3.467,2.305,3.467S139.583,312.291,138.566,313.707z"
		/>
	<path fill="#FFFFFF" d="M88.812,323.077c8.836,0,16-7.164,16-16s-7.164-16-16-16s-16,7.164-16,16S79.977,323.077,88.812,323.077z
		 M89.553,298.449h7.872v7.872h-7.872V298.449z M89.553,307.833h7.872v7.872h-7.872V307.833z M80.199,298.449h7.873v7.872h-7.873
		V298.449z M80.199,307.833h7.873v7.872h-7.873V307.833z"/>
	<path fill="#FFFFFF" d="M-43.503,322.741c8.836,0,16-7.164,16-16s-7.164-16-16-16s-16,7.164-16,16S-52.339,322.741-43.503,322.741z
		 M-51.604,298.64h16.202v16.201h-16.202V298.64z"/>
	<rect x="-43.503" y="306.756" fill="#FFFFFF" width="6.691" height="6.691"/>
	<rect x="-50.194" y="300.034" fill="#FFFFFF" width="6.691" height="6.691"/>
	<path fill="#FFFFFF" d="M-43.126,279.198c8.836,0,16-7.164,16-16s-7.164-16-16-16s-16,7.164-16,16S-51.962,279.198-43.126,279.198z
		 M-43.505,255.009c5.446,0,8.561,3.063,8.561,6.152c0,3.09-1.833,4.373-3.508,5.315c-1.675,0.943-4.169,0.295-4.169,0.295
		c0.354,1.374-0.51,4.692-3.201,4.614c-2.69-0.079-2.317-1.335-2.317-1.846c0-0.511,0.059-1.276,0.059-1.276l0.806,0.333
		c1.414,0.727,1.374-1.256,1.374-1.256v-7.737c1.787-0.334,3.083,0.04,3.083,0.04v4.653c0.766,0.314,1.335,0.393,2.258,0.314
		s2.611-0.903,2.611-3.004s-2.199-4.025-5.36-4.025c-3.161,0-5.105,2.435-5.105,3.869c0,1.433,0.825,2.238,0.825,2.238l-2.396,1.787
		c0,0-1.375-1.433-1.322-3.947C-51.24,258.309-48.95,255.009-43.505,255.009z"/>
	<path fill="#FFFFFF" d="M0.854,247.198c-8.836,0-16,7.164-16,16s7.164,16,16,16s16-7.164,16-16S9.689,247.198,0.854,247.198z
		 M6.872,257.696c1.577,0,2.854,1.278,2.854,2.854c0,1.576-1.277,2.854-2.854,2.854s-2.854-1.278-2.854-2.854
		C4.017,258.974,5.295,257.696,6.872,257.696z M0.255,258.83c1.408,0,2.548,1.141,2.548,2.548c0,1.407-1.14,2.548-2.548,2.548
		c-1.407,0-2.548-1.141-2.548-2.548C-2.292,259.97-1.151,258.83,0.255,258.83z M-5.751,259.794c1.27,0,2.3,1.03,2.3,2.3
		c0,1.271-1.03,2.3-2.3,2.3c-1.271,0-2.3-1.03-2.3-2.3C-8.052,260.824-7.022,259.794-5.751,259.794z M-3.204,268.488
		c0,0-0.042,0.211-0.254,0.211h-4.608c0,0-0.232-0.056-0.232-0.233v-0.995c0,0,0.127-2.434,2.562-2.541c0,0,0.935-0.066,1.75,0.749
		c0.815,0.814,0.783,1.735,0.783,1.735V268.488z M3.079,268.466c0,0-0.046,0.234-0.282,0.234H-2.31c0,0-0.257-0.062-0.257-0.258
		v-1.103c0,0,0.14-2.699,2.838-2.815c0,0,1.037-0.075,1.939,0.829c0.903,0.903,0.868,1.924,0.868,1.924V268.466z M10.007,268.439
		c0,0-0.051,0.26-0.312,0.26H4.021c0,0-0.287-0.069-0.287-0.287v-1.225c0,0,0.157-2.998,3.154-3.127c0,0,1.151-0.083,2.155,0.92
		c1.004,1.004,0.964,2.138,0.964,2.138V268.439z"/>
	<path fill="#FFFFFF" d="M44.833,279.198c8.836,0,16-7.164,16-16s-7.164-16-16-16s-16,7.164-16,16S35.997,279.198,44.833,279.198z
		 M35.79,261.015h2.01v2.355h14.068v-2.355h2.01v4.365H35.79V261.015z"/>
	<path fill="#FFFFFF" d="M0.365,306.723c-1.312,0-1.38,1.312-1.38,1.718c0,0.396,0.181,1.504,1.493,1.504
		c1.312,0,2.566-1.561,2.566-1.561S1.676,306.723,0.365,306.723z"/>
	<path fill="#FFFFFF" d="M7.963,306.723c-1.312,0-2.68,1.662-2.68,1.662s1.256,1.561,2.567,1.561c1.312,0,1.493-1.108,1.493-1.504
		C9.342,308.034,9.274,306.723,7.963,306.723z"/>
	<path fill="#FFFFFF" d="M0.854,291.077c-8.836,0-16,7.164-16,16s7.164,16,16,16s16-7.164,16-16S9.689,291.077,0.854,291.077z
		 M7.912,311.839c-1.867,0-3.186-1.565-3.722-2.183l-0.004,0.007c-0.531,0.61-1.854,2.193-3.731,2.193
		c-1.402,0-2.537-0.827-3.023-2.06c-0.042,0.094-0.069,0.205-0.121,0.286c-0.468,0.729-1.307,1.898-3.206,1.898
		c-1.898,0-3.59-1.101-3.59-3.068h1.953c0,0,0.22,1.472,1.583,1.472c0,0,1.678-0.055,1.678-1.885c0-1.83-2.174-2.49-3.123-1.004
		h-1.83l0.977-5.324h5.434v1.637h-4.003l-0.385,2.188c0,0,0.523-0.756,2.05-0.756c1.385,0,2.176,0.948,2.549,1.73
		c0.388-1.166,1.305-1.95,2.854-2.148c2.049-0.261,3.803,2.144,3.927,2.318l0.002-0.006c0,0,1.809-2.601,3.935-2.329
		c2.126,0.271,3.076,1.639,3.076,3.595C11.191,310.358,9.789,311.839,7.912,311.839z"/>
	<path fill="#FFFFFF" d="M49.83,309.29c1.788,0,2.034-1.51,2.034-2.05c0-0.555-0.093-2.342-1.88-2.342
		c-1.788,0-3.652,2.266-3.652,2.266S48.042,309.29,49.83,309.29z"/>
	<path fill="#FFFFFF" d="M39.783,309.29c1.787,0,3.498-2.126,3.498-2.126s-1.865-2.266-3.652-2.266c-1.788,0-1.88,1.788-1.88,2.342
		C37.749,307.779,37.996,309.29,39.783,309.29z"/>
	<path fill="#FFFFFF" d="M44.833,323.076c8.836,0,16-7.164,16-16s-7.164-16-16-16s-16,7.164-16,16S35.997,323.076,44.833,323.076z
		 M39.475,302.309c2.792-0.356,5.182,2.921,5.352,3.159l0.003-0.008c0,0,2.465-3.544,5.362-3.175c2.897,0.37,4.191,2.234,4.191,4.9
		s-1.911,4.685-4.469,4.685c-2.544,0-4.341-2.134-5.073-2.976l-0.004,0.009c-0.724,0.832-2.527,2.989-5.085,2.989
		s-4.469-2.019-4.469-4.685C35.283,304.543,36.578,302.679,39.475,302.309z"/>
	<polygon fill="#FFFFFF" points="83.984,257.685 81.293,257.685 84.204,261.698 81.05,265.91 83.741,265.91 86.078,262.69 
		86.982,262.69 86.982,260.772 86.078,260.772 	"/>
	<path fill="#FFFFFF" d="M88.812,279.198c8.836,0,16-7.164,16-16s-7.164-16-16-16s-16,7.164-16,16S79.977,279.198,88.812,279.198z
		 M79.353,256.031h18.919v14.333l-6.108-3.043H79.353V256.031z"/>
	<polygon fill="#FFFFFF" points="96.441,265.91 93.311,261.698 96.177,257.685 93.488,257.685 91.392,260.75 89.849,260.75 
		89.849,257.685 87.666,257.685 87.666,265.91 89.849,265.91 89.849,262.69 91.414,262.69 93.665,265.91 	"/>
	<path fill="#FFFFFF" d="M132.793,247.198c-8.836,0-16,7.164-16,16s7.164,16,16,16s16-7.164,16-16S141.629,247.198,132.793,247.198z
		 M140.331,272.357h-6.626c-0.144,0-0.12-0.167-0.12-0.167l0.017-2.65c0-0.12,0.095-0.168,0.095-0.168l2.986-1.493
		c0.08-0.04,0.04-0.127,0.04-0.127l-0.279-0.567c-0.024-0.048-0.113-0.024-0.113-0.024l-2.578,1.309
		c-0.144,0.072-0.159-0.111-0.159-0.111v-0.838c0-0.095,0.126-0.159,0.126-0.159l1.654-0.871c0.056-0.032,0.04-0.12,0.04-0.12
		l-0.329-0.591c-0.031-0.064-0.126-0.016-0.126-0.016l-1.222,0.646c-0.135,0.056-0.143-0.104-0.143-0.104v-1.613
		c0-0.096-0.081-0.096-0.081-0.096h-1.796c-0.088,0-0.096,0.12-0.096,0.12v2.658c0,0.152-0.159,0.08-0.159,0.08l-1.246-0.861
		c-0.047-0.04-0.119,0.016-0.119,0.016l-0.359,0.527c-0.04,0.08,0.032,0.127,0.032,0.127l1.796,1.261
		c0.047,0.032,0.044,0.096,0.044,0.096v3.636c0,0.124-0.101,0.1-0.101,0.1h-6.259c-0.151,0-0.072-0.183-0.072-0.183l7.52-18.034
		c0,0,0.032-0.104,0.097-0.104c0.063,0,0.095,0.096,0.095,0.096l7.505,17.97C140.498,272.302,140.331,272.357,140.331,272.357z"/>
	<path fill="#FFFFFF" d="M176.771,247.198c-8.836,0-16,7.164-16,16s7.164,16,16,16s16-7.164,16-16S185.607,247.198,176.771,247.198z
		 M173.834,254.925c3.344-1.284,6.35,0.161,6.477,0.211c0.127,0.051,0.102,0.194,0.102,0.194v5.523c0,0.194-0.152,0.076-0.152,0.076
		l-6.426-5.835C173.705,254.978,173.834,254.925,173.834,254.925z M168.252,265.329c0,0-1.987-5.979,4.341-9.889
		c0,0,0.149-0.109,0.27,0l3.142,2.871c0,0,0.094,0.068,0,0.161l-7.583,6.899C168.421,265.371,168.303,265.489,168.252,265.329z
		 M172.255,270.59c0,0-0.025,0.101-0.178,0c0,0-2.194-1.174-3.394-3.995c0,0-0.059-0.167,0-0.22l3.436-3.116
		c0,0,0.136-0.093,0.136,0.059V270.59z M184.602,267.17c0,0-1.053,2.5-4.049,3.963c-2.995,1.464-5.81,0.766-7.296,0.135
		c0,0-0.09-0.056-0.09-0.203v-3.896c0,0,0-0.144,0.151-0.144h11.189C184.508,267.026,184.686,266.976,184.602,267.17z
		 M185.102,266.004c-0.051,0.107-0.152,0.107-0.152,0.107h-3.495c-0.107,0-0.112-0.135-0.112-0.135v-10.134
		c0.017-0.186,0.236,0,0.236,0c3.242,2.229,4.008,5.303,4.008,7.161C185.586,264.861,185.152,265.897,185.102,266.004z"/>
	<path fill="#FFFFFF" d="M176.771,202.739c-8.836,0-16,7.164-16,16s7.164,16,16,16s16-7.164,16-16S185.607,202.739,176.771,202.739z
		 M170.561,225.739l-2.418-4.12c0,0-0.049-0.142,0-0.234l5.542-9.604c0,0,0.113-0.113,0.177,0.014l2.417,4.162
		c0,0,0.062,0.106,0,0.227l-5.556,9.604C170.723,225.788,170.646,225.866,170.561,225.739z M185.378,222.155l-2.362,4.151
		c0,0-0.097,0.114-0.201,0.116l-11.089-0.003c0,0-0.154-0.042-0.076-0.16l2.4-4.173c0,0,0.06-0.108,0.195-0.113l11.096,0.016
		C185.341,221.989,185.447,222.017,185.378,222.155z M185.315,220.924l-4.813,0.006c0,0-0.123,0.002-0.195-0.113l-5.529-9.62
		c0,0-0.029-0.105,0.123-0.116l4.777-0.027c0,0,0.146,0.027,0.202,0.117l5.536,9.606
		C185.416,220.778,185.457,220.933,185.315,220.924z"/>
	<path fill="#FFFFFF" d="M132.793,202.739c-8.836,0-16,7.164-16,16s7.164,16,16,16s16-7.164,16-16S141.629,202.739,132.793,202.739z
		 M123.598,213.851l5.367-3.307c0,0,0.104-0.064,0.185,0l3.331,2.752c0,0,0.096,0.088,0,0.169l-5.383,3.282
		c0,0-0.093,0.052-0.186-0.04l-3.314-2.695C123.598,214.011,123.501,213.923,123.598,213.851z M123.844,219.973l3.049-2.586
		c0,0,0.1-0.052,0.165-0.02l5.061,3.061c0,0,0.085,0.073,0.021,0.137l-2.965,2.559c0,0-0.061,0.064-0.166,0.004l-5.168-3.033
		C123.84,220.094,123.791,220.025,123.844,219.973z M132.588,220.962v5.895c0,0,0,0.169-0.162,0.079l-5.08-3.125
		c0,0-0.115-0.066-0.115-0.169v-0.796c0,0,0.018-0.139,0.145-0.066l1.6,0.863c0,0,0.035,0.036,0.096-0.006l3.367-2.757
		c0,0,0.055-0.072,0.115-0.036C132.612,220.878,132.588,220.962,132.588,220.962z M138.355,223.642c0,0.103-0.115,0.169-0.115,0.169
		l-5.08,3.125c-0.163,0.091-0.163-0.079-0.163-0.079v-5.895c0,0-0.024-0.084,0.036-0.121s0.114,0.036,0.114,0.036l3.368,2.757
		c0.06,0.042,0.096,0.006,0.096,0.006l1.6-0.863c0.126-0.073,0.145,0.066,0.145,0.066V223.642z M141.746,220.094l-5.169,3.033
		c-0.104,0.061-0.165-0.004-0.165-0.004l-2.965-2.559c-0.064-0.064,0.02-0.137,0.02-0.137l5.061-3.061
		c0.065-0.032,0.166,0.02,0.166,0.02l3.049,2.586C141.795,220.025,141.746,220.094,141.746,220.094z M141.987,214.011l-3.313,2.695
		c-0.094,0.092-0.186,0.04-0.186,0.04l-5.383-3.282c-0.096-0.081,0-0.169,0-0.169l3.331-2.752c0.081-0.064,0.185,0,0.185,0
		l5.366,3.307C142.084,213.923,141.987,214.011,141.987,214.011z"/>
	<path fill="#FFFFFF" d="M88.812,234.739c8.836,0,16-7.164,16-16s-7.164-16-16-16s-16,7.164-16,16S79.977,234.739,88.812,234.739z
		 M88.812,209.729c5.087,0,9.21,4.124,9.21,9.209c0,4.141-2.731,7.642-6.491,8.802c-0.438-0.131-0.437-0.521-0.437-0.521
		s0.033-2.027,0.033-2.737c0-0.709-0.608-1.521-0.608-1.521c3.583-0.288,4.157-2.636,4.157-4.326c0-1.689-0.963-2.602-0.963-2.602
		c0.338-1.437-0.068-2.366-0.068-2.366c-1.639,0.186-2.449,0.997-2.449,0.997s-1.064-0.389-2.417-0.389
		c-1.352,0-2.231,0.372-2.231,0.372c-1.283-1.115-2.517-0.963-2.517-0.963c-0.405,1.149-0.025,2.4-0.025,2.4
		c-1.015,1.039-0.989,2.763-0.989,2.763c0.152,4.081,4.132,4.145,4.132,4.145c-0.608,0.532-0.481,1.292-0.481,1.292
		c-0.063,0.013-0.165,0.076-0.405,0.19c-0.241,0.114-0.748,0.025-0.748,0.025c-1.091,0-1.406-0.786-1.635-1.065
		c-0.228-0.279-0.443-0.532-0.724-0.697c-0.278-0.165-1.089-0.329-1.013,0.051c0.075,0.38,0.76,0.19,1.191,1.243
		c0.431,1.052,0.836,1.368,1.406,1.584c0.57,0.215,1.812,0.025,1.812,0.025v1.825c-0.114,0.266-0.418,0.266-0.418,0.266
		l-0.014,0.019c-3.772-1.151-6.519-4.66-6.519-8.81C79.602,213.853,83.727,209.729,88.812,209.729z"/>
	<path fill="#FFFFFF" d="M42.86,220.386l-1.597-3.253c-2.95,1.616-1.919,4.142-1.919,4.142L42.86,220.386z"/>
	<path fill="#FFFFFF" d="M44.833,234.739c8.836,0,16-7.164,16-16s-7.164-16-16-16s-16,7.164-16,16S35.997,234.739,44.833,234.739z
		 M40.429,215.368l-0.875-1.939l2.694-0.633l0.97,1.845c0,0,3.522-0.922,7.685-0.074c0,0,2.869,0.485,5.273,3.637
		c0,0,0.465,0.829-0.424,1.112l-8.081,2.222l-2.708-4.909c0,0,1.252-0.384,3.03-0.323l1.617,2.444l3.395-0.768
		c0,0-2.061-3.374-8.93-1.778l3.01,5.496l-10.365,2.91c0,0-0.606,0.303-0.828-0.324C35.89,224.285,33.107,218.15,40.429,215.368z"/>
	<path fill="#FFFFFF" d="M-0.961,219.216c0.063-0.223,0.986-2.639-0.954-4.134c-1.94-1.495-3.88-0.668-4.738,0.19
		c-0.859,0.859-1.701,2.798-0.318,4.643c1.383,1.844,3.784,1.224,3.784,1.224l3.514,3.132l9.206-7.505v-4.849l-9.078,9.651
		L-0.961,219.216z"/>
	<path fill="#FFFFFF" d="M0.854,202.739c-8.836,0-16,7.164-16,16s7.164,16,16,16s16-7.164,16-16S9.689,202.739,0.854,202.739z
		 M9.994,217.197l-4.119,3.323l0.541,0.604l-5.692,5.692l-4.977-4.944c0,0-1.86,0.079-3.18-1.59c-1.32-1.669-1.033-4.038,0.318-5.39
		c1.351-1.352,3.688-1.812,5.596-0.254c0,0,0.843,0.748,1.241,1.765l0.985-0.954l2.464,2.4l6.821-7.186V217.197z"/>
	<path fill="#FFFFFF" d="M-43.126,234.739c8.836,0,16-7.164,16-16s-7.164-16-16-16s-16,7.164-16,16S-51.962,234.739-43.126,234.739z
		 M-36.481,212.883c0,0,0.003-0.003,0.006-0.007c0.001-0.001,0.004-0.003,0.005-0.004c0.005-0.005,0.011-0.011,0.018-0.018
		c0.002-0.002,0.006-0.005,0.008-0.008c0.011-0.01,0.023-0.021,0.038-0.034c0.001-0.001,0.003-0.002,0.004-0.003
		c0.013-0.011,0.029-0.022,0.045-0.034c0.005-0.003,0.011-0.007,0.017-0.011c0.015-0.01,0.031-0.02,0.047-0.029
		c0.006-0.003,0.011-0.006,0.018-0.01c0.022-0.012,0.047-0.023,0.071-0.032c0.005-0.001,0.01-0.003,0.014-0.004
		c0.021-0.008,0.044-0.014,0.068-0.019c0.008-0.002,0.017-0.003,0.025-0.005c0.022-0.004,0.046-0.006,0.07-0.007
		c0.008,0,0.016-0.001,0.024,0c0.004,0,0.009,0,0.014,0c0.02,0,0.04,0.003,0.06,0.006c0.004,0,0.008,0.001,0.013,0.002
		c0.023,0.004,0.047,0.011,0.071,0.02c0.006,0.002,0.011,0.004,0.017,0.006c0.023,0.009,0.045,0.019,0.068,0.031
		c0.003,0.001,0.006,0.003,0.009,0.004c0.025,0.014,0.05,0.031,0.076,0.05c0.005,0.005,0.012,0.01,0.018,0.015
		c0.026,0.021,0.053,0.043,0.079,0.069l1.503,1.504c0,0,0.258,0.451,0,0.708l-1.346,1.339l-7.378,7.342c0,0-0.003,0.002-0.007,0.004
		c-0.001,0.001-0.004,0.002-0.005,0.003c-0.004,0.002-0.01,0.006-0.017,0.009c-0.003,0.002-0.007,0.004-0.011,0.006
		c-0.007,0.003-0.015,0.007-0.024,0.012c-0.005,0.002-0.01,0.005-0.016,0.007c-0.01,0.004-0.021,0.009-0.032,0.013
		c-0.007,0.002-0.013,0.005-0.02,0.008c-0.014,0.005-0.03,0.011-0.046,0.016c-0.005,0.001-0.009,0.003-0.015,0.005
		c-0.021,0.006-0.044,0.013-0.069,0.018c-0.006,0.001-0.014,0.002-0.02,0.004c-0.018,0.003-0.037,0.006-0.057,0.009
		c-0.01,0.001-0.02,0.002-0.03,0.002c-0.018,0.002-0.036,0.003-0.055,0.003c-0.014,0-0.028,0-0.042,0c-0.009,0-0.017,0-0.026-0.001
		c-0.019-0.001-0.038-0.003-0.058-0.006c-0.006-0.001-0.013-0.001-0.02-0.002c-0.025-0.004-0.053-0.011-0.08-0.019
		c-0.005-0.001-0.01-0.003-0.016-0.005c-0.021-0.007-0.044-0.014-0.065-0.023c-0.009-0.004-0.019-0.008-0.027-0.013
		c-0.019-0.009-0.038-0.018-0.056-0.029c-0.01-0.006-0.02-0.011-0.029-0.018c-0.02-0.012-0.039-0.025-0.058-0.04
		c-0.009-0.006-0.018-0.012-0.026-0.019c-0.027-0.022-0.055-0.046-0.082-0.074l-4.77-4.727c0,0-0.312-0.419,0-0.73
		c0.312-0.312,1.493-1.493,1.493-1.493s0.004-0.003,0.007-0.006c0.001-0.001,0.003-0.002,0.004-0.003
		c0.003-0.003,0.009-0.008,0.016-0.012c0.002-0.002,0.005-0.004,0.008-0.006c0.008-0.006,0.019-0.013,0.029-0.02
		c0.002-0.002,0.004-0.003,0.006-0.005c0.014-0.009,0.03-0.018,0.047-0.027c0.003-0.002,0.008-0.004,0.011-0.006
		c0.014-0.007,0.028-0.014,0.044-0.021c0.006-0.003,0.013-0.005,0.019-0.008c0.017-0.006,0.033-0.012,0.05-0.018
		c0.005-0.002,0.011-0.004,0.018-0.006c0.023-0.007,0.048-0.013,0.074-0.017c0.003,0,0.007,0,0.011-0.001
		c0.022-0.003,0.044-0.005,0.068-0.005c0.015,0,0.03,0,0.046,0.001c0.003,0,0.007,0,0.011,0c0.021,0.002,0.043,0.005,0.064,0.01
		c0.006,0.001,0.012,0.003,0.017,0.004c0.018,0.005,0.036,0.01,0.054,0.017c0.005,0.002,0.011,0.004,0.017,0.006
		c0.022,0.009,0.045,0.02,0.068,0.033c0.004,0.002,0.008,0.005,0.012,0.008c0.02,0.011,0.039,0.024,0.058,0.039
		c0.006,0.004,0.013,0.009,0.019,0.014c0.023,0.019,0.047,0.039,0.071,0.062l2.986,2.944l5.534-5.534L-36.481,212.883z
		 M-51.676,217.248l7.054-7.054c0.824-0.824,2.158-0.824,2.981,0l3.195,3.195l-4.809,4.81l-2.256-2.223
		c-0.325-0.323-0.723-0.494-1.152-0.494c-0.591,0-1.001,0.327-1.112,0.427l-0.02,0.018l-0.019,0.02l-1.494,1.493
		c-0.618,0.618-0.518,1.512-0.099,2.076l0.046,0.062l0.055,0.055l4.771,4.728c0.357,0.357,0.806,0.548,1.294,0.548
		c0.514,0,0.893-0.217,0.997-0.284l0.093-0.059l0.079-0.078l7.38-7.344l0.104,0.104c0.823,0.823,0.824,2.158,0,2.981l-7.054,7.054
		c-0.823,0.824-2.158,0.823-2.981,0l-7.054-7.054C-52.499,219.406-52.499,218.071-51.676,217.248z"/>
	<path fill="#FFFFFF" d="M-43.126,190.938c8.836,0,16-7.164,16-16s-7.164-16-16-16s-16,7.164-16,16S-51.962,190.938-43.126,190.938z
		 M-47.47,169.21c0,0,0.431,3.723,1.257,5.824c0.827,2.101,1.974,4.169,2.96,5.315c0,0,1.527-1.209,2.769-3.883
		c0,0-2.96-1.559-2.96-5.442c0,0,0.159-4.265,3.724-4.265c3.564,0,3.755,3.12,3.755,3.883c0,0.765-0.255,2.292-0.637,2.896
		c0,0-1.496,0.414-2.451-0.796c0,0,0.382-0.732,0.382-1.941c0-1.21-0.605-1.623-1.146-1.623c-0.542,0-0.987,0.891-0.987,2.1
		c0,1.209,0.765,3.66,3.724,3.66h1.083v1.941c0,0-1.56,0.191-1.974,0.191c0,0-1.528,3.437-4.392,5.665c0,0-0.668,0.382-0.955,0.382
		s-1.05-0.35-1.496-0.795c-0.445-0.446-4.232-3.194-5.474-13.112H-47.47z"/>
	<path fill="#FFFFFF" d="M0.854,158.938c-8.836,0-16,7.164-16,16s7.164,16,16,16s16-7.164,16-16S9.689,158.938,0.854,158.938z
		 M-5.693,173.807v0.98h-1.028v3.108h-1.389v-3.101H-8.96v-0.987h0.877v-0.504c0,0-0.076-1.402,1.574-1.402
		c0,0,0.532,0.007,0.857,0.09l-0.096,0.953c0,0-0.317-0.055-0.45-0.055c-0.13,0-0.482,0.104-0.504,0.525v0.394H-5.693z
		 M-3.704,177.895h-1.409v-5.891h1.409V177.895z M-1.604,177.895h-1.409v-4.109h1.409V177.895z M-1.604,173.123h-1.409v-1.036h1.409
		V173.123z M2.387,177.805c-0.325,0.125-1.637,0.394-2.598-0.186c-0.958-0.58-0.938-1.665-0.938-1.665s-0.008-0.829,0.394-1.381
		c0.4-0.552,1.291-0.87,1.926-0.87c0.636,0,1.182,0.221,1.182,0.221l-0.098,1.064c-0.241-0.159-0.648-0.276-1.07-0.228
		c-0.42,0.048-0.87,0.442-0.87,1.08c0,0.639,0.476,1.102,1.084,1.123c0.608,0.021,0.988-0.207,0.988-0.207V177.805z M5.557,177.888
		l-1.14-2.001v2.036H2.974v-5.926h1.443v3.455l1.181-1.645h1.534l-1.43,1.857l1.554,2.224H5.557z M10.591,174.925
		c0,0-0.442-0.097-0.677-0.035s-0.821,0.332-0.821,1.036v1.961H7.684v-4.081h1.278v0.766c0,0,0.338-0.794,0.988-0.856
		c0,0,0.552-0.014,0.717,0.062L10.591,174.925z"/>
	<path fill="#FFFFFF" d="M44.833,190.938c8.836,0,16-7.164,16-16s-7.164-16-16-16s-16,7.164-16,16S35.997,190.938,44.833,190.938z
		 M48.818,171.586c1.851,0,3.352,1.5,3.352,3.352s-1.5,3.352-3.352,3.352s-3.353-1.5-3.353-3.352S46.967,171.586,48.818,171.586z
		 M40.849,171.586c1.851,0,3.352,1.5,3.352,3.352s-1.5,3.352-3.352,3.352c-1.852,0-3.352-1.5-3.352-3.352
		S38.997,171.586,40.849,171.586z"/>
	<path fill="#FFFFFF" d="M88.812,190.938c8.836,0,16-7.164,16-16s-7.164-16-16-16s-16,7.164-16,16S79.977,190.938,88.812,190.938z
		 M82.639,169.467c0.905-0.814,2.018-1.744,2.981-1.652s1.755,0.585,2.111,2.547c0.355,1.962,0.642,4.359,1.216,5.736
		c0,0,0.367,0.964,0.757,0.918c0.391-0.046,1.103-0.872,1.813-2.02c0.711-1.147,1.102-2.111,0.871-3.029
		c-0.229-0.917-1.697-0.688-2.316-0.436c0,0,1.081-4.302,4.863-3.923c0,0,2.502,0,2.364,2.983c-0.138,2.982-2.157,5.576-4.084,7.916
		c-1.928,2.341-3.855,3.993-5.484,3.763c-1.629-0.23-2.249-2.639-2.776-4.658c-0.527-2.02-1.217-4.681-1.95-5.576
		c0,0-0.345-0.458-0.849-0.16l-1.033,0.711l-0.803-1.009C80.32,171.579,81.731,170.282,82.639,169.467z"/>
	<polygon fill="#FFFFFF" points="174.789,134.323 180.302,130.726 174.789,127.127 	"/>
	<path fill="#FFFFFF" d="M176.771,114.735c-8.836,0-16,7.164-16,16s7.164,16,16,16s16-7.164,16-16S185.607,114.735,176.771,114.735z
		 M185.01,137.047c-0.874,0.64-8.238,0.471-8.238,0.471s-7.363,0.169-8.238-0.471c-0.875-0.639-1.546-2.522-1.546-6.321
		c0,0,0.032-2.892,0.337-4.035c0.301-1.144,0.671-1.85,1.109-2.252c0.436-0.404,1.344-0.505,8.338-0.505s7.902,0.101,8.34,0.505
		c0.437,0.403,0.806,1.109,1.109,2.252c0.302,1.144,0.335,4.035,0.335,4.035C186.556,134.525,185.885,136.408,185.01,137.047z"/>
	<path fill="#FFFFFF" d="M176.771,158.938c-8.836,0-16,7.164-16,16s7.164,16,16,16s16-7.164,16-16S185.607,158.938,176.771,158.938z
		 M179.147,167.344h1.153v4.184c0,0,0.018,0.331,0.264,0.331s0.576-0.28,0.67-0.391v-4.124h1.18v5.431h-1.162v-0.568
		c0,0-0.56,0.67-1.332,0.67s-0.772-0.882-0.772-1.001V167.344z M174.965,168.447c0,0,0.033-1.255,1.653-1.255s1.62,1.298,1.62,1.298
		l0.019,2.826c0,0,0,0.772-0.366,1.137c-0.363,0.365-0.934,0.476-1.365,0.476c-0.433,0-0.861-0.174-1.205-0.518
		s-0.355-1.019-0.355-1.019V168.447z M171.875,165.409l0.875,2.961l0.831-2.961h1.298l-1.485,4.302v3.071h-1.272v-2.961
		l-1.545-4.413H171.875z M186.75,180.917c0,1.961-1.595,3.55-3.562,3.55h-12.831c-1.97,0-3.564-1.589-3.564-3.55v-2.946
		c0-1.961,1.595-3.55,3.564-3.55h12.831c1.968,0,3.562,1.589,3.562,3.55V180.917z"/>
	<polygon fill="#FFFFFF" points="169.644,176.708 170.814,176.708 170.814,182.397 171.935,182.397 171.935,176.708 
		173.105,176.708 173.105,175.741 169.644,175.741 	"/>
	<path fill="#FFFFFF" d="M176.609,171.969c0.399,0,0.468-0.399,0.468-0.399v-3.029c0-0.068-0.043-0.399-0.491-0.399
		c-0.451,0-0.477,0.416-0.477,0.416v2.995C176.109,171.629,176.211,171.969,176.609,171.969z"/>
	<path fill="#FFFFFF" d="M182.067,181.679c0,0-0.44,0.07-0.44-0.516v-1.107h1.903v-1.189c0,0,0.069-1.502-1.375-1.502
		s-1.554,1.254-1.554,1.49v2.31c0,0,0.084,1.375,1.434,1.375c1.349,0,1.496-0.853,1.496-1.763h-1.006
		C182.525,180.774,182.723,181.679,182.067,181.679z M181.641,178.624c0,0-0.039-0.408,0.438-0.408c0.479,0,0.44,0.427,0.44,0.427
		v0.649h-0.878V178.624z"/>
	<path fill="#FFFFFF" d="M175.422,181.239c0,0-0.33,0.35-0.604,0.35c-0.273,0-0.255-0.324-0.255-0.324v-3.793h-0.992v4.232
		c0,0.235,0.134,0.782,0.675,0.782c0.54,0,1.189-0.63,1.189-0.63v0.541h0.993v-4.926h-1.006V181.239z"/>
	<path fill="#FFFFFF" d="M179.146,177.42c-0.655,0-0.948,0.484-0.948,0.484v-2.164h-1.012v6.657h1.018v-0.369
		c0.459,0.458,0.968,0.458,0.968,0.458c0.853,0,0.884-0.986,0.884-0.986v-2.921C180.055,178.076,179.801,177.42,179.146,177.42z
		 M179.043,181.392c0,0.114-0.076,0.324-0.388,0.324s-0.472-0.235-0.472-0.235v-3.099c0.182-0.182,0.431-0.204,0.431-0.204
		c0.423,0,0.429,0.471,0.429,0.471V181.392z"/>
	<path fill="#FFFFFF" d="M132.793,114.735c-8.836,0-16,7.164-16,16s7.164,16,16,16s16-7.164,16-16S141.629,114.735,132.793,114.735z
		 M132.793,140.148c-5.199,0-9.414-4.214-9.414-9.413s4.215-9.413,9.414-9.413c5.197,0,9.412,4.214,9.412,9.413
		S137.99,140.148,132.793,140.148z"/>
	<path fill="#FFFFFF" d="M88.812,146.735c8.836,0,16-7.164,16-16s-7.164-16-16-16s-16,7.164-16,16S79.976,146.735,88.812,146.735z
		 M81.65,127.968c0,0,0.259-6.192,7.18-6.458c6.893-0.265,7.135,6.097,7.135,6.097s0.217,1.566-0.892,4.041
		c-1.108,2.474-3.206,3.197-4.828,3.229c-1.622,0.032-2.619-1.285-2.619-1.285l-0.595,2.33c-0.482,2.008-1.477,3.197-1.67,3.502
		c-0.193,0.305-0.451,0.562-0.562,0.546c-0.113-0.016-0.113-0.321-0.113-0.321s-0.128-1.768-0.111-2.41
		c0.016-0.643,0.256-1.671,0.256-1.671l1.287-5.607c-0.29-0.594-0.37-1.59-0.37-1.59c-0.081-1.479,0.947-2.731,2.056-2.764
		c1.109-0.032,1.397,0.819,1.463,1.478c0.064,0.659-0.418,2.346-0.853,3.47c-0.433,1.125,0.499,3.358,2.731,2.153
		c2.234-1.205,2.217-5.157,2.217-5.157c0-4.386-4.306-4.226-4.306-4.226c-4.466,0-5.333,3.743-5.333,5.013
		c0,1.269,0.715,2.185,0.715,2.185c0.232,0.273,0.12,0.675,0.12,0.675l-0.241,0.851c-0.088,0.309-0.57,0.113-0.57,0.113
		C81.409,130.956,81.65,127.968,81.65,127.968z"/>
	<path fill="#FFFFFF" d="M42.669,132.782c0-1.323-1.425-1.526-1.425-1.526h-3.053v3.052h3.076
		C41.267,134.308,42.669,134.104,42.669,132.782z"/>
	<path fill="#FFFFFF" d="M42.171,128.236c0,0-0.067-1.255-1.175-1.255h-2.805v2.51h2.579
		C40.77,129.491,42.171,129.537,42.171,128.236z"/>
	<path fill="#FFFFFF" d="M44.833,146.735c8.836,0,16-7.164,16-16s-7.164-16-16-16s-16,7.164-16,16S35.997,146.735,44.833,146.735z
		 M47.62,125.783h4.522v1.199H47.62V125.783z M49.859,127.864c4.454,0,4.071,4.918,4.071,4.918H48.05
		c0.022,0.893,0.656,2.001,1.945,2.001c1.289,0,1.808-1.085,1.808-1.085h2.013c-0.271,0.656-1.018,2.713-3.776,2.713
		s-3.844-1.99-4.047-2.736c-0.203-0.747-0.203-1.56-0.203-1.56C45.992,127.955,49.859,127.864,49.859,127.864z M35.727,125.06h6.331
		c1.062,0.181,2.442,0.61,2.533,2.6c0.09,1.991-1.47,2.488-1.47,2.488c2.177,0.664,1.989,2.759,1.989,2.759
		c0,3.459-3.64,3.323-3.64,3.323h-5.743V125.06z"/>
	<path fill="#FFFFFF" d="M49.882,129.605c-1.583,0-1.832,1.65-1.832,1.65h3.618C51.464,129.469,49.882,129.605,49.882,129.605z"/>
	<path fill="#FFFFFF" d="M0.854,114.735c-8.836,0-16,7.164-16,16s7.164,16,16,16s16-7.164,16-16S9.69,114.735,0.854,114.735z
		 M5.677,138.702c0,0-1.885,0.501-3.018,0.501c-1.134,0-4.344-0.118-4.86-3.388v-6.95h-1.767v-2.93h0.5c0,0,1.457-0.339,2.135-1.531
		c0.678-1.193,0.604-2.135,0.604-2.135h2.4v3.667h3.799v2.945h-3.77v4.8c0,0,0.029,0.766,0.103,1.06
		c0.074,0.295,0.662,1.001,1.591,1.001c0.927,0,2.282-0.588,2.282-0.588V138.702z"/>
	<path fill="#FFFFFF" d="M-39.02,127.411h1.303c0.447,0,0.811-0.363,0.811-0.811v-1.302c0-0.447-0.363-0.811-0.811-0.811h-1.303
		c-0.447,0-0.811,0.363-0.811,0.811v1.302C-39.83,127.048-39.467,127.411-39.02,127.411z"/>
	<path fill="#FFFFFF" d="M-43.126,134.003c1.82,0,3.296-1.476,3.296-3.296c0-0.548-0.135-1.065-0.372-1.52
		c-0.068-0.13-0.144-0.256-0.229-0.375c-0.001-0.003-0.004-0.006-0.006-0.009c-0.06-0.085-0.125-0.168-0.193-0.248
		c-0.005-0.005-0.009-0.011-0.014-0.016c-0.066-0.076-0.136-0.148-0.208-0.218c-0.008-0.006-0.015-0.014-0.022-0.021
		c-0.022-0.021-0.045-0.042-0.068-0.062c-0.009-0.008-0.018-0.016-0.026-0.022c-0.04-0.036-0.082-0.069-0.123-0.102
		c-0.012-0.009-0.023-0.018-0.035-0.027c-0.021-0.017-0.043-0.033-0.064-0.049c-0.015-0.011-0.031-0.021-0.046-0.032
		c-0.026-0.02-0.055-0.038-0.083-0.057c-0.025-0.017-0.051-0.034-0.077-0.05c-0.021-0.013-0.04-0.024-0.06-0.036
		s-0.041-0.024-0.062-0.035c-0.019-0.011-0.038-0.021-0.057-0.032c-0.037-0.019-0.073-0.038-0.11-0.056
		c-0.015-0.007-0.032-0.015-0.047-0.022c-0.028-0.012-0.055-0.025-0.082-0.037c-0.017-0.007-0.035-0.015-0.053-0.022
		c-0.033-0.014-0.067-0.027-0.101-0.04c-0.014-0.005-0.028-0.011-0.042-0.016c-0.038-0.014-0.076-0.027-0.115-0.039
		c-0.015-0.005-0.031-0.01-0.047-0.015c-0.034-0.011-0.068-0.021-0.104-0.03c-0.012-0.003-0.023-0.006-0.034-0.009
		c-0.046-0.012-0.092-0.022-0.137-0.032c-0.014-0.002-0.027-0.005-0.04-0.008c-0.038-0.007-0.075-0.014-0.112-0.02
		c-0.013-0.002-0.026-0.004-0.039-0.006c-0.048-0.007-0.095-0.014-0.144-0.019c-0.009-0.001-0.019-0.001-0.027-0.002
		c-0.041-0.004-0.083-0.007-0.125-0.009c-0.013-0.001-0.027-0.001-0.041-0.002c-0.051-0.002-0.101-0.003-0.151-0.003
		c-0.051,0-0.102,0.001-0.151,0.003c-0.014,0.001-0.028,0.001-0.042,0.002c-0.041,0.002-0.083,0.005-0.125,0.009
		c-0.009,0.001-0.018,0.001-0.026,0.002c-0.048,0.005-0.097,0.011-0.145,0.019c-0.013,0.002-0.025,0.004-0.038,0.006
		c-0.038,0.006-0.075,0.013-0.111,0.02c-0.014,0.002-0.027,0.005-0.04,0.008c-0.046,0.01-0.092,0.02-0.137,0.032
		c-0.012,0.003-0.023,0.006-0.036,0.009c-0.034,0.009-0.069,0.019-0.104,0.03c-0.015,0.005-0.031,0.009-0.046,0.015
		c-0.039,0.012-0.077,0.025-0.115,0.039c-0.014,0.005-0.028,0.01-0.042,0.016c-0.034,0.013-0.067,0.026-0.102,0.04
		c-0.018,0.008-0.034,0.015-0.052,0.022c-0.027,0.012-0.055,0.024-0.082,0.037c-0.017,0.007-0.032,0.015-0.048,0.022
		c-0.037,0.018-0.073,0.037-0.109,0.056c-0.02,0.011-0.039,0.021-0.058,0.032c-0.021,0.011-0.041,0.023-0.062,0.035
		c-0.02,0.012-0.04,0.023-0.06,0.036c-0.026,0.016-0.053,0.033-0.079,0.05c-0.027,0.019-0.055,0.037-0.082,0.057
		c-0.015,0.01-0.03,0.021-0.045,0.032c-0.022,0.016-0.044,0.032-0.066,0.049c-0.012,0.009-0.023,0.018-0.034,0.027
		c-0.042,0.033-0.083,0.066-0.124,0.102c-0.008,0.007-0.018,0.015-0.025,0.022c-0.023,0.02-0.046,0.041-0.068,0.062
		c-0.008,0.007-0.015,0.015-0.022,0.021c-0.073,0.07-0.142,0.143-0.208,0.218c-0.004,0.005-0.009,0.01-0.013,0.016
		c-0.069,0.079-0.133,0.162-0.194,0.248c-0.002,0.003-0.004,0.006-0.006,0.009c-0.084,0.119-0.161,0.245-0.229,0.375
		c-0.237,0.455-0.372,0.972-0.372,1.52C-46.422,132.527-44.946,134.003-43.126,134.003z"/>
	<path fill="#FFFFFF" d="M-43.126,146.736c8.836,0,16-7.164,16-16s-7.164-16-16-16s-16,7.164-16,16S-51.962,146.736-43.126,146.736z
		 M-51.18,124.414c0-0.957,0.775-1.732,1.731-1.732h12.644c0.957,0,1.732,0.775,1.732,1.732v12.644c0,0.957-0.776,1.732-1.732,1.732
		h-12.644c-0.957,0-1.731-0.775-1.731-1.732V124.414z"/>
	<path fill="#FFFFFF" d="M-48.285,136.927h10.318c0.57,0,1.032-0.462,1.032-1.032v-6.707h-1.41c0.152,0.479,0.235,0.989,0.235,1.519
		c0,2.77-2.246,5.016-5.016,5.016c-2.77,0-5.016-2.246-5.016-5.016c0-0.53,0.082-1.04,0.234-1.519h-1.41v6.707
		C-49.317,136.465-48.855,136.927-48.285,136.927z"/>
	<path fill="#FFFFFF" d="M176.28,93.968c1.877-0.546,1.946-1.696,1.991-2.22c0.046-0.523-0.365-1.354-0.932-1.797
		c-0.57-0.445-1.425-1.082-1.425-1.082c-2.583,0.034-3.447,0.569-4.04,1.093c-0.592,0.523-0.602,1.457-0.602,1.457
		C171.181,93.615,174.402,94.514,176.28,93.968z"/>
	<path fill="#FFFFFF" d="M177.02,83.759c0.205-0.967-0.113-2.879-1.24-4.006c-1.127-1.126-2.402-0.353-2.402-0.353
		c-1.74,1.104-0.988,3.709,0,5.042c0.991,1.331,2.414,0.808,2.653,0.66C176.269,84.954,176.814,84.727,177.02,83.759z"/>
	<path fill="#FFFFFF" d="M176.771,102.735c8.836,0,16-7.164,16-16s-7.164-16-16-16s-16,7.164-16,16S167.936,102.735,176.771,102.735
		z M181.53,83.804h1.002v1.669h1.67v1.001h-1.67v1.67h-1.002v-1.67h-1.669v-1.001h1.669V83.804z M170.427,89.631
		c1.552-1.396,4.73-1.38,4.73-1.38c-0.106-0.152-0.622-0.82-0.668-1.29c-0.046-0.471,0.218-1.032,0.218-1.032
		s-1.721,0.334-3.161-0.864c-1.442-1.2-1.487-3.324-0.152-5.024c1.335-1.699,4.113-1.608,4.113-1.608h4.674l-1.382,0.789h-1.305
		c1.653,1.23,1.502,2.748,1.502,2.748c-0.014,1.684-0.637,2.246-0.895,2.489c-0.259,0.243-0.805,0.667-1.108,0.986
		c-0.304,0.318-0.607,1.001-0.203,1.441c0.402,0.44,2.009,1.502,2.616,2.534c0.607,1.032,0.258,2.246,0.258,2.246
		c-0.805,2.959-4.795,3.976-7.877,3.035C168.707,93.759,168.875,91.027,170.427,89.631z"/>
	<path fill="#FFFFFF" d="M132.792,102.735c8.836,0,16-7.164,16-16s-7.164-16-16-16s-16,7.164-16,16S123.956,102.735,132.792,102.735
		z M128.926,93.685h-2.895v-9.284h2.895V93.685z M130.74,84.401h2.774v1.313c0.745-1.218,2.152-1.908,4.291-1.313
		c2.138,0.595,1.962,4.25,1.962,4.25v5.034h-2.909v-4.777c0-0.541,0.121-2.179-1.61-2.179c-1.733,0-1.625,2.166-1.625,2.166v4.79
		h-2.883V84.401z M127.49,79.786c0.926,0,1.676,0.75,1.676,1.676c0,0.926-0.75,1.676-1.676,1.676s-1.676-0.75-1.676-1.676
		C125.814,80.536,126.564,79.786,127.49,79.786z"/>
	<path fill="#FFFFFF" d="M88.812,102.735c8.836,0,16-7.164,16-16s-7.164-16-16-16s-16,7.164-16,16S79.976,102.735,88.812,102.735z
		 M84.008,84.259h2.846v-2.637c0,0-0.12-1.724,1.188-3.032c1.308-1.308,3.068-1.184,5.575-0.966v2.944h-1.854
		c0,0-0.778-0.016-1.145,0.404c-0.365,0.421-0.326,1.021-0.326,1.168v2.118h3.215l-0.412,3.279h-2.819v8.445h-3.411v-8.461h-2.857
		V84.259z"/>
	<path fill="#FFFFFF" d="M44.833,102.735c8.836,0,16-7.164,16-16s-7.164-16-16-16s-16,7.164-16,16S35.997,102.735,44.833,102.735z
		 M41.053,91.073c0,0-2.765-0.053-3.562-2.633c0,0,1.382,0.107,1.622-0.159c0,0-2.978-0.718-3.004-3.829
		c0,0,0.904,0.452,1.728,0.479c0,0-2.871-2.074-1.13-5.172c0,0,2.899,3.842,7.937,4.108c0,0-0.682-2.27,1.409-4.005
		c2.092-1.738,4.68-0.267,5.176,0.389c0,0,1.472-0.23,2.499-0.921c0,0-0.336,1.327-1.577,2.125c0,0,1.454-0.193,2.127-0.583
		c0,0-0.709,1.134-1.932,2.003c0,0,0.514,4.795-3.607,8.757c-4.122,3.962-10.902,3.138-13.348,1.064
		C35.39,92.695,38.713,93.067,41.053,91.073z"/>
	<path fill="#FFFFFF" d="M0.854,70.735c-8.836,0-16,7.164-16,16s7.164,16,16,16s16-7.164,16-16S9.69,70.735,0.854,70.735z
		 M-4.237,94.032c-1.207,0-2.184-0.977-2.184-2.183c0-1.205,0.978-2.183,2.184-2.183c1.205,0,2.184,0.978,2.184,2.183
		C-2.053,93.055-3.032,94.032-4.237,94.032z M0.997,94.032c0-4.02-3.397-7.417-7.418-7.417v-2.331c2.597,0,5.046,1.026,6.899,2.891
		c1.838,1.852,2.852,4.288,2.852,6.857H0.997z M5.792,94.032c0-6.647-5.591-12.263-12.213-12.263v-2.332
		c1.963,0,3.87,0.394,5.672,1.17c1.726,0.746,3.281,1.809,4.619,3.161c1.332,1.346,2.379,2.908,3.112,4.641
		c0.758,1.794,1.143,3.686,1.143,5.624H5.792z"/>
	<path fill="#FFFFFF" d="M-43.126,102.735c8.836,0,16-7.164,16-16s-7.164-16-16-16s-16,7.164-16,16S-51.962,102.735-43.126,102.735z
		 M-51.033,91.95l6.062-4.56c0,0,1.001,1.081,1.897,1.081c0.896,0,1.818-1.081,1.818-1.081l5.878,4.56H-51.033z M-34.85,91.581
		l-6.089-4.402l6.089-5.14V91.581z M-50.453,80.52h14.655c0.791,0,0.791,0.423,0.791,0.423l-7.249,5.613
		c-0.21,0.212-0.448,0.264-0.922,0.264s-0.844-0.396-0.844-0.396l-7.117-5.614C-50.915,80.587-50.453,80.52-50.453,80.52z
		 M-51.402,81.854l6.036,5.22l-6.036,4.507V81.854z"/>
	<path fill="#FFFFFF" d="M133.767,127.485c1.642-0.63,3.141-1.539,4.127-2.848c-1.38-1.156-3.159-1.853-5.101-1.853
		c-0.622,0-1.229,0.071-1.809,0.207c0.508,0.678,1.335,1.866,2.253,3.511C133.407,126.807,133.585,127.135,133.767,127.485z"/>
	<path fill="#FFFFFF" d="M134.465,128.904c0.195,0.417,0.391,0.856,0.586,1.318c1.641-0.318,3.539-0.339,5.684,0.168
		c-0.073-1.742-0.708-3.339-1.729-4.615C137.854,127.209,136.221,128.208,134.465,128.904z"/>
	<path fill="#FFFFFF" d="M129.414,123.536c-2.166,1.018-3.798,2.986-4.36,5.367c1.135,0,4.207-0.084,7.19-0.918
		C130.975,125.584,129.812,124.04,129.414,123.536z"/>
	<path fill="#FFFFFF" d="M135.643,131.707c0.623,1.657,1.199,3.534,1.632,5.596c1.766-1.208,3.021-3.109,3.369-5.312
		C138.896,131.542,137.225,131.448,135.643,131.707z"/>
	<path fill="#FFFFFF" d="M129.975,132.458c0.926-0.675,2.105-1.357,3.534-1.832c-0.181-0.417-0.362-0.819-0.544-1.204
		c-3.181,0.948-6.435,1.06-7.789,1.06c-0.127,0-0.238-0.001-0.33-0.002c-0.003,0.085-0.004,0.17-0.004,0.256
		c0,1.93,0.688,3.698,1.83,5.076C127.199,135.06,128.293,133.686,129.975,132.458z"/>
	<path fill="#FFFFFF" d="M130.904,133.731c-1.707,1.246-2.734,2.664-3.09,3.204c1.363,1.096,3.094,1.751,4.979,1.751
		c1.074,0,2.098-0.213,3.031-0.599c-0.434-2.219-1.047-4.231-1.725-6.007C132.983,132.441,131.917,132.991,130.904,133.731z"/>
	<path fill="#FFFFFF" d="M130.499,181.533l2.312-2.293h4.225l2.708-2.69v-8.522h-12.746v11.23h3.502V181.533z M135.482,171.08h1.553
		v4.658h-1.553V171.08z M131.259,171.08h1.552v4.658h-1.552V171.08z"/>
	<path fill="#FFFFFF" d="M132.793,159.395c-8.836,0-16,7.164-16,16s7.164,16,16,16s16-7.164,16-16S141.629,159.395,132.793,159.395z
		 M141.297,177.345l-4.64,4.64h-3.521l-2.293,2.311h-2.311v-2.365h-4.243v-12.313l1.21-3.124h15.798V177.345z"/>
	<path fill="#FFFFFF" d="M0.815,612.549c-5.104,0-9.258,2.658-9.258,5.926s4.154,5.926,9.258,5.926c5.105,0,9.258-2.658,9.258-5.926
		S5.92,612.549,0.815,612.549z M-3.967,617.305c0-0.871,0.706-1.577,1.577-1.577c0.871,0,1.577,0.706,1.577,1.577
		s-0.706,1.576-1.577,1.576C-3.261,618.881-3.967,618.176-3.967,617.305z M4.577,621.59c-0.059,0.053-1.478,1.284-3.686,1.284
		c-2.19,0-3.7-1.14-3.763-1.188c-0.201-0.153-0.239-0.441-0.085-0.642c0.154-0.2,0.441-0.239,0.641-0.086
		c0.024,0.018,1.346,1.001,3.207,1.001c1.849,0,3.068-1.046,3.081-1.057c0.19-0.167,0.479-0.147,0.646,0.043
		C4.784,621.134,4.766,621.422,4.577,621.59z M4.223,618.881c-0.871,0-1.577-0.705-1.577-1.576s0.706-1.577,1.577-1.577
		c0.872,0,1.577,0.706,1.577,1.577S5.095,618.881,4.223,618.881z"/>
	<path fill="#FFFFFF" d="M-6.826,614.071c-0.451-0.306-1.016-0.303-1.022-0.303c-1.694,0.053-1.715,1.66-1.715,1.729
		c0,0.572,0.314,1.054,0.59,1.367C-8.602,615.835-7.872,614.882-6.826,614.071z"/>
	<circle fill="#FFFFFF" cx="8.611" cy="608.39" r="1.259"/>
	<path fill="#FFFFFF" d="M9.552,613.769c-0.003,0-0.602-0.003-1.059,0.333c1.046,0.82,1.771,1.784,2.131,2.825
		c0.288-0.311,0.645-0.819,0.645-1.429C11.268,615.429,11.248,613.821,9.552,613.769z"/>
	<path fill="#FFFFFF" d="M-49.049,662.343c0.971,2.315,3.26,3.944,5.923,3.944c1.093,0,2.115-0.287,3.017-0.771
		c-0.008-0.088-0.027-0.173-0.027-0.263c0-1.527,1.244-2.771,2.771-2.771c0.03,0,0.058,0.009,0.088,0.01
		c0.022-0.051,0.052-0.098,0.073-0.149c0.32-0.762,0.497-1.598,0.497-2.474c0-3.539-2.879-6.42-6.419-6.42
		c-0.947,0-1.841,0.217-2.65,0.586c0,0.014,0.004,0.027,0.004,0.041c0,1.527-1.244,2.771-2.771,2.771
		c-0.078,0-0.152-0.018-0.229-0.023c-0.491,0.908-0.774,1.943-0.774,3.045C-49.545,660.745-49.368,661.581-49.049,662.343z"/>
	<path fill="#FFFFFF" d="M44.833,651.628c-4.544,0-8.241,3.697-8.241,8.241c0,4.545,3.697,8.242,8.241,8.242
		s8.241-3.697,8.241-8.242C53.075,655.325,49.378,651.628,44.833,651.628z M46.449,653.514c0.556-0.068,1.148,1.021,1.322,2.436
		c0.175,1.413-0.135,2.615-0.69,2.684c-0.556,0.068-1.148-1.022-1.322-2.436C45.583,654.783,45.893,653.582,46.449,653.514z
		 M41.681,654.225c0.556-0.068,1.148,1.022,1.322,2.437c0.174,1.413-0.136,2.614-0.691,2.684c-0.557,0.067-1.148-1.022-1.322-2.437
		C40.816,655.496,41.125,654.294,41.681,654.225z M52.119,659.422c-0.025,0.195-0.193,0.338-0.385,0.338
		c-0.017,0-0.034,0-0.051-0.003l-0.174-0.022c0.008,0.539-0.043,1.463-0.375,2.465c-0.478,1.439-1.646,3.31-4.5,4.044
		c-0.726,0.188-1.393,0.269-2.002,0.269c-2.199,0-3.658-1.064-4.551-2.086c-0.984-1.125-1.453-2.367-1.605-2.838l-0.263,0.078
		c-0.037,0.011-0.075,0.016-0.112,0.016c-0.167,0-0.321-0.109-0.372-0.277c-0.061-0.205,0.056-0.422,0.261-0.483l1.229-0.366
		c0.206-0.062,0.422,0.055,0.483,0.261c0.062,0.206-0.055,0.421-0.262,0.483l-0.221,0.066c0.141,0.425,0.576,1.565,1.461,2.568
		c1.45,1.645,3.387,2.168,5.759,1.558c2.019-0.521,3.349-1.71,3.956-3.537c0.324-0.976,0.347-1.873,0.333-2.321l-0.319-0.041
		c-0.213-0.027-0.363-0.222-0.335-0.435s0.223-0.363,0.435-0.335l1.272,0.164C51.996,659.014,52.146,659.209,52.119,659.422z"/>
	<g>
		<polygon fill="#FFFFFF" points="-16.152,23.888 -16.152,38.724 -8.951,31.849 		"/>
		<path fill="#FFFFFF" d="M-6.216,33.979c-1.069,0-2.264-1.648-2.264-1.648l-7.232,6.955H2.965l-7.012-6.955
			C-4.046,32.331-5.146,33.979-6.216,33.979z"/>
		<path fill="#FFFFFF" d="M-6.342,31.461c0.567,0,0.85-0.079,1.101-0.401l8.647-8.562c0,0,0-0.645-0.943-0.645H-15.02
			c0,0-0.551,0.102-0.818,0.443l8.49,8.562C-7.349,30.858-6.908,31.461-6.342,31.461z"/>
		<polygon fill="#FFFFFF" points="3.594,38.724 3.594,24.17 -3.669,32.01 		"/>
	</g>
	<path fill="#FFFFFF" d="M27.5,38.735c0.817,0,1.613-0.081,2.397-0.199h-4.794C25.887,38.654,26.683,38.735,27.5,38.735z"/>
	<path fill="#FFFFFF" d="M16.599,0.259c-0.93,0.625-2.262,0.834-2.262,0.834c-0.449-0.594-2.792-1.926-4.686-0.353
		C7.758,2.312,8.375,4.366,8.375,4.366c-4.561-0.24-7.185-3.718-7.185-3.718c-1.576,2.804,1.023,4.681,1.023,4.681
		C1.468,5.305,0.65,4.896,0.65,4.896c0.023,2.817,2.72,3.466,2.72,3.466C3.153,8.603,1.902,8.506,1.902,8.506
		c0.721,2.335,3.224,2.382,3.224,2.382C3.008,12.694,0,12.357,0,12.357c2.214,1.877,8.352,2.624,12.083-0.963
		c3.73-3.586,3.266-7.927,3.266-7.927c1.106-0.786,1.748-1.812,1.748-1.812c-0.609,0.353-1.925,0.527-1.925,0.527
		C16.294,1.46,16.599,0.259,16.599,0.259z"/>
	<path fill="#FFFFFF" d="M-36.798,0.682c-0.989,0.988-0.898,2.291-0.898,2.291v1.993h-2.15v2.466h2.16v6.395h2.578V7.444h2.131
		l0.312-2.478h-2.431V3.365c0-0.112-0.029-0.565,0.247-0.883c0.277-0.317,0.865-0.305,0.865-0.305h1.401v-2.224
		C-34.479-0.213-35.81-0.308-36.798,0.682z"/>
	<g>
		<circle fill="#FFFFFF" cx="-21.568" cy="1.731" r="1.672"/>
		<rect x="-23.023" y="4.664" fill="#FFFFFF" width="2.887" height="9.26"/>
		<path fill="#FFFFFF" d="M-11.277,4.664c-2.134-0.594-3.538,0.094-4.281,1.31v-1.31h-2.768v9.26h2.876V9.146
			c0,0-0.108-2.161,1.621-2.161c1.727,0,1.606,1.634,1.606,2.173v4.765h2.902V8.903C-9.321,8.903-9.146,5.256-11.277,4.664z"/>
	</g>
</g>
</svg>
